<svg width="103" height="123" viewBox="0 0 103 123" fill="none" xmlns="http://www.w3.org/2000/svg">
<mask id="mask0" mask-type="alpha" maskUnits="userSpaceOnUse" x="0" y="0" width="103" height="123">
<rect x="0.871094" y="0.223816" width="102.017" height="122.382" fill="#C4C4C4"/>
</mask>
<g mask="url(#mask0)">
<path d="M79.7059 114.995L9.30816 73.0549C7.06772 71.7874 5.14454 69.7026 7.33015 68.3404L77.9786 27.2766C79.04 26.6132 80.6499 26.1789 81.727 26.8106L155.623 70.0659C157.863 71.3768 158.266 75.0409 156.014 76.3558L88.985 114.928C87.5775 115.751 85.9814 116.191 84.3543 116.202C82.7271 116.214 81.125 115.798 79.7059 114.995V114.995Z" fill="#90CAF9"/>
<path d="M71.1378 68.1431L82.8297 72.5653C82.8297 72.5653 83.3193 72.8852 83.0059 73.6512C82.8258 74.0894 81.8583 74.7212 81.8583 74.7212L71.7645 80.6439C71.2127 80.8918 70.626 81.0517 70.0255 81.1177C69.2186 81.1651 67.8673 80.5057 67.8673 80.5057L58.4668 75.0173L71.1378 68.1431Z" fill="#34323D"/>
<path d="M71.3045 67.5981L82.4754 72.202C82.4754 72.202 83.2587 72.6324 83.0511 73.2168C82.8278 73.6512 82.4797 74.0076 82.0523 74.2394L71.9312 80.1029C71.3794 80.3508 70.7926 80.5107 70.1921 80.5767C69.3852 80.6241 68.0339 79.9647 68.0339 79.9647L59.1309 74.8593L71.3045 67.5981Z" fill="#435950"/>
<path d="M40.9884 85.8597C40.7753 85.9511 40.5388 85.9709 40.3137 85.9161C40.0886 85.8614 39.8871 85.7349 39.7389 85.5556C39.7389 85.5556 39.5195 85.5122 39.5195 84.5448V39.6628C39.5314 39.2744 39.6245 38.8929 39.7925 38.5432C39.9606 38.1935 40.1999 37.8835 40.4948 37.6333C41.5865 36.8627 42.7246 36.1612 43.9025 35.5327L93.392 6.73274L93.9482 6.44845C94.1356 6.35464 94.3502 6.33173 94.5529 6.38391C94.7556 6.43608 94.933 6.55986 95.0528 6.73274C95.1978 6.98151 95.2811 7.2619 95.2956 7.55007C95.3152 8.01994 95.2956 12.5567 95.2956 12.5567V52.9493C95.2957 53.3371 95.2157 53.7207 95.0606 54.0755C94.9055 54.4304 94.6787 54.7488 94.3948 55.0104L40.9884 85.8597Z" fill="#334C42"/>
<path d="M40.4277 79.0683V40.3301C40.4277 39.0429 40.604 38.3243 41.6028 37.7873L93.795 7.30922C93.8977 7.23222 94.0197 7.18559 94.1473 7.17455C94.2748 7.1635 94.4029 7.18848 94.5172 7.24669C94.6314 7.3049 94.7274 7.39403 94.7942 7.50411C94.861 7.61418 94.8962 7.74084 94.8956 7.8699L94.7664 47.7018L40.4277 79.0683Z" fill="#17619E"/>
<path d="M47.4199 69.5091V41.0803C47.4199 40.1366 47.5492 39.6075 48.2699 39.2127L86.5925 16.8408C86.667 16.7854 86.7552 16.7516 86.8474 16.743C86.9397 16.7344 87.0325 16.7513 87.1159 16.7919C87.1993 16.8325 87.2701 16.8953 87.3208 16.9735C87.3714 17.0517 87.3999 17.1423 87.4033 17.2356L87.3092 46.4541L47.4199 69.5091Z" fill="#68E1FD"/>
<path d="M86.5925 16.825L48.2699 39.1969C47.5492 39.5918 47.4199 40.1209 47.4199 41.0645V43.8561L87.3719 20.9551V17.2515C87.3704 17.1605 87.345 17.0716 87.2982 16.9938C87.2514 16.9161 87.185 16.8522 87.1057 16.8089C87.0264 16.7655 86.9371 16.7441 86.8469 16.747C86.7567 16.7498 86.6689 16.7767 86.5925 16.825V16.825Z" fill="white"/>
<path d="M49.9373 40.8241C50.0248 40.264 49.8566 39.772 49.5618 39.7252C49.2669 39.6784 48.9569 40.0945 48.8694 40.6545C48.7819 41.2146 48.95 41.7066 49.2449 41.7534C49.5398 41.8002 49.8498 41.3841 49.9373 40.8241Z" fill="#68E1FD"/>
<path d="M51.8709 39.7807C51.9584 39.2206 51.7902 38.7286 51.4953 38.6818C51.2005 38.635 50.8905 39.0511 50.803 39.6112C50.7155 40.1712 50.8836 40.6632 51.1785 40.71C51.4734 40.7569 51.7834 40.3408 51.8709 39.7807Z" fill="#68E1FD"/>
<path d="M53.7986 38.6781C53.8861 38.118 53.718 37.6261 53.4231 37.5792C53.1282 37.5324 52.8182 37.9485 52.7307 38.5086C52.6432 39.0686 52.8113 39.5606 53.1062 39.6074C53.4011 39.6542 53.7111 39.2382 53.7986 38.6781Z" fill="#68E1FD"/>
<path opacity="0.32" d="M98.9229 80.5095L97.7753 79.325L82.6875 87.0442C85.6526 88.6749 87.4582 90.2977 90.5212 91.7428L100.384 85.4648L103.404 83.3208L98.9229 80.5095Z" fill="url(#paint0_linear)"/>
<path d="M93.647 36.3382V34.4746C93.647 34.4746 94.3521 32.7096 94.1092 32.5398C93.8664 32.37 93.2083 33.6375 93.2083 33.6375C93.2083 33.6375 92.139 31.2882 91.8492 31.2684C91.5593 31.2487 90.5605 32.5912 90.5605 33.1558C90.5605 33.7204 91.387 34.9326 91.6064 35.2445C91.9094 35.9668 92.162 36.7096 92.3623 37.4675" fill="#FDBA45"/>
<path d="M99.3369 35.1735C99.3369 35.1735 96.5128 40.571 96.0036 40.4328C95.4944 40.2946 93.8298 35.8803 93.8298 35.8803C93.0223 36.3051 92.2378 36.773 91.4797 37.282C91.2016 37.5584 92.8231 45.4434 96.5716 45.1433C100.32 44.8432 101.405 41.3725 101.405 41.3725" fill="#EA8518"/>
<path d="M99.9081 48.9456C99.6065 48.7719 99.2893 48.5982 98.9877 48.4442C97.7147 50.758 97.0018 53.2494 96.3673 55.8001C96.2733 56.6846 96.1871 57.5651 96.1166 58.4496C95.6936 63.8194 96.567 71.973 96.708 77.3468C96.7315 78.2234 97.2094 78.1128 98.5686 77.3468C101.964 64.0761 97.9536 64.8105 99.9081 48.9456Z" fill="#FDBA45"/>
<path d="M96.6071 74.8949C96.6071 74.8949 96.803 78.1879 96.4779 78.7051C96.1528 79.2224 94.0573 81.0742 93.6617 81.315C93.2661 81.5559 92.8156 82.0534 92.9801 82.3535C93.1446 82.6536 94.5782 83.4393 95.7219 83.3366C96.8657 83.234 97.1672 81.777 97.8135 81.6349C98.4598 81.4927 99.0356 81.5046 99.2745 80.8452C99.5134 80.1858 98.452 77.0981 98.8828 75.4595C99.3137 73.8209 96.6071 74.8949 96.6071 74.8949Z" fill="#FDBA45"/>
<path d="M96.1682 81.0426C95.5925 81.236 94.6015 81.3584 94.1902 80.9004C94.0225 81.0432 93.8459 81.1751 93.6614 81.2953C93.2698 81.5203 92.8154 82.0336 92.9799 82.3337C93.1444 82.6338 94.578 83.4195 95.7217 83.3169C96.8654 83.2142 97.167 81.7572 97.8133 81.6151C98.4596 81.4729 99.0354 81.4848 99.2743 80.8254C99.3762 80.5451 99.2391 79.8106 99.0863 78.9341C98.3124 79.8811 97.3065 80.6079 96.1682 81.0426Z" fill="#475BA2"/>
<path d="M104.15 51.1962C102.975 50.5131 101.581 49.8932 101.581 49.8932C100.978 51.441 101.15 53.4468 100.954 55.0775C100.727 56.9491 100.512 58.8207 100.363 60.7001C99.9397 66.07 100.813 74.2236 100.954 79.5974C100.978 80.474 101.455 80.3634 102.815 79.5974C106.222 66.3267 102.211 67.0611 104.15 51.1962Z" fill="#FDBA45"/>
<path d="M99.3757 76.798C100.884 76.9678 102.811 77.5443 104.272 77.1336C104.475 73.2997 105.294 53.8101 105.227 52.6295C105.079 49.9091 103.175 46.6634 103.175 46.6634L97.8795 46.1501C97.8795 46.1501 96.0111 49.7274 95.7839 51.9702C95.6938 52.8744 94.8243 71.8269 94.8361 75.1554C96.2077 76.0398 97.7593 76.6012 99.3757 76.798V76.798Z" fill="#68E1FD"/>
<path d="M100.861 77.1415C100.861 77.1415 101.057 80.4345 100.732 80.9517C100.407 81.469 98.3112 83.3208 97.9156 83.5617C97.52 83.8025 97.0695 84.3 97.234 84.6001C97.3985 84.9002 98.8321 85.6859 99.9758 85.5833C101.12 85.4806 101.421 84.0236 102.067 83.8815C102.714 83.7394 103.29 83.7512 103.528 83.0918C103.767 82.4324 102.706 79.3447 103.137 77.7061C103.568 76.0675 100.861 77.1415 100.861 77.1415Z" fill="#FDBA45"/>
<path d="M100.422 83.2893C99.8464 83.4827 98.8554 83.6051 98.4441 83.1471C98.2764 83.2899 98.0998 83.4218 97.9154 83.542C97.5237 83.767 97.0693 84.2803 97.2338 84.5804C97.3983 84.8805 98.8319 85.6662 99.9756 85.5636C101.119 85.4609 101.421 84.0039 102.067 83.8618C102.714 83.7196 103.289 83.7315 103.528 83.0721C103.63 82.7918 103.493 82.0573 103.34 81.1808C102.566 82.1278 101.56 82.8546 100.422 83.2893V83.2893Z" fill="#475BA2"/>
<path d="M107.784 43.3586V43.2757C107.477 41.629 106.995 40.0206 106.346 38.4783C106.045 37.6886 105.296 37.0371 104.697 36.4686C103.896 35.7018 103.042 34.9945 102.14 34.3522C102.14 34.3522 100.33 34.7905 99.339 35.1735C98.6496 35.442 98.3676 36.358 98.113 36.9661C97.686 38.0243 96.8948 39.1101 96.9144 40.3183C96.9498 41.1913 97.0453 42.0607 97.2003 42.9203C97.4079 44.2352 97.6665 45.5421 97.9563 46.8411C97.9563 46.8411 101.654 47.1373 103.264 46.9043L103.604 43.485C103.604 43.485 104.689 48.8627 105.12 51.753L105.226 52.6296L107.897 52.8033C108.094 51.2626 108.153 49.7073 108.074 48.156C108.084 46.5521 107.987 44.9494 107.784 43.3586Z" fill="#FF9A22"/>
<path d="M98.5571 29.922C98.5571 29.922 98.1576 34.135 99.8379 34.7431C101.518 35.3512 102.607 33.2664 102.607 33.2664C102.607 33.2664 103.187 30.4432 102.674 29.7957C102.161 29.1481 99.5598 28.7967 98.5571 29.922Z" fill="#FDBA45"/>
<path d="M99.7769 30.2615C99.4114 30.5647 98.9788 30.7747 98.5157 30.8736C97.9321 30.9288 97.6109 30.0839 97.5286 29.6337C97.4464 29.1836 97.8811 27.6595 100.552 27.5727C103.224 27.4858 104.798 29.768 104.798 31.1263C104.798 32.4845 104.638 35.9078 104.638 35.9078C103.468 35.857 102.303 35.725 101.152 35.513C101.152 35.513 102.045 32.4174 101.857 31.4579C101.669 30.4985 99.7769 30.2615 99.7769 30.2615Z" fill="#475BA2"/>
<path opacity="0.57" d="M84.6267 41.6528V27.9161L75.3477 33.3058V47.0108L84.6267 41.6528Z" fill="white"/>
<path opacity="0.57" d="M59.7927 55.3619V41.6252L50.5137 47.0109V60.716L59.7927 55.3619Z" fill="white"/>
<path opacity="0.32" d="M71.3897 91.2967L70.2421 90.1122L55.1504 97.8156C58.1155 99.4463 59.9211 101.069 62.9841 102.514L72.8389 96.2559L75.8588 94.1119L71.3897 91.2967Z" fill="url(#paint1_linear)"/>
<path d="M49.2111 53.0876C49.5205 53.2297 49.8221 53.3758 50.1276 53.5219C49.8887 53.3719 49.6497 53.2139 49.4226 53.0441C49.1954 52.8744 48.8585 52.4953 48.9095 52.1834C48.9839 51.7135 49.7908 52.132 50.394 52.5111C49.9748 52.1439 49.6302 51.7214 50.0023 51.5595C50.3744 51.3976 50.7504 51.8596 50.9736 52.0175C51.3653 52.3018 51.757 52.6059 52.1213 52.9296C51.8598 52.5806 51.6267 52.2109 51.4241 51.8241C51.2087 51.4608 51.7453 51.1607 52.0077 51.4292C52.7501 52.2432 53.5499 53.002 54.4009 53.6996C54.4406 53.7294 54.4739 53.767 54.4988 53.8101H55.0198C55.1764 53.8101 55.3214 53.8101 55.4663 53.8101H55.5916C55.6442 53.799 55.6988 53.8014 55.7501 53.8173C55.8015 53.8332 55.8481 53.862 55.8854 53.901C55.9537 53.9241 56.0193 53.9546 56.0812 53.9918C56.1012 54.0055 56.1196 54.0214 56.1361 54.0392C56.3084 54.0392 56.4808 54.0707 56.6492 54.0944C56.7057 54.1067 56.7588 54.1313 56.8047 54.1666C56.8506 54.202 56.8882 54.2471 56.9147 54.2988C56.9413 54.3505 56.9562 54.4075 56.9584 54.4657C56.9606 54.5239 56.9499 54.5818 56.9273 54.6354L56.9978 54.5959C57.3895 54.355 57.6911 54.9907 57.3072 55.2395C56.4918 55.744 55.5535 56.0105 54.5967 56.0094C54.5918 56.0528 54.5701 56.0924 54.5364 56.1198C54.5027 56.1471 54.4596 56.16 54.4166 56.1555C53.4012 56.1287 52.3949 55.9559 51.428 55.6422C51.3074 55.6084 51.1906 55.5621 51.0794 55.504C50.5021 55.2646 49.9716 54.9237 49.5127 54.4972C49.4809 54.4665 49.4602 54.4259 49.4541 54.382C49.448 54.3381 49.4567 54.2934 49.4789 54.255C49.501 54.2167 49.5354 54.1871 49.5763 54.1708C49.6173 54.1546 49.6625 54.1527 49.7046 54.1655L49.873 54.2168C49.7633 54.1537 49.6537 54.0944 49.5479 54.0273C49.2816 53.8575 48.9643 53.6522 48.9212 53.3126C48.9119 53.2747 48.9137 53.2348 48.9265 53.1979C48.9393 53.1609 48.9625 53.1285 48.9932 53.1047C49.0239 53.0808 49.0609 53.0665 49.0996 53.0634C49.1383 53.0604 49.177 53.0688 49.2111 53.0876V53.0876Z" fill="#FCBF81"/>
<path d="M62.4567 48.7127C62.5977 48.6693 61.3482 46.9359 61.2463 46.774C60.6448 45.8111 60.0957 44.8159 59.6013 43.7929C59.5848 43.761 59.5605 43.7339 59.5308 43.714C59.4391 43.5183 59.3358 43.3284 59.2213 43.1454C59.1944 43.0964 59.1521 43.0577 59.1011 43.0356C59.05 43.0134 58.9931 43.009 58.9393 43.023C58.8855 43.0371 58.8378 43.0687 58.8038 43.113C58.7698 43.1573 58.7513 43.2117 58.7513 43.2678C58.717 43.8486 58.8533 44.4268 59.143 44.9301C59.0216 45.0683 58.8845 45.2144 58.7513 45.3683C58.769 45.3808 58.7824 45.3986 58.7894 45.4192C58.7965 45.4397 58.7968 45.462 58.7905 45.4829C58.7624 45.5673 58.72 45.6461 58.6651 45.7158C58.6347 45.7664 58.5964 45.8118 58.5516 45.8501C58.5326 45.8658 58.5094 45.8755 58.485 45.8777C58.4596 45.9945 58.4608 46.1157 58.4886 46.2319C58.5165 46.3482 58.5701 46.4566 58.6456 46.5489C58.5409 46.7768 58.5242 47.0358 58.5986 47.2754V47.307H58.6377C58.9659 47.4982 59.2788 47.7147 59.5739 47.9546C59.586 47.9678 59.5949 47.9838 59.5998 48.0011C59.6047 48.0185 59.6055 48.0367 59.602 48.0544C59.5986 48.0721 59.5911 48.0888 59.58 48.103C59.569 48.1172 59.5548 48.1286 59.5386 48.1362C59.7777 48.2524 60.0237 48.354 60.275 48.4402C60.3022 48.4522 60.3315 48.4584 60.3611 48.4584C60.3908 48.4584 60.4201 48.4522 60.4473 48.4402C60.4786 48.4718 60.51 48.5034 60.5452 48.535C60.5763 48.5662 60.6149 48.5888 60.6572 48.6005C60.6995 48.6123 60.744 48.6128 60.7866 48.6021C60.8292 48.5914 60.8682 48.5697 60.9001 48.5393C60.9319 48.5089 60.9554 48.4707 60.9682 48.4284C60.9729 48.3983 60.9729 48.3677 60.9682 48.3376L61.0583 48.4402C61.0473 48.4818 61.0454 48.5253 61.053 48.5676C61.0605 48.6099 61.0772 48.6501 61.1019 48.6852C61.1266 48.7202 61.1587 48.7494 61.1958 48.7705C61.233 48.7917 61.2743 48.8043 61.3168 48.8074C61.3902 48.817 61.4644 48.7983 61.5246 48.7551C61.5849 48.7119 61.6268 48.6474 61.6419 48.5745C61.6483 48.5366 61.6483 48.4979 61.6419 48.46L61.8339 48.7561C61.8414 48.7671 61.8519 48.7757 61.864 48.7809C61.8762 48.7862 61.8896 48.7879 61.9027 48.7858C61.9158 48.7837 61.928 48.778 61.938 48.7693C61.948 48.7605 61.9553 48.7491 61.9592 48.7364C61.9615 48.7273 61.9615 48.7178 61.9592 48.7087C62.061 48.8781 62.1501 49.055 62.2256 49.2378C63.5181 51.1607 62.4919 48.7798 62.4567 48.7127ZM61.3443 48.6574C61.3043 48.6565 61.2661 48.6407 61.2371 48.6129C61.2082 48.5852 61.1905 48.5475 61.1876 48.5074C61.2245 48.5165 61.2629 48.5174 61.3001 48.5099C61.3373 48.5024 61.3725 48.4867 61.403 48.4639V48.4639C61.4093 48.4714 61.4171 48.4774 61.4259 48.4815C61.4347 48.4857 61.4442 48.4878 61.4539 48.4878C61.4636 48.4878 61.4732 48.4857 61.482 48.4815C61.4908 48.4774 61.4986 48.4714 61.5049 48.4639C61.5049 48.4639 61.5049 48.4639 61.5049 48.4639C61.5095 48.4873 61.5089 48.5115 61.5032 48.5346C61.4975 48.5578 61.4867 48.5794 61.4718 48.5979C61.4568 48.6164 61.4379 48.6313 61.4166 48.6416C61.3952 48.6519 61.3719 48.6573 61.3482 48.6574H61.3443Z" fill="#FCBF81"/>
<path d="M62.1204 48.6653C61.8483 48.4475 61.6196 48.1795 61.4467 47.8756C61.4133 47.8129 61.3676 47.7576 61.3125 47.7131C61.2573 47.6686 61.1938 47.6358 61.1258 47.6167C61.0578 47.5975 60.9866 47.5924 60.9166 47.6016C60.8466 47.6108 60.7791 47.6341 60.7182 47.6703C60.6995 47.5302 60.6904 47.3891 60.6908 47.2478C60.6908 46.5331 59.5745 46.5213 59.5862 47.2478C59.5636 47.806 59.7127 48.3577 60.0132 48.8272C60.3472 49.2546 60.7545 49.6183 61.2156 49.9011C61.297 49.9473 61.3884 49.9724 61.4818 49.9745C61.5751 49.9765 61.6675 49.9553 61.7508 49.9127C61.834 49.8702 61.9056 49.8076 61.9591 49.7305C62.0127 49.6534 62.0466 49.5642 62.0578 49.4708L62.1087 49.4313C62.2067 49.3289 62.2624 49.1928 62.2646 49.0506C62.2668 48.9084 62.2152 48.7706 62.1204 48.6653V48.6653Z" fill="#FCBF81"/>
<path d="M60.4195 48.9733C60.0664 48.7492 59.7935 48.4173 59.6406 48.0259C59.4877 47.6346 59.4628 47.2043 59.5695 46.7977C59.5737 46.789 59.5758 46.7796 59.5758 46.77C59.5758 46.7604 59.5737 46.751 59.5695 46.7424L59.1974 46.079C59.1426 45.9803 59.0799 45.8816 59.0329 45.779C58.9546 45.6013 58.8566 44.9142 59.3502 45.2025C59.5289 45.3884 59.6794 45.5999 59.7967 45.8303C59.9377 46.0356 60.0709 46.2488 60.1884 46.4581C60.2354 46.5331 60.3568 46.4581 60.3098 46.391C60.0669 45.9987 59.8058 45.6157 59.5264 45.242C59.4011 45.0682 59.2679 44.8866 59.0329 44.9972C58.9426 45.0344 58.8676 45.1018 58.8206 45.188C58.7736 45.2742 58.7572 45.3741 58.7744 45.471C58.6882 45.6368 58.508 45.7632 58.4767 45.9566C58.4734 46.1536 58.5309 46.3468 58.6412 46.5094L58.7039 46.616C58.6931 46.6239 58.6849 46.6349 58.6804 46.6476C58.602 46.8608 58.4571 47.0977 58.6177 47.3031C58.6888 47.384 58.7721 47.4533 58.8645 47.5084L59.3071 47.8085C59.3142 47.8135 59.3222 47.817 59.3307 47.8187C59.3392 47.8204 59.3479 47.8204 59.3564 47.8185C59.3649 47.8166 59.3729 47.813 59.3799 47.8079C59.3869 47.8028 59.3928 47.7963 59.3972 47.7887C59.5365 48.33 59.87 48.7999 60.3333 49.1075C60.4234 49.1391 60.4939 49.0246 60.4195 48.9733ZM58.7117 46.2567C58.6704 46.1849 58.6509 46.1025 58.6558 46.0196C58.6607 45.9367 58.6897 45.8572 58.7391 45.7908C58.7744 45.7434 58.8096 45.7 58.841 45.6565C58.9956 46.0576 59.1981 46.4382 59.4442 46.7898V46.8371C59.4334 46.8291 59.4203 46.8248 59.4069 46.8248C59.3936 46.8248 59.3805 46.8291 59.3697 46.8371C59.0446 46.999 58.79 46.4699 58.7117 46.2567ZM58.8684 47.311C58.8142 47.2824 58.7704 47.2371 58.7436 47.1817C58.7169 47.1262 58.7084 47.0636 58.7195 47.003C58.7434 46.9079 58.7761 46.8154 58.8175 46.7266C58.9624 46.9201 59.1661 47.078 59.4011 46.9595C59.3573 47.1957 59.3573 47.438 59.4011 47.6742C59.217 47.5597 59.0329 47.4373 58.8605 47.311H58.8684Z" fill="#34323D"/>
<path d="M68.2407 51.3384C68.2407 51.3384 65.0171 51.5081 64.1946 50.7184C63.372 49.9288 62.1461 47.4886 62.1461 47.4886C62.1461 47.4886 59.9252 48.9259 59.7959 49.755C59.6667 50.5842 62.1186 54.5879 63.1958 54.8564" fill="#4D47C4"/>
<path d="M73.1291 91.3875C73.1291 91.3875 70.3873 90.1675 69.7489 90.1161C69.1104 90.0648 67.998 90.2938 68.9655 91.506C68.9655 91.506 71.8326 93.3973 72.2087 93.4565C72.5847 93.5158 73.5051 93.2275 73.5286 93.3262C73.5521 93.425 73.6383 94.1554 73.6383 94.1554C73.6383 94.1554 76.0354 95.0754 76.1373 93.4605C76.1373 93.2512 75.7926 90.2504 75.7926 90.2504" fill="#34323D"/>
<path d="M76.2555 84.3237C75.7816 81.2202 74.916 78.2115 74.5517 75.0685C74.3245 73.0943 74.16 71.1201 73.9211 69.1459C73.6822 67.1716 72.9497 65.2606 72.4797 63.3061C72.4673 63.2607 72.4702 63.2124 72.488 63.1689C72.5057 63.1253 72.5372 63.0889 72.5776 63.0653C72.5541 62.9981 72.5345 62.9271 72.5149 62.8599C72.2721 62.627 72.0253 62.4059 71.7864 62.1966L68.4375 64.4709C68.4375 64.4709 68.4571 66.5399 68.5628 69.5328C68.9545 71.278 69.2483 72.8377 69.687 74.4921C69.6392 74.5444 69.605 74.6078 69.5872 74.6767C69.5695 74.7455 69.5687 74.8177 69.5851 74.8869C70.6747 80.1017 71.4685 85.3748 71.9627 90.6807C71.9694 90.7684 72.0011 90.8522 72.0539 90.9222C72.1067 90.9923 72.1784 91.0455 72.2604 91.0755L72.3544 91.8929C75.2685 93.0261 75.9069 91.0518 75.9069 91.0518C75.9069 91.0518 76.0401 89.3698 76.2046 87.0323C76.2595 86.1163 76.2751 85.22 76.2555 84.3237Z" fill="#68E1FD"/>
<path d="M67.1727 95.9164L65.5512 96.5205C65.5032 96.6692 65.4177 96.8027 65.303 96.9079C65.1883 97.0132 65.0484 97.0865 64.897 97.1207C64.8395 97.1898 64.7585 97.2348 64.6699 97.247C64.0132 97.2936 63.3547 97.1854 62.7467 96.9311C61.9633 96.6863 58.9434 95.5176 59.7855 97.7208C60.3378 98.1157 60.9606 98.4513 61.5207 98.7988C61.838 98.9922 62.1592 99.1936 62.4843 99.3674C62.6567 99.486 62.8472 99.5754 63.0483 99.6319C63.4831 99.699 64.5406 99.3674 64.568 99.4819C64.5954 99.5964 64.6934 100.437 64.6934 100.437C64.6934 100.437 67.4352 101.496 67.5683 99.6477C67.584 99.3634 67.1727 95.9164 67.1727 95.9164Z" fill="#34323D"/>
<path d="M69.4477 79.2224C69.7845 73.734 69.9725 68.2141 71.1202 62.8166C71.1711 61.4149 72.072 62.3112 72.0093 61.7544C71.5197 57.2414 64.9942 62.6113 64.9942 62.6113C64.7318 62.8284 64.6965 64.2143 64.6456 64.5263C64.3505 66.2609 64.0986 68.0009 63.8897 69.7461C62.8086 78.563 63.2081 87.3325 63.6507 96.177C65.0373 97.6064 65.946 98.0328 68.1786 97.1089C68.6251 91.3204 69.0482 85.532 69.4163 79.7357L69.4477 79.2224Z" fill="#68E1FD"/>
<path d="M65.9607 51.9385C66.0234 51.6542 66.7441 51.4608 66.9713 51.3423C67.4766 51.0659 67.1828 50.5842 67.6763 50.2841C68.3954 49.8621 69.1442 49.4939 69.9168 49.1825H69.9364C71.1741 49.1825 73.25 49.1114 73.3754 50.7619C73.5673 53.3284 73.344 55.8949 73.1482 58.4456C73.0698 59.4722 72.9798 60.4909 72.8897 61.4938C72.8583 61.861 72.8113 64.8224 72.592 64.9132C70.1361 65.9398 66.9948 65.5765 64.5898 64.617C64.7211 60.3615 65.1794 56.1226 65.9607 51.9385V51.9385Z" fill="#695DD8"/>
<path d="M68.1647 54.5287C68.0908 55.3827 67.7585 56.1932 67.2128 56.8506C66.6671 57.508 65.9343 57.9807 65.1135 58.2047C65.1135 58.3745 65.0626 59.4169 65.043 59.5867C67.0014 59.1129 68.4506 56.6293 68.6543 54.5287C68.6895 54.2128 68.196 54.2128 68.1647 54.5287Z" fill="#34323D"/>
<path d="M69.3603 44.0061C69.1997 44.0496 67.8249 47.232 68.3654 49.1628C68.906 51.0936 72.1609 49.1075 72.9795 47.6348C73.7981 46.162 72.4429 43.1888 69.3603 44.0061Z" fill="#FCBF81"/>
<path d="M69.4081 44.4365C69.41 44.7319 69.4969 45.0204 69.6582 45.2671C69.8195 45.5138 70.0482 45.708 70.3168 45.8264C71.2294 46.1659 71.9854 46.3949 71.9384 46.8214C71.8914 47.2478 70.2894 46.7621 70.2854 47.7335C70.2856 48.3887 70.3739 49.0408 70.5479 49.6721C70.6497 50.1499 73.3837 48.689 74.2846 46.1936C75.1854 43.6981 72.9293 43.0348 72.8197 43.0348C72.71 43.0348 72.5063 42.3399 71.3978 42.099C70.2894 41.8582 69.9799 42.2885 69.9799 42.2885C69.7281 42.1357 69.4336 42.0703 69.1414 42.1024C68.8492 42.1345 68.5755 42.2623 68.3623 42.4662C67.3399 43.2836 67.6024 44.7761 68.7539 45.3802L69.4081 44.4365Z" fill="#34323D"/>
<path d="M68.1721 50.0078C68.1721 50.0078 62.5397 53.2613 60.5108 53.2652C59.0458 53.2652 56.1474 52.7875 54.6355 52.519C53.2411 53.7035 53.1471 55.7962 54.0127 57.3953C56.4725 57.7902 63.7578 58.8563 66.0414 57.7151C68.8067 56.3332 71.8501 54.4814 71.8501 54.4814C71.8501 54.4814 74.6154 51.7569 68.1721 50.0078Z" fill="#695DD8"/>
</g>
<defs>
<linearGradient id="paint0_linear" x1="88.2612" y1="88.4064" x2="97.1948" y2="82.6441" gradientUnits="userSpaceOnUse">
<stop stop-color="#25B000"/>
<stop offset="1" stop-color="#0E4500"/>
</linearGradient>
<linearGradient id="paint1_linear" x1="3168.46" y1="3134.58" x2="3444.59" y2="2851.25" gradientUnits="userSpaceOnUse">
<stop stop-color="#25B000"/>
<stop offset="1" stop-color="#0E4500"/>
</linearGradient>
</defs>
</svg>
