<svg width="96" height="23" viewBox="0 0 96 23" fill="none" xmlns="http://www.w3.org/2000/svg">
<path d="M34.5745 10.0288L36.9297 8.55807C36.0465 7.34913 33.9327 4.74652 31.2184 4.02822C30.8215 3.92292 30.3941 3.85173 30.3941 3.85173C27.9211 3.23403 25.8662 4.14588 25.3893 4.32237C24.7734 4.55357 22.4995 5.48071 21.0911 7.55797C20.7648 8.05371 20.4792 8.57507 20.2373 9.11695C19.7839 10.1388 19.6014 10.9865 19.4719 11.5878C19.4197 11.8208 19.3804 12.0564 19.3541 12.2937C19.3116 12.7241 19.3116 13.1576 19.3541 13.588C19.4028 14.2844 19.5211 14.9742 19.7074 15.647C19.8529 16.1939 20.0501 16.7257 20.2962 17.2354C20.6502 17.963 21.1062 18.6365 21.6504 19.2356C22.2487 19.887 22.9438 20.4426 23.7112 20.8828C24.5741 21.3883 25.5065 21.7649 26.4786 22.0005C27.0774 22.1476 28.0883 22.3882 29.4226 22.2947C30.4168 22.2208 31.3918 21.9822 32.3077 21.5887C33.0899 21.2846 33.8238 20.8685 34.4862 20.3533C35.1303 19.8474 35.5407 19.3691 35.9582 18.8826C36.3756 18.3961 36.6842 17.9549 37.3124 17.0589C37.4561 16.8542 37.6363 16.5936 37.8423 16.2353C38.0542 15.8804 38.2317 15.5061 38.3723 15.1175C38.4449 14.9058 38.5039 14.6897 38.5489 14.4704C38.7573 13.5003 39.1648 12.4461 39.3143 12.0584C39.6658 11.1538 40.1414 10.3025 40.7274 9.52875C41.2874 8.80515 42.1676 7.66798 43.7892 6.9991C44.8036 6.57636 45.9093 6.41932 47.0015 6.54286C48.0937 6.6664 49.1362 7.06642 50.0304 7.70505C50.7577 8.18131 51.379 8.80211 51.8557 9.52875C52.1966 10.055 52.4548 10.6304 52.6211 11.2348C52.8206 12.0023 52.8804 12.7993 52.7978 13.588C52.7178 14.3847 52.4986 15.1613 52.1501 15.8823C51.924 16.3494 51.5248 17.1542 50.6781 17.8825C49.8108 18.629 48.9376 18.8955 48.3818 19.0591C47.1158 19.4306 45.7724 19.451 44.4957 19.1179C43.5182 18.8506 42.6129 18.3682 41.8462 17.706C41.2763 17.204 40.7982 16.6068 40.433 15.9411L38.0779 17.4707C38.102 17.5125 38.1668 17.6254 38.2545 17.7648C38.2545 17.7648 39.3291 19.4791 41.1985 20.7651C41.3669 20.8828 41.5518 21.0005 41.5518 21.0005C41.5518 21.0005 42.0322 21.3111 42.435 21.5299C42.9142 21.7905 43.9164 22.1417 45.0845 22.2947C46.0439 22.4176 47.0161 22.3978 47.9696 22.2359C48.4996 22.1464 49.4004 21.9876 50.4426 21.4711C51.1795 21.1076 51.8549 20.6312 52.4445 20.0592C52.4516 20.0521 52.4763 19.9968 52.5034 20.0004C52.5305 20.0039 52.5534 20.0939 52.5623 20.1768C52.584 20.2698 52.6041 20.368 52.6211 20.471C52.6507 20.6462 52.6703 20.823 52.68 21.0005C52.6941 21.0593 52.7136 21.1399 52.7389 21.2358C52.7783 21.3852 52.8237 21.5446 52.8567 21.6476C52.9361 21.8903 53.0345 22.1263 53.1511 22.3535H56.6838L56.5661 22.177C56.4642 21.9953 56.3647 21.7994 56.2717 21.5887C55.9437 20.8432 55.7446 20.0476 55.6829 19.2356C55.6517 18.6938 55.6158 17.8554 55.624 16.8236C55.6317 15.8682 55.6705 15.5429 55.6829 14.7057C55.7041 13.3179 55.7164 12.4661 55.5651 11.5289C55.3636 10.2987 54.9236 9.11971 54.2698 8.05802C53.5238 6.86765 52.5172 5.86192 51.3258 5.11656C50.125 4.38413 48.7787 3.92236 47.3808 3.76349C46.7079 3.68525 45.2229 3.52817 43.4359 4.11646C41.9875 4.59239 41.0336 5.34305 40.433 5.82251C39.7043 6.40549 39.0515 7.07746 38.49 7.82271C37.8759 8.63749 37.522 9.34168 37.2535 9.88173C36.9591 10.4759 36.7389 11.0507 36.3115 12.1761C35.6591 13.8951 35.7727 13.7727 35.4872 14.4116C35.161 15.1422 34.7217 16.1106 33.8385 17.1177C33.4264 17.5884 32.9218 18.1561 32.0721 18.6473C30.5969 19.4454 28.8863 19.6955 27.244 19.3532C25.4152 18.9332 24.3153 17.8019 23.9467 17.4119C23.4671 16.9084 23.0697 16.3327 22.7691 15.7058C22.4201 14.9677 22.22 14.1681 22.1804 13.3527C22.1309 12.1484 22.463 11.2554 22.6514 10.7642C22.8516 10.2424 23.2508 9.23461 24.2411 8.29334C24.9751 7.60389 25.8633 7.09965 26.8318 6.82261C27.5026 6.63896 28.1977 6.55959 28.8926 6.58729C30.0075 6.62559 31.0972 6.92804 32.0721 7.46973C33.1233 8.07996 33.9884 8.96462 34.5745 10.0288Z" fill="#00BBFF"/>
<path d="M0 10.8525V21.705H4.09159C12.0222 21.705 15.3056 19.8374 15.3561 15.1935C15.4066 13.1744 15.154 12.4173 14.0932 11.2563L12.7294 9.84296L13.6891 8.32866C14.851 6.46102 14.9015 4.13908 13.8407 2.5743C12.4768 0.706657 10.1027 -1.90735e-05 4.79878 -1.90735e-05H0V10.8525ZM7.98112 4.34099C8.78934 4.59337 9.09242 5.04766 9.09242 6.0572C9.09242 7.52103 8.33472 8.07627 6.26367 8.07627C5.20288 8.07627 5.05134 7.87437 5.05134 6.0572C5.05134 3.93717 5.45545 3.68479 7.98112 4.34099ZM10.0017 14.0325C10.2542 15.7488 9.24396 16.6573 7.02137 16.6573C5.05134 16.6573 5.05134 16.6573 5.05134 14.5878V12.5687L7.47599 12.7201C9.49653 12.8716 9.85012 13.023 10.0017 14.0325Z" fill="black"/>
<path d="M60.6191 10.8525V21.705H63.3981H66.177V18.1716C66.177 15.0926 66.278 14.6383 67.137 14.6383C67.7938 14.6383 68.5012 15.6478 69.6633 18.1716L71.3306 21.705H74.3117H77.2927L75.2716 17.6164L73.2001 13.5782L74.4632 12.0639C76.7874 9.33819 76.8379 4.79528 74.5643 2.37239C72.9475 0.656179 70.3706 -2.09808e-05 65.0654 -2.09808e-05H60.6191V10.8525ZM69.7643 5.04766C70.8254 5.65339 71.0275 7.11721 70.2191 8.63152C69.8148 9.33819 69.158 9.59058 67.6928 9.59058H65.6717V7.06674C65.6717 4.59337 65.7223 4.54289 67.238 4.54289C68.097 4.54289 69.2085 4.79528 69.7643 5.04766Z" fill="black"/>
<path d="M79.8086 11.4161V22.3741L84.3075 22.0712C89.5141 21.7682 91.7383 20.9602 93.6087 18.7383C97.0966 14.5975 96.6922 6.1138 92.901 2.73044C91.0812 1.11451 88.6548 0.50853 84.0548 0.50853H79.8086V11.4161ZM88.7559 6.87127C89.9185 8.03273 90.0196 8.43671 89.8174 11.6686C89.6152 15.5064 89.0592 16.4154 86.4812 17.1224L84.8636 17.6273V11.5676V5.55833H86.1273C86.835 5.55833 87.9976 6.1643 88.7559 6.87127Z" fill="black"/>
</svg>
