<svg width="372" height="204" viewBox="0 0 372 204" fill="none" xmlns="http://www.w3.org/2000/svg">
<path d="M253 20H261L259.154 34L253 25.3333V20Z" fill="#B6CDEF"/>
<path d="M260 34L255.8 32.1538L253 26L260 34Z" fill="#9CB4D6"/>
<path d="M133 0L88.7516 204H-93V0H133Z" fill="#9CB4D6"/>
<path d="M-93 0H133L72.9448 39.1584L35.0138 41.8657L30.2691 70.6746L-2.91719 75.0679L20 131.393L60.2967 155.329L8.14491 204H-93V0Z" fill="#B6CDEF"/>
<path d="M73 39L65.0822 204L60.3289 155.282L43.6327 145.378L35 41.71L73 39Z" fill="#89A6C9"/>
<path d="M30 71L19.7885 131L-3 75.3413L30 71Z" fill="#89A6C9"/>
<path d="M268 2L283.601 204H439L438.82 2H268Z" fill="#9CB4D6"/>
<path d="M268 2L295 16.647L283.544 204L268 2Z" fill="#89A6C9"/>
<path d="M299 41.2434L326 41L303.087 204L299 41.2434Z" fill="#89A6C9"/>
<path d="M317 64.9424L339.995 204V102.858L363 60L317 64.9424Z" fill="#89A6C9"/>
<path d="M438.82 2H268L295.099 16.647L268 33.0854L303.314 40.7745H326.311L316.459 65.1456L362.443 60.2104L339.446 103.006L397.538 125.44L362.443 165.006L439 204L438.82 2Z" fill="#B6CDEF"/>
<path d="M352 107L363.022 204V164.759L398 124.941L352 107Z" fill="#89A6C9"/>
<path d="M268 34L283.544 204L295 39.8662L268 34Z" fill="#9CB4D6"/>
<path d="M207.955 0L225 16H107.727L124.773 0H207.955Z" fill="#B6CDEF"/>
<path d="M225 16.2L123 39L128.333 15L225 16.2Z" fill="#9CB4D6"/>
<path d="M240 8L208 0L224.327 16L240 8Z" fill="#B6CDEF"/>
<path d="M240 15L228 19.7647L239.368 24L240 15Z" fill="#B6CDEF"/>
<path d="M231.333 22.5L228 18L240 24L231.333 22.5Z" fill="#9CB4D6"/>
<path d="M232 31.9231L232.714 27L242 30.0769L236.286 35L232 31.9231Z" fill="#B6CDEF"/>
<path d="M232 34.2V31L236 35L232 34.2Z" fill="#9CB4D6"/>
</svg>
