<svg width="300" height="300" viewBox="0 0 88 86" fill="none" xmlns="http://www.w3.org/2000/svg">
<path d="M74.7213 42.8486C91.7686 52.5715 91.8575 68.3252 74.9188 78.0561C57.9801 87.7869 30.4347 87.777 13.3874 78.0561C-3.65989 68.3352 -3.75071 52.5795 13.19 42.8486C30.1306 33.1177 57.678 33.1257 74.7213 42.8486Z" fill="#F0F0F0"/>
<path d="M15.8729 65.2282L18.6114 66.8802C18.8201 67.0067 19.059 67.0736 19.3025 67.0736C19.546 67.0736 19.7849 67.0067 19.9935 66.8802L42.2593 53.4393C42.3287 53.3964 42.386 53.3363 42.4258 53.2647C42.4656 53.193 42.4865 53.1123 42.4865 53.0303C42.4865 52.9482 42.4656 52.8675 42.4258 52.7958C42.386 52.7242 42.3287 52.6641 42.2593 52.6212L39.5128 50.9692C39.3042 50.8427 39.0653 50.7758 38.8218 50.7758C38.5783 50.7758 38.3394 50.8427 38.1307 50.9692L15.8729 64.4161C15.8048 64.4593 15.7486 64.5192 15.7097 64.5902C15.6708 64.6612 15.6504 64.741 15.6504 64.8222C15.6504 64.9033 15.6708 64.9831 15.7097 65.0541C15.7486 65.1251 15.8048 65.185 15.8729 65.2282Z" fill="#E0E0E0"/>
<path d="M67.7003 61.1838C72.3007 63.8628 72.3264 68.2038 67.7556 70.8808C63.1847 73.5578 55.749 73.5598 51.1486 70.8808C46.5481 68.2018 46.5225 63.8628 51.0933 61.1838C55.6641 58.5048 63.0998 58.5068 67.7003 61.1838Z" fill="#E0E0E0"/>
<path d="M13.0922 50.5791C12.5848 50.0895 12.0023 49.5541 11.9668 48.8455C11.9688 48.5287 12.0666 48.22 12.2473 47.9607C12.4279 47.7015 12.6827 47.5039 12.9777 47.3946C13.2752 47.2933 13.5899 47.2535 13.903 47.2774C14.2161 47.3014 14.5212 47.3886 14.8001 47.5339C15.3556 47.8299 15.8507 48.229 16.2592 48.7102C17.4884 50.0872 18.3782 51.7369 18.8565 53.5255C19.3347 55.3141 19.3878 57.1912 19.0116 59.0043C18.9603 59.2432 18.8813 59.5079 18.668 59.6214C18.3284 59.8025 17.9414 59.484 17.7085 59.1755C17.2032 58.4992 16.8215 57.7376 16.5811 56.9264C16.3836 56.2397 16.4705 55.4834 16.2138 54.8365C15.5859 53.2502 14.3006 51.7435 13.0922 50.5791Z" fill="#4D95FF"/>
<path d="M13.0922 50.5791C12.5848 50.0895 12.0023 49.5541 11.9668 48.8455C11.9688 48.5287 12.0666 48.22 12.2473 47.9607C12.4279 47.7015 12.6827 47.5039 12.9777 47.3946C13.2752 47.2933 13.5899 47.2535 13.903 47.2774C14.2161 47.3014 14.5212 47.3886 14.8001 47.5339C15.3556 47.8299 15.8507 48.229 16.2592 48.7102C17.4884 50.0872 18.3782 51.7369 18.8565 53.5255C19.3347 55.3141 19.3878 57.1912 19.0116 59.0043C18.9603 59.2432 18.8813 59.5079 18.668 59.6214C18.3284 59.8025 17.9414 59.484 17.7085 59.1755C17.2032 58.4992 16.8215 57.7376 16.5811 56.9264C16.3836 56.2397 16.4705 55.4834 16.2138 54.8365C15.5859 53.2502 14.3006 51.7435 13.0922 50.5791Z" fill="#4D95FF"/>
<path d="M18.3716 58.6958C18.3538 58.6958 18.3362 58.6923 18.3197 58.6853C18.3033 58.6784 18.2884 58.6683 18.2759 58.6555C18.2634 58.6427 18.2536 58.6275 18.247 58.6109C18.2403 58.5942 18.237 58.5764 18.2373 58.5585C18.2207 56.5724 17.766 54.615 16.9061 52.828C16.0462 51.041 14.8027 49.4692 13.2657 48.2266C13.2509 48.2153 13.2385 48.2011 13.2293 48.1848C13.22 48.1686 13.2141 48.1507 13.2119 48.1321C13.2097 48.1135 13.2112 48.0947 13.2164 48.0767C13.2216 48.0588 13.2303 48.042 13.242 48.0275C13.2535 48.013 13.2678 48.0009 13.2839 47.9919C13.3001 47.9829 13.3179 47.9773 13.3362 47.9752C13.3545 47.9732 13.3731 47.9748 13.3908 47.9801C13.4085 47.9853 13.4251 47.994 13.4394 48.0056C15.0089 49.274 16.2786 50.8788 17.1563 52.7034C18.034 54.528 18.4977 56.5267 18.5137 58.5545C18.5143 58.5734 18.511 58.5922 18.504 58.6097C18.497 58.6272 18.4866 58.6431 18.4732 58.6564C18.4599 58.6697 18.444 58.68 18.4265 58.6868C18.409 58.6936 18.3903 58.6967 18.3716 58.6958Z" fill="white"/>
<path d="M16.7068 64.1255C15.8519 64.4022 14.7798 64.2211 14.2842 63.4647C13.6919 62.577 14.065 61.2077 13.2851 60.4792C12.8488 60.0811 12.2071 60.0373 11.6286 59.9179C11.0501 59.7985 10.4084 59.4741 10.3215 58.8849C10.207 58.1047 11.1587 57.4558 11.0264 56.6776C10.8941 55.8994 9.84172 55.6705 9.53173 54.9579C9.24939 54.3091 9.74892 53.5229 10.4123 53.2801C11.0757 53.0372 11.8122 53.2044 12.4717 53.4512C13.1311 53.698 13.7728 54.0245 14.4718 54.112C15.1707 54.1996 16.0395 54.0583 16.5726 54.5618C17.2873 55.2346 16.8786 56.5184 17.4295 57.3304C17.8007 57.8758 18.4976 58.0649 19.0307 58.447C19.3621 58.6896 19.631 59.0086 19.8152 59.3774C19.9993 59.7461 20.0932 60.154 20.089 60.5668C20.0713 61.4604 19.6053 62.1073 18.934 62.6208C18.2232 63.1781 17.5973 63.8389 16.7068 64.1255Z" fill="#4D95FF"/>
<path opacity="0.3" d="M16.7068 64.1255C15.8519 64.4022 14.7798 64.2211 14.2842 63.4647C13.6919 62.577 14.065 61.2077 13.2851 60.4792C12.8488 60.0811 12.2071 60.0373 11.6286 59.9179C11.0501 59.7985 10.4084 59.4741 10.3215 58.8849C10.207 58.1047 11.1587 57.4558 11.0264 56.6776C10.8941 55.8994 9.84172 55.6705 9.53173 54.9579C9.24939 54.3091 9.74892 53.5229 10.4123 53.2801C11.0757 53.0372 11.8122 53.2044 12.4717 53.4512C13.1311 53.698 13.7728 54.0245 14.4718 54.112C15.1707 54.1996 16.0395 54.0583 16.5726 54.5618C17.2873 55.2346 16.8786 56.5184 17.4295 57.3304C17.8007 57.8758 18.4976 58.0649 19.0307 58.447C19.3621 58.6896 19.631 59.0086 19.8152 59.3774C19.9993 59.7461 20.0932 60.154 20.089 60.5668C20.0713 61.4604 19.6053 62.1073 18.934 62.6208C18.2232 63.1781 17.5973 63.8389 16.7068 64.1255Z" fill="black"/>
<path d="M16.3219 58.0131L16.312 57.9992C16.1837 57.8121 16.0514 57.627 15.9171 57.4499C14.6518 55.8696 12.9357 54.7191 11.0008 54.1538C10.9831 54.1468 10.9642 54.1435 10.9452 54.1443C10.9262 54.1451 10.9076 54.1498 10.8906 54.1583C10.8735 54.1667 10.8584 54.1787 10.8462 54.1934C10.834 54.208 10.825 54.2251 10.8198 54.2435C10.8145 54.2619 10.8131 54.2812 10.8157 54.3002C10.8183 54.3192 10.8248 54.3374 10.8348 54.3537C10.8448 54.37 10.858 54.384 10.8737 54.3948C10.8893 54.4056 10.9071 54.413 10.9258 54.4165C12.8072 54.9659 14.4758 56.0845 15.7059 57.621C15.7434 57.6688 15.777 57.7225 15.8145 57.7703C14.2823 57.203 12.7185 57.5255 11.8853 58.2022C11.8704 58.2134 11.8579 58.2277 11.8487 58.2441C11.8395 58.2605 11.8337 58.2786 11.8319 58.2973C11.83 58.3161 11.8321 58.335 11.8379 58.3529C11.8437 58.3708 11.8531 58.3872 11.8656 58.4012C11.8766 58.4165 11.8906 58.4293 11.9068 58.4387C11.923 58.4482 11.9409 58.4541 11.9595 58.4562C11.9781 58.4583 11.9969 58.4564 12.0147 58.4507C12.0326 58.445 12.049 58.4356 12.063 58.4231C12.8884 57.7524 14.5923 57.4538 16.1363 58.2082C17.0968 59.6371 17.6587 61.3 17.7632 63.0229C17.7653 63.0574 17.7803 63.0898 17.8052 63.1134C17.8302 63.1371 17.8632 63.1503 17.8975 63.1502C17.9153 63.1495 17.9328 63.1451 17.9489 63.1375C17.9651 63.1299 17.9795 63.119 17.9915 63.1057C18.0034 63.0924 18.0126 63.0768 18.0185 63.0598C18.0244 63.0428 18.0269 63.0249 18.0258 63.0069C17.9163 61.2176 17.3274 59.4918 16.3219 58.0131Z" fill="white"/>
<path d="M68.678 54.942C69.0907 54.5439 69.5626 54.11 69.5902 53.5368C69.5892 53.2798 69.5101 53.0294 69.3636 52.8191C69.2171 52.6088 69.0102 52.4487 68.7708 52.3605C68.5295 52.2778 68.274 52.2452 68.0199 52.2647C67.7657 52.2842 67.5181 52.3554 67.292 52.4739C66.8403 52.7125 66.4381 53.0362 66.1073 53.4273C65.1081 54.5449 64.3849 55.8846 63.9965 57.3372C63.6081 58.7899 63.5655 60.3145 63.8722 61.7869C63.8814 61.8856 63.9111 61.9813 63.9594 62.0677C64.0077 62.1541 64.0735 62.2293 64.1526 62.2884C64.429 62.4357 64.7449 62.177 64.9305 61.9262C65.3412 61.3771 65.6508 60.7583 65.8447 60.099C66.0105 59.5437 65.9355 58.9287 66.1428 58.4052C66.6542 57.1115 67.6967 55.8874 68.678 54.942Z" fill="#4D95FF"/>
<path d="M64.3918 61.5281C64.4211 61.5281 64.4492 61.5164 64.47 61.4955C64.4907 61.4746 64.5023 61.4462 64.5023 61.4166C64.5157 59.8049 64.8848 58.2164 65.5829 56.7664C66.2809 55.3164 67.2904 54.0411 68.5381 53.0333C68.5567 53.0138 68.5678 52.9882 68.5691 52.9612C68.5704 52.9342 68.5619 52.9077 68.5453 52.8865C68.5286 52.8653 68.5049 52.8509 68.4785 52.8461C68.4521 52.8412 68.4249 52.8462 68.4018 52.8601C67.1287 53.8894 66.0988 55.1914 65.3867 56.6717C64.6747 58.152 64.2984 59.7735 64.2852 61.4186C64.2856 61.4472 64.297 61.4744 64.3168 61.4948C64.3367 61.5152 64.3635 61.5271 64.3918 61.5281Z" fill="white"/>
<path d="M65.7445 65.9328C66.4395 66.1577 67.3102 66.0104 67.7189 65.3974C68.1908 64.6769 67.8966 63.5662 68.5285 62.9831C68.8839 62.6586 69.4031 62.6248 69.8731 62.5273C70.343 62.4298 70.8603 62.169 70.9333 61.6913C71.0261 61.0564 70.2541 60.531 70.3627 59.9C70.4713 59.2691 71.3223 59.084 71.575 58.5068C71.8041 57.9793 71.3973 57.3404 70.8603 57.1454C70.3232 56.9503 69.725 57.0837 69.1899 57.2827C68.6548 57.4817 68.1336 57.7484 67.5669 57.8181C67.0002 57.8878 66.2954 57.7743 65.863 58.1843C65.2825 58.7297 65.6142 59.7766 65.166 60.4314C64.8659 60.8733 64.3012 61.0285 63.8688 61.3351C63.5994 61.5318 63.3809 61.7909 63.2314 62.0905C63.082 62.3901 63.006 62.7214 63.0099 63.0567C63.0237 63.7812 63.4048 64.3047 63.9458 64.7226C64.5164 65.1645 65.0317 65.7019 65.7445 65.9328Z" fill="#4D95FF"/>
<path opacity="0.3" d="M65.7445 65.9328C66.4395 66.1577 67.3102 66.0104 67.7189 65.3974C68.1908 64.6769 67.8966 63.5662 68.5285 62.9831C68.8839 62.6586 69.4031 62.6248 69.8731 62.5273C70.343 62.4298 70.8603 62.169 70.9333 61.6913C71.0261 61.0564 70.2541 60.531 70.3627 59.9C70.4713 59.2691 71.3223 59.084 71.575 58.5068C71.8041 57.9793 71.3973 57.3404 70.8603 57.1454C70.3232 56.9503 69.725 57.0837 69.1899 57.2827C68.6548 57.4817 68.1336 57.7484 67.5669 57.8181C67.0002 57.8878 66.2954 57.7743 65.863 58.1843C65.2825 58.7297 65.6142 59.7766 65.166 60.4314C64.8659 60.8733 64.3012 61.0285 63.8688 61.3351C63.5994 61.5318 63.3809 61.7909 63.2314 62.0905C63.082 62.3901 63.006 62.7214 63.0099 63.0567C63.0237 63.7812 63.4048 64.3047 63.9458 64.7226C64.5164 65.1645 65.0317 65.7019 65.7445 65.9328Z" fill="black"/>
<path d="M66.0582 60.9748V60.9629C66.1628 60.8116 66.2695 60.6623 66.384 60.519C67.412 59.2357 68.8074 58.303 70.3802 57.848C70.4083 57.8399 70.4383 57.8434 70.4638 57.8575C70.4893 57.8717 70.5082 57.8954 70.5165 57.9236C70.5204 57.9377 70.5215 57.9525 70.5197 57.967C70.518 57.9815 70.5134 57.9956 70.5062 58.0084C70.4991 58.0211 70.4895 58.0323 70.478 58.0413C70.4666 58.0504 70.4535 58.057 70.4395 58.0609C68.914 58.5047 67.5608 59.4108 66.5636 60.6563C66.5321 60.6962 66.5044 60.738 66.4748 60.7778C67.7167 60.316 68.9843 60.5787 69.6615 61.1281C69.6797 61.1424 69.6929 61.1621 69.6993 61.1845C69.7058 61.2068 69.7051 61.2305 69.6975 61.2525C69.6899 61.2744 69.6757 61.2934 69.6568 61.3068C69.638 61.3201 69.6155 61.3273 69.5924 61.3271C69.5671 61.3272 69.5425 61.318 69.5233 61.3012C68.854 60.7579 67.4719 60.517 66.2181 61.1281C65.4355 62.2882 64.9766 63.639 64.8893 65.0391C64.8873 65.0673 64.8748 65.0936 64.8543 65.1128C64.8337 65.132 64.8068 65.1427 64.7787 65.1426C64.7643 65.1419 64.7502 65.1382 64.7371 65.1319C64.7241 65.1255 64.7125 65.1166 64.7029 65.1057C64.6933 65.0947 64.686 65.082 64.6814 65.0682C64.6768 65.0543 64.675 65.0397 64.6761 65.0252C64.7642 63.5738 65.242 62.1738 66.0582 60.9748Z" fill="white"/>
<path d="M50.1736 11.9025C50.2645 11.8487 50.3375 11.9025 50.3375 11.998V13.1146C50.3344 13.1717 50.318 13.2273 50.2895 13.2767C50.261 13.3262 50.2213 13.3682 50.1736 13.3992C50.0828 13.4529 50.0098 13.3992 50.0098 13.3057V12.1891C50.0129 12.1317 50.0293 12.0758 50.0578 12.026C50.0862 11.9763 50.1259 11.9339 50.1736 11.9025Z" fill="#4D95FF"/>
<path d="M48.0663 14.0242C48.0849 14.0114 48.1069 14.0046 48.1295 14.0046C48.152 14.0046 48.174 14.0114 48.1926 14.0242L48.8146 14.5178C48.8738 14.5656 48.864 14.691 48.7948 14.7984C48.7689 14.8416 48.733 14.8778 48.6902 14.9039C48.6717 14.9169 48.6496 14.9239 48.627 14.9239C48.6044 14.9239 48.5824 14.9169 48.5638 14.9039L47.9419 14.4103C47.8827 14.3625 47.8905 14.2371 47.9616 14.1297C47.9878 14.0867 48.0236 14.0505 48.0663 14.0242Z" fill="#4D95FF"/>
<path d="M47.338 15.4652C47.3609 15.4549 47.3861 15.4508 47.4111 15.4533L48.2482 15.5269C48.3272 15.5269 48.3548 15.6344 48.3094 15.7518C48.2816 15.8244 48.2319 15.8863 48.1673 15.9289C48.1426 15.9449 48.1136 15.9526 48.0843 15.9508L47.2472 15.8792C47.1702 15.8792 47.1425 15.7717 47.188 15.6543C47.2145 15.5755 47.2676 15.5086 47.338 15.4652Z" fill="#4D95FF"/>
<path d="M48.1812 18.2397C48.2385 18.2059 48.2938 18.2079 48.3234 18.2517C48.3427 18.3013 48.3474 18.3555 48.3369 18.4078C48.3264 18.4601 48.3011 18.5081 48.2641 18.5463L47.4309 19.5912C47.4086 19.6199 47.3811 19.6442 47.35 19.6629C47.2927 19.6967 47.2374 19.6947 47.2058 19.6509C47.187 19.6012 47.1826 19.5471 47.193 19.495C47.2035 19.4428 47.2285 19.3947 47.2651 19.3564L48.0983 18.3114C48.1214 18.2826 48.1495 18.2583 48.1812 18.2397Z" fill="#4D95FF"/>
<path d="M47.9016 17.5133C47.9805 17.4695 48.0496 17.4934 48.0635 17.577C48.067 17.6338 48.0568 17.6907 48.0338 17.7427C48.0107 17.7947 47.9755 17.8403 47.9312 17.8755L46.9814 18.6219L46.9538 18.6418C46.8748 18.6876 46.8057 18.6637 46.7919 18.5781C46.7878 18.5212 46.7978 18.4642 46.8209 18.4121C46.844 18.36 46.8795 18.3145 46.9242 18.2796L47.8719 17.5332L47.9016 17.5133Z" fill="#4D95FF"/>
<path d="M52.2969 11.5641C52.3123 11.5533 52.3298 11.5462 52.3482 11.5431C52.3667 11.54 52.3856 11.541 52.4035 11.5462C52.4726 11.574 52.4825 11.6875 52.4253 11.8029L51.8072 13.019C51.7792 13.0772 51.7354 13.1262 51.6809 13.1603C51.6653 13.1706 51.6478 13.1775 51.6294 13.1806C51.6111 13.1837 51.5923 13.1829 51.5743 13.1783C51.5052 13.1504 51.4953 13.0349 51.5545 12.9195L52.1705 11.7054C52.198 11.6468 52.242 11.5977 52.2969 11.5641Z" fill="#4D95FF"/>
<path d="M51.3063 11.4725C51.324 11.4624 51.3434 11.4557 51.3635 11.4526C51.4484 11.4387 51.4919 11.5223 51.4623 11.6397L51.1345 12.8797C51.112 12.9684 51.0569 13.0452 50.9805 13.0947C50.9636 13.1054 50.9448 13.1128 50.9252 13.1166C50.8403 13.1305 50.7949 13.0469 50.8265 12.9295L51.1523 11.6895C51.1753 11.6005 51.2301 11.5232 51.3063 11.4725Z" fill="#4D95FF"/>
<g opacity="0.2">
<path opacity="0.2" d="M50.1736 11.9025C50.2644 11.8487 50.3375 11.9025 50.3375 11.998V13.1146C50.3344 13.1717 50.318 13.2273 50.2895 13.2767C50.261 13.3262 50.2213 13.3682 50.1736 13.3992C50.0828 13.4529 50.0098 13.3992 50.0098 13.3057V12.1891C50.0129 12.1317 50.0293 12.0758 50.0578 12.026C50.0862 11.9763 50.1259 11.9339 50.1736 11.9025Z" fill="black"/>
<path opacity="0.2" d="M48.0663 14.0242C48.0849 14.0114 48.1069 14.0046 48.1295 14.0046C48.152 14.0046 48.174 14.0114 48.1926 14.0242L48.8146 14.5178C48.8738 14.5655 48.864 14.6909 48.7948 14.7984C48.7689 14.8416 48.733 14.8778 48.6902 14.9039C48.6717 14.9169 48.6496 14.9239 48.627 14.9239C48.6044 14.9239 48.5824 14.9169 48.5638 14.9039L47.9419 14.4103C47.8827 14.3625 47.8905 14.2371 47.9616 14.1297C47.9878 14.0867 48.0236 14.0505 48.0663 14.0242Z" fill="black"/>
<path opacity="0.2" d="M47.338 15.4652C47.3609 15.4549 47.3861 15.4508 47.4111 15.4533L48.2482 15.5269C48.3272 15.5269 48.3548 15.6344 48.3094 15.7518C48.2816 15.8244 48.2319 15.8863 48.1673 15.9289C48.1426 15.9449 48.1136 15.9526 48.0843 15.9508L47.2472 15.8792C47.1702 15.8792 47.1425 15.7717 47.188 15.6543C47.2145 15.5755 47.2676 15.5086 47.338 15.4652Z" fill="black"/>
<path opacity="0.2" d="M48.1793 18.2397C48.2365 18.2059 48.2918 18.2079 48.3214 18.2517C48.3408 18.3013 48.3455 18.3555 48.335 18.4078C48.3244 18.46 48.2992 18.5081 48.2622 18.5463L47.429 19.5912C47.4066 19.6199 47.3792 19.6442 47.348 19.6628C47.2908 19.6967 47.2355 19.6947 47.2039 19.6509C47.185 19.6012 47.1806 19.5471 47.1911 19.495C47.2016 19.4428 47.2266 19.3947 47.2631 19.3563L48.0963 18.3114C48.1194 18.2826 48.1475 18.2583 48.1793 18.2397Z" fill="black"/>
<path opacity="0.2" d="M47.9015 17.5133C47.9805 17.4695 48.0496 17.4934 48.0634 17.577C48.067 17.6338 48.0568 17.6907 48.0337 17.7427C48.0107 17.7947 47.9755 17.8403 47.9312 17.8755L46.9814 18.6219L46.9538 18.6418C46.8748 18.6876 46.8057 18.6637 46.7919 18.5781C46.7878 18.5212 46.7978 18.4642 46.8209 18.4121C46.844 18.36 46.8794 18.3145 46.9242 18.2796L47.8719 17.5332L47.9015 17.5133Z" fill="black"/>
<path opacity="0.2" d="M52.2969 11.5641C52.3123 11.5533 52.3298 11.5462 52.3482 11.5431C52.3667 11.54 52.3856 11.541 52.4035 11.5462C52.4726 11.574 52.4825 11.6875 52.4253 11.8029L51.8072 13.019C51.7792 13.0772 51.7354 13.1262 51.6809 13.1603C51.6653 13.1706 51.6478 13.1775 51.6294 13.1806C51.6111 13.1837 51.5923 13.1829 51.5743 13.1783C51.5052 13.1504 51.4953 13.0349 51.5545 12.9195L52.1705 11.7054C52.198 11.6468 52.242 11.5977 52.2969 11.5641Z" fill="black"/>
<path opacity="0.2" d="M51.3063 11.4725C51.324 11.4624 51.3434 11.4557 51.3635 11.4526C51.4484 11.4387 51.4919 11.5223 51.4622 11.6397L51.1345 12.8797C51.1119 12.9684 51.0569 13.0452 50.9805 13.0947C50.9636 13.1053 50.9448 13.1128 50.9252 13.1166C50.8403 13.1305 50.7949 13.0469 50.8265 12.9295L51.1523 11.6895C51.1752 11.6005 51.2301 11.5232 51.3063 11.4725Z" fill="black"/>
</g>
<path d="M50.6953 67.525C50.9418 67.7703 51.2367 67.9606 51.5608 68.0837C51.885 68.2068 52.2311 68.2599 52.5769 68.2396C53.2658 68.1917 53.9399 68.0156 54.5652 67.7201C55.2029 67.4494 56.0006 66.6931 56.6897 66.707C57.3626 66.7019 58.0345 66.6547 58.7016 66.5657C58.7259 65.6184 58.6297 64.672 58.4153 63.7493L55.2029 63.6618C54.3361 64.8898 52.65 65.9109 51.3745 66.293C51.177 66.3528 50.9993 66.4655 50.8602 66.619C50.7212 66.7725 50.6259 66.9611 50.5847 67.1648C50.5837 67.1721 50.5837 67.1794 50.5847 67.1867C50.6077 67.3036 50.6448 67.4173 50.6953 67.525Z" fill="#455A64"/>
<path d="M56.6904 66.707C56.0013 66.6931 55.2037 67.4494 54.5659 67.7201C53.9407 68.0156 53.2666 68.1917 52.5777 68.2396C52.2319 68.2599 51.8857 68.2068 51.5616 68.0837C51.2374 67.9606 50.9426 67.7703 50.696 67.5251C50.6455 67.4173 50.6084 67.3036 50.5854 67.1867C50.5845 67.1794 50.5845 67.1721 50.5854 67.1648C50.5549 67.3105 50.5549 67.461 50.5854 67.6067C50.6084 67.7236 50.6455 67.8372 50.696 67.945C50.9423 68.1907 51.2371 68.3813 51.5613 68.5044C51.8855 68.6275 52.2318 68.6804 52.5777 68.6596C53.2664 68.6124 53.9406 68.4369 54.5659 68.1421C55.2037 67.8714 56.0013 67.115 56.6904 67.129C57.3505 67.1339 58.0101 67.094 58.6649 67.0096C58.6806 66.8623 58.6905 66.713 58.6964 66.5657C58.0313 66.6545 57.3613 66.7017 56.6904 66.707Z" fill="#37474F"/>
<path d="M65.1301 67.7301C65.1325 68.0682 65.1001 68.4058 65.0333 68.7372C64.9317 69.3223 64.6134 69.8466 64.1429 70.2041C63.7143 70.4608 63.2257 70.5982 62.7272 70.6022C62.2912 70.6492 61.8503 70.6017 61.434 70.4628C61.1157 70.3444 60.8479 70.1187 60.6758 69.8239C60.6758 69.8239 60.6758 69.8359 60.6758 69.8418C60.7359 70.0573 60.8466 70.2549 60.9985 70.4181C61.1504 70.5813 61.339 70.7052 61.5485 70.7793C61.9654 70.9185 62.4072 70.9654 62.8437 70.9166C63.3408 70.9164 63.8288 70.7825 64.2574 70.5285C64.7293 70.1714 65.0478 69.6459 65.1478 69.0596C65.2146 68.7289 65.247 68.392 65.2446 68.0545C65.2457 67.8246 65.2926 67.5973 65.3825 67.386C65.4724 67.1747 65.6034 66.9838 65.7678 66.8245C65.8481 66.748 65.9239 66.6669 65.9949 66.5816C66.0461 66.5214 66.0848 66.4514 66.1089 66.3759C66.1329 66.3004 66.1418 66.2208 66.1351 66.1418C66.1351 66.0801 66.1232 66.0184 66.1153 65.9586C65.9988 66.102 65.7204 66.4403 65.6494 66.508C65.4869 66.6669 65.3573 66.8567 65.2681 67.0665C65.179 67.2763 65.1321 67.5019 65.1301 67.7301Z" fill="#37474F"/>
<path d="M62.6738 64.2171C62.7777 64.9107 62.6882 65.6199 62.4152 66.2651C62.1454 66.9004 61.7943 67.4972 61.3707 68.0405C61.1627 68.2974 60.9789 68.5732 60.8218 68.8645C60.6696 69.1565 60.6156 69.4904 60.6678 69.8159C60.8399 70.1107 61.1077 70.3364 61.426 70.4548C61.8423 70.5937 62.2832 70.6412 62.7192 70.5942C63.2178 70.5902 63.7063 70.4528 64.1349 70.1961C64.6055 69.8386 64.9238 69.3143 65.0254 68.7292C65.0922 68.3978 65.1246 68.0603 65.1221 67.7221C65.1233 67.4924 65.1701 67.2653 65.2596 67.054C65.3491 66.8428 65.4796 66.6517 65.6434 66.492C65.7145 66.4244 65.9929 66.094 66.1093 65.9427C66.0461 65.4406 65.8829 64.9566 65.6296 64.5196L62.6738 64.2171Z" fill="#455A64"/>
<path d="M54.0566 34.5607L54.2995 51.6898L55.0893 63.6797C57.0637 64.9734 58.505 63.9166 58.505 63.9166C59.2573 58.2361 59.358 54.743 58.9493 52.3725L59.3244 43.1292L60.442 52.7327L62.3374 64.4977C64.3691 65.8592 65.8045 64.4977 65.8045 64.4977C65.8045 60.1428 66.1797 55.2744 65.0148 52.1336C65.8342 42.4306 64.4679 34.7398 64.4679 34.7398L54.0566 34.5607Z" fill="#37474F"/>
<path d="M58.9022 39.6063L59.3168 43.1372L59.1411 47.4662L58.379 40.3487C56.602 39.6342 56.3809 38.629 56.3809 38.629C57.1241 39.1676 57.9925 39.5042 58.9022 39.6063Z" fill="#263238"/>
<path d="M55.5581 14.7626L55.106 14.5238H55.0961H55.0783C55.0411 14.5066 55.0003 14.4987 54.9594 14.5008C54.9185 14.5028 54.8787 14.5148 54.8434 14.5357L50.7978 16.8903C50.7184 16.9365 50.6525 17.0029 50.6068 17.0829C50.561 17.163 50.537 17.2537 50.5371 17.3461V19.3205C50.5366 19.3618 50.5461 19.4025 50.5646 19.4393C50.5832 19.476 50.6104 19.5077 50.6437 19.5315C50.6591 19.5421 50.6757 19.5507 50.6931 19.5574L51.1314 19.7922L51.1097 19.432L54.9658 17.1889C55.0454 17.1428 55.1115 17.0764 55.1576 16.9964C55.2037 16.9164 55.2281 16.8256 55.2284 16.7331V15.0134L55.5581 14.7626Z" fill="#455A64"/>
<path d="M55.4307 17.4217L51.3851 19.7763C51.3453 19.7997 51.3002 19.8121 51.2541 19.8124C51.2081 19.8126 51.1628 19.8006 51.1228 19.7776C51.0828 19.7547 51.0495 19.7215 51.0262 19.6814C51.0029 19.6414 50.9905 19.5958 50.9902 19.5494V17.573C50.9907 17.4808 51.015 17.3902 51.0607 17.3103C51.1064 17.2304 51.1719 17.1638 51.2509 17.1172L55.3083 14.7626C55.3481 14.7385 55.3936 14.7255 55.4401 14.725C55.4865 14.7246 55.5323 14.7367 55.5725 14.76C55.6128 14.7833 55.6462 14.8171 55.6691 14.8578C55.6921 14.8985 55.7039 14.9447 55.7032 14.9915V16.9659C55.7024 17.0595 55.6766 17.1512 55.6287 17.2313C55.5808 17.3115 55.5124 17.3772 55.4307 17.4217Z" fill="#455A64"/>
<path d="M51.252 17.573C51.2523 17.527 51.2644 17.4819 51.2873 17.4421C51.3101 17.4023 51.3429 17.3692 51.3823 17.3461L55.4299 14.9915V16.9659C55.4299 17.0122 55.4179 17.0577 55.395 17.0979C55.3722 17.1381 55.3392 17.1715 55.2996 17.1948L51.2539 19.5474L51.252 17.573Z" fill="#4D95FF"/>
<path d="M53.672 20.4928C53.7263 20.3634 53.8178 20.2532 53.9346 20.1764C54.2777 19.9597 54.5396 19.6341 54.6789 19.2509C54.7924 18.8416 54.8547 18.4197 54.8645 17.9949C54.8759 17.5677 55.0257 17.1559 55.291 16.8226C54.5723 16.53 54.2801 17.1888 54.0195 18.2437L51.6127 19.637L51.6462 19.7166C51.6811 19.7941 51.6992 19.8783 51.6992 19.9634C51.6992 20.0485 51.6811 20.1327 51.6462 20.2102L50.9453 21.6453C51.2848 21.8899 51.6807 22.043 52.0953 22.09C52.51 22.137 52.9297 22.0764 53.3146 21.914C53.4053 21.4334 53.5246 20.9589 53.672 20.4928Z" fill="#FFA8A7"/>
<path d="M53.1857 23.3988C53.3121 22.8833 53.4641 22.2046 53.5628 21.6074C53.1175 21.7641 52.6427 21.8165 52.1744 21.7606C51.7061 21.7048 51.2565 21.5421 50.8598 21.285C50.5744 21.7718 50.3186 22.2756 50.0938 22.7937C50.5265 23.1309 51.0315 23.3613 51.5684 23.4664C52.1054 23.5714 52.6592 23.5483 53.1857 23.3988Z" fill="#E0E0E0"/>
<path d="M52.9625 24.2586C52.9625 24.2586 53.0612 23.9043 53.1856 23.3988C52.6587 23.5475 52.1046 23.5696 51.5676 23.4635C51.0307 23.3574 50.5259 23.126 50.0937 22.7877C49.413 24.3776 48.9923 26.068 48.8478 27.7935C48.7829 28.2974 48.8076 28.809 48.9209 29.3042C48.98 29.5517 49.0912 29.7836 49.2468 29.9841C49.4025 30.1846 49.599 30.3491 49.8232 30.4665C50.4609 30.7611 51.225 30.5063 51.7976 30.1063C52.8855 29.3539 53.5746 28.1537 54.2163 26.9954L55.9676 20.6919C54.931 20.8073 54.082 21.3945 52.9625 24.2586Z" fill="#F0F0F0"/>
<path opacity="0.1" d="M52.9625 24.2586C52.5518 25.7235 51.9102 28.0622 51.9102 28.0622C53.3712 26.5654 52.9625 24.2586 52.9625 24.2586Z" fill="black"/>
<path opacity="0.1" d="M55.7149 21.6234C55.1814 21.99 54.7345 22.4704 54.4058 23.0306C53.8332 24.0257 53.6654 25.1841 53.5094 26.3186C53.3989 27.1148 53.2889 27.9109 53.1797 28.7071C53.5592 28.1576 53.9073 27.5868 54.2222 26.9973L55.7149 21.6234Z" fill="black"/>
<path d="M57.8423 20.4988L55.9745 20.6978C54.4443 22.0573 53.6545 24.9095 53.9843 28.0622C54.1781 30.2237 54.2026 32.3973 54.0573 34.5627C58.2036 37.6159 63.8169 35.3987 64.4744 34.7359L63.9433 30.8646C63.9103 30.4299 63.9821 29.9935 64.1526 29.5928C64.5475 28.6752 65.2425 26.8719 65.3372 25.4747C65.3964 24.2298 65.1388 22.9904 64.5889 21.8741L61.8741 20.6799L57.8423 20.4988Z" fill="#F0F0F0"/>
<path opacity="0.1" d="M64.1516 29.5848C64.4971 28.7767 65.0795 27.282 65.277 25.9823C64.892 26.2171 64.4872 26.448 64.3253 26.8341C63.8136 28.082 63.6796 29.4546 63.9403 30.779C63.9197 30.3699 63.992 29.9615 64.1516 29.5848Z" fill="black"/>
<path d="M57.3233 23.2435C55.7595 26.868 55.7852 30.6079 55.7852 30.6079L56.5532 32.2738L57.7596 30.6815C57.666 28.2399 57.7142 25.7949 57.9037 23.359L57.3233 23.2435Z" fill="#4D95FF"/>
<path d="M57.2568 21.8741C57.224 22.3317 57.2465 22.7915 57.3239 23.2435C57.5037 23.3331 57.7048 23.3703 57.9044 23.351C58.2717 23.0233 58.5861 22.6398 58.8363 22.2145L57.9044 21.8741H57.2568Z" fill="#4D95FF"/>
<path d="M57.9043 21.8742C58.7079 22.1727 59.4227 23.6157 59.4227 23.6157C61.5353 21.8085 61.8651 20.68 61.8651 20.68C61.3221 19.9017 60.7297 19.7763 60.7297 19.7763L57.9043 21.8742Z" fill="#E0E0E0"/>
<path d="M57.9047 21.8742C57.2907 21.8921 56.7477 22.7539 56.7477 22.7539C56.649 21.2452 57.9047 20.0828 57.9047 20.0828V21.8742Z" fill="#E0E0E0"/>
<path d="M60.7791 18.0865L57.9043 19.1215V20.1943C58.5511 20.1019 59.1717 19.8749 59.7267 19.5275C60.2234 19.1751 60.5928 18.6693 60.7791 18.0865Z" fill="#F28F8F"/>
<path d="M60.7791 18.0865C60.5928 18.6693 60.2234 19.1751 59.7267 19.5275C59.1717 19.8748 58.5511 20.1019 57.9043 20.1943V21.8741C57.9043 21.8741 60.943 20.4988 60.943 19.852V18.0268L60.7791 18.0865Z" fill="#FFA8A7"/>
<path d="M55.2407 13.8371C54.9211 13.849 54.6045 13.7716 54.3257 13.6136C54.047 13.4555 53.817 13.2229 53.6612 12.9414C53.6407 12.9012 53.6318 12.8559 53.6356 12.8108C53.6395 12.7658 53.6558 12.7227 53.6828 12.6865C53.7098 12.6504 53.7464 12.6227 53.7883 12.6065C53.8302 12.5903 53.8758 12.5864 53.9198 12.5951C54.1398 12.6349 54.3652 12.6349 54.5852 12.5951C54.3319 12.2611 54.1467 11.8799 54.0403 11.4733C53.9338 11.0668 53.9083 10.6431 53.9652 10.2266C53.9723 10.1801 53.9901 10.136 54.0172 10.0977C54.0443 10.0594 54.0799 10.0281 54.1212 10.0062C54.1625 9.98431 54.2083 9.97251 54.2549 9.97172C54.3016 9.97094 54.3477 9.98119 54.3897 10.0017C55.305 10.4574 56.3227 10.6633 57.3415 10.5988C57.8845 10.561 58.4196 10.4435 58.9625 10.3997C59.5059 10.3336 60.0568 10.4182 60.5559 10.6446C60.8029 10.7613 61.014 10.9432 61.1669 11.1709C61.3198 11.3986 61.4089 11.6638 61.4247 11.9383C61.4868 11.8499 61.5672 11.7761 61.6602 11.7218C61.7532 11.6676 61.8567 11.6341 61.9637 11.6238C62.0754 11.6105 62.1887 11.6203 62.2967 11.6524C62.4046 11.6846 62.5049 11.7385 62.5916 11.8109C62.2776 11.986 61.9716 12.1612 61.6576 12.3344C61.9795 12.2189 62.3842 12.4717 62.5442 12.7762C62.6799 13.0934 62.7387 13.4387 62.7159 13.7833C62.7351 14.2401 62.7146 14.6976 62.6547 15.1507C62.5955 15.6068 62.4185 16.0392 62.1414 16.4046C61.8978 16.705 61.5726 16.9271 61.2055 17.0435C60.7067 17.1824 60.1779 17.165 59.6891 16.9938C59.2008 16.8237 58.7363 16.5909 58.307 16.3011C57.2129 15.5752 56.1866 14.7504 55.2407 13.8371Z" fill="#263238"/>
<path d="M55.1715 12.9255C54.8559 14.8191 55.0608 16.7637 55.7638 18.5483C55.9257 18.9603 56.1389 19.3862 56.52 19.6071C56.9011 19.8281 57.4164 19.7883 57.8725 19.7186C58.612 19.6379 59.3336 19.4362 60.0088 19.1215C60.689 18.7986 61.2189 18.223 61.4877 17.5153C61.7295 17.565 61.9805 17.5432 62.2103 17.4525C62.4401 17.3617 62.6389 17.2059 62.7829 17.0038C63.067 16.5838 63.214 16.0849 63.2034 15.5767C63.2034 15.2542 63.1442 14.8741 62.856 14.7328C62.5677 14.5914 62.2636 14.7487 62.0366 14.9318C61.66 15.2456 61.385 15.6656 61.2468 16.138C61.0355 15.3538 60.7058 14.5954 60.4945 13.8092C60.4116 13.4987 60.3089 13.1624 60.0404 12.9892C59.7146 12.7782 59.2882 12.8996 58.911 12.9892C57.6794 13.2888 56.3923 13.2669 55.1715 12.9255Z" fill="#FFA8A7"/>
<path d="M57.4454 15.3099L56.5332 16.8584L57.6211 17.0634L57.4454 15.3099Z" fill="#F28F8F"/>
<path d="M58.6652 17.5969L57.8379 17.9949C57.9089 18.0897 58.0085 18.1586 58.1218 18.1913C58.2351 18.224 58.3558 18.2186 58.4658 18.1761C58.5587 18.1161 58.6288 18.0263 58.665 17.9213C58.7012 17.8162 58.7012 17.702 58.6652 17.5969Z" fill="#F28F8F"/>
<path opacity="0.3" d="M58.6652 17.5969L57.8379 17.9949C57.9089 18.0897 58.0085 18.1586 58.1218 18.1913C58.2351 18.224 58.3558 18.2186 58.4658 18.1761C58.5587 18.1161 58.6288 18.0263 58.665 17.9213C58.7012 17.8162 58.7012 17.702 58.6652 17.5969Z" fill="black"/>
<path d="M58.1816 18.2079C58.2782 18.2278 58.3784 18.2188 58.4699 18.182C58.5452 18.1385 58.6062 18.0736 58.6452 17.9954C58.6841 17.9171 58.6994 17.8291 58.6891 17.7422C58.5715 17.7421 58.4574 17.7821 58.3653 17.8556C58.2611 17.9446 58.1953 18.0709 58.1816 18.2079Z" fill="#F28F8F"/>
<path d="M59.0202 15.3717C59.0243 15.4128 59.0204 15.4544 59.0086 15.494C58.9968 15.5337 58.9774 15.5706 58.9515 15.6026C58.9255 15.6347 58.8936 15.6613 58.8574 15.6809C58.8213 15.7006 58.7817 15.7128 58.7408 15.717C58.7 15.7212 58.6587 15.7172 58.6194 15.7053C58.5801 15.6934 58.5435 15.6738 58.5117 15.6477C58.4799 15.6215 58.4535 15.5893 58.434 15.5529C58.4145 15.5165 58.4024 15.4765 58.3982 15.4353C58.3939 15.3943 58.3976 15.3527 58.4093 15.3131C58.421 15.2735 58.4403 15.2366 58.4662 15.2046C58.4921 15.1726 58.524 15.1461 58.5601 15.1266C58.5963 15.1071 58.6359 15.095 58.6766 15.091C58.759 15.0826 58.8414 15.1074 58.9057 15.16C58.9701 15.2126 59.0112 15.2886 59.0202 15.3717Z" fill="#263238"/>
<path d="M56.4018 15.5369C56.4077 15.5986 56.3953 15.6608 56.3662 15.7155C56.3371 15.7702 56.2927 15.815 56.2384 15.8442C56.1841 15.8735 56.1224 15.8859 56.0611 15.8799C55.9999 15.8739 55.9417 15.8498 55.894 15.8106C55.8463 15.7713 55.8112 15.7187 55.7931 15.6594C55.775 15.6001 55.7747 15.5367 55.7923 15.4772C55.8098 15.4178 55.8444 15.3648 55.8918 15.3252C55.9391 15.2855 55.997 15.2608 56.0582 15.2542C56.141 15.2459 56.2236 15.271 56.288 15.3239C56.3524 15.3769 56.3933 15.4535 56.4018 15.5369Z" fill="#263238"/>
<path d="M55.9728 14.3207L55.333 14.8701C55.2946 14.7874 55.2821 14.6949 55.2973 14.6049C55.3125 14.5149 55.3546 14.4317 55.418 14.3665C55.4969 14.3072 55.5908 14.2715 55.6889 14.2634C55.787 14.2553 55.8854 14.2752 55.9728 14.3207Z" fill="#263238"/>
<path d="M58.6309 14.0122C58.8757 14.1496 59.1205 14.2869 59.3673 14.4222C59.3886 14.3332 59.3824 14.2398 59.3496 14.1545C59.3168 14.0691 59.2589 13.9959 59.1837 13.9446C59.0943 13.9034 58.9954 13.8879 58.8978 13.8999C58.8003 13.9118 58.7079 13.9507 58.6309 14.0122Z" fill="#263238"/>
<path d="M70.9297 28.6752L71.9169 28.1816C72.2261 28.0275 72.4835 27.7853 72.6573 27.485L72.9673 26.9496C73.1815 26.5826 73.4971 26.2866 73.8756 26.0977C74.4448 25.8158 74.9757 25.4613 75.4551 25.0428C75.5556 25.2043 75.5979 25.3957 75.5749 25.5849C75.5519 25.7741 75.465 25.9496 75.3288 26.0818C75.1252 26.27 74.9088 26.4435 74.6811 26.6013L75.157 26.7227C75.5006 26.8115 75.8632 26.7892 76.1936 26.659L77.552 26.1276C77.591 26.1126 77.6332 26.1083 77.6744 26.1151C77.7155 26.1219 77.7542 26.1395 77.7864 26.1661C77.8187 26.1928 77.8434 26.2275 77.858 26.2669C77.8727 26.3063 77.8768 26.3488 77.8699 26.3903C77.7446 26.9975 77.5168 27.5784 77.1966 28.108C77.0493 28.3613 76.8496 28.5797 76.6111 28.7483C76.3726 28.917 76.1009 29.0319 75.8145 29.0852C75.1214 29.2166 74.4501 29.3201 74.0691 29.3738C73.8507 29.4067 73.6389 29.4739 73.4412 29.5729L71.984 30.3033L70.9297 28.6752Z" fill="#FFA8A7"/>
<path d="M69.985 30.2138C69.8125 29.8034 69.7525 29.3538 69.8113 28.9121L67.9434 29.8038C67.6063 28.4338 67.3426 27.0465 67.1537 25.6479C66.9325 23.759 66.9819 22.4892 64.5711 21.8662L64.3164 26.8421C64.3164 26.8421 64.6126 32.9127 66.3402 33.5854C67.7697 34.1408 68.7786 32.7694 70.9604 31.3483C70.5271 31.0805 70.1864 30.6842 69.985 30.2138Z" fill="#F0F0F0"/>
<path opacity="0.1" d="M66.7021 31.0477C66.7672 30.7651 67.2273 30.1182 67.9519 29.8037C67.9519 29.8037 67.8966 29.5828 67.8157 29.2245C67.4405 29.4116 66.5165 29.9829 66.7021 31.0477Z" fill="black"/>
<path d="M71.4825 28.1119L69.8121 28.9081C69.7466 29.3838 69.8214 29.8684 70.0272 30.3016C70.2329 30.7348 70.5605 31.0974 70.9691 31.3443C71.4602 31.0239 71.9691 30.7322 72.4934 30.4705C72.4934 30.4705 71.6049 29.754 71.4825 28.1119Z" fill="#E0E0E0"/>
<path d="M78.3228 3.79772C78.3229 3.75271 78.311 3.7085 78.2885 3.66966C78.2659 3.63082 78.2335 3.59876 78.1945 3.57679L77.0533 2.93788H77.0434C77.0061 2.91641 76.9639 2.90512 76.921 2.90512C76.878 2.90512 76.8359 2.91641 76.7986 2.93788L68.9956 7.47988C68.8799 7.54789 68.7839 7.6452 68.7171 7.76216C68.6502 7.87912 68.6149 8.01167 68.6145 8.14665V11.0705L65.9135 13.8868C65.6726 14.1396 65.6469 14.5198 65.8345 14.5795L66.9106 15.1766C66.9296 15.196 66.953 15.2105 66.9788 15.2188C67.0046 15.2271 67.032 15.229 67.0587 15.2244L68.6264 15.0253V17.1709C68.6259 17.2153 68.6371 17.259 68.659 17.2975C68.6809 17.336 68.7125 17.3679 68.7508 17.3899L69.8841 18.0248H69.8999H69.9117C69.9485 18.0423 69.9889 18.0505 70.0294 18.0488C70.07 18.0471 70.1096 18.0354 70.1447 18.0148L77.9477 13.4728C78.064 13.4056 78.1606 13.3085 78.2275 13.1913C78.2945 13.0742 78.3294 12.9413 78.3288 12.8061L78.3228 3.79772ZM69.9591 8.26607L69.9335 8.29593L69.9591 8.26607ZM69.8861 8.36161L69.8663 8.38947L69.8861 8.36161ZM69.7775 8.61837C69.7765 8.62962 69.7765 8.64094 69.7775 8.6522C69.7765 8.64094 69.7765 8.62962 69.7775 8.61837ZM70.0164 8.22029C70.0251 8.21176 70.0343 8.20379 70.044 8.19641C70.0346 8.20056 70.0253 8.20521 70.0164 8.21034V8.22029Z" fill="#4D95FF"/>
<path d="M75.6455 6.62802C75.6108 6.64563 75.5799 6.66998 75.5546 6.69967C75.5346 6.72379 75.5192 6.75146 75.5092 6.78128C75.4244 6.95368 75.3518 7.13193 75.292 7.31469C75.2269 7.47591 75.1657 7.63713 75.1104 7.80034C75.0955 7.82936 75.0842 7.86011 75.0768 7.8919C75.058 7.93067 75.0435 7.97138 75.0334 8.01331C74.9978 8.10487 74.9623 8.19443 74.9287 8.28599C74.9149 8.31186 74.9031 8.33575 74.8912 8.36162C74.8559 8.43738 74.8269 8.51593 74.8043 8.59649C74.7895 8.63097 74.7838 8.66879 74.788 8.70616C74.7921 8.74353 74.8059 8.77915 74.828 8.80945C74.9132 8.89089 75.018 8.94851 75.1321 8.97664L75.1617 8.9866L75.2565 9.01247L75.4204 9.09408L75.452 9.11398C75.4618 9.12791 75.4737 9.13985 75.4835 9.15179C75.4942 9.16646 75.5029 9.18253 75.5092 9.19956C75.5154 9.2264 75.5154 9.25433 75.5092 9.28117C75.4993 9.32098 75.4895 9.36277 75.4816 9.40258C75.4737 9.44239 75.4322 9.53793 75.4085 9.60162L75.373 9.68919L75.2506 9.97979C75.2091 10.0733 75.1795 10.151 75.1499 10.2286C75.1212 10.2839 75.0961 10.3411 75.0748 10.3998L75.0334 10.4853C74.9998 10.557 74.9643 10.6286 74.9307 10.7023L74.9011 10.766L74.7905 10.965L74.7491 11.0446L74.6207 11.2715L74.5871 11.3292L74.4608 11.5721L74.4213 11.6318L74.1251 12.0657L74.0067 12.2269L73.9731 12.2727L73.6118 12.7344L73.4736 12.8658C73.4473 12.8975 73.416 12.9244 73.3808 12.9454C73.3585 12.9594 73.3329 12.9667 73.3067 12.9667C73.2805 12.9667 73.2549 12.9594 73.2327 12.9454L73.1438 12.8996C73.1438 12.8857 73.132 12.8837 73.1221 12.8817C72.9994 12.7731 72.8673 12.6758 72.7272 12.5911C72.7009 12.5743 72.6705 12.5654 72.6393 12.5654C72.6082 12.5654 72.5778 12.5743 72.5515 12.5911C72.5353 12.6009 72.5201 12.6123 72.5061 12.625C72.447 12.6746 72.3957 12.733 72.354 12.7981C72.3384 12.8077 72.3265 12.8225 72.3205 12.8399C72.2119 12.9932 72.0914 13.1305 71.9789 13.2778C71.8663 13.4251 71.7716 13.5226 71.6709 13.65C71.6136 13.7157 71.5583 13.7834 71.505 13.849C71.4517 13.9147 71.3846 13.9983 71.3273 14.0799C71.3043 14.1064 71.2838 14.1351 71.2661 14.1655C71.2371 14.1985 71.2156 14.2376 71.2033 14.2799C71.191 14.3222 71.1882 14.3668 71.195 14.4103C71.1954 14.4637 71.2 14.5169 71.2089 14.5696C71.2129 14.6376 71.2269 14.7047 71.2503 14.7686C71.2562 14.8106 71.2682 14.8515 71.2859 14.89C71.2917 14.9024 71.2983 14.9143 71.3056 14.9258C71.3036 14.935 71.3036 14.9445 71.3056 14.9537C71.3117 14.9651 71.319 14.9757 71.3273 14.9855C71.3318 14.9999 71.3392 15.0132 71.349 15.0245C71.3589 15.0358 71.371 15.0449 71.3846 15.0512C71.403 15.0763 71.4274 15.0962 71.4557 15.1089L71.505 15.1288H71.5386L71.5801 15.1448H71.5998C71.6226 15.1498 71.6461 15.1498 71.6689 15.1448C71.674 15.1477 71.6798 15.1493 71.6857 15.1493C71.6916 15.1493 71.6974 15.1477 71.7025 15.1448C71.731 15.1518 71.7608 15.1518 71.7893 15.1448C71.8206 15.1517 71.8529 15.1517 71.8841 15.1448C71.9155 15.1496 71.9475 15.1496 71.9789 15.1448H72.0362C72.0811 15.1403 72.1255 15.1309 72.1684 15.1169H72.1902L72.2375 15.105C72.2496 15.1029 72.2611 15.0982 72.2711 15.091L72.3205 15.0731C72.37 15.0586 72.4182 15.0399 72.4646 15.0174L72.5041 14.9975L72.5357 14.9796C72.5637 14.964 72.5907 14.9467 72.6166 14.9278C72.6486 14.9089 72.6796 14.8883 72.7094 14.8661C72.7449 14.842 72.7792 14.8161 72.8121 14.7885C72.8411 14.7686 72.8707 14.7467 72.901 14.7228L72.9365 14.691L72.9543 14.675L73.0036 14.6332C73.0548 14.5887 73.1035 14.5416 73.1497 14.4919C73.1881 14.4606 73.2238 14.4259 73.2564 14.3884C73.2687 14.3796 73.2788 14.368 73.286 14.3546C73.3565 14.2932 73.4225 14.2267 73.4834 14.1556C73.5363 14.1088 73.5864 14.059 73.6335 14.0063C73.6733 13.9708 73.7103 13.9322 73.7441 13.8908L73.8053 13.8272C73.8238 13.8133 73.8393 13.7957 73.8507 13.7754C73.8603 13.77 73.8679 13.7616 73.8724 13.7515L73.906 13.7197C73.9241 13.6993 73.9413 13.6781 73.9573 13.656C73.9929 13.6201 74.0265 13.5822 74.058 13.5425L74.0896 13.5027L74.1212 13.4629C74.1839 13.3934 74.2426 13.3203 74.2969 13.244C74.3262 13.215 74.3514 13.1822 74.3719 13.1464C74.4087 13.1046 74.4424 13.06 74.4726 13.0131C74.5234 12.9498 74.5703 12.8833 74.6128 12.8141C74.6405 12.7782 74.6523 12.7603 74.6661 12.7444L74.7017 12.6926C74.7273 12.6568 74.749 12.621 74.7727 12.5832L74.8182 12.5215C74.8325 12.5003 74.8457 12.4784 74.8576 12.4558C74.8874 12.4188 74.9132 12.3788 74.9346 12.3364C74.9723 12.2856 75.0066 12.2324 75.0373 12.1771C75.049 12.162 75.0595 12.146 75.0689 12.1294C75.0742 12.1219 75.0789 12.1139 75.0827 12.1055L75.0966 12.0796L75.1301 12.0318C75.1617 11.9821 75.1913 11.9323 75.219 11.8786L75.2585 11.8129L75.3829 11.596C75.4004 11.5752 75.4144 11.5516 75.4243 11.5263C75.4559 11.4745 75.4855 11.4228 75.5151 11.3671C75.5151 11.3492 75.5329 11.3312 75.5428 11.3133C75.5594 11.2891 75.5733 11.263 75.5842 11.2357L75.6909 11.0367C75.7086 10.9988 75.7284 10.963 75.7462 10.9252C75.7765 10.8753 75.8023 10.8226 75.8232 10.768C75.9081 10.6107 75.9831 10.4515 76.0522 10.2883L76.0838 10.2146C76.1133 10.1576 76.1384 10.0984 76.1588 10.0375C76.2399 9.85489 76.3118 9.66822 76.374 9.47822L76.3918 9.43045C76.4329 9.3231 76.4679 9.21345 76.4964 9.10204C76.5399 8.96669 76.5754 8.83334 76.609 8.70396C76.6208 8.66018 76.6327 8.61639 76.6426 8.57061C76.6517 8.55798 76.6559 8.54239 76.6544 8.52682C76.655 8.51621 76.655 8.50558 76.6544 8.49498L76.6702 8.43527C76.7189 8.2734 76.7572 8.10851 76.7847 7.94166V7.91578C76.7883 7.90141 76.7883 7.88637 76.7847 7.87199C76.7847 7.87199 76.7847 7.85408 76.7847 7.84612C76.7847 7.83816 76.7847 7.81427 76.7847 7.80034C76.7837 7.78377 76.7837 7.76715 76.7847 7.75058C76.7972 7.68031 76.8032 7.60901 76.8025 7.53761C76.8025 7.50975 76.8025 7.47989 76.8025 7.45004C76.8076 7.42979 76.8076 7.40858 76.8025 7.38834C76.8025 7.37838 76.8025 7.36644 76.8025 7.3545C76.8018 7.29214 76.7912 7.2303 76.7709 7.17139C76.7552 7.08296 76.7273 6.9972 76.688 6.91662C76.6422 6.78601 76.5695 6.66664 76.4747 6.56632C76.4499 6.5292 76.4149 6.50016 76.374 6.48272C76.374 6.48272 76.3642 6.4668 76.3523 6.46879C76.3195 6.44368 76.2789 6.431 76.2378 6.43296C76.1136 6.42805 75.9898 6.44976 75.8745 6.49665L75.833 6.51457C75.7973 6.52352 75.7628 6.53689 75.7304 6.55437L75.7106 6.56632C75.7007 6.59617 75.6711 6.60812 75.6455 6.62802Z" fill="white"/>
<path opacity="0.1" d="M69.7838 17.8218C69.7834 17.8654 69.7943 17.9083 69.8155 17.9464C69.8366 17.9844 69.8672 18.0163 69.9042 18.0388L68.7709 17.4038C68.7327 17.3818 68.701 17.3499 68.6791 17.3114C68.6573 17.2729 68.646 17.2292 68.6465 17.1849V15.0393L69.7858 14.8979L69.7838 17.8218Z" fill="black"/>
<path opacity="0.2" d="M68.9956 7.47988L76.8005 2.93788C76.8378 2.91641 76.88 2.90512 76.9229 2.90512C76.9658 2.90512 77.008 2.91641 77.0453 2.93788H77.0552L78.1964 3.57679C78.1579 3.55481 78.1143 3.54326 78.07 3.54326C78.0258 3.54326 77.9822 3.55481 77.9437 3.57679L70.1388 8.11878C69.9938 8.20253 69.8801 8.33187 69.815 8.487L68.6816 7.82819C68.7473 7.68169 68.8572 7.55981 68.9956 7.47988Z" fill="white"/>
<path opacity="0.1" d="M68.623 11.0745V8.15063C68.623 8.04218 68.6459 7.93497 68.6902 7.83615L69.8156 8.487C69.7779 8.58126 69.7585 8.68193 69.7584 8.78356V11.7074L68.623 11.0745Z" fill="white"/>
<path opacity="0.05" d="M65.9213 13.8869L68.6223 11.0745L69.7655 11.7154L67.0645 14.5297C66.8552 14.7487 66.8078 15.0612 66.9184 15.1826L65.8423 14.5855C65.6548 14.5198 65.6804 14.1396 65.9213 13.8869Z" fill="white"/>
<path d="M41.071 2.08044C40.9209 1.50721 39.8567 0.414505 38.7984 0.436399C38.6959 0.440176 38.595 0.462422 38.5003 0.502081L17.9326 13.322C17.5835 13.5449 17.3085 13.8679 17.1428 14.2495C17.0111 14.5476 16.9438 14.8706 16.9453 15.1969V63.9488C16.9453 65.1908 18.2524 66.3751 19.4805 65.8058C19.5076 65.7955 19.5339 65.7836 19.5595 65.77L40.1292 52.9262C40.4377 52.7239 40.6901 52.4459 40.8628 52.1183C41.0355 51.7907 41.1227 51.4242 41.1164 51.0533V2.31729C41.1186 2.23594 41.1031 2.1551 41.071 2.08044Z" fill="#37474F"/>
<path d="M19.8078 20.3496C19.8051 20.1636 19.8493 19.98 19.9363 19.816C20.0234 19.652 20.1504 19.513 20.3054 19.4121L39.4042 7.50576C39.4818 7.46174 39.5697 7.43971 39.6588 7.44199C39.7478 7.44428 39.8345 7.4708 39.9098 7.51874C39.9851 7.56669 40.0461 7.63427 40.0864 7.71433C40.1267 7.79439 40.1447 7.88394 40.1386 7.9735V47.2871C40.1412 47.4728 40.0969 47.6561 40.0099 47.8197C39.9228 47.9833 39.7959 48.122 39.6411 48.2226L20.5423 60.1488C20.4647 60.1928 20.3767 60.2149 20.2877 60.2126C20.1987 60.2103 20.1119 60.1838 20.0366 60.1358C19.9613 60.0879 19.9003 60.0203 19.86 59.9402C19.8198 59.8602 19.8017 59.7706 19.8078 59.6811V20.3496Z" fill="#4D95FF"/>
<path d="M16.9375 15.1965V63.9484C16.9375 65.1903 18.2446 66.3746 19.4727 65.8054C19.3955 65.8319 19.313 65.839 19.2325 65.8258C19.152 65.8127 19.0759 65.7798 19.0109 65.7301C18.946 65.6803 18.8942 65.6152 18.86 65.5406C18.8259 65.4659 18.8105 65.3839 18.8152 65.3018V16.544C18.8152 16.1225 18.9307 15.7093 19.1489 15.3498L17.1428 14.259C17.0098 14.5535 16.9399 14.8729 16.9375 15.1965Z" fill="#263238"/>
<path d="M38.8001 0.434009C38.6977 0.437787 38.5967 0.460032 38.502 0.499691L17.9324 13.3216C17.5833 13.5445 17.3083 13.8675 17.1426 14.2491L19.1565 15.3517C19.3205 15.0748 19.5471 14.8408 19.8179 14.6691L40.3876 1.84716C40.4464 1.81136 40.5122 1.78892 40.5804 1.78141C40.6487 1.77389 40.7178 1.78149 40.7828 1.80366C40.8479 1.82584 40.9073 1.86206 40.9571 1.90979C41.0068 1.95752 41.0456 2.01563 41.0707 2.08004C40.9227 1.50482 39.8584 0.412115 38.8001 0.434009Z" fill="#455A64"/>
<path d="M32.5073 9.89618C32.6534 9.80462 32.7719 9.87628 32.7719 10.0574C32.7683 10.1552 32.7429 10.251 32.6974 10.3375C32.6519 10.4241 32.5876 10.4991 32.5093 10.557L28.4735 13.1106C28.3294 13.2022 28.2129 13.1246 28.2129 12.9434C28.2161 12.8468 28.2411 12.7521 28.2859 12.6666C28.3307 12.5811 28.3942 12.507 28.4715 12.4498L32.5073 9.89618Z" fill="#263238"/>
<path d="M27.4365 13.1046C27.5806 13.0131 27.6971 13.0867 27.6971 13.2678C27.6939 13.3653 27.6688 13.4607 27.6236 13.5469C27.5785 13.6331 27.5145 13.7078 27.4365 13.7654C27.2923 13.857 27.1738 13.7834 27.1719 13.6002C27.1759 13.5028 27.2019 13.4076 27.2477 13.3218C27.2935 13.236 27.3581 13.1617 27.4365 13.1046Z" fill="#263238"/>
<path d="M30.0193 9.52597C30.3076 9.34285 30.5406 9.48815 30.5406 9.85239C30.5344 10.0469 30.4847 10.2374 30.3951 10.4097C30.3055 10.5821 30.1784 10.7318 30.0233 10.8476C29.733 11.0287 29.4941 10.8794 29.4941 10.5172C29.5014 10.3226 29.5525 10.1323 29.6434 9.96056C29.7344 9.78884 29.863 9.64023 30.0193 9.52597Z" fill="#263238"/>
<path d="M30.0213 55.4217C30.6136 55.0495 31.0836 55.3461 31.0855 56.0865C31.0875 56.8269 30.6156 57.7365 30.0272 58.1087C29.4389 58.4809 28.9531 58.1763 28.9512 57.4359C28.9672 57.0405 29.0717 56.6539 29.2571 56.3051C29.4424 55.9563 29.7037 55.6543 30.0213 55.4217Z" fill="#263238"/>
<path d="M31.9634 27.9647C31.9121 27.9946 31.866 28.033 31.8272 28.0781C31.7964 28.1166 31.7729 28.1604 31.758 28.2075C31.6283 28.4801 31.5175 28.7614 31.4263 29.0494C31.3276 29.3022 31.2289 29.557 31.1519 29.8117C31.1286 29.8577 31.1114 29.9066 31.1006 29.957C31.0714 30.0208 31.0489 30.0876 31.0334 30.1561L30.8735 30.582C30.8557 30.6238 30.836 30.6636 30.8182 30.7034C30.7649 30.823 30.7213 30.9469 30.6879 31.0736C30.6656 31.1278 30.657 31.1867 30.6628 31.2451C30.6687 31.3034 30.6888 31.3594 30.7215 31.408C30.8507 31.5343 31.0097 31.6254 31.1835 31.6727L31.2309 31.6866C31.2783 31.7026 31.3256 31.7145 31.373 31.7284L31.6218 31.8558L31.6692 31.8897C31.6867 31.9087 31.7032 31.9286 31.7186 31.9494C31.7356 31.9706 31.7483 31.9949 31.7561 32.021C31.7662 32.0635 31.7662 32.1079 31.7561 32.1504L31.7146 32.3494C31.6791 32.4569 31.6416 32.5644 31.604 32.6699L31.5507 32.8092C31.4954 32.9585 31.4382 33.1098 31.3809 33.259C31.3237 33.4083 31.2723 33.5297 31.2269 33.6571C31.1839 33.7438 31.1457 33.8328 31.1124 33.9238C31.0927 33.9696 31.0709 34.0154 31.0512 34.0591C30.9979 34.1726 30.9466 34.2861 30.8952 34.3995L30.8478 34.501L30.682 34.8314C30.6622 34.8732 30.6405 34.915 30.6188 34.9568L30.4214 35.3151C30.4056 35.3449 30.3878 35.3748 30.37 35.4046C30.2989 35.526 30.2279 35.6494 30.1548 35.7709L30.0956 35.8644C29.9455 36.0933 29.7955 36.3222 29.6434 36.5511L29.4657 36.8038L29.4164 36.8735L28.8655 37.6L28.6799 37.813C28.6401 37.862 28.5927 37.9043 28.5397 37.9384C28.5072 37.9616 28.4689 37.9753 28.4291 37.9778C28.3894 37.9802 28.3497 37.9714 28.3146 37.9523L28.1784 37.8767C28.1784 37.8567 28.1606 37.8528 28.1468 37.8508C27.958 37.6793 27.7538 37.5261 27.5367 37.393C27.497 37.367 27.4507 37.3532 27.4034 37.3532C27.3561 37.3532 27.3098 37.367 27.2702 37.393C27.2456 37.4081 27.2225 37.4254 27.201 37.4447C27.1119 37.5249 27.0335 37.6166 26.9681 37.7174C26.946 37.7356 26.9296 37.7598 26.9207 37.7871C26.7548 38.0279 26.5732 38.2429 26.4014 38.4738C26.2415 38.6628 26.0835 38.8579 25.9315 39.0609C25.8446 39.1644 25.7617 39.2699 25.6827 39.3853C25.5861 39.5004 25.4958 39.6207 25.4122 39.7456C25.3762 39.7876 25.345 39.8337 25.3194 39.8829C25.2747 39.9356 25.2419 39.9973 25.2231 40.064C25.2044 40.1307 25.2002 40.2006 25.2108 40.2691C25.2091 40.3524 25.2157 40.4358 25.2306 40.5178C25.2382 40.6191 25.2594 40.7189 25.2937 40.8144C25.3018 40.8833 25.3204 40.9504 25.349 41.0134C25.357 41.0326 25.3663 41.0512 25.3767 41.0692C25.3776 41.0842 25.381 41.099 25.3865 41.113C25.3954 41.1316 25.4067 41.149 25.4201 41.1647C25.4343 41.2095 25.4655 41.2467 25.507 41.2682C25.5341 41.307 25.5709 41.3379 25.6136 41.3578C25.6385 41.3701 25.6643 41.3807 25.6906 41.3896L25.7419 41.4036C25.7621 41.4142 25.7833 41.4229 25.8051 41.4294H25.8347C25.8694 41.4355 25.9048 41.4355 25.9394 41.4294C25.9468 41.434 25.9554 41.4364 25.9641 41.4364C25.9728 41.4364 25.9813 41.434 25.9887 41.4294C26.0322 41.4405 26.0776 41.4405 26.121 41.4294C26.1687 41.4383 26.2175 41.4383 26.2652 41.4294C26.3143 41.4325 26.3636 41.4278 26.4113 41.4155H26.4981C26.5652 41.4062 26.6313 41.3909 26.6956 41.3697H26.7252C26.7507 41.3658 26.7758 41.3598 26.8002 41.3518C26.8171 41.347 26.833 41.3396 26.8476 41.3299C26.9049 41.312 26.9148 41.306 26.9266 41.302C27.0003 41.278 27.0722 41.2488 27.1418 41.2145L27.205 41.1826L27.2504 41.1548C27.2933 41.1301 27.3342 41.1022 27.3728 41.0712L27.517 40.9756C27.5709 40.938 27.6217 40.896 27.669 40.8502C27.7172 40.8195 27.7634 40.7856 27.8072 40.7487C27.825 40.7348 27.8427 40.7169 27.8605 40.701L27.8862 40.6731L27.9612 40.6074C28.0362 40.5378 28.1113 40.4661 28.1823 40.3865C28.2418 40.3365 28.2966 40.2812 28.3462 40.2213C28.3651 40.2084 28.3802 40.1905 28.3897 40.1695C28.4925 40.0748 28.5894 39.9738 28.6799 39.867C28.7595 39.792 28.8353 39.7129 28.907 39.6302C28.9678 39.5746 29.024 39.514 29.0748 39.449L29.1656 39.3475C29.1937 39.3253 29.2178 39.2984 29.2367 39.2679C29.2503 39.2582 29.2611 39.2452 29.2683 39.2301C29.2864 39.2132 29.3035 39.1952 29.3196 39.1764C29.3485 39.1461 29.3749 39.1134 29.3986 39.0788C29.453 39.0218 29.5044 38.9621 29.5526 38.8997L29.6 38.836L29.6493 38.7763C29.7402 38.6628 29.831 38.5534 29.9139 38.428C29.9584 38.3827 29.9969 38.3319 30.0284 38.2767C30.0846 38.2106 30.1354 38.14 30.1805 38.0657C30.2571 37.9676 30.3283 37.8653 30.3937 37.7592C30.4352 37.7015 30.4549 37.6756 30.4727 37.6478C30.4905 37.6199 30.5122 37.594 30.5299 37.5662C30.5477 37.5383 30.601 37.4547 30.6346 37.397L30.7037 37.2994C30.7266 37.2655 30.7477 37.2302 30.7669 37.194C30.8114 37.1354 30.8504 37.0727 30.8834 37.0069C30.94 36.926 30.9914 36.8416 31.0374 36.7541C31.0567 36.7316 31.0733 36.7069 31.0867 36.6804L31.1085 36.6426C31.1158 36.6291 31.1224 36.6151 31.1282 36.6008C31.146 36.5769 31.1618 36.5511 31.1776 36.5252C31.2276 36.4482 31.273 36.3686 31.3138 36.2864L31.375 36.1829L31.5725 35.8405C31.5978 35.8063 31.6184 35.7688 31.6337 35.7291C31.683 35.6494 31.7284 35.5658 31.7719 35.4803L31.8133 35.3947C31.8377 35.356 31.8588 35.3154 31.8765 35.2733L32.0384 34.9628C32.0661 34.9031 32.0957 34.8453 32.1233 34.7876C32.1691 34.7086 32.2087 34.6261 32.2418 34.5408C32.3701 34.292 32.4827 34.0392 32.5873 33.7845L32.6347 33.669C32.6797 33.5776 32.7186 33.4831 32.7512 33.3864C32.8736 33.0958 32.9842 32.8012 33.077 32.5067C33.077 32.4808 33.0947 32.4569 33.1046 32.433C33.1674 32.2634 33.2195 32.0898 33.2606 31.9135C33.3297 31.7006 33.383 31.4896 33.4343 31.2806C33.4501 31.209 33.4679 31.1393 33.4857 31.0696C33.4978 31.0478 33.5039 31.023 33.5035 30.998C33.5035 30.9821 33.5133 30.9661 33.5173 30.9502L33.541 30.8567C33.6156 30.6007 33.6737 30.34 33.7147 30.0764V30.0366C33.7211 30.0145 33.7211 29.9911 33.7147 29.969V29.9272C33.7147 29.9033 33.7147 29.8794 33.7246 29.8535V29.7779C33.7442 29.6676 33.7534 29.5556 33.7522 29.4435C33.7522 29.3977 33.7522 29.35 33.7522 29.3042C33.7584 29.272 33.7584 29.2389 33.7522 29.2067C33.7512 29.1888 33.7512 29.1708 33.7522 29.1529C33.7502 29.0548 33.7336 28.9575 33.7029 28.8643C33.68 28.7262 33.6374 28.5921 33.5765 28.4663C33.508 28.2615 33.3984 28.0732 33.2547 27.9129C33.2171 27.8554 33.1636 27.8104 33.1007 27.7836C33.1007 27.7716 33.0868 27.7557 33.0671 27.7617C33.0179 27.7221 32.9563 27.7016 32.8933 27.7039C32.7045 27.6958 32.5163 27.7305 32.3425 27.8055L32.2793 27.8313C32.2253 27.8471 32.173 27.8685 32.1233 27.895L32.0937 27.9149C32.0582 27.9149 32.0108 27.9368 31.9634 27.9647Z" fill="white"/>
</svg>
