<svg width="79" height="134" viewBox="0 0 79 134" fill="none" xmlns="http://www.w3.org/2000/svg">
<mask id="mask0" mask-type="alpha" maskUnits="userSpaceOnUse" x="0" y="0" width="79" height="134">
<rect x="0.923828" y="0.66687" width="77.1642" height="132.939" fill="#C4C4C4"/>
</mask>
<g mask="url(#mask0)">
<path d="M16.7158 100.113C16.4498 100.273 16.2293 100.499 16.0752 100.769C15.9211 101.039 15.8384 101.344 15.835 101.655C15.8317 101.966 15.9078 102.272 16.0561 102.545C16.2044 102.818 16.42 103.049 16.6824 103.216L58.5828 126.732C59.4251 127.204 60.3758 127.448 61.3411 127.44C62.3064 127.432 63.2529 127.172 64.0871 126.686L103.615 103.759C103.919 103.583 104.171 103.33 104.346 103.026C104.521 102.723 104.613 102.378 104.613 102.027C104.613 101.677 104.521 101.332 104.346 101.028C104.171 100.725 103.919 100.472 103.615 100.296L61.5647 76.0741C61.1294 75.8242 60.6362 75.6927 60.1343 75.6927C59.6324 75.6927 59.1392 75.8242 58.7039 76.0741L16.7158 100.113Z" fill="#DF7E7E"/>
<path style="mix-blend-mode:multiply" d="M65.3819 100.163C71.5335 103.75 75.9311 106.16 85.3945 111.564C78.2322 115.916 72.682 119.916 71.876 120.393L50.6188 107.893C52.2726 107.058 57.7352 103.951 65.3819 100.163Z" fill="url(#paint0_linear)"/>
<path d="M6.76385 92.7415V46.0844C6.75882 45.7472 6.84357 45.4148 7.00944 45.1212C7.1753 44.8277 7.41629 44.5835 7.70768 44.4138C11.5832 42.1628 55.4924 17.2932 64.0162 12.4655C64.1897 12.3672 64.3913 12.3304 64.5883 12.3611C64.5991 12.3569 64.611 12.3569 64.6217 12.3611C65.3022 12.6495 65.9646 12.9786 66.6055 13.3467C66.2409 13.6039 65.7971 13.7238 65.3526 13.6849V17.4143L65.244 61.6075C65.244 62.4929 28.4929 82.7477 27.7287 83.1904L9.20279 93.7355C9.80417 94.1949 10.1341 94.9257 9.76657 94.9884C9.27377 95.0802 8.20466 94.4705 7.61998 94.1072C7.47461 94.0447 7.34055 93.9586 7.22323 93.8524C7.06891 93.713 6.94761 93.541 6.86815 93.3488C6.78868 93.1567 6.75305 92.9492 6.76385 92.7415V92.7415Z" fill="#F29696"/>
<path d="M6.76385 92.7415V46.0844C6.75882 45.7472 6.84357 45.4148 7.00944 45.1212C7.1753 44.8277 7.41629 44.5835 7.70768 44.4138C11.5832 42.1628 55.4924 17.2932 64.0162 12.4655C64.1897 12.3672 64.3913 12.3304 64.5883 12.3611C64.5991 12.3569 64.611 12.3569 64.6217 12.3611C65.3022 12.6495 65.9646 12.9786 66.6055 13.3467C66.2409 13.6039 65.7971 13.7238 65.3526 13.6849V17.4143L65.244 61.6075C65.244 62.4929 28.4929 82.7477 27.7287 83.1904L9.20279 93.7355C9.80417 94.1949 10.1341 94.9257 9.76657 94.9884C9.27377 95.0802 8.20466 94.4705 7.61998 94.1072C7.47461 94.0447 7.34055 93.9586 7.22323 93.8524C7.06891 93.713 6.94761 93.541 6.86815 93.3488C6.78868 93.1567 6.75305 92.9492 6.76385 92.7415V92.7415Z" fill="#FFBFBF"/>
<path d="M66.9551 14.0107C66.9444 13.8576 66.8952 13.7098 66.812 13.5808C66.7289 13.4519 66.6145 13.346 66.4795 13.2731C66.3445 13.2002 66.1933 13.1626 66.0399 13.1638C65.8865 13.1649 65.7358 13.2049 65.602 13.2798C57.074 18.1034 13.1774 42.9772 9.28928 45.2282C8.9979 45.3979 8.75691 45.642 8.59104 45.9356C8.42518 46.2292 8.34041 46.5616 8.34545 46.8987V93.5308C8.27445 94.483 9.35193 95.3642 10.2289 94.8631L29.3312 84.0048C30.0996 83.5663 66.8465 63.3072 66.8465 62.4219L66.9551 18.2287V14.0107Z" fill="#DF7E7E"/>
<path d="M61.1895 43.4951V60.9101L39.427 73.4723V56.0406L61.1895 43.4951Z" fill="white"/>
<path d="M38.2832 56.8424V74.2574L16.5249 86.8196V69.3921L38.2832 56.8424Z" fill="white"/>
<path d="M61.1895 24.3761V41.7911L39.427 54.3533V36.9216L61.1895 24.3761Z" fill="white"/>
<path d="M38.2832 37.3727V54.7877L16.5249 67.3499V49.9223L38.2832 37.3727Z" fill="white"/>
<path d="M37.8769 34.7267C37.3658 34.5932 37.1344 33.7849 37.36 32.9213C37.5856 32.0577 38.1828 31.4658 38.6938 31.5993C39.2049 31.7328 39.4363 32.5411 39.2107 33.4047C38.985 34.2683 38.3879 34.8602 37.8769 34.7267Z" fill="#34323D"/>
<path d="M49.0614 41.8362C47.7489 41.3691 47.241 39.4279 47.927 37.5005C48.6129 35.5731 50.2329 34.3892 51.5454 34.8563C52.8579 35.3234 53.3658 37.2646 52.6799 39.192C51.9939 41.1194 50.3739 42.3033 49.0614 41.8362Z" fill="#FFBFBF"/>
<path d="M56.4121 44.5475C56.4121 44.5475 54.988 39.6947 51.3588 40.7513C47.7297 41.8079 45.4411 44.819 45.4411 50.9622" fill="#FFBFBF"/>
<path d="M26.4559 54.8038C25.1435 54.3367 24.6355 52.3956 25.3215 50.4681C26.0074 48.5407 27.6275 47.3569 28.94 47.824C30.2524 48.2911 30.7603 50.2322 30.0744 52.1596C29.3884 54.0871 27.7684 55.2709 26.4559 54.8038Z" fill="#FFBFBF"/>
<path d="M33.7969 57.5106C33.7969 57.5106 32.3728 52.6578 28.7436 53.7144C25.1144 54.771 22.8258 57.7779 22.8258 63.9295" fill="#FFBFBF"/>
<path d="M49.8895 60.3764C48.577 59.9093 48.0691 57.9682 48.7551 56.0408C49.441 54.1133 51.0611 52.9295 52.3736 53.3966C53.686 53.8637 54.1939 55.8048 53.508 57.7323C52.822 59.6597 51.202 60.8435 49.8895 60.3764Z" fill="#FFBFBF"/>
<path d="M57.2324 63.0859C57.2324 63.0859 55.8083 58.2331 52.1791 59.2897C48.55 60.3463 46.2614 63.3573 46.2614 69.5006" fill="#FFBFBF"/>
<path d="M27.9657 73.2491C26.6532 72.782 26.1453 70.8408 26.8312 68.9134C27.5172 66.986 29.1372 65.8021 30.4497 66.2692C31.7622 66.7363 32.2701 68.6775 31.5842 70.6049C30.8982 72.5323 29.2782 73.7162 27.9657 73.2491Z" fill="#FFBFBF"/>
<path d="M35.3125 75.9613C35.3125 75.9613 33.8884 71.1085 30.2592 72.1651C26.6301 73.2217 24.3415 76.2328 24.3415 82.376" fill="#FFBFBF"/>
<path d="M60.3129 86.0302C62.1129 84.7774 64.2302 84.0841 66.5188 84.5894C68.9577 85.124 71.0668 86.6776 73.5516 87.0326C73.9442 87.091 75.5103 86.9908 75.7525 87.2163C82.6642 93.7563 63.3448 93.0631 63.3448 93.0631C61.4697 91.5262 59.7031 90.0144 57.8447 88.4692C58.4043 87.1996 59.3482 86.7068 60.3129 86.0302Z" fill="#F8997C"/>
<path d="M69.4084 95.5146L70.0934 115.247C70.1184 115.995 68.9574 115.995 68.9324 115.247L68.2474 95.5146C68.2182 94.7629 69.3792 94.767 69.4084 95.5146Z" fill="#F8997C"/>
<path d="M54.918 106.072C58.4372 102.628 61.799 99.0351 65.0036 95.2932C65.4923 94.7252 66.3108 95.5479 65.8389 96.1284C62.6371 99.8676 59.2752 103.461 55.7532 106.907C55.2061 107.417 54.3792 106.594 54.918 106.072Z" fill="#F8997C"/>
<path d="M73.4367 93.6937C76.168 98.85 78.7406 104.084 81.1544 109.396C81.4635 110.073 80.4612 110.649 80.1521 109.985C77.7383 104.673 75.1657 99.4389 72.4344 94.2826C72.0627 93.6144 73.0859 93.0255 73.4367 93.6937Z" fill="#F8997C"/>
<path d="M56.0931 81.3654C56.0931 81.3654 53.5873 81.879 53.0152 82.4428C52.443 83.0066 51.5284 85.3662 51.7832 86.0804C52.0379 86.7945 52.7562 85.6627 53.0653 85.2117C53.4305 84.7323 53.8237 84.2749 54.243 83.8419C55.0686 83.969 55.9134 83.8574 56.6777 83.5203" fill="#FCBF81"/>
<path d="M55.2531 102.735C54.8898 102.364 54.6559 101.954 54.7812 101.549C55.0025 100.823 55.9881 100.53 56.6605 100.568C57.3329 100.605 58.0345 100.948 58.7152 101.152C59.4289 101.409 60.1907 101.503 60.9453 101.428C61.0673 101.412 61.179 101.351 61.2586 101.257C61.468 101.207 61.6611 101.104 61.8191 100.958C61.9771 100.811 62.0947 100.627 62.1606 100.422L64.3949 99.6198C64.3949 99.6198 64.9629 104.347 64.9629 104.681C64.7958 107.229 60.9913 105.776 60.9913 105.776C60.9913 105.776 60.8576 104.623 60.82 104.468C60.7825 104.314 59.3249 104.765 58.7319 104.673C58.4535 104.596 58.1896 104.473 57.951 104.31C57.4999 104.063 57.0614 103.796 56.6229 103.529C56.1844 103.262 55.7083 103.007 55.2531 102.735Z" fill="#E55600"/>
<path d="M63.5899 85.3036C64.4252 85.3871 65.2605 85.4957 66.0957 85.6126C65.7477 90.9749 65.3621 96.3331 64.9389 101.687C62.7672 102.577 61.886 102.163 60.5371 100.785C60.2823 95.6732 59.8313 90.3193 59.848 85.1574C61.1009 85.2117 62.3454 85.266 63.5899 85.3036Z" fill="#34323D"/>
<path d="M72.6268 83.8335C72.6268 83.8335 72.986 89.7012 70.0376 91.0125C67.0891 92.3239 61.0377 91.6682 58.0642 89.9225C56.5253 88.9855 54.9104 88.1794 53.2365 87.5128C53.2365 87.5128 52.4722 84.9444 54.3265 83.8335C56.1807 82.7227 60.2818 81.3528 63.9319 83.8335" fill="#34323D"/>
<path d="M59.6892 67.7174C59.5967 67.4966 59.4878 67.283 59.3635 67.0784C59.36 67.0914 59.3527 67.1031 59.3426 67.1118C59.3393 67.1285 59.3309 67.1438 59.3187 67.1557C59.3064 67.1675 59.2908 67.1753 59.274 67.178C59.2572 67.1808 59.24 67.1783 59.2246 67.1709C59.2092 67.1636 59.1965 67.1517 59.1881 67.1369L58.95 66.7777C58.9581 66.8247 58.9581 66.8727 58.95 66.9197C58.9309 67.0075 58.8795 67.085 58.8061 67.1368C58.7326 67.1886 58.6424 67.211 58.5533 67.1995C58.501 67.1958 58.4502 67.1806 58.4045 67.1549C58.3589 67.1292 58.3194 67.0937 58.2891 67.051C58.2588 67.0083 58.2383 66.9594 58.229 66.9078C58.2198 66.8562 58.2222 66.8033 58.2359 66.7527L58.1273 66.6274C58.1329 66.6634 58.1329 66.7 58.1273 66.736C58.1108 66.7862 58.0819 66.8315 58.0433 66.8676C58.0046 66.9037 57.9574 66.9294 57.9061 66.9423C57.8549 66.9552 57.8011 66.955 57.75 66.9415C57.6988 66.9281 57.6519 66.9019 57.6136 66.8654C57.5718 66.832 57.5343 66.7903 57.4967 66.7527C57.4637 66.7669 57.4282 66.7743 57.3923 66.7743C57.3563 66.7743 57.3208 66.7669 57.2879 66.7527C56.9814 66.6484 56.6816 66.5256 56.39 66.3852C56.4104 66.3764 56.4284 66.3629 56.4424 66.3457C56.4565 66.3285 56.4661 66.3082 56.4707 66.2865C56.4752 66.2647 56.4744 66.2422 56.4683 66.2209C56.4623 66.1995 56.4511 66.18 56.4359 66.1638C56.0917 65.8853 55.7274 65.6327 55.3459 65.4079C55.3324 65.3965 55.3168 65.388 55.3 65.3829L55.2791 65.3453C55.1897 65.0557 55.2105 64.7434 55.3375 64.4683C55.2454 64.3562 55.1799 64.2246 55.1459 64.0836C55.112 63.9426 55.1103 63.7956 55.1413 63.6539C55.1719 63.6518 55.2011 63.6401 55.2248 63.6205C55.2792 63.574 55.3257 63.519 55.3626 63.4576C55.4298 63.3739 55.4821 63.2793 55.5171 63.1778C55.5257 63.1523 55.5259 63.1248 55.5176 63.0992C55.5093 63.0736 55.4931 63.0514 55.4712 63.0358C55.6132 62.8479 55.7802 62.6683 55.9264 62.5012C55.5686 61.8916 55.3986 61.1899 55.4378 60.4841C55.441 60.4182 55.4654 60.355 55.5071 60.3039C55.5489 60.2528 55.606 60.2164 55.6699 60.2C55.7339 60.1837 55.8014 60.1882 55.8626 60.2131C55.9238 60.2379 55.9754 60.2817 56.0099 60.3379C56.1504 60.5598 56.2773 60.7899 56.39 61.027C56.4269 61.0511 56.4571 61.0841 56.4777 61.1231C57.0814 62.3627 57.7519 63.5686 58.4864 64.7355C58.6117 64.9318 60.1569 67.0367 59.9648 67.0868C59.9774 67.1828 61.2302 70.0686 59.6892 67.7174ZM58.7871 66.8278C58.7871 66.8278 58.7871 66.8278 58.7871 66.807C58.7793 66.8159 58.7697 66.823 58.7589 66.8278C58.7481 66.8327 58.7363 66.8352 58.7245 66.8352C58.7126 66.8352 58.7009 66.8327 58.6901 66.8278C58.6793 66.823 58.6697 66.8159 58.6618 66.807V66.807C58.6243 66.834 58.5813 66.8525 58.5358 66.8611C58.4904 66.8698 58.4436 66.8684 58.3987 66.8571C58.4021 66.9125 58.4273 66.9643 58.4688 67.0011C58.5103 67.0379 58.5647 67.0567 58.6201 67.0534C58.6755 67.05 58.7273 67.0249 58.7641 66.9833C58.8009 66.9418 58.8197 66.8874 58.8164 66.832L58.7871 66.8278Z" fill="#FCBF81"/>
<path d="M59.5345 67.045C59.1995 66.7887 58.9161 66.4713 58.6992 66.1095C58.6583 66.0336 58.6025 65.9668 58.5353 65.9129C58.468 65.859 58.3905 65.8191 58.3075 65.7958C58.2246 65.7724 58.1377 65.7659 58.0522 65.7768C57.9667 65.7876 57.8842 65.8156 57.8097 65.8589C57.7856 65.6902 57.7731 65.5199 57.7721 65.3494C57.7721 64.4808 56.4065 64.4682 56.4232 65.3494C56.3924 66.0312 56.5749 66.7056 56.9452 67.2789C57.3539 67.796 57.8517 68.2358 58.4152 68.5777C58.5146 68.6334 58.6262 68.6638 58.7401 68.6661C58.854 68.6684 58.9668 68.6427 59.0683 68.591C59.1699 68.5394 59.2572 68.4636 59.3225 68.3702C59.3878 68.2768 59.429 68.1688 59.4426 68.0557L59.5011 68.0097C59.5668 67.9487 59.6199 67.8753 59.6572 67.7937C59.6944 67.7121 59.7152 67.624 59.7183 67.5343C59.7214 67.4447 59.7068 67.3553 59.6753 67.2713C59.6437 67.1873 59.5959 67.1104 59.5345 67.045V67.045Z" fill="#FCBF81"/>
<path d="M67.002 70.2858C67.002 70.2858 63.0637 70.4737 62.0364 69.5299C61.009 68.586 59.5306 65.6167 59.5306 65.6167C59.5306 65.6167 56.8161 67.3624 56.6824 68.3647C56.5488 69.367 59.5181 74.2114 60.8378 74.5497" fill="#B65959"/>
<path d="M48.4428 106.41C48.0795 106.039 47.8456 105.629 47.9709 105.224C48.1922 104.498 49.1778 104.205 49.8502 104.243C50.5226 104.281 51.2242 104.623 51.9049 104.828C52.6186 105.084 53.3804 105.178 54.135 105.103C54.257 105.087 54.3687 105.026 54.4483 104.932C54.6577 104.882 54.8508 104.779 55.0088 104.633C55.1668 104.486 55.2844 104.302 55.3503 104.097L57.5888 103.299C57.5888 103.299 58.1609 108.022 58.1401 108.352C57.973 110.9 54.1684 109.447 54.1684 109.447C54.1684 109.447 54.0348 108.294 53.9972 108.139C53.9596 107.985 52.5021 108.436 51.9091 108.344C51.6306 108.267 51.3668 108.144 51.1281 107.981C50.6771 107.734 50.2386 107.467 49.8001 107.2C49.3616 106.932 48.8938 106.682 48.4428 106.41Z" fill="#E55600"/>
<path d="M57.0294 83.9755C57.7978 83.6122 58.6039 83.6498 59.5352 83.654C59.4057 85.5417 59.4767 86.2224 59.3598 88.11L59.3263 88.6112C58.9672 94.199 58.5579 99.7827 58.1236 105.362C55.9519 106.252 55.0707 105.838 53.7218 104.46C53.4211 98.5131 52.8615 92.232 53.0787 86.3143C54.3441 85.0739 55.4591 84.7231 57.0294 83.9755Z" fill="#34323D"/>
<path d="M72.6824 82.6183C72.6824 82.7645 72.6532 83.2489 72.6323 83.8336C71.4128 85.4415 69.9177 86.3853 67.5748 86.3143C65.6788 86.26 64.096 85.4289 62.6093 84.4057C62.793 80.9687 63.3485 75.101 64.2171 71.0083C64.2923 70.6617 65.1902 70.432 65.47 70.2858C66.0881 69.9475 65.7248 69.367 66.3303 69.0037C67.2083 68.4933 68.1226 68.048 69.0658 67.6715H69.0908C70.6026 67.6506 73.2044 68.8116 73.359 70.8329C73.597 73.9442 73.2545 75.8152 73.0123 78.9181C72.8996 80.171 72.7868 81.403 72.6824 82.6183Z" fill="#C96F6F"/>
<path d="M67.4234 61.7871C67.2229 61.8372 65.5482 65.6961 66.2039 68.0515C66.8596 70.4069 70.8396 67.9847 71.8419 66.2014C72.8442 64.4182 71.1862 60.8099 67.4234 61.7871Z" fill="#FCBF81"/>
<path d="M67.4678 62.3258C67.4678 62.3258 67.4678 63.5996 68.5786 63.9963C69.6895 64.3931 70.6167 64.6854 70.5582 65.1991C70.4997 65.7128 68.5452 65.1281 68.5369 66.3058C68.5357 67.1003 68.6425 67.8913 68.8543 68.657C68.9754 69.2334 72.3206 67.4626 73.4231 64.4432C74.5256 61.4238 71.7526 60.6219 71.6315 60.601C71.5104 60.5801 71.2473 59.7658 69.8942 59.4651C68.5411 59.1644 68.161 59.6948 68.161 59.6948C67.8537 59.5095 67.4942 59.43 67.1374 59.4684C66.7807 59.5069 66.4463 59.6612 66.1856 59.9078C64.9328 60.8975 65.2543 62.7059 66.6659 63.4409L67.4678 62.3258Z" fill="#34323D"/>
<path d="M66.7852 74.2866C66.7852 74.2866 62.6465 81.8457 60.3579 82.4972C58.716 82.9261 57.0387 83.2057 55.3464 83.3324C55.3464 83.3324 55.0624 81.2443 55.3464 80.3338C55.3464 80.3338 59.009 78.6842 59.3681 77.6945C59.7273 76.7047 62.8135 69.7596 66.3174 69.0245" fill="#C96F6F"/>
<path d="M62.9758 80.1627C63.2305 79.8369 66.0996 76.5878 66.0996 76.5878L62.65 83.6707L62.9758 80.1627Z" fill="#34323D"/>
<path d="M58.107 88.3314C59.182 89.8327 60.7057 90.9543 62.4587 91.5346C64.9185 92.2821 68.4976 91.9313 69.788 89.3587C72.1393 84.6772 69.93 78.822 72.4149 74.2699C72.7014 73.6946 73.1062 73.1863 73.6028 72.7782C74.0994 72.3701 74.6766 72.0716 75.2965 71.902C76.9086 71.5512 78.0111 72.7581 78.5958 74.1822C79.644 76.7339 79.6064 79.9162 79.5521 82.6308C79.5499 84.8277 79.3908 87.0216 79.076 89.1959C79.076 89.1959 77.5726 98.3168 65.8373 95.8779C63.8061 95.5092 61.8555 94.7869 60.0741 93.7438C59.1589 93.2116 58.3594 92.5016 57.7228 91.6557C57.0296 90.6242 57.489 89.3838 58.107 88.3314Z" fill="#6A5B5B"/>
<path d="M3.66779 37.001V49.843C3.6692 50.0381 3.72138 50.2295 3.81921 50.3982C3.91704 50.567 4.05714 50.7074 4.22571 50.8056C4.39429 50.9038 4.58553 50.9564 4.78061 50.9583C4.9757 50.9601 5.1679 50.9111 5.33829 50.8161L18.5436 43.2028C18.7148 43.1044 18.8571 42.9627 18.9561 42.7919C19.055 42.621 19.1072 42.4271 19.1074 42.2297V29.3793C19.106 29.1843 19.0538 28.9929 18.956 28.8241C18.8582 28.6553 18.7181 28.5149 18.5495 28.4167C18.3809 28.3185 18.1897 28.2659 17.9946 28.2641C17.7995 28.2623 17.6073 28.3113 17.4369 28.4063L4.24828 36.0196C4.07275 36.1165 3.92635 36.2586 3.82427 36.4312C3.7222 36.6038 3.66816 36.8005 3.66779 37.001Z" fill="#FFBFBF"/>
<path d="M19.1074 39.8826V45.7837L15.1107 43.4951L19.1074 39.8826Z" fill="#8EA3FF"/>
<path d="M64.2677 37.9908V50.8286C64.2691 51.0237 64.3213 51.215 64.4191 51.3838C64.5169 51.5526 64.657 51.693 64.8256 51.7912C64.9942 51.8894 65.1854 51.942 65.3805 51.9438C65.5756 51.9457 65.7678 51.8967 65.9382 51.8017L79.1393 44.1925C79.3105 44.0942 79.4528 43.9524 79.5518 43.7816C79.6507 43.6108 79.7029 43.4169 79.7031 43.2194V30.3774C79.7017 30.1824 79.6495 29.991 79.5517 29.8222C79.4539 29.6534 79.3138 29.513 79.1452 29.4148C78.9766 29.3166 78.7854 29.264 78.5903 29.2622C78.3952 29.2604 78.203 29.3094 78.0326 29.4044L64.844 37.0177C64.6705 37.1144 64.5257 37.2555 64.4245 37.4264C64.3232 37.5974 64.2691 37.7921 64.2677 37.9908V37.9908Z" fill="#FFBFBF"/>
<path d="M67.4043 50.9664L61.7496 54.0819L64.577 47.5001" fill="#8EA3FF"/>
<path d="M16.4685 35.4934L6.69188 41.0311C6.55063 41.09 6.39268 41.0952 6.24787 41.0457C6.10306 40.9961 5.9814 40.8953 5.90585 40.7622C5.8303 40.6291 5.80609 40.4729 5.8378 40.3232C5.86951 40.1734 5.95495 40.0405 6.07797 39.9494L15.8337 34.4117C15.9767 34.3351 16.1439 34.317 16.2999 34.3612C16.456 34.4053 16.5889 34.5083 16.6706 34.6484C16.7523 34.7886 16.7765 34.955 16.738 35.1125C16.6995 35.2701 16.6014 35.4066 16.4643 35.4934H16.4685Z" fill="#F2F2F2"/>
<path d="M16.7171 38.7801L6.94052 44.3137C6.79752 44.3902 6.63039 44.4083 6.4743 44.3642C6.31821 44.32 6.18533 44.2171 6.10363 44.0769C6.02193 43.9368 5.99777 43.7704 6.03624 43.6128C6.07472 43.4552 6.17282 43.3187 6.3099 43.232L16.1032 37.6985C16.2462 37.6219 16.4134 37.6038 16.5695 37.6479C16.7255 37.6921 16.8584 37.7951 16.9401 37.9352C17.0218 38.0753 17.046 38.2417 17.0075 38.3993C16.969 38.5569 16.8709 38.6934 16.7339 38.7801H16.7171Z" fill="#F2F2F2"/>
<path d="M77.5268 35.9444L66.8022 42.0125C66.6592 42.0891 66.4921 42.1072 66.336 42.0631C66.1799 42.0189 66.047 41.9159 65.9653 41.7758C65.8836 41.6356 65.8594 41.4693 65.8979 41.3117C65.9364 41.1541 66.0345 41.0176 66.1716 40.9309L76.8962 34.8628C77.0392 34.7862 77.2063 34.7681 77.3624 34.8122C77.5185 34.8564 77.6514 34.9594 77.7331 35.0995C77.8148 35.2396 77.839 35.406 77.8005 35.5636C77.762 35.7212 77.6639 35.8577 77.5268 35.9444V35.9444Z" fill="#F2F2F2"/>
<path d="M77.7964 39.5443L67.0717 45.6166C66.9287 45.6932 66.7616 45.7113 66.6055 45.6671C66.4494 45.623 66.3165 45.52 66.2348 45.3799C66.1531 45.2397 66.129 45.0734 66.1674 44.9158C66.2059 44.7582 66.304 44.6217 66.4411 44.535L77.1657 38.4627C77.3087 38.3861 77.4759 38.368 77.632 38.4121C77.788 38.4563 77.9209 38.5593 78.0026 38.6994C78.0843 38.8396 78.1085 39.0059 78.07 39.1635C78.0315 39.3211 77.9334 39.4576 77.7964 39.5443V39.5443Z" fill="#F2F2F2"/>
</g>
<defs>
<linearGradient id="paint0_linear" x1="61.4186" y1="105.801" x2="77.1715" y2="115.21" gradientUnits="userSpaceOnUse">
<stop stop-color="#808080"/>
<stop offset="1" stop-color="white"/>
</linearGradient>
</defs>
</svg>
