<svg width="372" height="294" viewBox="0 0 372 294" fill="none" xmlns="http://www.w3.org/2000/svg">
<path style="mix-blend-mode:darken" opacity="0.37" d="M46.9699 238.671H9.80161C-0.147481 228.34 -2.80442 211.878 3.13038 198.824C8.79805 186.377 20.9564 178.161 28.3208 166.645C44.0458 142.097 36.4505 105.449 57.8143 85.5795C68.4926 75.6521 83.8494 72.7786 98.3904 71.6161C112.931 70.4537 127.949 70.4898 141.392 64.8366C157.998 57.8693 170.474 42.9024 187.55 37.2636C206.726 30.9317 229.664 38.8303 240.869 55.6312C247.88 66.1434 250.529 79.3487 258.818 88.8863C272.225 104.301 295.849 105.492 312.57 117.239C318.296 121.312 323.098 126.547 326.664 132.602C330.229 138.657 332.478 145.396 333.263 152.379C335.046 169.201 328.656 188.312 338.75 201.9C343.667 208.521 351.645 212.254 356.944 218.578C362.244 224.903 363.716 230.621 362.056 238.671H46.9699Z" fill="url(#paint0_linear)"/>
<g style="mix-blend-mode:darken" opacity="0.37">
<path d="M56.4715 238.671H19.296C9.35409 228.34 6.68993 211.878 12.632 198.824C18.2996 186.377 30.458 178.161 37.8224 166.645C53.5474 142.097 45.9448 105.449 67.3086 85.5795C77.9942 75.6521 93.351 72.7786 107.885 71.6161C122.419 70.4537 137.487 70.4898 150.894 64.8366C167.5 57.8693 179.969 42.9024 197.051 37.2636C216.227 30.9317 239.165 38.8303 250.37 55.6312C257.381 66.1434 260.024 79.3487 268.319 88.8863C281.727 104.301 305.35 105.492 322.072 117.239C327.796 121.313 332.598 126.549 336.163 132.603C339.729 138.658 341.978 145.396 342.764 152.379C344.548 169.201 338.158 188.312 348.244 201.9C353.168 208.521 361.146 212.254 366.446 218.578C371.745 224.903 373.211 230.621 371.55 238.671H56.4715Z" fill="#B6CDEF"/>
</g>
<path d="M142.021 111.391L140.49 111.441H2.25725L1.92514 111.485C0.553349 102.315 7.7011 93.0016 16.7621 90.5468C24.6608 88.3808 33.9023 90.3086 40.5158 85.4929C46.4434 81.1609 47.9162 73.0818 51.7933 66.8509C54.2212 62.9552 57.623 59.7599 61.663 57.5805C66.717 54.873 72.9911 53.9272 78.1606 56.3748C87.3155 60.7068 89.07 72.8507 95.1925 80.9226C96.5571 82.7276 98.2754 84.4099 100.463 85.0091C102.477 85.5651 104.615 85.1319 106.679 84.7636C113.445 83.5723 121.56 83.6806 125.769 89.0956C127.747 91.6515 128.455 94.9293 129.552 97.9617C130.65 100.994 132.44 104.12 135.487 105.182C136.931 105.694 138.599 105.709 139.884 106.568C141.436 107.622 141.927 109.463 142.021 111.391Z" fill="url(#paint1_linear)"/>
<path d="M364.367 128.849H203.167C202.542 127.932 202.165 126.869 202.073 125.763C201.981 124.657 202.176 123.547 202.64 122.539C203.831 119.903 206.315 118.113 208.791 116.625C211.268 115.138 213.903 113.737 215.758 111.571C219.318 107.319 219.108 101.218 219.895 95.7309C220.82 89.2329 223.549 82.735 228.473 78.403C230.449 76.6892 232.665 75.2735 235.05 74.201C241.801 71.0603 250.161 70.2733 256.472 74.201C262.508 77.9842 265.468 85.1825 270.731 89.9838C271.932 91.1898 273.424 92.0652 275.063 92.5252C279.778 93.6082 283.785 89.334 287.337 86.0272C292.391 81.3415 299.077 77.8398 305.892 78.7134C313.906 79.7531 320.101 86.6554 323.141 94.1136C324.411 97.2326 325.379 100.684 327.906 102.9C334.404 108.582 345.335 102.214 352.894 106.344C355.732 107.896 357.63 110.719 359.147 113.564C361.669 118.357 363.43 123.514 364.367 128.849Z" fill="url(#paint2_linear)"/>
<path d="M138.83 218.282H127.234V238.664H99.1416V218.282H57.1504V197.395L100.947 133.361H127.234V197.034H138.83V218.282ZM99.12 197.034V184.76C99.12 182.454 99.2042 179.345 99.3727 175.432C99.4002 173.374 99.5327 171.318 99.7698 169.273H98.9756C97.3976 172.869 95.5438 176.338 93.4307 179.648L81.7632 196.976L99.12 197.034Z" fill="url(#paint3_linear)"/>
<path d="M131.161 218.289H119.559V238.671H91.4731V218.289H49.4746V197.402L93.2708 133.368H119.559V197.041H131.161V218.289ZM91.4514 197.041V184.767C91.4514 182.462 91.5356 179.352 91.7041 175.439C91.8726 171.526 92.0025 169.473 92.094 169.28H91.3287C89.7483 172.877 87.892 176.345 85.7765 179.655L74.1091 196.983L91.4514 197.041Z" fill="url(#paint4_linear)"/>
<path d="M322.143 218.99L318.107 198.124L310.577 199.568L306.722 200.29L294.635 137.772L268.817 142.769L237.98 213.95L241.944 234.462L283.177 226.484L285.524 238.635H314.137L310.758 221.156L314.613 220.434L322.143 218.99ZM271.604 207.12L262.095 208.954L268.882 192.94L270.254 189.698C271.699 186.046 272.86 182.288 273.726 178.457L274.506 178.312C274.662 180.365 274.923 182.409 275.286 184.435C275.864 188.286 276.371 191.354 276.809 193.64L279.134 205.662L271.604 207.12Z" fill="url(#paint5_linear)"/>
<path d="M314.614 220.448L310.578 199.59L299.192 201.792L287.099 139.274L268.818 142.805L261.288 144.249L230.451 215.438L234.415 235.942L241.945 234.498L275.648 228L277.713 238.686H306.326L303.228 222.665L310.759 221.221L314.614 220.448ZM268.89 192.94C269.027 193.727 269.165 194.442 269.287 195.106L271.612 207.127L254.566 210.427L262.732 191.157C264.177 187.507 265.339 183.751 266.204 179.923L266.984 179.771C267.139 181.824 267.4 183.867 267.764 185.894C268.175 188.652 268.551 191.005 268.89 192.94Z" fill="url(#paint6_linear)"/>
<path d="M142.75 185.258H125.603L114.723 105.499C114.723 105.499 98.9758 88.3014 80.9043 85.0813L98.1167 83.2113L136.909 84.2654L142.75 185.258Z" fill="url(#paint7_linear)"/>
<path d="M75.0619 141.404C75.0619 141.404 65.315 155.664 69.647 167.916L87.7762 141.404L85.4226 138.242L75.0619 141.404Z" fill="#111023"/>
<path d="M125.602 185.258L125.017 188.94C125.017 188.94 119.847 189.662 119.559 197.041H133.002L140.301 189.915L140.98 185.258H125.602Z" fill="#111023"/>
<path d="M104.853 105.427L83.3587 104.626L86.8532 137.541L72.2833 142.761L63.8865 102.113C63.3126 100.338 63.1413 98.457 63.385 96.6072C63.6288 94.7575 64.2815 92.9852 65.2958 91.4192C66.31 89.8533 67.6604 88.5328 69.2487 87.5539C70.837 86.575 72.6234 85.9622 74.4782 85.7599L80.8823 85.0379C98.961 88.2869 114.722 105.499 114.722 105.499L104.853 105.427Z" fill="url(#paint8_linear)"/>
<path d="M65.2732 13.5533V14.528L64.1108 14.6797C63.8942 14.1422 63.5754 13.6518 63.1722 13.2357C61.6199 11.9 60.5369 10.8386 59.425 11.4884C58.5875 11.9722 58.6525 14.2753 58.703 15.3583L55.5335 15.7626L27.4551 19.3221V19.2715C29.2745 18.8456 30.6896 15.5749 30.6896 11.604C30.6896 7.63298 29.3178 4.4562 27.5345 3.95081L65.266 8.20336V13.5678L65.2732 13.5533Z" fill="url(#paint9_linear)"/>
<path d="M29.5626 5.99379C29.4836 6.10741 29.4112 6.22553 29.346 6.34756C29.0346 7.17158 28.6705 7.97466 28.2558 8.75181C27.8868 9.28503 27.3661 9.69505 26.7612 9.92866C26.1149 10.1364 25.4458 10.2649 24.7685 10.3113C24.3138 10.3543 23.8683 10.4663 23.4473 10.6434C23.6566 6.89628 25.1367 3.97942 26.9562 3.88556L27.541 3.95054C27.9999 4.13452 28.4161 4.41081 28.7639 4.76229C29.1116 5.11376 29.3835 5.53292 29.5626 5.99379Z" fill="url(#paint10_linear)"/>
<path d="M30.6816 10.9613C30.2195 11.5822 29.9957 12.3548 29.5625 12.9901C29.0536 13.7669 28.2649 14.3177 27.3604 14.528C26.5518 14.7085 25.671 14.6074 24.9273 14.9828C24.5542 15.1816 24.2404 15.4755 24.0176 15.8348C23.6103 14.4568 23.4084 13.0263 23.4183 11.5894C23.4183 11.2645 23.4183 10.9469 23.4544 10.6292C23.8754 10.452 24.3209 10.3401 24.7757 10.2971C25.4529 10.2506 26.1221 10.1221 26.7684 9.91442C27.3687 9.68345 27.8865 9.27874 28.2557 8.752C28.6698 7.97954 29.034 7.1813 29.3459 6.3622C29.4112 6.24017 29.4835 6.12205 29.5625 6.00842C30.2733 7.56448 30.6543 9.25082 30.6816 10.9613Z" fill="url(#paint11_linear)"/>
<path d="M30.6954 11.5895C30.6954 15.5605 29.2514 18.8095 27.4609 19.2571C27.3266 19.2921 27.1882 19.3091 27.0494 19.3077C25.7787 19.3077 24.6596 17.9286 24.0098 15.8349C24.2326 15.4756 24.5464 15.1817 24.9195 14.9829C25.6415 14.6075 26.544 14.7086 27.3526 14.5281C28.2381 14.3183 29.0117 13.782 29.5186 13.0263C29.9518 12.3909 30.1756 11.5823 30.6377 10.9975C30.6882 11.1636 30.6954 11.3729 30.6954 11.5895Z" fill="url(#paint12_linear)"/>
<path d="M87.5098 9.69781H98.8379C97.8836 10.0356 96.9892 10.523 96.1881 11.1418C95.8271 11.4739 95.986 12.0732 96.4264 12.8529H87.5098V9.69781Z" fill="#111023"/>
<path d="M112.671 11.64V12.8963H106.52C106.048 11.8603 105.652 10.7913 105.336 9.69781H112.671V11.64Z" fill="#111023"/>
<path d="M87.5109 12.8601V13.5532H65.2734V8.9541H87.5109V9.69776V12.8601Z" fill="url(#paint13_linear)"/>
<path d="M66.1537 21.4157L61.2947 25.1412C61.2947 25.1412 55.3527 18.9104 55.591 15.7552L58.7605 15.3509C58.6883 14.2679 58.6233 11.9648 59.4825 11.481C60.5944 10.8312 61.6485 11.8926 63.2297 13.2283C63.6329 13.6444 63.9516 14.1348 64.1683 14.6723C65.0308 16.8561 65.6953 19.1129 66.1537 21.4157Z" fill="url(#paint14_linear)"/>
<path d="M33.2159 3.96511C32.8838 3.24312 31.8297 3.85681 32.1546 4.56437C33.1449 6.6901 33.6027 9.02505 33.4882 11.3674C33.3737 13.7097 32.6905 15.9889 31.4975 18.0079C31.4366 18.146 31.4287 18.3017 31.4753 18.4452C31.5219 18.5888 31.6198 18.7101 31.7502 18.786C31.8807 18.8619 32.0345 18.8872 32.1823 18.8568C32.3302 18.8265 32.4617 18.7428 32.5517 18.6216C33.8419 16.4154 34.5765 13.9285 34.6922 11.3753C34.8079 8.82211 34.3013 6.27903 33.2159 3.96511Z" fill="#5B2B89"/>
<path d="M120.397 26.3327V30.1087L115.885 25.8417L120.397 26.3327Z" fill="url(#paint15_linear)"/>
<path d="M120.397 30.1087L124.953 34.4407L129.285 38.5416C129.285 38.5416 139.27 31.5383 143.097 31.4805C143.36 31.4738 143.624 31.4931 143.884 31.5383C147.291 32.0148 149.371 35.9569 148.779 39.7329C148.129 43.7977 148.244 48.303 144.331 49.0322C140.418 49.7614 123.148 53.9562 123.148 53.9562L104.246 28.3182L106.477 26.802L111.437 23.3292L112.441 22.6072L114.607 24.6649L115.87 25.8562L120.397 30.1087Z" fill="url(#paint16_linear)"/>
<path d="M132.598 27.1195L143.882 31.5381C143.623 31.493 143.359 31.4736 143.095 31.4804C139.24 31.5381 129.291 38.5054 129.291 38.5054L124.959 34.4044L132.598 27.1195Z" fill="url(#paint17_linear)"/>
<path d="M144.324 49.0321L137.769 66.8798L136.888 84.2655C136.888 84.2655 136.122 84.4026 134.787 84.5903C128.534 85.4784 109.806 87.6155 98.095 83.2113L102.658 61.6165L100.55 44.5846L75.0994 47.4004L59.1289 26.8019L61.2949 25.1413L66.19 21.4158L81.2508 36.1878L104.875 25.8633C105.376 26.2297 105.913 26.5442 106.477 26.8019L104.246 28.3541L123.148 53.9922C123.148 53.9922 140.411 49.7685 144.324 49.0321Z" fill="url(#paint18_linear)"/>
<path d="M111.437 23.2929L106.477 26.8018C105.912 26.5487 105.375 26.2391 104.874 25.8776C104.179 25.4392 103.586 24.8564 103.137 24.1687C102.687 23.481 102.39 22.7046 102.267 21.8922C102.058 19.3941 97.8343 15.322 96.4553 12.8961C96.0148 12.1164 95.856 11.5171 96.217 11.185C97.0181 10.5662 97.9125 10.0788 98.8667 9.74101C101.488 8.70133 104.982 7.99378 105.3 9.61105C105.308 9.65523 105.32 9.69868 105.336 9.74101C105.654 10.8222 106.05 11.8791 106.52 12.9033C108.318 17.0476 111.437 23.2929 111.437 23.2929Z" fill="url(#paint19_linear)"/>
<path style="mix-blend-mode:overlay" opacity="0.38" d="M137.776 66.8798C108.86 60.7356 104.246 28.3181 104.246 28.3181L123.148 53.9705L144.324 49.0321L137.776 66.8798Z" fill="url(#paint20_linear)"/>
<path d="M132.432 11.3584C132.59 11.2972 132.761 11.2738 132.93 11.2901C133.099 11.3064 133.262 11.3621 133.406 11.4525C133.55 11.543 133.67 11.6658 133.758 11.8112C133.846 11.9566 133.899 12.1205 133.912 12.2898C134.482 14.528 131.977 17.2066 131.977 17.2066L132.598 27.1196L124.952 34.4045L127.941 25.8417L120.396 26.3326L115.884 25.8417L114.62 24.6359C114.62 24.6359 113.74 16.4268 113.74 11.64C113.716 10.7536 113.772 9.86687 113.906 8.99029L113.942 8.75203C119.227 9.6473 126.562 7.5824 126.562 7.5824C126.562 7.5824 127.595 17.5965 128.995 17.7697C130.396 17.943 130.844 12.3259 130.844 12.3259C131.304 11.9021 131.844 11.5733 132.432 11.3584Z" fill="url(#paint21_linear)"/>
<path d="M132.497 4.08064L132.432 11.3584C131.847 11.5624 131.307 11.8788 130.843 12.2897C130.843 12.2897 130.403 17.9069 128.995 17.7336C127.587 17.5603 126.562 7.54622 126.562 7.54622C126.562 7.54622 119.226 9.61113 113.941 8.75195C112.419 8.59128 110.99 7.94005 109.869 6.89643C105.826 2.63665 107.227 0.217969 113.025 1.53922C118.822 2.86047 130.829 -4.16454 132.497 4.08064Z" fill="#111023"/>
<path d="M127.941 25.8417L124.952 34.4046L120.396 30.1087V26.3327L127.941 25.8417Z" fill="#F79244"/>
<path d="M113.436 10.0373C113.988 9.74887 114.596 9.58108 115.218 9.54499C115.841 9.50889 116.463 9.60532 117.046 9.82788C117.768 10.095 117.233 11.1924 116.49 10.9325C116.106 10.7945 115.698 10.7362 115.291 10.761C114.884 10.7858 114.486 10.8933 114.122 11.0769C113.407 11.4235 112.728 10.3983 113.436 10.0373Z" fill="#111023"/>
<path d="M124.731 14.2914C125.221 14.2658 125.587 13.6575 125.549 12.9328C125.511 12.2081 125.084 11.6413 124.594 11.6669C124.104 11.6925 123.738 12.3007 123.776 13.0254C123.813 13.7502 124.241 14.3169 124.731 14.2914Z" fill="#111023"/>
<path d="M126.216 9.74101C125.636 9.51451 125.015 9.41225 124.393 9.44086C123.771 9.46946 123.163 9.62829 122.606 9.90707C121.884 10.2536 122.57 11.2861 123.277 10.9467C123.645 10.7717 124.044 10.6726 124.451 10.6552C124.858 10.6379 125.264 10.7026 125.646 10.8457C126.389 11.12 126.996 10.0226 126.216 9.74101Z" fill="#111023"/>
<path d="M117.645 17.0404C118.042 15.1704 119.003 13.2715 119.66 11.481C119.797 11.1056 120.382 11.3871 120.208 11.7626L118.974 15.1487C118.754 15.6129 118.578 16.0963 118.447 16.5927C118.317 18.0367 118.959 17.8851 119.688 18.2244C120.049 18.3977 119.768 18.9464 119.407 18.7804C118.512 18.3761 117.378 18.3183 117.645 17.0404Z" fill="#F79244"/>
<path d="M116.967 13.12C116.403 12.6532 115.721 12.3531 114.996 12.2536C114.541 12.1958 114.353 12.8961 114.815 12.9756C115.181 13.0261 115.536 13.1333 115.869 13.2932L114.714 13.6687C114.274 13.8059 114.454 14.5062 114.902 14.3907L116.801 13.777C117.032 13.647 117.19 13.3005 116.967 13.12Z" fill="#111023"/>
<path d="M119.949 24.8598C120.834 24.8598 121.551 23.8222 121.551 22.5422C121.551 21.2622 120.834 20.2246 119.949 20.2246C119.063 20.2246 118.346 21.2622 118.346 22.5422C118.346 23.8222 119.063 24.8598 119.949 24.8598Z" fill="white"/>
<g style="mix-blend-mode:multiply" opacity="0.5">
<path d="M341.248 238.671H51.5406C51.5406 238.671 35.9528 249.025 59.1288 250.772C82.3048 252.519 118.455 254.18 117.56 262.064C116.665 269.948 95.7412 268.396 95.7412 282.28C95.7412 296.164 192.272 292.987 192.272 292.987C192.272 292.987 246.804 293.709 254.566 284.489C262.327 275.269 232.588 266.836 237.96 263.197C243.331 259.559 282.557 270.468 288.398 261.638C294.239 252.808 287.236 247.234 298.008 246.064C308.78 244.895 339.436 249.176 341.248 238.671Z" fill="#CCDEF3"/>
</g>
<path d="M195.873 285.045C207.884 285.045 217.62 283.17 217.62 280.858C217.62 278.545 207.884 276.67 195.873 276.67C183.863 276.67 174.127 278.545 174.127 280.858C174.127 283.17 183.863 285.045 195.873 285.045Z" fill="#E9FDFF"/>
<path d="M224.63 182.962C220.168 172.763 211.8 166.409 199.526 163.902C198.193 163.627 196.886 163.411 195.606 163.252C184.776 161.88 175.845 164.465 168.813 171.006C160.943 178.313 155.133 191.133 151.384 209.467C149.088 220.706 148.448 230.431 149.463 238.642H176.293C175.956 233.829 176.899 225.993 179.123 215.134C181.53 203.375 183.912 195.433 186.271 191.308C187.642 188.902 189.195 187.321 190.927 186.565C192.197 186.008 193.611 185.871 194.963 186.175C198.4 186.883 200.378 189.677 200.898 194.557C201.418 199.438 200.511 207.597 198.176 219.033C196.424 227.606 194.665 234.144 192.899 238.65H222.298C223.76 234.071 224.965 229.414 225.908 224.701C226.592 221.331 227.131 218.111 227.525 215.04C229.21 201.915 228.245 191.222 224.63 182.962Z" fill="url(#paint22_linear)"/>
<path d="M217.116 181.432C213.111 172.272 205.934 166.214 195.586 163.259C194.426 162.927 193.222 162.633 191.976 162.378C179.37 159.798 169.132 162.166 161.262 169.483C153.392 176.799 147.585 189.629 143.84 207.972C143.075 211.703 142.495 215.272 142.1 218.679C141.211 225.316 141.211 232.042 142.1 238.679H168.893C168.857 238.505 168.836 238.332 168.814 238.152C168.251 233.478 169.161 225.295 171.543 213.604C173.95 201.845 176.335 193.903 178.698 189.778C181.061 185.653 183.949 183.942 187.362 184.645C188.698 184.892 189.918 185.563 190.842 186.558C192.178 188.002 193.008 190.168 193.297 193.02C193.817 197.905 192.909 206.064 190.575 217.495C188.611 227.083 186.64 234.132 184.662 238.643H214.213C215.921 233.58 217.317 228.418 218.393 223.185C221.999 205.549 221.573 191.631 217.116 181.432Z" fill="url(#paint23_linear)"/>
<path d="M237.599 112.625L237.418 112.763L218.552 127.448L206.777 136.61L196.972 163.743L194.25 162.761L204.351 134.841L235.83 110.344L237.599 112.625Z" fill="#2A2A2A"/>
<path d="M246.638 173.518C244.472 176.067 241.584 177.85 238.696 179.511L238.501 179.172C239.634 177.728 240.833 176.017 240.494 174.204C240.149 172.99 239.419 171.921 238.414 171.157C236.833 169.764 235.071 168.587 233.562 167.122C231.968 165.72 230.899 163.818 230.53 161.728C230.212 158.985 231.692 156.393 232.27 153.692C232.563 152.62 232.52 151.484 232.147 150.436C231.18 148.14 228.256 147.613 225.938 146.689C223.866 145.852 221.917 144.299 221.339 142.14C220.502 139.007 222.732 135.801 222.429 132.574C222.296 131.452 221.865 130.385 221.183 129.484C220.5 128.583 219.589 127.88 218.545 127.448L237.411 112.763C240.609 115.535 243.367 119.21 243.403 123.405C243.403 126.062 242.342 128.589 241.577 131.13C241.21 132.134 241.081 133.209 241.201 134.271C241.497 135.874 242.775 137.087 243.952 138.22C246.385 140.552 248.833 143.39 248.789 146.761C248.746 150.545 245.519 153.916 246.082 157.656C246.443 160.046 248.284 161.952 249.02 164.248C250.038 167.425 248.782 170.97 246.638 173.518Z" fill="url(#paint24_linear)"/>
<defs>
<linearGradient id="paint0_linear" x1="179.644" y1="248.787" x2="191.326" y2="72.3959" gradientUnits="userSpaceOnUse">
<stop stop-color="#31D1D6"/>
<stop offset="0.37" stop-color="#32CED8"/>
<stop offset="0.62" stop-color="#36C6DF"/>
<stop offset="0.82" stop-color="#3CB7EB"/>
<stop offset="1" stop-color="#45A3FA"/>
</linearGradient>
<linearGradient id="paint1_linear" x1="71.8865" y1="111.976" x2="71.8865" y2="81.2114" gradientUnits="userSpaceOnUse">
<stop stop-color="#F9E6D9"/>
<stop offset="0.12" stop-color="#FCF1EA"/>
<stop offset="0.27" stop-color="#FEF9F6"/>
<stop offset="0.48" stop-color="#FFFEFD"/>
<stop offset="1" stop-color="white"/>
</linearGradient>
<linearGradient id="paint2_linear" x1="86354.5" y1="13130.6" x2="86409.3" y2="10741.8" gradientUnits="userSpaceOnUse">
<stop stop-color="#F9E6D9"/>
<stop offset="0.12" stop-color="#FCF1EA"/>
<stop offset="0.27" stop-color="#FEF9F6"/>
<stop offset="0.48" stop-color="#FFFEFD"/>
<stop offset="1" stop-color="white"/>
</linearGradient>
<linearGradient id="paint3_linear" x1="17884.5" y1="31779" x2="27124.9" y2="31779" gradientUnits="userSpaceOnUse">
<stop stop-color="#31D1D6"/>
<stop offset="0.37" stop-color="#32CED8"/>
<stop offset="0.62" stop-color="#36C6DF"/>
<stop offset="0.82" stop-color="#3CB7EB"/>
<stop offset="1" stop-color="#45A3FA"/>
</linearGradient>
<linearGradient id="paint4_linear" x1="21715.2" y1="40469.7" x2="21568.6" y2="34678.4" gradientUnits="userSpaceOnUse">
<stop stop-color="#F9E6D9"/>
<stop offset="0.12" stop-color="#FCF1EA"/>
<stop offset="0.27" stop-color="#FEF9F6"/>
<stop offset="0.48" stop-color="#FFFEFD"/>
<stop offset="1" stop-color="white"/>
</linearGradient>
<linearGradient id="paint5_linear" x1="44299.9" y1="23507.8" x2="53631.7" y2="21698.6" gradientUnits="userSpaceOnUse">
<stop stop-color="#31D1D6"/>
<stop offset="0.37" stop-color="#32CED8"/>
<stop offset="0.62" stop-color="#36C6DF"/>
<stop offset="0.82" stop-color="#3CB7EB"/>
<stop offset="1" stop-color="#45A3FA"/>
</linearGradient>
<linearGradient id="paint6_linear" x1="43762.1" y1="37727.8" x2="43635.3" y2="32260" gradientUnits="userSpaceOnUse">
<stop stop-color="#F9E6D9"/>
<stop offset="0.12" stop-color="#FCF1EA"/>
<stop offset="0.27" stop-color="#FEF9F6"/>
<stop offset="0.48" stop-color="#FFFEFD"/>
<stop offset="1" stop-color="white"/>
</linearGradient>
<linearGradient id="paint7_linear" x1="18032.4" y1="23661.1" x2="20093.1" y2="23338.4" gradientUnits="userSpaceOnUse">
<stop stop-color="#31D1D6"/>
<stop offset="0.37" stop-color="#32CED8"/>
<stop offset="0.62" stop-color="#36C6DF"/>
<stop offset="0.82" stop-color="#3CB7EB"/>
<stop offset="1" stop-color="#45A3FA"/>
</linearGradient>
<linearGradient id="paint8_linear" x1="11727.9" y1="11667.3" x2="15392.8" y2="11667.3" gradientUnits="userSpaceOnUse">
<stop stop-color="#31D1D6"/>
<stop offset="0.37" stop-color="#32CED8"/>
<stop offset="0.62" stop-color="#36C6DF"/>
<stop offset="0.82" stop-color="#3CB7EB"/>
<stop offset="1" stop-color="#45A3FA"/>
</linearGradient>
<linearGradient id="paint9_linear" x1="27.4623" y1="11.6184" x2="65.2732" y2="11.6184" gradientUnits="userSpaceOnUse">
<stop stop-color="#51ADC6"/>
<stop offset="0.01" stop-color="#55AFC4"/>
<stop offset="0.07" stop-color="#74BFB5"/>
<stop offset="0.13" stop-color="#8FCDA7"/>
<stop offset="0.21" stop-color="#A5D89D"/>
<stop offset="0.3" stop-color="#B6E194"/>
<stop offset="0.41" stop-color="#C1E78E"/>
<stop offset="0.57" stop-color="#C8EA8B"/>
<stop offset="1" stop-color="#CAEB8A"/>
</linearGradient>
<linearGradient id="paint10_linear" x1="29.5626" y1="7.25006" x2="23.4473" y2="7.25006" gradientUnits="userSpaceOnUse">
<stop stop-color="#8AEBD6"/>
<stop offset="0.46" stop-color="#89E9D7"/>
<stop offset="0.63" stop-color="#84E2DA"/>
<stop offset="0.75" stop-color="#7DD7DE"/>
<stop offset="0.84" stop-color="#72C6E5"/>
<stop offset="0.92" stop-color="#64B0EE"/>
<stop offset="0.99" stop-color="#5395F9"/>
<stop offset="1" stop-color="#5193FA"/>
</linearGradient>
<linearGradient id="paint11_linear" x1="1342.49" y1="575.839" x2="1269.35" y2="575.839" gradientUnits="userSpaceOnUse">
<stop stop-color="#31D1D6"/>
<stop offset="0.37" stop-color="#32CED8"/>
<stop offset="0.62" stop-color="#36C6DF"/>
<stop offset="0.82" stop-color="#3CB7EB"/>
<stop offset="1" stop-color="#45A3FA"/>
</linearGradient>
<linearGradient id="paint12_linear" x1="1238.26" y1="541.524" x2="1176.35" y2="541.524" gradientUnits="userSpaceOnUse">
<stop stop-color="#8AEBD6"/>
<stop offset="0.46" stop-color="#89E9D7"/>
<stop offset="0.63" stop-color="#84E2DA"/>
<stop offset="0.75" stop-color="#7DD7DE"/>
<stop offset="0.84" stop-color="#72C6E5"/>
<stop offset="0.92" stop-color="#64B0EE"/>
<stop offset="0.99" stop-color="#5395F9"/>
<stop offset="1" stop-color="#5193FA"/>
</linearGradient>
<linearGradient id="paint13_linear" x1="5168.99" y1="277.864" x2="5853.9" y2="277.864" gradientUnits="userSpaceOnUse">
<stop stop-color="#31D1D6"/>
<stop offset="0.37" stop-color="#32CED8"/>
<stop offset="0.62" stop-color="#36C6DF"/>
<stop offset="0.82" stop-color="#3CB7EB"/>
<stop offset="1" stop-color="#45A3FA"/>
</linearGradient>
<linearGradient id="paint14_linear" x1="55.5476" y1="18.21" x2="66.1537" y2="18.21" gradientUnits="userSpaceOnUse">
<stop stop-color="#F7BE86"/>
<stop offset="0.33" stop-color="#F7BC83"/>
<stop offset="0.54" stop-color="#F7B67B"/>
<stop offset="0.73" stop-color="#F7AC6C"/>
<stop offset="0.89" stop-color="#F79E57"/>
<stop offset="1" stop-color="#F79244"/>
</linearGradient>
<linearGradient id="paint15_linear" x1="118.188" y1="26.3183" x2="117.834" y2="39.0687" gradientUnits="userSpaceOnUse">
<stop stop-color="#7B6ED6"/>
<stop offset="0.48" stop-color="#796DD5"/>
<stop offset="0.65" stop-color="#7268D0"/>
<stop offset="0.78" stop-color="#6760C9"/>
<stop offset="0.88" stop-color="#5655BE"/>
<stop offset="0.96" stop-color="#4047B0"/>
<stop offset="1" stop-color="#333EA8"/>
</linearGradient>
<linearGradient id="paint16_linear" x1="14150.7" y1="2516.74" x2="14122.1" y2="3803.01" gradientUnits="userSpaceOnUse">
<stop stop-color="#7B6ED6"/>
<stop offset="0.48" stop-color="#796DD5"/>
<stop offset="0.65" stop-color="#7268D0"/>
<stop offset="0.78" stop-color="#6760C9"/>
<stop offset="0.88" stop-color="#5655BE"/>
<stop offset="0.96" stop-color="#4047B0"/>
<stop offset="1" stop-color="#333EA8"/>
</linearGradient>
<linearGradient id="paint17_linear" x1="6284.94" y1="937.419" x2="6281.58" y2="1138.71" gradientUnits="userSpaceOnUse">
<stop stop-color="#7B6ED6"/>
<stop offset="0.48" stop-color="#796DD5"/>
<stop offset="0.65" stop-color="#7268D0"/>
<stop offset="0.78" stop-color="#6760C9"/>
<stop offset="0.88" stop-color="#5655BE"/>
<stop offset="0.96" stop-color="#4047B0"/>
<stop offset="1" stop-color="#333EA8"/>
</linearGradient>
<linearGradient id="paint18_linear" x1="18887.3" y1="7578.41" x2="28941.2" y2="7578.41" gradientUnits="userSpaceOnUse">
<stop stop-color="#7B6ED6"/>
<stop offset="0.48" stop-color="#796DD5"/>
<stop offset="0.65" stop-color="#7268D0"/>
<stop offset="0.78" stop-color="#6760C9"/>
<stop offset="0.88" stop-color="#5655BE"/>
<stop offset="0.96" stop-color="#4047B0"/>
<stop offset="1" stop-color="#333EA8"/>
</linearGradient>
<linearGradient id="paint19_linear" x1="4291.4" y1="1231.33" x2="4620.75" y2="1231.33" gradientUnits="userSpaceOnUse">
<stop stop-color="#F7BE86"/>
<stop offset="0.33" stop-color="#F7BC83"/>
<stop offset="0.54" stop-color="#F7B67B"/>
<stop offset="0.73" stop-color="#F7AC6C"/>
<stop offset="0.89" stop-color="#F79E57"/>
<stop offset="1" stop-color="#F79244"/>
</linearGradient>
<linearGradient id="paint20_linear" x1="104.246" y1="47.6025" x2="144.331" y2="47.6025" gradientUnits="userSpaceOnUse">
<stop stop-color="#3C0887"/>
<stop offset="0.32" stop-color="#3F0987"/>
<stop offset="0.53" stop-color="#470E87"/>
<stop offset="0.71" stop-color="#561588"/>
<stop offset="0.87" stop-color="#6B1F89"/>
<stop offset="1" stop-color="#822A8A"/>
</linearGradient>
<linearGradient id="paint21_linear" x1="6124.29" y1="1936.9" x2="6692.84" y2="1936.9" gradientUnits="userSpaceOnUse">
<stop stop-color="#F7BE86"/>
<stop offset="0.33" stop-color="#F7BC83"/>
<stop offset="0.54" stop-color="#F7B67B"/>
<stop offset="0.73" stop-color="#F7AC6C"/>
<stop offset="0.89" stop-color="#F79E57"/>
<stop offset="1" stop-color="#F79244"/>
</linearGradient>
<linearGradient id="paint22_linear" x1="23260.5" y1="30035" x2="31449" y2="31708.4" gradientUnits="userSpaceOnUse">
<stop stop-color="#31D1D6"/>
<stop offset="0.37" stop-color="#32CED8"/>
<stop offset="0.62" stop-color="#36C6DF"/>
<stop offset="0.82" stop-color="#3CB7EB"/>
<stop offset="1" stop-color="#45A3FA"/>
</linearGradient>
<linearGradient id="paint23_linear" x1="31160" y1="29584.5" x2="31078.6" y2="25331.7" gradientUnits="userSpaceOnUse">
<stop stop-color="#F9E6D9"/>
<stop offset="0.12" stop-color="#FCF1EA"/>
<stop offset="0.27" stop-color="#FEF9F6"/>
<stop offset="0.48" stop-color="#FFFEFD"/>
<stop offset="1" stop-color="white"/>
</linearGradient>
<linearGradient id="paint24_linear" x1="13841.6" y1="16485.5" x2="15158.2" y2="16485.5" gradientUnits="userSpaceOnUse">
<stop stop-color="#7B6ED6"/>
<stop offset="0.48" stop-color="#796DD5"/>
<stop offset="0.65" stop-color="#7268D0"/>
<stop offset="0.78" stop-color="#6760C9"/>
<stop offset="0.88" stop-color="#5655BE"/>
<stop offset="0.96" stop-color="#4047B0"/>
<stop offset="1" stop-color="#333EA8"/>
</linearGradient>
</defs>
</svg>
