<svg width="300" height="300" viewBox="0 0 84 143" fill="none" xmlns="http://www.w3.org/2000/svg">
<path fill-rule="evenodd" clip-rule="evenodd" d="M13.1114 10.5027C15.3549 10.5027 17.1737 12.3361 17.1737 14.5977V14.6082C17.1737 16.8698 15.3549 18.7032 13.1114 18.7032H7.12083C6.89705 18.7032 6.6775 18.6849 6.46355 18.6498L5.30293 19.7799C5.27138 19.8107 5.22922 19.8278 5.18534 19.8278C5.09186 19.8278 5.01608 19.7514 5.01608 19.6572L5.01601 18.1113C3.84256 17.3933 3.05859 16.093 3.05859 14.6082V14.5977C3.05859 12.3361 4.87732 10.5027 7.12083 10.5027H13.1114Z" fill="#253368"/>
<path d="M12.1255 0.691772H20.6792C23.8842 0.691772 26.4824 3.31091 26.4824 6.54177C26.4824 9.77264 23.8842 12.3918 20.6792 12.3918H12.1255C8.92052 12.3918 6.32234 9.77264 6.32234 6.54177C6.32234 3.31091 8.92052 0.691772 12.1255 0.691772Z" fill="#597EF7"/>
<path fill-rule="evenodd" clip-rule="evenodd" d="M23.6855 10.6901V13.7526C23.6855 13.8872 23.5773 13.9964 23.4437 13.9964C23.3811 13.9964 23.3209 13.9719 23.2759 13.928L21.0434 11.7566L23.6855 10.6901Z" fill="#597EF7"/>
<path d="M20.2857 7.27304C19.7682 7.27304 19.3487 6.85015 19.3487 6.3285C19.3487 5.80685 19.7682 5.38397 20.2857 5.38397C20.8032 5.38397 21.2227 5.80685 21.2227 6.3285C21.2227 6.85015 20.8032 7.27304 20.2857 7.27304Z" fill="white"/>
<path d="M16.4478 7.27304C15.9303 7.27304 15.5108 6.85015 15.5108 6.3285C15.5108 5.80685 15.9303 5.38397 16.4478 5.38397C16.9653 5.38397 17.3848 5.80685 17.3848 6.3285C17.3848 6.85015 16.9653 7.27304 16.4478 7.27304Z" fill="white"/>
<path d="M12.5181 7.27304C12.0006 7.27304 11.5811 6.85015 11.5811 6.3285C11.5811 5.80685 12.0006 5.38397 12.5181 5.38397C13.0356 5.38397 13.4551 5.80685 13.4551 6.3285C13.4551 6.85015 13.0356 7.27304 12.5181 7.27304Z" fill="white"/>
<path fill-rule="evenodd" clip-rule="evenodd" d="M40.3588 107.683C43.1567 107.683 45.4624 105.459 45.5993 102.627L46.948 74.767C47.1327 70.9507 44.1291 67.7542 40.3588 67.7542C36.5884 67.7542 33.5851 70.9507 33.7698 74.767L35.1182 102.627C35.2555 105.459 37.5611 107.683 40.3588 107.683Z" fill="#4E5C93"/>
<path fill-rule="evenodd" clip-rule="evenodd" d="M57.1491 103.582C59.9164 103.164 61.8739 100.62 61.5983 97.7987L58.886 70.0406C58.5144 66.2384 55.0795 63.5247 51.3503 64.0871C47.6208 64.6495 45.1145 68.259 45.8514 72.0061L51.231 99.3616C51.778 102.142 54.3818 103.999 57.1491 103.582Z" fill="#4E5C93"/>
<path fill-rule="evenodd" clip-rule="evenodd" d="M35.4742 128.891L43.4627 129.206C45.727 127.484 43.8139 124.308 43.8139 124.308L45.6204 101.746C45.8568 98.7371 43.5752 96.1336 40.5989 96.0161C37.6226 95.8989 35.1482 98.3148 35.1531 101.333L35.2132 124.351C35.2132 124.351 33.2877 127.147 35.4742 128.891Z" fill="#4E5C93"/>
<path fill-rule="evenodd" clip-rule="evenodd" d="M50.4296 127.205L58.1196 127.607C60.459 125.992 58.9661 123.01 58.9661 123.01L61.7826 100.555C62.1536 97.5602 59.991 94.8544 57.0233 94.5998C54.0553 94.3458 51.4752 96.645 51.3446 99.6606L50.3724 122.658C50.3724 122.658 48.3235 125.362 50.4296 127.205Z" fill="#4E5C93"/>
<path fill-rule="evenodd" clip-rule="evenodd" d="M45.5302 142.311L35.9083 139.985L35.6181 128.429L43.2554 128.865L42.1978 136.317L46.0273 141.548C46.294 141.913 45.9659 142.416 45.5302 142.311Z" fill="#253368"/>
<path fill-rule="evenodd" clip-rule="evenodd" d="M59.8542 139.978L50.2715 138.315L50.5106 127.038L58.1195 127.553L56.7219 134.946L60.3001 139.182C60.5922 139.528 60.297 140.055 59.8542 139.978Z" fill="#253368"/>
<path fill-rule="evenodd" clip-rule="evenodd" d="M37.3081 55.6528C37.3081 55.6528 26.7216 34.01 27.7343 31.9578C28.7467 29.9056 36.2209 25.2911 47.5184 26.0792C58.865 26.8707 62.8325 31.5418 62.8325 31.5418C62.8325 31.5418 59.9152 45.2588 57.4688 54.1604C58.7573 56.4925 56.4147 58.1479 56.4147 58.1479C56.4147 58.1479 41.7088 57.4591 38.2107 57.6457C36.577 56.9359 37.3081 55.6528 37.3081 55.6528Z" fill="#E4EBF7"/>
<path fill-rule="evenodd" clip-rule="evenodd" d="M58.8642 73.7573L49.4312 79.2066L46.2926 79.6467L33.3965 74.4964C33.3965 74.4964 34.9716 64.5632 37.9037 59.9515C38.3703 58.6505 38.56 57.6752 38.56 57.6752C38.56 57.6752 50.1123 55.9014 56.4139 58.148L56.6472 60.2766C56.6472 60.2766 57.6461 62.6839 58.1641 64.8883C59.0393 68.6134 58.8642 73.7573 58.8642 73.7573Z" fill="#4E5C93"/>
<path fill-rule="evenodd" clip-rule="evenodd" d="M39.6113 24.4466L40.1939 14.1486H49.821L49.8116 25.2742L47.0504 30.5957L39.6113 24.4466Z" fill="#FFC2BD"/>
<path fill-rule="evenodd" clip-rule="evenodd" d="M43.3251 8.41339C43.3251 8.41339 48.6929 6.99432 50.1515 9.53673C51.5701 12.0095 51.6684 20.948 48.868 22.3081C46.5852 23.4163 41.9248 22.8993 40.8162 18.583C40.8162 18.583 39.8828 15.272 40.2329 12.3158C40.5829 9.35935 43.3251 8.41339 43.3251 8.41339Z" fill="#FFC2BD"/>
<path fill-rule="evenodd" clip-rule="evenodd" d="M40.8156 15.9815C40.8156 15.9815 39.357 13.1434 38.2485 14.6808C37.14 16.218 39.0069 19.0561 40.6406 18.9378C42.2742 18.8197 40.8156 15.9815 40.8156 15.9815Z" fill="#FFC2BD"/>
<path fill-rule="evenodd" clip-rule="evenodd" d="M51.0845 14.6807C51.0845 14.6807 51.7847 11.2514 50.968 9.12303C50.151 6.99442 49.1008 4.86581 48.3423 5.98943C48.2256 5.45728 47.5254 4.39297 47.0005 4.0382C46.4754 3.68344 44.8415 5.98943 44.8415 5.98943C44.8415 5.98943 44.9583 4.92512 44.3163 5.57535C43.6747 6.22585 39.7655 8.23611 39.1238 9.30041C38.4819 10.3647 38.8229 14.2772 38.8229 14.2772C38.8229 14.2772 40.0775 14.1589 40.7484 16.5829C40.5733 14.6317 41.3748 13.6119 41.7862 13.2238C41.9422 13.077 42.0317 12.8724 42.048 12.657C42.0789 12.2438 42.125 11.5499 42.1418 10.872C42.1496 10.5734 42.3649 10.3264 42.6556 10.2752C45.6137 9.75618 48.8655 10.2229 50.0238 10.4251C50.2855 10.471 50.4862 10.6839 50.521 10.9509L50.8131 13.1684C50.8131 13.1684 50.968 13.5573 51.0845 14.6807Z" fill="#253368"/>
<path d="M43.873 13.8912C43.8975 13.8846 43.9228 13.8821 43.9479 13.8837L43.973 13.8868L45.8653 14.2217C45.9922 14.2441 46.077 14.3665 46.0549 14.4951C46.0341 14.6156 45.9267 14.6987 45.8088 14.6901L45.7851 14.6872L43.943 14.3612L43.0059 14.6134C42.8893 14.6448 42.7698 14.5808 42.728 14.4687L42.7208 14.4457C42.6898 14.3274 42.753 14.2063 42.8635 14.164L42.8863 14.1567L43.873 13.8912Z" fill="#253368"/>
<path d="M49.6243 13.6838C49.6565 13.6752 49.69 13.6736 49.7227 13.6792L49.7469 13.6846L50.4764 13.8914C50.6004 13.9265 50.6728 14.0569 50.6381 14.1826C50.6056 14.3004 50.4905 14.3723 50.374 14.3518L50.3508 14.3465L49.6826 14.1569L47.8771 14.643C47.7604 14.6744 47.6409 14.6104 47.5991 14.4984L47.5919 14.4753C47.5609 14.3571 47.624 14.236 47.7346 14.1937L47.7573 14.1863L49.6243 13.6838Z" fill="#253368"/>
<path fill-rule="evenodd" clip-rule="evenodd" d="M40.9033 17.1196C40.9033 17.1196 42.4111 18.3124 43.1988 19.554C44.2929 18.1795 45.4454 17.588 45.4454 17.588C45.4454 17.588 46.767 18.5829 47.4672 18.2726C47.6859 18.0065 47.6624 17.736 47.6624 17.736C47.6624 17.736 48.8438 18.1795 49.6751 19.4209C50.0255 18.5342 51.0117 17.3857 51.0117 17.3857C51.0117 17.3857 51.2215 23.1756 47.0205 23.264C42.7758 23.264 41.3611 20.8844 40.8799 18.8887C40.7686 18.2634 40.5972 16.6762 40.9033 17.1196Z" fill="#EFADAB"/>
<path d="M44.4544 18.6422C44.4922 18.5451 44.6005 18.4974 44.6963 18.5357L44.7844 18.5685C44.8084 18.577 44.8361 18.5867 44.8672 18.5972C45.007 18.6446 45.164 18.692 45.3344 18.7363C45.9114 18.8863 46.4935 18.9639 47.0317 18.9309C47.2936 18.9148 47.5378 18.8724 47.7612 18.8017C47.8595 18.7705 47.9641 18.8261 47.9948 18.9257C48.0256 19.0253 47.9708 19.1313 47.8725 19.1625C47.6187 19.2428 47.3449 19.2903 47.0542 19.3082C46.472 19.3439 45.8533 19.2614 45.2417 19.1024C45.0922 19.0636 44.9524 19.0224 44.8244 18.9807L44.711 18.9427L44.5796 18.8951C44.571 18.8919 44.5644 18.8893 44.5596 18.8874C44.4638 18.8491 44.4167 18.7394 44.4544 18.6422Z" fill="#D18888"/>
<path d="M47.3343 14.4231C47.4039 14.4295 47.4567 14.4872 47.4597 14.556L47.4593 14.575L47.4027 15.2041L47.4415 15.391L47.4518 15.4426C47.4917 15.6438 47.5316 15.8592 47.5688 16.0802C47.6073 16.3081 47.6407 16.5292 47.6676 16.7389L47.686 16.8872C47.7831 17.7089 47.7648 18.2156 47.5526 18.383C47.347 18.5451 46.9913 18.4887 46.5 18.2912C46.3772 18.2418 46.2488 18.1843 46.1165 18.12C45.9988 18.063 45.8827 18.0029 45.7707 17.9421L45.623 17.8601L45.5226 17.8022C45.4981 17.7878 45.4807 17.7774 45.4713 17.7717C45.406 17.7319 45.3848 17.646 45.424 17.5798C45.4632 17.5135 45.548 17.4921 45.6134 17.5318L45.661 17.5601L45.7463 17.6094C45.7616 17.6181 45.7775 17.6271 45.7939 17.6363C45.9346 17.7152 46.0842 17.7942 46.2357 17.8677C46.3626 17.9293 46.4854 17.9843 46.6018 18.0311C46.9986 18.1907 47.2886 18.2366 47.383 18.1622C47.4821 18.0841 47.4917 17.5698 47.402 16.84L47.3939 16.775C47.3674 16.5692 47.3345 16.3517 47.2967 16.1274C47.2673 15.9528 47.2362 15.7817 47.2047 15.6185L47.1519 15.3531L47.1287 15.243C47.1267 15.2336 47.1256 15.2241 47.1255 15.2146L47.126 15.2002L47.1843 14.5497C47.1906 14.4792 47.2476 14.4257 47.3155 14.4226L47.3343 14.4231Z" fill="#D18888"/>
<path d="M47.1809 20.1011C47.2452 20.1008 47.2976 20.1534 47.2979 20.2186C47.2982 20.2779 47.2553 20.3272 47.1992 20.3359L47.182 20.3372L46.1991 20.342C46.1348 20.3423 46.0823 20.2897 46.082 20.2245C46.0818 20.1652 46.1246 20.1159 46.1808 20.1072L46.198 20.1058L47.1809 20.1011Z" fill="#D18888"/>
<path d="M44.4 15.1111C44.7828 15.1111 45.0679 15.5155 45.0679 15.9935C45.0679 16.0832 44.9962 16.1558 44.9078 16.1558C44.8193 16.1558 44.7476 16.0832 44.7476 15.9935C44.7476 15.6758 44.5783 15.4356 44.4 15.4356C44.222 15.4356 44.0527 15.6759 44.0527 15.9935C44.0527 16.0832 43.981 16.1558 43.8926 16.1558C43.8041 16.1558 43.7324 16.0832 43.7324 15.9935C43.7324 15.5156 44.0175 15.1111 44.4 15.1111Z" fill="#253368"/>
<path d="M48.8593 15.1111C49.2418 15.1111 49.5269 15.5156 49.5269 15.9935C49.5269 16.0832 49.4552 16.1558 49.3668 16.1558C49.2783 16.1558 49.2066 16.0832 49.2066 15.9935C49.2066 15.6759 49.0373 15.4356 48.8593 15.4356C48.681 15.4356 48.5117 15.6758 48.5117 15.9935C48.5117 16.0832 48.44 16.1558 48.3515 16.1558C48.2631 16.1558 48.1914 16.0832 48.1914 15.9935C48.1914 15.5155 48.4765 15.1111 48.8593 15.1111Z" fill="#253368"/>
<path d="M44.764 18.1396C44.8179 18.085 44.9053 18.085 44.9592 18.1396C45.0082 18.1893 45.0127 18.267 44.9726 18.3218L44.9592 18.3375L44.2005 19.106C44.1466 19.1606 44.0592 19.1606 44.0053 19.106C43.9563 19.0563 43.9518 18.9786 43.9919 18.9238L44.0053 18.9081L44.764 18.1396Z" fill="#D18888"/>
<path d="M40.8954 18.9516C40.9579 18.936 41.021 18.9747 41.0363 19.038L41.0543 19.1046C41.0605 19.1263 41.0681 19.1519 41.0771 19.1809L41.0866 19.2112C41.1312 19.352 41.1882 19.5092 41.2587 19.6787C41.4604 20.1636 41.7294 20.6485 42.0743 21.1007C43.3385 22.7581 45.2446 23.5457 47.9452 22.9859C48.0082 22.9728 48.0698 23.014 48.0827 23.0779C48.0956 23.1418 48.0549 23.2042 47.9919 23.2173C45.2013 23.7957 43.2068 22.9717 41.8899 21.2451C41.5318 20.7756 41.2531 20.2731 41.044 19.7704C40.9707 19.5943 40.9114 19.4306 40.8647 19.2834L40.8421 19.21L40.8236 19.1455C40.8168 19.1211 40.8123 19.1039 40.81 19.0944C40.7947 19.0311 40.8329 18.9671 40.8954 18.9516Z" fill="#D18888"/>
<path d="M46.773 21.6252C46.8284 21.592 46.8998 21.6107 46.9325 21.6668C46.9595 21.7131 46.9981 21.792 47.0363 21.8955C47.1316 22.1538 47.169 22.4205 47.1126 22.675C47.0541 22.939 46.8976 23.1644 46.6319 23.3345C46.5775 23.3693 46.5055 23.3528 46.4711 23.2977C46.4368 23.2426 46.453 23.1696 46.5074 23.1348C46.7207 22.9983 46.8403 22.8261 46.8852 22.6233C46.9301 22.4205 46.8989 22.1974 46.818 21.9783C46.7987 21.9259 46.778 21.8781 46.7575 21.836L46.7319 21.7869C46.6992 21.7308 46.7176 21.6584 46.773 21.6252Z" fill="#D18888"/>
<path d="M38.5683 15.5609C38.6229 15.2829 38.8382 15.1544 39.1869 15.2903C39.7381 15.5049 39.7949 15.9147 39.6082 16.6705C39.5057 17.0866 39.6475 17.3212 40.0288 17.3985C40.0919 17.4112 40.1328 17.4734 40.1202 17.5374C40.1076 17.6013 40.0462 17.6428 39.9831 17.63C39.4699 17.526 39.2477 17.1587 39.3821 16.6132C39.543 15.9618 39.502 15.666 39.1033 15.5107C38.8925 15.4286 38.8239 15.4695 38.7969 15.607C38.7865 15.6597 38.7857 15.7188 38.7909 15.7731L38.7935 15.7953C38.8038 15.8597 38.7607 15.9203 38.6972 15.9308C38.6337 15.9413 38.5738 15.8976 38.5635 15.8333L38.5606 15.8112C38.56 15.8065 38.5595 15.8014 38.5589 15.7958C38.5518 15.7205 38.5529 15.6396 38.5683 15.5609Z" fill="#D18888"/>
<path fill-rule="evenodd" clip-rule="evenodd" d="M45.3209 19.9974C45.3109 20.0578 45.2546 20.0987 45.195 20.0886C45.1356 20.0788 45.0953 20.0215 45.1049 19.9613C45.1149 19.9006 45.1712 19.8597 45.2309 19.8698C45.2905 19.8799 45.3308 19.937 45.3209 19.9974Z" fill="#D18888"/>
<path fill-rule="evenodd" clip-rule="evenodd" d="M43.6783 20.4146C43.6684 20.475 43.6121 20.5159 43.5525 20.5058C43.4928 20.496 43.4525 20.4387 43.4624 20.3785C43.4724 20.3181 43.5287 20.2772 43.5883 20.287C43.648 20.2971 43.6883 20.3542 43.6783 20.4146Z" fill="#D18888"/>
<path fill-rule="evenodd" clip-rule="evenodd" d="M48.9698 20.7771C48.9908 20.8344 48.9621 20.8982 48.9055 20.9198C48.8489 20.941 48.7857 20.9117 48.7647 20.8543C48.7437 20.797 48.7724 20.7332 48.829 20.7119C48.8859 20.6904 48.9488 20.7197 48.9698 20.7771Z" fill="#D18888"/>
<path fill-rule="evenodd" clip-rule="evenodd" d="M49.9972 20.247C50.0181 20.3044 49.9894 20.3681 49.9328 20.3897C49.8762 20.4109 49.813 20.3816 49.792 20.3242C49.771 20.2669 49.7998 20.2031 49.8564 20.1818C49.913 20.1603 49.9759 20.1896 49.9972 20.247Z" fill="#D18888"/>
<path fill-rule="evenodd" clip-rule="evenodd" d="M48.0792 21.1C48.1004 21.1573 48.0714 21.2211 48.0148 21.2424C47.9582 21.2636 47.8953 21.2345 47.874 21.1772C47.853 21.1198 47.882 21.056 47.9386 21.0348C47.9952 21.0132 48.0582 21.0426 48.0792 21.1Z" fill="#D18888"/>
<path fill-rule="evenodd" clip-rule="evenodd" d="M46.8018 20.8456C46.8231 20.903 46.7941 20.9668 46.7375 20.9883C46.6809 21.0096 46.6177 20.9802 46.5967 20.9229C46.5757 20.8655 46.6047 20.8017 46.6613 20.7804C46.7179 20.7589 46.7808 20.7883 46.8018 20.8456Z" fill="#D18888"/>
<path fill-rule="evenodd" clip-rule="evenodd" d="M42.4054 19.9587C42.4263 20.0161 42.3976 20.0799 42.341 20.1014C42.2844 20.1227 42.2212 20.0933 42.2002 20.0359C42.1792 19.9786 42.208 19.9148 42.2646 19.8935C42.3212 19.872 42.3841 19.9014 42.4054 19.9587Z" fill="#D18888"/>
<path fill-rule="evenodd" clip-rule="evenodd" d="M44.4967 21.5534C44.4868 21.6139 44.4304 21.6547 44.3708 21.6447C44.3112 21.6346 44.2709 21.5775 44.2808 21.5171C44.2907 21.4566 44.3471 21.4158 44.4067 21.4258C44.4663 21.4359 44.5066 21.493 44.4967 21.5534Z" fill="#D18888"/>
<path fill-rule="evenodd" clip-rule="evenodd" d="M45.3444 21.3814C45.3344 21.4419 45.2781 21.4827 45.2185 21.4727C45.1588 21.4626 45.1185 21.4055 45.1285 21.3451C45.1384 21.2846 45.1947 21.2438 45.2544 21.2538C45.314 21.2639 45.3543 21.321 45.3444 21.3814Z" fill="#D18888"/>
<path fill-rule="evenodd" clip-rule="evenodd" d="M48.7741 21.68C48.7641 21.7404 48.7078 21.7813 48.6482 21.7712C48.5885 21.7614 48.5482 21.704 48.5581 21.6439C48.5681 21.5831 48.6244 21.5426 48.6841 21.5524C48.7437 21.5624 48.784 21.6195 48.7741 21.68Z" fill="#D18888"/>
<path fill-rule="evenodd" clip-rule="evenodd" d="M48.2311 20.3704C48.2211 20.4308 48.1648 20.4717 48.1052 20.4616C48.0455 20.4515 48.0052 20.3945 48.0152 20.334C48.0251 20.2736 48.0814 20.2327 48.1411 20.2428C48.2007 20.2529 48.241 20.31 48.2311 20.3704Z" fill="#D18888"/>
<path fill-rule="evenodd" clip-rule="evenodd" d="M48.6237 19.2617C48.6137 19.3222 48.5574 19.363 48.4978 19.353C48.4381 19.3429 48.3978 19.2858 48.4078 19.2254C48.4177 19.1649 48.474 19.1241 48.5337 19.1342C48.5933 19.1442 48.6336 19.2013 48.6237 19.2617Z" fill="#D18888"/>
<path fill-rule="evenodd" clip-rule="evenodd" d="M43.5709 21.1057C43.5609 21.1662 43.5046 21.207 43.445 21.197C43.3856 21.1869 43.3453 21.1298 43.3549 21.0694C43.3649 21.0089 43.4212 20.9681 43.4808 20.9781C43.5405 20.9882 43.5808 21.0453 43.5709 21.1057Z" fill="#D18888"/>
<path fill-rule="evenodd" clip-rule="evenodd" d="M50.8129 26.8117L50.3753 25.0083L48.4106 25.1856L47.2336 29.7671L44.6284 24.7229L38.8139 24.1213L37.9961 26.9595C37.9961 26.9595 41.7833 32.1741 47.9247 31.2167C50.9587 30.7436 50.8129 26.8117 50.8129 26.8117Z" fill="#E4EBF7"/>
<path fill-rule="evenodd" clip-rule="evenodd" d="M57.5996 28.6626C57.5996 28.6626 61.0218 36.942 57.8136 44.4456C60.3801 48.8956 63.0536 52.1556 64.6577 53.6046C66.262 55.0536 72.4153 54.7254 72.8922 49.879C73.3198 45.532 65.4832 35.1917 64.3368 33.3199C62.6259 30.5254 58.776 28.6626 57.5996 28.6626Z" fill="#FFC2BD"/>
<path fill-rule="evenodd" clip-rule="evenodd" d="M68.669 39.8916C66.5558 36.3669 64.801 34.0615 64.2043 33.087C62.4931 30.2925 58.6432 28.4297 57.4668 28.4297C57.4668 28.4297 60.889 36.7091 57.6808 44.2123C58.7694 46.0998 58.6488 45.9313 59.686 47.3431C59.686 47.3431 60.4881 45.6356 63.5359 43.1517C66.7055 40.5687 68.669 39.8916 68.669 39.8916Z" fill="#E4EBF7"/>
<path d="M60.591 36.1671C60.6479 36.1537 60.7049 36.1895 60.7181 36.2472L60.7286 36.2961C60.7366 36.3354 60.7455 36.382 60.7551 36.4359C60.7824 36.589 60.8096 36.7695 60.8349 36.9766C60.9868 38.2169 61.0058 39.7477 60.8065 41.5246C60.531 43.9815 59.8668 46.5953 58.7288 49.3212C58.706 49.3758 58.6439 49.4013 58.59 49.3782C58.5362 49.3551 58.511 49.2922 58.5338 49.2376C59.6637 46.531 60.3228 43.9372 60.5961 41.5004C60.7934 39.7409 60.7747 38.227 60.6248 37.003C60.6035 36.8289 60.5809 36.6742 60.5581 36.5396L60.5467 36.474C60.5309 36.3851 60.5187 36.3254 60.5119 36.296C60.4986 36.2383 60.534 36.1806 60.591 36.1671Z" fill="#253368"/>
<path fill-rule="evenodd" clip-rule="evenodd" d="M56.6777 60.3062C47.7946 59.1531 37.8613 59.8137 37.8613 59.8137L38.2114 57.2861C38.2114 57.2861 49.5012 55.8228 56.4734 57.7148C56.634 58.9268 56.6777 60.3062 56.6777 60.3062Z" fill="#253368"/>
<path d="M48.1252 59.8826C48.211 59.8808 48.2821 59.9497 48.284 60.0367L48.2926 60.5422C48.2938 60.6249 48.295 60.7124 48.2961 60.8043L48.3031 61.4701C48.3269 64.2702 48.2863 67.3812 48.1392 70.366L48.121 70.7235C47.9395 74.187 47.6294 76.9777 47.1657 78.8576C47.1448 78.942 47.0604 78.9933 46.9772 78.9722C46.8939 78.9511 46.8432 78.8656 46.8641 78.7812L46.9109 78.586C47.3429 76.7336 47.6363 74.0328 47.8105 70.7068C47.9784 67.5027 48.0202 64.1293 47.989 61.1389L47.9806 60.466L47.9732 60.0437C47.9713 59.9567 48.0393 59.8846 48.1252 59.8826Z" fill="#253368"/>
<path d="M51.5109 60.0007C51.5967 59.9998 51.6671 60.0696 51.668 60.1566L51.6705 60.4872L51.6726 60.9841C51.6775 62.6635 51.6583 64.5653 51.5991 66.405L51.5773 67.0298C51.4406 70.6727 51.1766 72.8852 50.6864 73.2717C50.4017 73.496 50.0537 73.7255 49.6559 73.9572C49.2612 74.187 48.839 74.4068 48.4169 74.6092L48.2449 74.6906C48.2171 74.7036 48.1899 74.7162 48.1631 74.7286L47.9028 74.8461C47.8818 74.8554 47.865 74.8627 47.8527 74.8679C47.7736 74.9018 47.6824 74.8642 47.649 74.7841C47.6156 74.7039 47.6527 74.6115 47.7317 74.5777L47.8826 74.511L48.0343 74.4419C48.1133 74.4054 48.1967 74.3662 48.2839 74.3244C48.6991 74.1254 49.1142 73.9093 49.501 73.684C49.8872 73.4591 50.2236 73.2372 50.4955 73.023C50.8807 72.7193 51.1537 70.3066 51.2792 66.6694C51.3486 64.6582 51.3688 62.5536 51.3609 60.7352L51.3571 60.16C51.3562 60.073 51.4251 60.0017 51.5109 60.0007Z" fill="#253368"/>
<path fill-rule="evenodd" clip-rule="evenodd" d="M45.8535 59.4931V56.9683C45.8535 56.6384 46.1017 56.3684 46.4162 56.3589C47.4579 56.3273 49.7735 56.299 51.874 56.569C52.1672 56.6068 52.3881 56.8656 52.3881 57.175V59.5487C52.3881 59.8884 52.1255 60.1626 51.8017 60.1584C50.6112 60.1436 47.8985 60.1108 46.4297 60.1024C46.11 60.1008 45.8535 59.8282 45.8535 59.4931Z" fill="#E4EBF7"/>
<path fill-rule="evenodd" clip-rule="evenodd" d="M46.5273 59.0572L46.5279 57.3858C46.5279 57.1679 46.7306 56.9891 46.987 56.9829C47.8371 56.9622 49.7262 56.9446 51.4399 57.1237C51.679 57.1488 51.8593 57.3204 51.8593 57.5252L51.8587 59.0964C51.8584 59.3211 51.6442 59.5024 51.38 59.4999C50.4087 59.4895 48.1955 59.4668 46.9973 59.461C46.7363 59.4596 46.5273 59.2791 46.5273 59.0572Z" fill="#253368"/>
<path fill-rule="evenodd" clip-rule="evenodd" d="M51.8425 56.8011L46.3262 59.296L46.5539 59.8041L52.1161 57.2631L51.8425 56.8011Z" fill="#E4EBF7"/>
<path fill-rule="evenodd" clip-rule="evenodd" d="M52.0778 59.216L46.5487 56.7502L46.3301 57.2628L51.9237 59.7316L52.0778 59.216Z" fill="#E4EBF7"/>
<path d="M40.869 59.8859C40.953 59.9037 41.0069 59.9872 40.9894 60.0723L40.9599 60.2034C40.9537 60.2297 40.947 60.2578 40.9397 60.2874C40.8983 60.4563 40.8477 60.6443 40.7876 60.8466C40.6157 61.4249 40.4017 62.0034 40.1425 62.5444C39.1936 64.5253 37.8995 65.5107 36.2326 64.8883C36.152 64.8583 36.1108 64.7677 36.1405 64.6861C36.1702 64.6044 36.2595 64.5626 36.3401 64.5927C37.8152 65.1435 38.9749 64.2604 39.8629 62.4068C40.1141 61.8824 40.3225 61.3192 40.4899 60.7558C40.5387 60.5914 40.5811 60.4369 40.6171 60.295L40.6574 60.1305L40.685 60.0079C40.7026 59.9227 40.785 59.8681 40.869 59.8859Z" fill="#253368"/>
<path d="M49.769 78.5107C49.8512 78.4857 49.9379 78.533 49.9625 78.6163C49.9853 78.6932 49.9473 78.774 49.8767 78.8056L49.8583 78.8125L46.749 79.7578C46.6668 79.7828 46.5801 79.7356 46.5554 79.6522C46.5327 79.5753 46.5707 79.4946 46.6413 79.4629L46.6596 79.4561L49.769 78.5107Z" fill="#253368"/>
<path fill-rule="evenodd" clip-rule="evenodd" d="M24.945 83.1737L24.5063 69.4152C24.4922 68.9743 24.823 68.6002 25.257 68.5658L43.2169 66.9721C43.6771 66.9358 44.0753 67.2939 44.094 67.7614L44.6887 82.5455C44.7072 83.0052 44.3514 83.3913 43.8977 83.4042L25.7816 83.9722C25.3335 83.9845 24.9596 83.6277 24.945 83.1737Z" fill="#597EF7"/>
<path fill-rule="evenodd" clip-rule="evenodd" d="M24.1527 83.3289L23.7054 69.3027C23.6938 68.9351 23.9694 68.6231 24.3311 68.5946L42.5604 66.9796C42.9442 66.9494 43.2761 67.2477 43.2918 67.6374L43.8978 82.7033C43.9133 83.0863 43.6165 83.4084 43.2382 83.419L24.8498 83.9942C24.4763 84.0049 24.1649 83.7075 24.1527 83.3289Z" fill="#253368"/>
<path fill-rule="evenodd" clip-rule="evenodd" d="M29.4581 29.8862C29.4581 29.8862 26.3073 30.5958 24.9073 36.0353C23.5069 41.4747 24.032 46.4414 24.3821 53.3001C24.7319 60.1584 27.1825 72.1609 28.2328 76.5362C29.2831 80.9115 29.6677 82.372 30.7417 83.9267C31.3543 84.8136 32.3753 85.0207 33.0755 84.7546C34.009 85.7006 35.4968 85.0503 35.4968 85.0503C35.4968 85.0503 37.7431 85.6415 38.2097 84.3408C40.0477 84.6069 39.26 82.0348 39.4936 81.0889C39.7269 80.1426 38.7641 78.2507 36.197 75.6493C34.5634 72.6931 36.022 46.323 36.7221 43.0121C37.4223 39.7011 37.393 30.5958 29.4581 29.8862Z" fill="#FFC2BD"/>
<path fill-rule="evenodd" clip-rule="evenodd" d="M36.286 47.2691C36.286 47.2691 37.9779 36.6263 36.3443 33.3154C34.7106 30.0044 32.0927 27.4916 27.9428 30.5956C23.0415 34.2613 24.0335 44.9631 24.0335 44.9631C24.0335 44.9631 29.4596 46.2048 36.286 47.2691Z" fill="#E4EBF7"/>
<path d="M31.9826 31.9022C32.2616 31.8846 32.5762 31.9028 32.9413 31.9877C33.4762 32.1119 34.0004 32.3592 34.4906 32.7584C35.9578 33.9535 36.8851 36.2864 37.0273 40.0544L37.0318 40.1834L36.3899 47.6332C36.3848 47.6923 36.3335 47.7359 36.2752 47.7308C36.2228 47.7261 36.1826 47.6835 36.1788 47.632L36.179 47.6146L36.8205 40.1776C36.6964 36.4041 35.7878 34.0903 34.3579 32.9257C33.8936 32.5476 33.3986 32.3141 32.894 32.1968C32.5792 32.1237 32.3053 32.1033 32.0615 32.113L31.9301 32.1207C31.9147 32.1215 31.9013 32.1218 31.8963 32.1213C31.8382 32.1144 31.7967 32.0611 31.8035 32.0022C31.8103 31.9434 31.8628 31.9012 31.9209 31.9081C31.9121 31.9071 31.9405 31.9049 31.9826 31.9022Z" fill="#253368"/>
<path d="M37.9825 80.8657C38.0396 80.8683 38.0838 80.9174 38.0813 80.9753L38.0736 81.1949L38.072 81.2498C38.0587 81.7428 38.0581 82.2667 38.0787 82.757C38.1091 83.4851 38.1831 84.0287 38.3051 84.2969C38.3291 84.3495 38.3064 84.4118 38.2545 84.4361C38.2025 84.4603 38.141 84.4373 38.1171 84.3847C37.9798 84.083 37.9034 83.5215 37.8718 82.7659C37.851 82.27 37.8516 81.7415 37.865 81.2441L37.8744 80.9658C37.877 80.9079 37.9254 80.8631 37.9825 80.8657Z" fill="#D18888"/>
<path d="M38.4615 27.0115C38.4795 26.9614 38.5305 26.9331 38.5806 26.9427L38.5972 26.9473L42.4479 28.3664C42.5028 28.3867 42.5312 28.4482 42.5112 28.5039C42.4932 28.5541 42.4422 28.5823 42.3921 28.5727L42.3755 28.5681L38.5248 27.149C38.4698 27.1288 38.4415 27.0672 38.4615 27.0115Z" fill="#253368"/>
<path d="M47.2053 29.6639C47.2615 29.6474 47.3202 29.6801 47.3365 29.737L47.3717 29.8652L47.4066 29.997C47.4187 30.0435 47.4312 30.0925 47.4441 30.1438L47.4639 30.2226C47.559 30.6059 47.6542 31.0299 47.743 31.4827C47.9527 32.5513 48.0943 33.61 48.1365 34.6004C48.1647 35.2597 48.1474 35.8703 48.0793 36.4226C48.072 36.4814 48.0191 36.5231 47.9611 36.5158C47.903 36.5084 47.8619 36.4548 47.8691 36.396C47.9357 35.8566 47.9526 35.2577 47.925 34.6097C47.8832 33.6314 47.743 32.5832 47.5353 31.5245C47.457 31.1254 47.3737 30.7488 47.2899 30.4031L47.2201 30.1226L47.1367 29.8093C47.1353 29.8046 47.1342 29.8004 47.1331 29.7968C47.1168 29.7399 47.1491 29.6804 47.2053 29.6639Z" fill="#253368"/>
<path fill-rule="evenodd" clip-rule="evenodd" d="M72.5993 27.9609C70.4372 31.8113 67.9016 38.6717 62.7168 46.3257C62.7168 46.3257 60.7872 52.3067 66.2315 53.944C71.5396 55.5408 73.2039 49.3404 73.2039 49.3404C76.0231 42.4636 77.733 35.6379 78.5074 30.77C78.5869 30.2705 78.704 29.772 78.5853 29.2798C78.4224 28.6058 77.9533 27.7763 76.7283 27.1543C73.8213 25.6784 72.5993 27.9609 72.5993 27.9609Z" fill="#FFC2BD"/>
<path fill-rule="evenodd" clip-rule="evenodd" d="M74.2489 32.2507C74.2489 32.2507 73.1583 31.2832 72.6915 29.3876C72.2282 27.5075 72.0054 22.1776 72.0611 21.8662C72.2511 20.8064 73.4217 21.176 73.6959 24.2491C74.996 22.4548 75.4187 20.8769 75.1399 19.373C74.8607 17.8689 76.6617 17.6873 77.6855 19.659C78.7095 21.6306 79.9919 23.0651 79.6824 25.1674C79.2915 27.8203 78.8045 30.1792 77.8749 31.8635C76.8508 33.7187 75.985 33.5145 74.2489 32.2507Z" fill="#FFC2BD"/>
<path d="M73.6564 24.1305C73.7152 24.1104 73.7786 24.1376 73.806 24.192L73.8132 24.2091L74.2598 25.5478L74.3223 25.6225L74.3999 25.7175C74.4403 25.7676 74.4829 25.8213 74.5275 25.8784C74.7395 26.1501 74.9515 26.443 75.1496 26.7464C75.3936 27.1201 75.5993 27.4839 75.7543 27.8285C76.0956 28.5874 76.1749 29.211 75.9066 29.6532C75.8708 29.7122 75.7946 29.7306 75.7364 29.6944C75.6782 29.6581 75.6601 29.5809 75.6958 29.5219C75.9092 29.1702 75.8396 28.6226 75.5292 27.9325C75.3801 27.601 75.1807 27.2483 74.9433 26.8847C74.7493 26.5877 74.5414 26.3004 74.3334 26.0338L74.2085 25.8764L74.0748 25.7143C74.0677 25.7059 74.0619 25.699 74.0574 25.6939C74.0503 25.6856 74.0442 25.6764 74.0395 25.6666L74.0333 25.6514L73.5788 24.2894C73.5569 24.2239 73.5917 24.1527 73.6564 24.1305Z" fill="#D18888"/>
<path d="M78.0055 22.1425C78.0814 21.7095 78.3102 21.4598 78.7144 21.5748C78.7802 21.5935 78.8185 21.6627 78.8 21.7293C78.7816 21.796 78.7133 21.8348 78.6475 21.8161C78.4201 21.7514 78.3029 21.8793 78.249 22.1863C78.2288 22.3016 78.2222 22.4243 78.2245 22.5384L78.2276 22.6188L78.2287 22.6354L78.2354 22.6669L78.2396 22.6877C78.2491 22.7364 78.2586 22.7926 78.2675 22.8558C78.3772 23.6405 78.2915 24.5234 77.862 25.3613C77.7782 25.5248 77.6823 25.6831 77.5736 25.8357C77.5337 25.8919 77.4564 25.9046 77.401 25.8641C77.3456 25.8236 77.333 25.7452 77.373 25.6891C77.4745 25.5464 77.5642 25.3985 77.6425 25.2457C78.0449 24.4608 78.1256 23.6284 78.0225 22.8909L78.0122 22.8217C78.0037 22.7687 77.9958 22.7279 77.9896 22.7003L77.9861 22.6854L77.9829 22.6664L77.9807 22.6342L77.9798 22.6187C77.9722 22.4692 77.9774 22.3026 78.0055 22.1425Z" fill="#D18888"/>
<path d="M77.2525 21.3325C77.2949 22.4536 77.1661 23.3085 76.9229 23.9316C76.793 24.2642 76.6597 24.4644 76.5648 24.5567C76.5155 24.6046 76.4372 24.6029 76.3899 24.553C76.3426 24.503 76.3442 24.4237 76.3935 24.3757L76.4072 24.3611C76.4236 24.3421 76.4484 24.3101 76.4793 24.2636C76.5514 24.1555 76.6242 24.0152 76.6928 23.8394C76.923 23.2499 77.0465 22.4292 77.0051 21.3359L77.0004 21.2255L77.0008 21.184C77.0035 21.0543 77.0193 20.8815 77.0592 20.707C77.114 20.4676 77.203 20.2873 77.3457 20.1903C77.5338 20.0624 77.7706 20.1081 78.0396 20.3246C78.093 20.3677 78.102 20.4465 78.0595 20.5007C78.017 20.5549 77.9392 20.5639 77.8857 20.5209C77.6925 20.3653 77.5677 20.3412 77.4836 20.3984C77.406 20.4512 77.3421 20.5807 77.3002 20.7636C77.2774 20.8632 77.2626 20.9712 77.2544 21.0795L77.2505 21.14C77.2495 21.1583 77.2488 21.1748 77.2484 21.1891L77.2477 21.2234L77.2525 21.3325Z" fill="#D18888"/>
<path d="M76.1273 19.2035C76.2377 18.8556 76.4779 18.6895 76.8673 18.723C76.9354 18.7288 76.9858 18.7895 76.9801 18.8585C76.9743 18.9275 76.9144 18.9786 76.8463 18.9728C76.573 18.9492 76.4383 19.0424 76.3628 19.2802C76.2999 19.4785 76.2842 19.6979 76.2831 20.2536L76.2826 20.6715C76.2806 21.0439 76.2715 21.2753 76.2458 21.5544C76.1943 22.1156 76.0892 22.6163 75.9462 23.055C75.8726 23.2807 75.7936 23.4758 75.7143 23.6399L75.68 23.709C75.6478 23.7721 75.6219 23.8173 75.6046 23.8445C75.5676 23.9027 75.491 23.9194 75.4336 23.8819C75.3762 23.8444 75.3597 23.7668 75.3967 23.7086L75.413 23.6816C75.432 23.6486 75.4591 23.5979 75.4921 23.5297C75.5666 23.3756 75.6413 23.191 75.7113 22.9764C75.8486 22.5553 75.9498 22.0733 75.9995 21.5311L76.0077 21.4371C76.0302 21.1588 76.0358 20.9062 76.0358 20.4595L76.0359 20.1906C76.0381 19.6496 76.0562 19.4276 76.1273 19.2035Z" fill="#D18888"/>
<path d="M67.3642 38.3377C67.3959 38.2764 67.4707 38.2527 67.5312 38.2848C67.5862 38.314 67.6105 38.3793 67.5907 38.437L67.5834 38.454L62.5966 48.1064C62.5649 48.1677 62.4901 48.1914 62.4296 48.1593C62.3746 48.1301 62.3503 48.0648 62.3701 48.0071L62.3774 47.9901L67.3642 38.3377Z" fill="#E4EBF7"/>
<path d="M76.1854 4.24117C76.1854 4.35338 76.2713 4.44434 76.3772 4.44434C76.4832 4.44434 76.569 4.35338 76.569 4.24117V1.53227C76.569 1.42005 76.4832 1.3291 76.3772 1.3291C76.2713 1.3291 76.1854 1.42005 76.1854 1.53227V4.24117Z" fill="#597EF7"/>
<path d="M74.1635 4.9006C74.2013 4.96624 74.2699 5.00293 74.3404 5.00293C74.375 5.00293 74.4101 4.99406 74.4423 4.97547C74.5399 4.91899 74.5733 4.79388 74.517 4.69602L73.1563 2.33375C73.1 2.23594 72.9752 2.20239 72.8775 2.25888C72.7799 2.31539 72.7464 2.4405 72.8028 2.53833L74.1635 4.9006Z" fill="#597EF7"/>
<path d="M72.828 6.52832C72.7936 6.52832 72.7587 6.5194 72.7267 6.5007L70.3833 5.12907C70.2863 5.07226 70.253 4.94644 70.3091 4.84802C70.3651 4.74963 70.4892 4.71589 70.5863 4.77272L72.9297 6.14435C73.0267 6.20116 73.06 6.32699 73.0039 6.4254C72.9663 6.4914 72.8981 6.52832 72.828 6.52832Z" fill="#597EF7"/>
<path d="M69.5883 8.56934H72.2755C72.3868 8.56934 72.477 8.48278 72.477 8.37598C72.477 8.26918 72.3868 8.18262 72.2755 8.18262H69.5883C69.4769 8.18262 69.3867 8.26918 69.3867 8.37598C69.3867 8.48278 69.4769 8.56934 69.5883 8.56934Z" fill="#597EF7"/>
<path d="M70.485 11.9639C70.4149 11.9639 70.3467 11.927 70.3091 11.8609C70.253 11.7625 70.2863 11.6367 70.3833 11.5799L72.7267 10.2083C72.8238 10.1514 72.9479 10.1852 73.0039 10.2836C73.06 10.382 73.0267 10.5078 72.9297 10.5646L70.5863 11.9363C70.5543 11.955 70.5194 11.9639 70.485 11.9639Z" fill="#597EF7"/>
<path d="M72.8775 14.4501C72.9097 14.4687 72.9447 14.4775 72.9793 14.4775C73.0499 14.4775 73.1185 14.4408 73.1563 14.3752L74.517 12.013C74.5733 11.9151 74.5399 11.79 74.4423 11.7335C74.3446 11.677 74.2198 11.7106 74.1635 11.8084L72.8028 14.1706C72.7464 14.2685 72.7799 14.3936 72.8775 14.4501Z" fill="#597EF7"/>
<path d="M76.3772 15.3799C76.2713 15.3799 76.1854 15.2889 76.1854 15.1767V12.4678C76.1854 12.3556 76.2713 12.2646 76.3772 12.2646C76.4832 12.2646 76.569 12.3556 76.569 12.4678V15.1767C76.569 15.2889 76.4832 15.3799 76.3772 15.3799Z" fill="#597EF7"/>
<path d="M79.5555 14.3752C79.5933 14.4409 79.6619 14.4775 79.7325 14.4775C79.7671 14.4775 79.8022 14.4687 79.8343 14.4501C79.9319 14.3936 79.9654 14.2685 79.909 14.1706L78.5483 11.8084C78.492 11.7106 78.3672 11.677 78.2695 11.7335C78.1719 11.79 78.1385 11.9151 78.1948 12.0129L79.5555 14.3752Z" fill="#597EF7"/>
<path d="M82.2268 11.9639C82.1924 11.9639 82.1575 11.955 82.1255 11.9363L79.7822 10.5646C79.6851 10.5078 79.6518 10.382 79.7079 10.2836C79.7639 10.1852 79.888 10.1514 79.9851 10.2083L82.3285 11.5799C82.4255 11.6367 82.4588 11.7625 82.4028 11.8609C82.3652 11.9269 82.2969 11.9639 82.2268 11.9639Z" fill="#597EF7"/>
<path d="M80.4363 8.56934H83.1236C83.2349 8.56934 83.3251 8.48278 83.3251 8.37598C83.3251 8.26918 83.2349 8.18262 83.1236 8.18262H80.4363C80.325 8.18262 80.2348 8.26918 80.2348 8.37598C80.2348 8.48278 80.325 8.56934 80.4363 8.56934Z" fill="#597EF7"/>
<path d="M79.8838 6.52832C79.8137 6.52832 79.7455 6.49142 79.7079 6.4254C79.6518 6.32699 79.6851 6.20116 79.7822 6.14435L82.1255 4.77271C82.2226 4.7159 82.3467 4.74962 82.4027 4.84801C82.4588 4.94643 82.4255 5.07225 82.3285 5.12906L79.9851 6.5007C79.9531 6.5194 79.9182 6.52832 79.8838 6.52832Z" fill="#597EF7"/>
<path d="M78.2696 4.97547C78.3017 4.99407 78.3368 5.00293 78.3714 5.00293C78.4419 5.00293 78.5106 4.96622 78.5484 4.9006L79.909 2.53835C79.9654 2.44051 79.9319 2.31541 79.8343 2.2589C79.7366 2.20237 79.6119 2.23596 79.5555 2.33377L78.1949 4.69602C78.1385 4.79388 78.1719 4.91899 78.2696 4.97547Z" fill="#597EF7"/>
<path d="M16.2323 48.9555C16.2323 49.0677 16.3182 49.1586 16.4241 49.1586C16.53 49.1586 16.6159 49.0677 16.6159 48.9555V46.2466C16.6159 46.1343 16.53 46.0434 16.4241 46.0434C16.3182 46.0434 16.2323 46.1343 16.2323 46.2466V48.9555Z" fill="#597EF7"/>
<path d="M14.2103 49.6149C14.2481 49.6805 14.3167 49.7172 14.3873 49.7172C14.4219 49.7172 14.457 49.7084 14.4891 49.6898C14.5868 49.6333 14.6202 49.5082 14.5638 49.4103L13.2032 47.048C13.1468 46.9502 13.022 46.9167 12.9244 46.9732C12.8268 47.0297 12.7933 47.1548 12.8497 47.2526L14.2103 49.6149Z" fill="#597EF7"/>
<path d="M12.8749 51.2426C12.8405 51.2426 12.8055 51.2337 12.7736 51.215L10.4302 49.8434C10.3331 49.7866 10.2999 49.6607 10.3559 49.5623C10.412 49.4639 10.5361 49.4302 10.6332 49.487L12.9765 50.8586C13.0736 50.9155 13.1068 51.0413 13.0508 51.1397C13.0132 51.2057 12.945 51.2426 12.8749 51.2426Z" fill="#597EF7"/>
<path d="M9.63514 53.2836H12.3224C12.4337 53.2836 12.5239 53.1971 12.5239 53.0903C12.5239 52.9835 12.4337 52.8969 12.3224 52.8969H9.63514C9.52382 52.8969 9.43359 52.9835 9.43359 53.0903C9.43359 53.1971 9.52382 53.2836 9.63514 53.2836Z" fill="#597EF7"/>
<path d="M10.5319 56.6782C10.4617 56.6782 10.3935 56.6413 10.3559 56.5752C10.2999 56.4768 10.3332 56.351 10.4302 56.2942L12.7736 54.9226C12.8707 54.8657 12.9948 54.8995 13.0508 54.9979C13.1068 55.0963 13.0736 55.2221 12.9765 55.2789L10.6332 56.6505C10.6012 56.6692 10.5663 56.6782 10.5319 56.6782Z" fill="#597EF7"/>
<path d="M12.9244 59.1644C12.9565 59.183 12.9916 59.1918 13.0262 59.1918C13.0967 59.1918 13.1654 59.1551 13.2032 59.0895L14.5638 56.7273C14.6202 56.6294 14.5868 56.5043 14.4891 56.4478C14.3914 56.3913 14.2667 56.4249 14.2103 56.5227L12.8497 58.8849C12.7933 58.9828 12.8267 59.1079 12.9244 59.1644Z" fill="#597EF7"/>
<path d="M16.4241 60.0942C16.3182 60.0942 16.2323 60.0032 16.2323 59.891V57.1821C16.2323 57.0699 16.3182 56.9789 16.4241 56.9789C16.53 56.9789 16.6159 57.0699 16.6159 57.1821V59.891C16.6159 60.0032 16.53 60.0942 16.4241 60.0942Z" fill="#597EF7"/>
<path d="M19.6024 59.0895C19.6402 59.1551 19.7088 59.1918 19.7793 59.1918C19.814 59.1918 19.8491 59.183 19.8812 59.1644C19.9788 59.1079 20.0123 58.9828 19.9559 58.8849L18.5952 56.5227C18.5389 56.4248 18.4141 56.3913 18.3164 56.4478C18.2188 56.5043 18.1854 56.6294 18.2417 56.7272L19.6024 59.0895Z" fill="#597EF7"/>
<path d="M22.2737 56.6782C22.2393 56.6782 22.2044 56.6692 22.1724 56.6505L19.829 55.2789C19.732 55.2221 19.6987 55.0963 19.7548 54.9979C19.8108 54.8995 19.9349 54.8657 20.032 54.9226L22.3754 56.2942C22.4724 56.351 22.5057 56.4768 22.4496 56.5752C22.412 56.6412 22.3438 56.6782 22.2737 56.6782Z" fill="#597EF7"/>
<path d="M20.4832 53.2836H23.1704C23.2817 53.2836 23.372 53.1971 23.372 53.0903C23.372 52.9835 23.2817 52.8969 23.1704 52.8969H20.4832C20.3719 52.8969 20.2817 52.9835 20.2817 53.0903C20.2817 53.1971 20.3719 53.2836 20.4832 53.2836Z" fill="#597EF7"/>
<path d="M19.9307 51.2426C19.8606 51.2426 19.7923 51.2057 19.7548 51.1397C19.6987 51.0413 19.732 50.9155 19.829 50.8586L22.1724 49.487C22.2695 49.4302 22.3936 49.4639 22.4496 49.5623C22.5057 49.6607 22.4724 49.7865 22.3753 49.8434L20.032 51.215C20 51.2337 19.9651 51.2426 19.9307 51.2426Z" fill="#597EF7"/>
<path d="M18.3164 49.6898C18.3486 49.7084 18.3837 49.7172 18.4183 49.7172C18.4888 49.7172 18.5574 49.6805 18.5952 49.6149L19.9559 47.2526C20.0123 47.1548 19.9788 47.0297 19.8812 46.9732C19.7835 46.9167 19.6587 46.9503 19.6024 47.0481L18.2417 49.4103C18.1854 49.5082 18.2188 49.6333 18.3164 49.6898Z" fill="#597EF7"/>
<path d="M3.53408 101.745C3.73336 101.958 3.87157 102.207 3.94935 102.47L10.9678 100.523C11.0621 100.497 11.1595 100.553 11.1854 100.648C11.2114 100.743 11.156 100.841 11.0617 100.867L4.01686 102.821C4.06633 103.358 3.87897 103.911 3.45975 104.31C2.73665 104.998 1.59756 104.964 0.91551 104.235C0.233464 103.506 0.266744 102.358 0.989843 101.67C1.71294 100.983 2.85204 101.016 3.53408 101.745Z" fill="#597EF7"/>
<path d="M10.643 117.314C10.6734 117.455 10.6875 117.602 10.6831 117.753C10.654 118.755 9.82505 119.543 8.83147 119.514C7.83788 119.485 7.05595 118.649 7.08498 117.647C7.11401 116.646 7.943 115.858 8.93659 115.887C9.65558 115.908 10.2637 116.351 10.534 116.974L15.7575 115.245C15.8504 115.214 15.9505 115.265 15.981 115.359C16.0115 115.453 15.9609 115.553 15.868 115.584L10.643 117.314Z" fill="#597EF7"/>
<path d="M9.54463 115.155C9.63884 115.181 9.73641 115.126 9.76257 115.031L13.3049 102.168C13.8957 102.338 14.558 102.2 15.0374 101.744C15.7605 101.056 15.7938 99.9079 15.1117 99.1789C14.4297 98.45 13.2906 98.4165 12.5675 99.104C11.8444 99.7916 11.8111 100.94 12.4932 101.669C12.6361 101.821 12.799 101.944 12.974 102.035L9.42141 114.935C9.39525 115.03 9.45042 115.128 9.54463 115.155Z" fill="#597EF7"/>
<path d="M19.4426 116.058C20.1657 115.371 20.199 114.222 19.5169 113.493C18.8349 112.765 17.6958 112.731 16.9727 113.419C16.2496 114.106 16.2163 115.254 16.8983 115.983C17.5804 116.712 18.7195 116.746 19.4426 116.058Z" fill="#597EF7"/>
</svg>
