<svg width="252" height="216" viewBox="0 0 252 216" fill="none" xmlns="http://www.w3.org/2000/svg">
<ellipse cx="126" cy="181" rx="126" ry="29" fill="#868686"/>
<path d="M201.236 192.748C202.907 189.787 203.797 186.423 203.797 183.032C203.797 172.078 194.873 163.196 183.928 163.196C178.401 163.196 173.144 165.484 169.396 169.521C167.186 165.538 163.169 162.927 158.639 162.497C160.284 160.209 161.201 157.437 161.201 154.611C161.201 147.182 155.162 141.154 147.721 141.154C144.836 141.154 142.032 142.069 139.741 143.791V94.4037C139.741 94.1884 139.552 94 139.336 94H114.021C113.806 94 113.617 94.1884 113.617 94.4037V147.451C112.161 146.913 110.624 146.617 109.088 146.617C101.943 146.617 96.147 152.404 96.147 159.536C96.147 161.285 96.4974 162.981 97.1984 164.596C93.9902 166.184 91.456 168.794 89.9732 172.024C87.8434 169.037 84.4734 167.287 80.78 167.287C75.2802 167.287 70.5892 171.271 69.6456 176.626C67.408 176.034 65.0894 175.738 62.7979 175.738C48.024 175.738 36 187.742 36 202.491C36 204.913 36.3235 207.335 36.9975 209.704C37.0514 209.865 37.2132 210 37.4019 210H44.3844C45.0584 197.27 55.6536 187.123 68.5672 187.123C70.6431 187.123 72.719 187.392 74.768 187.93C75.6037 183.086 79.8633 179.479 84.8239 179.479C88.1669 179.479 91.2133 181.067 93.1275 183.759C94.4755 180.852 96.767 178.484 99.6517 177.03C99.0316 175.577 98.7081 174.043 98.7081 172.455C98.7081 166.022 103.965 160.774 110.409 160.774C111.703 160.774 112.943 160.989 114.156 161.42C114.264 161.447 114.399 161.501 114.506 161.528V160.343C116.367 155.203 121.3 151.516 127.097 151.516C131.68 151.516 135.697 153.803 138.123 157.302V158.244C138.258 158.136 138.393 158.056 138.554 157.948C140.549 156.602 142.922 155.849 145.348 155.849C152.061 155.849 157.534 161.312 157.534 168.014C157.534 170.571 156.725 173.074 155.216 175.119C159.313 175.496 162.926 177.864 164.921 181.444C168.318 177.811 173.063 175.738 178.077 175.738C187.971 175.738 196.032 183.786 196.032 193.663C196.032 196.758 195.224 199.773 193.714 202.464C196.491 204.321 198.54 206.932 199.672 209.946H208.38C208.596 209.946 208.757 209.812 208.784 209.596C208.919 208.654 209 207.847 209 207.066C208.946 201.307 206.061 195.978 201.236 192.748Z" fill="#EAEAEA"/>
<path d="M193.066 202.526C194.563 199.884 195.365 196.868 195.365 193.798C195.365 184.003 187.372 176.022 177.561 176.022C172.616 176.022 167.885 178.077 164.516 181.681C162.538 178.104 158.93 175.755 154.893 175.408C156.363 173.353 157.192 170.871 157.192 168.362C157.192 161.716 151.765 156.297 145.109 156.297C142.704 156.297 140.351 157.018 138.373 158.379C138.239 158.486 138.079 158.566 137.945 158.673V157.739C135.539 154.269 131.556 152 127.012 152C121.265 152 116.373 155.657 114.529 160.755V161.929C114.422 161.876 114.288 161.849 114.181 161.822C112.978 161.422 111.722 161.182 110.465 161.182C104.077 161.182 98.8639 166.387 98.8639 172.766C98.8639 174.341 99.1847 175.862 99.7995 177.303C96.9392 178.745 94.6671 181.067 93.3305 183.976C91.4326 181.307 88.3852 179.732 85.0972 179.732C80.1786 179.732 75.955 183.309 75.1264 188.113C73.1215 187.579 71.0632 187.312 68.9781 187.312C56.1738 187.312 45.6683 197.375 45 210H199C197.851 206.957 195.819 204.341 193.066 202.526Z" fill="#EFF0F0"/>
<path d="M31.5 202C73.6667 205.5 169.5 213 210 203L213.5 215.5C153.096 214.695 34.3149 213.578 26.4148 215.309C26.1541 215.795 26 215.91 26 215.5C26 215.433 26.1406 215.369 26.4148 215.309C27.4261 213.427 30.0425 205.975 31.5 202Z" fill="white"/>
<path d="M140.629 28H110.757H109.59L109.51 28.2162C106.565 36.4324 105 46.3243 105 56.7568C105 60.7838 105.239 64.8378 105.716 68.7568L109.059 84C109.749 86.1081 110.518 88.0541 111.341 89.8108L111.42 90H113.463H122.881C123.04 85.3784 123.756 77.8649 126.33 71.027C128.903 77.8919 129.593 85.3784 129.725 90H137.445C150.763 57.027 142.884 33.5135 140.629 28Z" fill="white"/>
<path d="M144.417 28.2162L144.336 28H143.15H141.235C143.527 33.5135 151.534 57 138 90H140.4H142.476L142.556 89.8108C143.365 88.0811 144.147 86.1351 144.875 84L144.929 84.027L148.272 68.7568C148.757 64.8378 149 60.7838 149 56.7568C149 46.3243 147.436 36.4595 144.417 28.2162Z" fill="#EBEBEB"/>
<path d="M130.207 6.10794L126.826 0.137566L126.744 0L112 26H139L130.207 6.10794Z" fill="#FF7D70"/>
<path d="M143 28L130.015 6L138.975 25.5166H111.461L110 28H143Z" fill="#EB7168"/>
<path d="M113 95H123C123 95 122.944 93.7302 122.972 91.6349L113 91V95Z" fill="#A7A9AC"/>
<path d="M113 90V91.322L122.972 92C122.972 91.3898 123 90.7119 123 90H113Z" fill="#97999C"/>
<path d="M130.052 92C130.052 93.8791 130 95 130 95H140V92.6923L130.052 92Z" fill="#A7A9AC"/>
<path d="M140 90H130C130.026 90.875 130.026 91.625 130.026 92.3125L139.974 93V90H140Z" fill="#97999C"/>
<path d="M148.131 69L145 83.9642C145.53 84.4137 146.187 85.2597 146.566 86L150 70.6921L148.131 69Z" fill="#51BDDB"/>
<path d="M160.996 100.555L159.183 80.7004C159.101 79.7116 158.387 78.3488 157.618 77.7074L149.735 71L146 86.4725C146.082 86.6061 146.165 86.7664 146.22 86.9001L150.092 96.0927C150.477 97.0013 151.548 98.1236 152.454 98.5779L159.101 101.811C159.705 102.105 160.309 102.052 160.666 101.678C160.913 101.411 161.023 101.036 160.996 100.555Z" fill="#00BBFF"/>
<path d="M126.467 72C123.926 78.712 123.22 85.8859 123.05 90.3967C122.937 93.1413 123.05 94.8804 123.05 94.8804C123.784 97.4348 124.999 99.8261 126.665 102C129.32 90.1793 127.343 76.7826 126.467 72Z" fill="#59CFF0"/>
<path d="M129.966 89.9235C129.822 85.3139 129.069 77.82 126.261 71C126.174 71.2426 126.087 71.4583 126 71.7009C126.898 76.4452 128.924 89.7348 126.203 101.461C126.261 101.515 126.29 101.569 126.347 101.623L126.637 102L126.926 101.623C127.013 101.515 128.866 98.9539 129.995 94.4252C129.937 94.3713 130.053 92.6461 129.966 89.9235Z" fill="#51BDDB"/>
<path d="M126.5 37C118.524 37 112 43.5032 112 51.4868C112 59.4968 118.497 66 126.5 66C134.476 66 141 59.4968 141 51.4868C141 43.5032 134.503 37 126.5 37Z" fill="#EBEBEB"/>
<path d="M126.5 38C119.059 38 113 44.0591 113 51.5C113 58.9409 119.059 65 126.5 65C133.941 65 140 58.9409 140 51.5C140 44.0325 133.941 38 126.5 38Z" fill="#FF7D70"/>
<path d="M133.082 43C134.406 44.7882 135.2 47.0515 135.2 49.4823C135.2 55.3221 130.7 60.1 125.141 60.1C122.838 60.1 120.694 59.2618 119 57.8647C120.853 60.3794 123.712 62 126.941 62C132.474 62 137 57.25 137 51.3824C137 47.9735 135.465 44.9559 133.082 43Z" fill="#A6D9EB"/>
<path d="M135 49.5665C135 47.1777 134.176 44.9538 132.803 43.1965C131.046 41.8237 128.822 41 126.434 41C120.695 41 116 45.6676 116 51.4335C116 53.8223 116.824 56.0462 118.197 57.8035C119.954 59.1763 122.178 60 124.566 60C130.332 60 135 55.3324 135 49.5665Z" fill="#B5ECFF"/>
<path d="M95.4504 77.4722C94.6681 78.1467 93.9418 79.4958 93.858 80.4941L92.0141 100.541C91.9582 101 92.07 101.405 92.3214 101.675C92.6846 102.052 93.2992 102.106 93.9138 101.81L100.675 98.5448C101.597 98.0861 102.686 96.9799 103.077 96.0355L107.016 86.7538C107.352 85.9444 108.246 84.7842 108.944 84.2446L109 84.2176L105.48 69L95.4504 77.4722Z" fill="#00BBFF"/>
</svg>
