<svg width="96" height="125" viewBox="0 0 96 125" fill="none" xmlns="http://www.w3.org/2000/svg">
<mask id="mask0" mask-type="alpha" maskUnits="userSpaceOnUse" x="0" y="0" width="96" height="125">
<rect x="0.597656" y="0.945343" width="95.0605" height="123.187" fill="#C4C4C4"/>
</mask>
<g mask="url(#mask0)">
<path d="M65.4772 110.777L5.00886 74.7517C3.08442 73.6664 1.4325 71.8723 3.30984 70.6988L63.9935 35.4269C64.9053 34.8571 66.288 34.484 67.2133 35.0267L130.669 72.1775C132.594 73.3035 132.94 76.4509 131.006 77.5803L73.4475 110.719C72.2385 111.426 70.8676 111.803 69.4699 111.813C68.0723 111.823 66.6961 111.466 65.4772 110.777V110.777Z" fill="#8AC9FE"/>
<path d="M20.1701 73.9174C20.2351 73.848 20.3159 73.7956 20.4056 73.7648C20.0617 72.3295 19.3519 71.0096 18.3466 69.9357L17.1589 70.0612L8.71094 74.4227L15.645 77.7702L19.1036 75.7353C19.3473 75.0694 19.7087 74.4535 20.1701 73.9174V73.9174Z" fill="url(#paint0_linear)"/>
<path d="M47.2384 73.2526L35.2915 80.2392L28.3574 76.8917L36.8054 72.5234L44.1667 71.74" fill="#476870"/>
<path d="M95.0373 81.9553L83.0903 88.9385L76.1562 85.5944L84.6043 81.2262L91.969 80.4427" fill="#476870"/>
<path d="M111.097 85.1468L99.3955 92.2792L92.4648 88.9317L100.913 84.5634L108.274 83.78" fill="url(#paint1_linear)"/>
<path d="M49.4651 92.5267L42.8574 97.2986L61.9672 108.684L80.9155 96.973" fill="#F14C71"/>
<path d="M77.7726 46.3612C77.7726 46.3612 73.9944 47.4465 75.1046 54.355L83.3844 49.0236C83.3844 49.0236 80.0335 45.7032 77.7726 46.3612Z" fill="#68E1FD"/>
<path opacity="0.39" d="M77.7726 46.3612C77.7726 46.3612 73.9944 47.4465 75.1046 54.355L83.3844 49.0236C83.3844 49.0236 80.0335 45.7032 77.7726 46.3612Z" fill="#06489E"/>
<path d="M12.4025 66.5442C12.4025 66.5442 11.0029 76.1931 17.0286 76.227C22.8188 76.2439 21.3283 66.4153 21.3283 66.4153C21.3283 66.4153 17.1161 62.7219 12.4025 66.5442Z" fill="#68E1FD"/>
<path d="M16.849 68.3858C19.3091 68.3858 21.3035 67.5552 21.3035 66.5306C21.3035 65.5061 19.3091 64.6755 16.849 64.6755C14.3889 64.6755 12.3945 65.5061 12.3945 66.5306C12.3945 67.5552 14.3889 68.3858 16.849 68.3858Z" fill="#68E1FD"/>
<path opacity="0.7" d="M16.849 68.3858C19.3091 68.3858 21.3035 67.5552 21.3035 66.5306C21.3035 65.5061 19.3091 64.6755 16.849 64.6755C14.3889 64.6755 12.3945 65.5061 12.3945 66.5306C12.3945 67.5552 14.3889 68.3858 16.849 68.3858Z" fill="black"/>
<path d="M9.83287 52.4422C9.83287 52.4422 6.72753 51.6926 7.91853 49.0879C7.92189 49.0845 10.0583 49.5119 9.83287 52.4422Z" fill="#938F05"/>
<path d="M11.7217 55.0673C11.7217 55.0673 11.291 52.8424 13.0136 51.9606C13.0136 51.9606 14.3998 54.277 11.7217 55.0673Z" fill="#938F05"/>
<path d="M13.6586 58.4791C13.6586 58.4791 13.1439 55.8168 15.2063 54.7484C15.2063 54.7451 16.8649 57.5329 13.6586 58.4791Z" fill="#938F05"/>
<path d="M15.1567 62.1962C15.1567 62.1962 14.6419 59.5339 16.7043 58.4656C16.7043 58.4588 18.3629 61.25 15.1567 62.1962Z" fill="#938F05"/>
<path d="M11.5365 55.1283C11.5365 55.1283 10.4397 53.1477 8.5489 53.5852C8.54218 53.5818 8.97955 56.2645 11.5365 55.1283Z" fill="#938F05"/>
<path d="M13.4991 58.5605C13.4991 58.5605 12.0961 56.2441 9.85547 56.8648C9.85547 56.8546 10.4981 60.0427 13.4991 58.5605Z" fill="#938F05"/>
<path d="M14.9862 62.2302C14.9862 62.2302 13.341 60.0833 11.1777 60.938C11.1777 60.938 12.1635 64.0345 14.9862 62.2302Z" fill="#938F05"/>
<path d="M16.1488 68.4096H16.1926C16.338 68.406 16.4834 68.4174 16.6266 68.4435C16.6281 68.4288 16.6281 68.414 16.6266 68.3994C15.9458 62.4494 13.6266 56.8102 9.93141 52.12C9.73964 51.8758 9.39647 52.2218 9.59497 52.4592C13.2088 57.0541 15.4786 62.5746 16.1488 68.3994V68.4096Z" fill="#42352F"/>
<path d="M23.4926 56.7088C23.4926 56.7088 26.1572 56.0644 25.1344 53.8293C25.1311 53.8124 23.3008 54.1787 23.4926 56.7088Z" fill="#938F05"/>
<path d="M21.8741 58.9438C21.8741 58.9438 22.2442 57.0343 20.7639 56.2644C20.7639 56.2644 19.5762 58.2654 21.8741 58.9438Z" fill="#938F05"/>
<path d="M20.2164 61.8741C20.2164 61.8741 20.6571 59.5916 18.8874 58.6691C18.8874 58.6657 17.4642 61.0601 20.2164 61.8741Z" fill="#938F05"/>
<path d="M18.9292 65.0621C18.9292 65.0621 19.37 62.7796 17.6003 61.8571C17.6003 61.8537 16.1771 64.2481 18.9292 65.0621Z" fill="#938F05"/>
<path d="M22.0371 58.9946C22.0371 58.9946 22.9758 57.2989 24.6008 57.6686C24.6008 57.672 24.2307 59.9714 22.0371 58.9946Z" fill="#938F05"/>
<path d="M20.3535 61.9419C20.3535 61.9419 21.5546 59.9545 23.4791 60.4768C23.4791 60.4802 22.9273 63.2138 20.3535 61.9419Z" fill="#938F05"/>
<path d="M19.0703 65.0892C19.0703 65.0892 20.4834 63.2476 22.3372 63.9802C22.3304 63.9802 21.4927 66.6358 19.0703 65.0892Z" fill="#938F05"/>
<path d="M23.4132 56.4069C20.6626 59.8919 18.7923 63.9979 17.9629 68.3722C18.1042 68.3485 18.2489 68.3281 18.3935 68.3146C19.2181 64.0733 21.0399 60.0934 23.7059 56.7087C23.8708 56.4951 23.5781 56.1966 23.4132 56.4069Z" fill="#42352F"/>
<path d="M37.9107 28.6811L59.5673 16.2851C59.778 16.166 60.0155 16.1034 60.257 16.1034C60.4986 16.1034 60.7361 16.166 60.9467 16.2851V16.2851L62.4271 17.0685L61.6734 17.2924C61.6879 17.3719 61.6957 17.4524 61.697 17.5332L62.1108 61.3484C62.1167 61.9628 61.9591 62.5675 61.6544 63.0996C61.3496 63.6317 60.9089 64.0716 60.3782 64.3736L38.634 76.7493C38.5903 76.7731 38.5454 76.7946 38.4995 76.8138L38.772 77.4921L37.4262 76.8138C37.3356 76.7775 37.2488 76.732 37.1672 76.6781V76.6781C36.9707 76.5485 36.8096 76.3713 36.6986 76.1627C36.5875 75.9542 36.53 75.721 36.5313 75.4843V31.1129C36.5286 30.621 36.6547 30.1372 36.8969 29.7102C37.1391 29.2832 37.4888 28.9283 37.9107 28.6811Z" fill="#476870"/>
<path d="M61.763 65.035L40.0189 77.3971C39.8019 77.5202 39.5568 77.584 39.3079 77.582C39.0589 77.58 38.8148 77.5124 38.5998 77.3858C38.3848 77.2593 38.2064 77.0783 38.0824 76.8607C37.9583 76.6431 37.8929 76.3966 37.8926 76.1456V31.7844C37.8929 31.2908 38.0228 30.806 38.2692 30.3795C38.5157 29.953 38.8698 29.5998 39.2955 29.356L60.9522 16.96C61.1682 16.8366 61.4125 16.7722 61.6608 16.7731C61.9091 16.7741 62.1529 16.8403 62.368 16.9654C62.5831 17.0904 62.7621 17.2699 62.8873 17.486C63.0125 17.7022 63.0796 17.9476 63.0819 18.1979L63.4957 62.0131C63.501 62.6269 63.3431 63.2309 63.0384 63.7624C62.7337 64.2938 62.2933 64.7332 61.763 65.035V65.035Z" fill="#9CCFDA"/>
<path d="M61.9693 62.4133L39.6465 75.118V32.9002L61.5723 20.3549L61.9693 62.4133Z" fill="#D5FBF1"/>
<path d="M45.2397 72.6795C44.1295 65.8964 43.2211 58.4927 43.0764 56.8682C42.777 53.6971 45.0143 50.1665 45.0143 50.1665C45.0143 50.1665 52.6347 49.3491 54.5625 53.0595C55.4036 54.6772 56.0327 60.0799 56.4735 65.6624C52.8365 68.1755 48.9439 70.2749 45.2397 72.6795Z" fill="#963626"/>
<path d="M51.9053 68.5791L50.8724 57.4752C50.8421 57.1361 51.3501 57.1361 51.3804 57.4752L52.3898 68.2874L51.9053 68.5791Z" fill="#663A12"/>
<path opacity="0.59" d="M49.5885 54.8604C51.3247 54.5341 52.9589 53.7959 54.3559 52.7068L54.2852 52.5881C47.6372 52.5881 45.0264 50.1631 45.0264 50.1631C44.0266 51.7217 43.3788 53.4827 43.1289 55.3216C45.2927 55.4325 47.4618 55.2776 49.5885 54.8604V54.8604Z" fill="#663A12"/>
<path d="M73.9475 40.8974C73.3843 40.7545 72.8105 40.6581 72.2317 40.6091C72.8203 40.6157 73.4071 40.677 73.9845 40.7923C74.5868 40.8906 74.6574 39.9342 74.0552 39.8359L73.7558 39.7884C73.8107 39.7202 73.8468 39.6386 73.8604 39.5518C73.874 39.4651 73.8646 39.3762 73.8332 39.2943C73.8017 39.2124 73.7494 39.1403 73.6815 39.0853C73.6135 39.0303 73.5324 38.9944 73.4462 38.9812C72.1246 38.8176 70.7835 38.9414 69.5133 39.3441C69.5481 38.8604 69.539 38.3745 69.4863 37.8925C69.4779 37.809 69.4452 37.73 69.3921 37.6653C69.2777 37.2549 68.5409 37.2651 68.4501 37.7942C68.3189 38.564 68.3593 39.3475 68.228 40.1072C68.2027 40.2451 68.1679 40.3811 68.1238 40.5142C67.5428 41.1359 66.9698 41.7577 66.4045 42.3795C66.0042 42.8272 66.741 43.3563 67.1514 42.9595C67.2139 43.0538 67.3029 43.127 67.4071 43.1697L67.3365 43.2647C67.2907 43.3254 67.2619 43.3974 67.253 43.4731C67.2441 43.5489 67.2555 43.6256 67.286 43.6954L67.2187 43.7633C66.7847 44.194 67.3937 44.9299 67.8311 44.4992L67.9824 44.3466C68.0282 44.3772 68.08 44.3976 68.1343 44.4063C68.1886 44.415 68.2441 44.4119 68.297 44.3971C68.35 44.3823 68.3992 44.3562 68.4413 44.3206C68.4833 44.2849 68.5173 44.2406 68.5409 44.1906C68.9103 43.588 69.4151 43.0814 70.0145 42.7119L70.1996 42.583C70.7158 42.4065 71.2534 42.3016 71.7977 42.271C72.2014 42.3727 72.6051 42.4982 73.0021 42.6101C73.1142 42.6449 73.2351 42.6367 73.3415 42.5869C73.4479 42.5371 73.5322 42.4494 73.5782 42.3407C73.6242 42.2319 73.6286 42.1099 73.5905 41.998C73.5525 41.8862 73.4747 41.7925 73.3722 41.7351L73.6313 41.7928C74.2133 41.9522 74.543 41.05 73.9475 40.8974Z" fill="#FFC388"/>
<path d="M73.8392 39.6629C73.2128 39.5774 72.5799 39.5491 71.9484 39.5782C71.7937 39.5782 71.7735 39.8291 71.9316 39.8223C72.5631 39.7933 73.1959 39.8216 73.8224 39.9071C73.9738 39.9275 73.994 39.6833 73.8392 39.6629Z" fill="#663A12"/>
<path d="M73.9241 40.6329C73.2559 40.5327 72.581 40.4851 71.9055 40.4905C71.7507 40.4905 71.7305 40.7346 71.8886 40.7346C72.5642 40.7293 73.2391 40.7769 73.9073 40.8771C74.0621 40.9008 74.0789 40.6566 73.9241 40.6329Z" fill="#663A12"/>
<path d="M71.2465 40.9551C70.4727 40.6905 69.7224 40.9551 69.063 41.3722C68.9318 41.457 69.0899 41.6436 69.2177 41.5588C69.4908 41.3485 69.8088 41.2053 70.1463 41.1405C70.4839 41.0758 70.8318 41.0912 71.1624 41.1857C71.1927 41.1969 71.2263 41.1956 71.2556 41.1819C71.2849 41.1682 71.3077 41.1434 71.3188 41.1128C71.33 41.0822 71.3286 41.0484 71.3151 41.0188C71.3015 40.9892 71.2768 40.9663 71.2465 40.9551V40.9551Z" fill="#663A12"/>
<path d="M71.635 40.8974C71.5106 40.3446 71.2751 39.8054 70.7233 39.5747C70.5787 39.5137 70.4979 39.7443 70.6426 39.8054C71.1102 40.0021 71.2952 40.4837 71.3962 40.9415C71.4298 41.1077 71.6687 41.0501 71.635 40.8974Z" fill="#663A12"/>
<path d="M73.5809 41.5249C73.0877 41.3044 72.5632 41.1637 72.0265 41.1077C71.8718 41.0907 71.8516 41.3349 72.0097 41.3519C72.5248 41.4089 73.0278 41.5474 73.5002 41.7623C73.6415 41.8199 73.7222 41.5893 73.5809 41.5249Z" fill="#663A12"/>
<path d="M67.5811 40.6363C66.2784 41.5481 65.0302 42.5368 63.8432 43.5971L63.2006 39.6358L58.4434 41.1857C58.4434 41.1857 59.4527 47.4295 60.8758 49.0405C60.8758 49.0405 62.1678 50.8753 64.5767 49.5831C66.2824 48.664 68.9773 45.3268 70.2692 43.3359C70.0224 42.7279 69.6575 42.1759 69.1958 41.7122C68.7341 41.2486 68.1851 40.8828 67.5811 40.6363Z" fill="#68E1FD"/>
<path opacity="0.39" d="M67.5811 40.6363C66.2784 41.5481 65.0302 42.5368 63.8432 43.5971L63.2006 39.6358L58.4434 41.1857C58.4434 41.1857 59.4527 47.4295 60.8758 49.0405C60.8758 49.0405 62.1678 50.8753 64.5767 49.5831C66.2824 48.664 68.9773 45.3268 70.2692 43.3359C70.0224 42.7279 69.6575 42.1759 69.1958 41.7122C68.7341 41.2486 68.1851 40.8828 67.5811 40.6363Z" fill="#06489E"/>
<path d="M57.7992 35.9526C57.5469 35.8881 55.461 36.2442 53.6476 36.8377C51.8342 37.4313 43.9783 49.01 45.0111 50.1699C46.044 51.3298 50.8955 53.636 53.8124 52.9984C56.7294 52.3608 63.5221 40.9381 63.2025 39.6392C62.4724 36.6648 60.1913 36.6546 60.1913 36.6546" fill="#68E1FD"/>
<path d="M63.2555 33.4462C63.2555 33.4462 62.9191 37.8281 61.2201 38.2791C59.5211 38.7302 58.1921 36.7903 57.8826 35.7592C57.5731 34.7282 58.0037 29.9156 60.813 30.828C63.6223 31.7403 63.2555 33.4462 63.2555 33.4462Z" fill="#FFC388"/>
<path d="M63.0704 30.0174C61.8726 29.5969 60.4899 28.6913 58.3602 30.109C56.2306 31.5267 55.5711 35.4642 58.1146 36.4138L58.5957 35.003C58.3715 34.7145 58.2655 34.3504 58.2997 33.9855C58.3056 33.8661 58.3369 33.7494 58.3917 33.6434C58.4464 33.5374 58.5231 33.4445 58.6167 33.3711C58.7103 33.2977 58.8185 33.2455 58.9339 33.2181C59.0493 33.1907 59.1692 33.1887 59.2854 33.2122C59.5507 33.0134 59.7671 32.7558 59.9179 32.4593C60.3486 31.6013 60.833 32.0252 61.4656 32.7985C62.0981 33.5717 63.4405 33.7922 64.1066 33.3072C64.7728 32.8222 64.5877 30.5499 63.0704 30.0174Z" fill="#AF5912"/>
<path d="M59.2125 48.6946C59.2125 48.6946 56.6858 46.5715 56.6858 45.6422C56.6858 44.7129 58.0013 37.9163 55.8279 37.377C53.6545 36.8378 51.8915 41.9793 51.2725 45.0046C50.6534 48.0298 55.2257 51.2484 55.2257 51.2484" fill="#68E1FD"/>
<path d="M62.7632 48.9388L65.5052 47.979C65.5052 47.979 67.3792 46.507 68.2505 47.1141C68.4827 47.2769 66.4304 48.6708 66.4304 48.6708C66.4304 48.6708 70.0135 47.962 70.1312 48.6912C70.3432 50.1088 68.9873 52.1471 67.4397 51.9776C65.7637 51.758 64.1005 51.4489 62.457 51.0517" fill="#FFC388"/>
<path d="M65.2365 47.8907C63.7124 47.477 61.4482 47.7246 59.3286 47.5889C56.6068 47.5889 53.5149 47.304 53.7336 50.2309C53.9759 53.4868 62.8175 52.5609 65.3475 52.2285C65.8252 50.8244 65.6873 49.3186 65.2365 47.8907Z" fill="#68E1FD"/>
<path opacity="0.39" d="M55.4205 51.9911C55.4205 51.9911 51.9956 50.8821 51.6322 47.945C51.2689 45.0079 51.2117 42.5186 51.2117 42.5186C51.2117 42.5186 48.8398 48.2299 49.7616 50.1054C50.6835 51.9809 55.4205 51.9911 55.4205 51.9911Z" fill="#06489E"/>
<path opacity="0.39" d="M59.3448 47.5719C59.3448 47.5719 56.5254 47.2328 56.697 45.6455C56.8686 44.0583 57.7871 41.7622 57.7871 41.7622C57.7871 41.7622 56.448 46.9038 59.3448 47.5719Z" fill="#06489E"/>
<path d="M47.3212 49.9766L53.4915 46.3883C53.6332 46.3054 53.7941 46.2617 53.958 46.2615C54.1219 46.2613 54.2829 46.3046 54.4248 46.3872C54.5668 46.4697 54.6846 46.5886 54.7665 46.7317C54.8483 46.8748 54.8913 47.0371 54.8911 47.2023V51.2382C54.8911 51.4021 54.8485 51.5632 54.7676 51.7054C54.6868 51.8475 54.5704 51.9659 54.4301 52.0488L48.2598 55.7116C48.1182 55.7961 47.9569 55.8412 47.7923 55.8424C47.6277 55.8436 47.4658 55.8009 47.3229 55.7186C47.18 55.6362 47.0613 55.5172 46.9789 55.3736C46.8964 55.23 46.8532 55.067 46.8535 54.9011V50.7939C46.853 50.6282 46.896 50.4653 46.9782 50.3218C47.0603 50.1782 47.1786 50.0591 47.3212 49.9766V49.9766Z" fill="#00BBFF"/>
<path d="M50.293 49.5357C50.293 50.214 50.293 52.1912 50.293 52.9543C50.2933 52.9817 50.3012 53.0085 50.3159 53.0315C50.3305 53.0546 50.3514 53.073 50.3759 53.0847C50.4005 53.0963 50.4279 53.1008 50.4548 53.0975C50.4818 53.0943 50.5073 53.0834 50.5285 53.0662L53.0417 50.9669C53.0598 50.9514 53.0739 50.9317 53.0827 50.9094C53.0914 50.8871 53.0946 50.863 53.092 50.8392C53.0893 50.8154 53.0809 50.7927 53.0674 50.7729C53.0539 50.7532 53.0359 50.7371 53.0148 50.7261L50.5049 49.4068C50.4829 49.3951 50.4582 49.3894 50.4334 49.3901C50.4085 49.3908 50.3842 49.398 50.3629 49.411C50.3416 49.424 50.324 49.4422 50.3117 49.4641C50.2995 49.4859 50.293 49.5106 50.293 49.5357Z" fill="white"/>
<path d="M41.2874 72.649L60.5452 61.4569C60.6032 61.4227 60.6454 61.3667 60.6624 61.3012C60.6794 61.2357 60.67 61.166 60.6361 61.1076C60.6021 61.0491 60.5466 61.0066 60.4816 60.9894C60.4166 60.9723 60.3475 60.9818 60.2895 61.016L41.0317 72.2081C40.9737 72.2422 40.9316 72.2983 40.9145 72.3638C40.8975 72.4293 40.907 72.4989 40.9409 72.5574C40.9748 72.6159 41.0303 72.6584 41.0953 72.6755C41.1603 72.6927 41.2294 72.6831 41.2874 72.649V72.649Z" fill="#B3B3B3"/>
<path d="M41.7628 72.4631C41.8685 72.0923 41.7283 71.7262 41.4497 71.6455C41.1711 71.5649 40.8596 71.8001 40.7539 72.1709C40.6482 72.5418 40.7883 72.9078 41.0669 72.9885C41.3455 73.0692 41.6571 72.834 41.7628 72.4631Z" fill="#3C6071"/>
<path d="M105.534 75.5758C101.954 78.1873 97.8695 80.1883 94.0947 82.4098C91.3695 84.0106 88.6612 85.6385 85.9427 87.2495C77.35 80.5105 81.9795 69.2981 82.0198 60.3004C82.0198 57.1869 81.9761 53.9345 81.1384 50.916C80.8322 49.8138 80.4184 48.6505 79.6681 47.7687C79.3317 47.3854 76.9429 45.9101 76.334 46.273L80.6034 44.0482C80.8591 43.8955 81.421 43.6513 81.6767 43.4987C83.1267 42.6339 84.9906 41.7419 86.4373 40.8771C88.2238 39.8087 89.3004 39.4119 91.0869 38.347L93.1055 37.1328C93.6876 36.7937 94.3773 36.2171 95.1074 36.3833C95.76 36.5325 96.369 37.1057 96.7896 37.6009C97.5398 38.4826 97.9536 39.6358 98.2598 40.7482C99.1009 43.7667 99.1547 47.0191 99.1413 50.1326C99.111 59.5339 95.2049 69.1217 105.534 75.5758Z" fill="#68E1FD"/>
<path d="M86.1241 53.8056C86.951 53.8056 87.6213 52.8794 87.6213 51.7368C87.6213 50.5942 86.951 49.6679 86.1241 49.6679C85.2973 49.6679 84.627 50.5942 84.627 51.7368C84.627 52.8794 85.2973 53.8056 86.1241 53.8056Z" fill="white"/>
<path d="M88.6154 49.6781L96.6563 44.9096C96.7526 44.853 96.8227 44.76 96.8511 44.6513C96.8795 44.5425 96.8639 44.4268 96.8077 44.3297C96.7515 44.2325 96.6593 44.1619 96.5514 44.1333C96.4435 44.1046 96.3287 44.1204 96.2324 44.1771L88.1814 48.9456C88.085 49.0022 88.0149 49.0952 87.9865 49.2039C87.9581 49.3127 87.9737 49.4284 88.03 49.5255C88.0862 49.6226 88.1784 49.6933 88.2863 49.7219C88.3941 49.7505 88.5089 49.7348 88.6053 49.6781H88.6154Z" fill="#F2F2F2"/>
<path d="M89.2557 51.2586L94.3628 48.3079C94.4591 48.2512 94.5292 48.1583 94.5576 48.0495C94.586 47.9408 94.5704 47.8251 94.5142 47.728C94.458 47.6308 94.3658 47.5602 94.2579 47.5315C94.15 47.5029 94.0352 47.5187 93.9389 47.5753L88.8317 50.526C88.784 50.554 88.7423 50.5913 88.7088 50.6356C88.6754 50.68 88.651 50.7305 88.6369 50.7843C88.6228 50.8382 88.6194 50.8943 88.6269 50.9495C88.6343 51.0047 88.6525 51.0578 88.6804 51.1059C88.7082 51.154 88.7452 51.1961 88.7891 51.2298C88.8331 51.2635 88.8832 51.2882 88.9366 51.3024C88.9901 51.3165 89.0457 51.32 89.1005 51.3124C89.1552 51.3049 89.2079 51.2866 89.2557 51.2586V51.2586Z" fill="#F2F2F2"/>
<path d="M87.3756 61.0816C87.6023 59.9621 87.1294 58.9194 86.3193 58.7526C85.5091 58.5859 84.6686 59.3582 84.4418 60.4777C84.2151 61.5972 84.688 62.6399 85.4981 62.8067C86.3083 62.9734 87.1488 62.2011 87.3756 61.0816Z" fill="white"/>
<path d="M88.3819 59.2592L96.4328 54.4907C96.5192 54.4301 96.58 54.3391 96.603 54.2356C96.6261 54.1321 96.6098 54.0236 96.5574 53.9316C96.505 53.8396 96.4203 53.7708 96.32 53.7386C96.2197 53.7065 96.1111 53.7135 96.0157 53.7581L87.9411 58.5266C87.8448 58.5833 87.7747 58.6762 87.7463 58.785C87.7179 58.8938 87.7335 59.0095 87.7897 59.1066C87.8459 59.2037 87.9381 59.2744 88.046 59.303C88.1539 59.3316 88.2687 59.3159 88.365 59.2592H88.3819Z" fill="#F2F2F2"/>
<path d="M89.0355 60.8397L94.1427 57.889C94.239 57.8324 94.3091 57.7394 94.3375 57.6307C94.3659 57.5219 94.3503 57.4062 94.2941 57.3091C94.2379 57.2119 94.1457 57.1413 94.0378 57.1127C93.9299 57.084 93.8151 57.0998 93.7188 57.1565L88.615 60.1003C88.5186 60.157 88.4485 60.2499 88.4201 60.3587C88.3917 60.4674 88.4073 60.5831 88.4636 60.6803C88.5198 60.7774 88.612 60.8481 88.7199 60.8767C88.8277 60.9053 88.9425 60.8895 89.0389 60.8329L89.0355 60.8397Z" fill="#F2F2F2"/>
<path d="M86.3689 69.7825C86.688 68.6861 86.3034 67.6071 85.51 67.3725C84.7166 67.1379 83.8148 67.8364 83.4957 68.9328C83.1766 70.0292 83.5612 71.1082 84.3546 71.3428C85.148 71.5775 86.0498 70.8789 86.3689 69.7825Z" fill="white"/>
<path d="M87.3963 68.0975L95.4473 63.329C95.5437 63.2724 95.6138 63.1794 95.6421 63.0707C95.6705 62.9619 95.6549 62.8462 95.5987 62.7491C95.5425 62.6519 95.4503 62.5813 95.3424 62.5527C95.2345 62.524 95.1198 62.5398 95.0234 62.5965L86.9724 67.365C86.876 67.4216 86.8059 67.5146 86.7775 67.6233C86.7491 67.7321 86.7648 67.8478 86.821 67.9449C86.8772 68.0421 86.9694 68.1127 87.0773 68.1413C87.1852 68.17 87.2999 68.1542 87.3963 68.0975V68.0975Z" fill="#F2F2F2"/>
<path d="M87.5682 69.8577L92.6754 66.9071C92.7717 66.8504 92.8418 66.7575 92.8702 66.6487C92.8986 66.54 92.883 66.4243 92.8268 66.3271C92.7989 66.279 92.762 66.2369 92.718 66.2032C92.674 66.1695 92.6239 66.1449 92.5705 66.1307C92.4626 66.1021 92.3478 66.1179 92.2514 66.1745L87.1443 69.1252C87.0479 69.1818 86.9778 69.2748 86.9494 69.3835C86.921 69.4923 86.9366 69.608 86.9929 69.7051C87.0491 69.8023 87.1413 69.8729 87.2492 69.9015C87.357 69.9302 87.4718 69.9144 87.5682 69.8577V69.8577Z" fill="#F2F2F2"/>
<path d="M85.8819 79.4388C86.7088 79.4388 87.3791 78.5126 87.3791 77.37C87.3791 76.2274 86.7088 75.3011 85.8819 75.3011C85.0551 75.3011 84.3848 76.2274 84.3848 77.37C84.3848 78.5126 85.0551 79.4388 85.8819 79.4388Z" fill="white"/>
<path d="M88.2791 75.7352L96.3301 70.9532C96.4265 70.8965 96.4965 70.8036 96.5249 70.6948C96.5533 70.5861 96.5377 70.4704 96.4815 70.3733C96.4253 70.2761 96.3331 70.2055 96.2252 70.1768C96.1173 70.1482 96.0025 70.164 95.9062 70.2206L87.8552 74.9891C87.8066 75.0172 87.7639 75.0546 87.7297 75.0993C87.6954 75.1439 87.6702 75.195 87.6555 75.2495C87.6259 75.3595 87.6408 75.4769 87.697 75.5758C87.7532 75.6748 87.8461 75.7472 87.9553 75.7771C88.0645 75.807 88.1809 75.7919 88.2791 75.7352V75.7352Z" fill="#F2F2F2"/>
<path d="M88.9803 77.2106L94.0874 74.26C94.1838 74.2033 94.2539 74.1104 94.2823 74.0016C94.3107 73.8928 94.295 73.7772 94.2388 73.68C94.1826 73.5829 94.0904 73.5122 93.9825 73.4836C93.8746 73.455 93.7599 73.4707 93.6635 73.5274L88.5564 76.478C88.46 76.5347 88.3899 76.6276 88.3615 76.7364C88.3331 76.8452 88.3487 76.9608 88.405 77.058C88.4612 77.1551 88.5534 77.2258 88.6613 77.2544C88.7692 77.283 88.8839 77.2673 88.9803 77.2106V77.2106Z" fill="#F2F2F2"/>
<path d="M85.293 51.903L85.6294 51.2687C85.6294 51.2687 86.3595 52.0793 86.3595 51.9979C86.3595 51.9165 87.0324 48.8099 87.0324 48.8099L87.5841 49.2677L86.6825 52.9984L85.293 51.903Z" fill="#4EB300"/>
<path d="M89.8205 60.7786C89.9013 60.7379 90.1906 60.5548 90.2747 60.5208L101.303 45.7914C101.303 45.7914 100.065 45.3403 100.122 44.8486L88.9794 59.422C88.8852 59.6831 88.7809 59.9375 88.6699 60.1953L89.3832 61.0024C89.5171 60.9063 89.6645 60.8309 89.8205 60.7786V60.7786Z" fill="#7F252B"/>
<path d="M90.2728 60.5344C90.2728 60.5344 89.0818 60.3988 89.0145 59.3271L87.625 62.1793L90.2728 60.5344Z" fill="#E8CA9A"/>
<path d="M87.625 62.1793L88.3753 60.6294C88.4069 60.8035 88.4972 60.9613 88.6308 61.0762C88.7643 61.1911 88.9332 61.2561 89.1087 61.2602L87.625 62.1793Z" fill="#7F252B"/>
<path d="M86.3223 85.3604C81.8981 81.9689 82.3893 76.3016 82.0293 74.8161C81.6693 73.3306 82.8772 66.3881 83.3751 61.2059C83.6913 57.2739 83.3847 53.3162 82.4667 49.4814C82.1976 48.5317 81.0705 46.7681 78.9139 45.9304C75.462 45.3369 73.7529 48.4368 73.2617 51.696C73.2819 52.4286 73.3458 52.9204 73.3458 52.9204L75.0953 54.3482C74.1163 47.0462 77.2418 46.9207 78.2848 46.9207C81.1008 46.9207 82.7796 53.0425 80.8148 68.3213C78.85 83.6002 85.9253 87.2495 85.9253 87.2495L101.772 78.0313V76.2236L86.3223 85.3604Z" fill="white"/>
<path d="M80.7472 97.0409C80.8111 97.0409 81.3931 96.8069 80.9019 96.4304C80.5799 96.1771 80.2428 95.9438 79.8926 95.7318" fill="#58E6CA"/>
<path d="M80.7533 93.9342C80.7533 93.9342 80.2655 95.7588 80.7533 96.7322L74.1053 100.67L67.5312 104.506V101.674" fill="#FFE8BC"/>
<path d="M80.9681 93.6493C80.9524 93.7759 80.9367 93.9025 80.921 94.0291L67.5273 101.67V104.502L80.9109 96.6338C80.9109 96.7458 80.9109 96.8577 80.9109 96.973L67.0059 105.086V101.219L80.9681 93.6493Z" fill="#58E6CA"/>
<path d="M80.8997 93.7002L67.0854 101.67L47.7031 90.2001L61.2213 82.3996C61.4259 82.2805 61.6579 82.2178 61.8942 82.2178C62.1304 82.2178 62.3625 82.2805 62.5671 82.3996L80.9031 93.3373C80.9361 93.3546 80.9638 93.3808 80.983 93.413C81.0022 93.4452 81.0122 93.4822 81.0119 93.5198C81.0115 93.5574 81.0008 93.5941 80.981 93.6259C80.9612 93.6578 80.9331 93.6835 80.8997 93.7002V93.7002Z" fill="#58E6CA"/>
<path d="M67.011 105.082C67.011 105.082 47.6388 93.5815 47.6994 93.5272C47.7599 93.473 47.6994 90.2001 47.6994 90.2001L67.0817 101.67L67.011 105.082Z" fill="#46D1B6"/>
<path d="M80.8976 93.3373C80.9526 93.3768 80.9989 93.4273 81.0336 93.4857C81.0683 93.544 81.0908 93.609 81.0995 93.6764C81.123 93.9138 80.8707 94.0156 80.7832 94.08" fill="#58E6CA"/>
<path d="M78.9366 91.6755C79.0005 91.6755 79.5826 91.4415 79.0914 91.065C78.7693 90.8117 78.4322 90.5784 78.082 90.3664" fill="#58E6CA"/>
<path d="M78.935 88.5688C78.935 88.5688 78.4472 90.3934 78.935 91.3668L72.2869 95.3044L65.7129 99.1402V96.3083" fill="#FFE8BC"/>
<path d="M79.1556 88.2873C79.1399 88.4139 79.1242 88.5406 79.1085 88.6672L65.7148 96.3083V99.1402L79.0984 91.2719C79.0984 91.3838 79.0984 91.4957 79.0984 91.611L65.1934 99.7236V95.8572L79.1556 88.2873Z" fill="#58E6CA"/>
<path d="M79.0886 88.3382L65.2743 96.3083L45.8887 84.8381L59.4068 77.0376C59.6114 76.9186 59.8435 76.8559 60.0797 76.8559C60.3159 76.8559 60.548 76.9186 60.7526 77.0376L79.0919 87.9957C79.1202 88.0144 79.1434 88.0399 79.1594 88.07C79.1753 88.1001 79.1835 88.1338 79.1831 88.1679C79.1828 88.202 79.174 88.2354 79.1574 88.2652C79.1409 88.295 79.1172 88.3201 79.0886 88.3382V88.3382Z" fill="#58E6CA"/>
<path d="M65.2024 99.7202C65.2024 99.7202 45.8302 88.2195 45.8908 88.1652C45.9513 88.111 45.8908 84.8381 45.8908 84.8381L65.2731 96.3083L65.2024 99.7202Z" fill="#46D1B6"/>
<path d="M79.0831 87.9889C79.1381 88.0284 79.1844 88.0789 79.2191 88.1373C79.2539 88.1956 79.2763 88.2606 79.285 88.328C79.3086 88.5654 79.0562 88.6672 78.9688 88.7316" fill="#58E6CA"/>
<path d="M48.992 84.7364C48.1071 83.5833 46.6604 84.2344 46.2163 85.4147C45.7184 86.7374 46.1558 88.2534 47.5318 88.7621C48.1441 88.986 48.4066 88.0058 47.801 87.782C47.1079 87.5276 46.9296 86.7645 47.0642 86.0862C47.1886 85.4791 47.7168 84.7296 48.2753 85.4486C48.6757 85.9743 49.3856 85.2485 48.992 84.7364Z" fill="#5F5CEA"/>
<path d="M51.906 86.5542C51.0212 85.4011 49.5745 86.0523 49.1304 87.2326C48.6325 88.5553 49.0698 90.0713 50.4459 90.58C51.0582 90.8038 51.3206 89.8237 50.715 89.5998C50.022 89.3455 49.8436 88.5824 49.9782 87.9041C50.1027 87.297 50.6309 86.5475 51.1894 87.2665C51.5898 87.7989 52.2996 87.0732 51.906 86.5542Z" fill="#5F5CEA"/>
<path d="M55.2283 88.4772C54.3435 87.3241 52.8968 87.9753 52.4527 89.1555C51.9547 90.4782 52.3921 91.9942 53.7681 92.503C54.3805 92.7268 54.6429 91.7467 54.0373 91.5228C53.3442 91.2685 53.1659 90.5054 53.3005 89.8271C53.425 89.22 53.9532 88.4704 54.5117 89.1894C54.912 89.7117 55.6219 88.9893 55.2283 88.4772Z" fill="#5F5CEA"/>
<path d="M58.3181 90.2171C57.4333 89.064 55.9866 89.7151 55.5425 90.8954C55.0446 92.2181 55.4819 93.7341 56.858 94.2428C57.4703 94.4666 57.7327 93.4865 57.1271 93.2627C56.4341 93.0083 56.2557 92.2452 56.3903 91.5669C56.5148 90.9598 57.043 90.2103 57.6015 90.9293C57.9985 91.4516 58.7084 90.7292 58.3181 90.2171Z" fill="#5F5CEA"/>
<path d="M61.3377 91.7264C60.4528 90.5732 59.0061 91.2244 58.562 92.4047C58.0641 93.7274 58.5015 95.2434 59.8775 95.7521C60.4899 95.976 60.7523 94.9958 60.1467 94.772C59.4536 94.5176 59.2753 93.7545 59.4099 93.0762C59.5344 92.4691 60.0626 91.7196 60.6211 92.4386C61.0282 92.9609 61.7313 92.2385 61.3377 91.7264Z" fill="#5F5CEA"/>
<path d="M64.4275 93.2491C63.5427 92.096 62.096 92.7472 61.6519 93.9274C61.1539 95.2501 61.5913 96.7661 62.9674 97.2749C63.5797 97.4987 63.8421 96.5185 63.2365 96.2947C62.5434 96.0403 62.3651 95.2772 62.4997 94.5989C62.6242 93.9918 63.1524 93.2423 63.7109 93.9613C64.1113 94.4836 64.8212 93.7612 64.4275 93.2491Z" fill="#5F5CEA"/>
</g>
<defs>
<linearGradient id="paint0_linear" x1="13.2562" y1="76.0066" x2="17.0307" y2="70.7376" gradientUnits="userSpaceOnUse">
<stop stop-color="#FD5773"/>
<stop offset="1" stop-color="#9E005D"/>
</linearGradient>
<linearGradient id="paint1_linear" x1="5478.25" y1="1998.3" x2="5769.52" y2="1584.32" gradientUnits="userSpaceOnUse">
<stop stop-color="#FD5773"/>
<stop offset="1" stop-color="#9E005D"/>
</linearGradient>
</defs>
</svg>
