<svg width="300" height="300" viewBox="0 0 103 93" fill="none" xmlns="http://www.w3.org/2000/svg">
<path d="M56.8774 57.1251C77.4506 51.4526 111.45 37.9933 95.7383 11.3468C81.2155 -13.2786 55.6224 10.9083 34.9357 12.2339C24.5382 12.8991 15.7837 9.26529 6.84024 17.299C-2.77608 25.9477 -0.760077 34.7223 4.67556 44.7066C9.48372 53.5467 19.5058 65.1841 30.5308 67.0514C42.7981 69.1279 46.0867 60.0987 56.8774 57.1251Z" fill="white"/>
<path opacity="0.1" d="M56.8774 57.1251C77.4506 51.4526 111.45 37.9933 95.7383 11.3468C81.2155 -13.2786 55.6224 10.9083 34.9357 12.2339C24.5382 12.8991 15.7837 9.26529 6.84024 17.299C-2.77608 25.9477 -0.760077 34.7223 4.67556 44.7066C9.48372 53.5467 19.5058 65.1841 30.5308 67.0514C42.7981 69.1279 46.0867 60.0987 56.8774 57.1251Z" fill="#8AC9FE"/>
<path d="M51.1532 92.3648C78.138 92.3648 100.014 91.0876 100.014 89.5121C100.014 87.9367 78.138 86.6595 51.1532 86.6595C24.1685 86.6595 2.29297 87.9367 2.29297 89.5121C2.29297 91.0876 24.1685 92.3648 51.1532 92.3648Z" fill="#F5F5F5"/>
<path d="M24.4669 35.6119H12.3633V89.4668H24.4669V35.6119Z" fill="#8AC9FE"/>
<path opacity="0.7" d="M24.4669 35.6119H12.3633V89.4668H24.4669V35.6119Z" fill="#FAFAFA"/>
<path d="M42.9825 17.8106H30.8789V89.4643H42.9825V17.8106Z" fill="#8AC9FE"/>
<path opacity="0.1" d="M42.9825 17.8106H30.8789V89.4643H42.9825V17.8106Z" fill="black"/>
<path d="M61.502 35.6119H49.3984V89.4668H61.502V35.6119Z" fill="#8AC9FE"/>
<path opacity="0.4" d="M61.502 35.6119H49.3984V89.4668H61.502V35.6119Z" fill="black"/>
<path d="M20.1719 35.6119H8.06836V89.4668H20.1719V35.6119Z" fill="#8AC9FE"/>
<path opacity="0.8" d="M20.1719 35.6119H8.06836V89.4668H20.1719V35.6119Z" fill="#FAFAFA"/>
<path d="M38.6915 17.8106H26.5879V89.4643H38.6915V17.8106Z" fill="#8AC9FE"/>
<path opacity="0.2" d="M38.6915 17.8106H26.5879V89.4643H38.6915V17.8106Z" fill="#FAFAFA"/>
<path d="M57.209 35.6119H45.1055V89.4668H57.209V35.6119Z" fill="#8AC9FE"/>
<path opacity="0.2" d="M57.209 35.6119H45.1055V89.4668H57.209V35.6119Z" fill="black"/>
<path d="M102.481 64.7556H102.229C102.222 60.1102 100.943 55.5553 98.5292 51.5861L98.746 51.4551C101.182 55.4642 102.474 60.0642 102.481 64.7556ZM97.1281 49.5248C96.4171 48.5843 95.6407 47.695 94.8047 46.8637L94.9836 46.6873C95.8288 47.5291 96.6129 48.4302 97.3297 49.3837L97.1281 49.5248Z" fill="#8AC9FE"/>
<path opacity="0.3" d="M102.481 64.7556H102.229C102.222 60.1102 100.943 55.5553 98.5292 51.5861L98.746 51.4551C101.182 55.4642 102.474 60.0642 102.481 64.7556ZM97.1281 49.5248C96.4171 48.5843 95.6407 47.695 94.8047 46.8637L94.9836 46.6873C95.8288 47.5291 96.6129 48.4302 97.3297 49.3837L97.1281 49.5248Z" fill="black"/>
<path d="M94.3615 47.2971C89.7284 42.6657 83.4464 40.0626 76.8954 40.0597H73.3296V40.3243C70.2378 40.7754 67.2596 41.8084 64.5524 43.3684C52.8143 50.1397 48.7294 65.3731 55.5006 77.1036C57.3654 80.3358 59.9385 83.1034 63.0265 85.1984C66.1145 87.2934 69.637 88.6614 73.3296 89.1996V89.4516H76.9004C81.7869 89.454 86.5642 88.0067 90.6277 85.2929C94.6913 82.5791 97.8585 78.7208 99.7284 74.2064C101.598 69.6919 102.087 64.7241 101.133 59.9318C100.178 55.1395 97.8235 50.7381 94.3666 47.2845L94.3615 47.2971ZM76.8954 83.0206C73.284 83.0211 69.7536 81.9507 66.7506 79.9448C63.7475 77.9389 61.4067 75.0876 60.0241 71.7514C58.6415 68.4151 58.2793 64.7439 58.9831 61.2018C59.687 57.6597 61.4254 54.4058 63.9785 51.8517C66.5316 49.2975 69.7847 47.5578 73.3265 46.8524C76.8683 46.1471 80.5398 46.5078 83.8766 47.889C87.2134 49.2702 90.0657 51.6099 92.0728 54.6121C94.08 57.6143 95.1518 61.1443 95.1528 64.7557C95.1591 67.1554 94.6912 69.5327 93.776 71.7511C92.8608 73.9694 91.5164 75.9851 89.8199 77.6823C88.1234 79.3796 86.1082 80.7248 83.8902 81.641C81.6723 82.5571 79.2951 83.0259 76.8954 83.0206Z" fill="#8AC9FE"/>
<path opacity="0.3" d="M94.3615 47.2971C89.7284 42.6657 83.4464 40.0626 76.8954 40.0597H73.3296V40.3243C70.2378 40.7754 67.2596 41.8084 64.5524 43.3684C52.8143 50.1397 48.7294 65.3731 55.5006 77.1036C57.3654 80.3358 59.9385 83.1034 63.0265 85.1984C66.1145 87.2934 69.637 88.6614 73.3296 89.1996V89.4516H76.9004C81.7869 89.454 86.5642 88.0067 90.6277 85.2929C94.6913 82.5791 97.8585 78.7208 99.7284 74.2064C101.598 69.6919 102.087 64.7241 101.133 59.9318C100.178 55.1395 97.8235 50.7381 94.3666 47.2845L94.3615 47.2971ZM76.8954 83.0206C73.284 83.0211 69.7536 81.9507 66.7506 79.9448C63.7475 77.9389 61.4067 75.0876 60.0241 71.7514C58.6415 68.4151 58.2793 64.7439 58.9831 61.2018C59.687 57.6597 61.4254 54.4058 63.9785 51.8517C66.5316 49.2975 69.7847 47.5578 73.3265 46.8524C76.8683 46.1471 80.5398 46.5078 83.8766 47.889C87.2134 49.2702 90.0657 51.6099 92.0728 54.6121C94.08 57.6143 95.1518 61.1443 95.1528 64.7557C95.1591 67.1554 94.6912 69.5327 93.776 71.7511C92.8608 73.9694 91.5164 75.9851 89.8199 77.6823C88.1234 79.3796 86.1082 80.7248 83.8902 81.641C81.6723 82.5571 79.2951 83.0259 76.8954 83.0206Z" fill="black"/>
<path d="M91.5819 64.7556H98.0255C98.0303 70.1961 96.2385 75.4858 92.9283 79.8033C89.6181 84.1209 84.9749 87.2245 79.7197 88.6322C74.4646 90.04 68.8916 89.673 63.8665 87.5883C58.8413 85.5037 54.6451 81.818 51.9297 77.1037L57.514 73.8806C59.5223 77.3624 62.6237 80.0841 66.3368 81.6233C70.05 83.1624 74.1673 83.433 78.05 82.3931C81.9327 81.3531 85.3636 79.0607 87.8103 75.8717C90.257 72.6826 91.5828 68.7752 91.5819 64.7556Z" fill="#8AC9FE"/>
<path opacity="0.2" d="M91.5819 64.7556H98.0255C98.0303 70.1961 96.2385 75.4858 92.9283 79.8033C89.6181 84.1209 84.9749 87.2245 79.7197 88.6322C74.4646 90.04 68.8916 89.673 63.8665 87.5883C58.8413 85.5037 54.6451 81.818 51.9297 77.1037L57.514 73.8806C59.5223 77.3624 62.6237 80.0841 66.3368 81.6233C70.05 83.1624 74.1673 83.433 78.05 82.3931C81.9327 81.3531 85.3636 79.0607 87.8103 75.8717C90.257 72.6826 91.5828 68.7752 91.5819 64.7556Z" fill="#FAFAFA"/>
<path d="M73.3281 40.0597C79.8767 40.0637 86.1559 42.6668 90.7864 47.2974C95.4169 51.9279 98.0201 58.2071 98.0241 64.7557H91.5805C91.5778 59.9156 89.6539 55.2746 86.2315 51.8522C82.8091 48.4298 78.1681 46.506 73.3281 46.5033V40.0597Z" fill="#8AC9FE"/>
<path d="M73.3289 40.0597V46.5033C70.1241 46.5023 66.9755 47.3451 64.1998 48.9471C61.4241 50.549 59.1191 52.8535 57.5166 55.6289C55.9141 58.4043 55.0705 61.5527 55.0709 64.7575C55.0712 67.9623 55.9153 71.1105 57.5184 73.8856L51.9291 77.1036C45.1578 65.368 49.2402 50.1397 60.9759 43.3634C64.7328 41.1984 68.9928 40.0591 73.3289 40.0597Z" fill="#8AC9FE"/>
<path opacity="0.8" d="M73.3289 40.0597V46.5033C70.1241 46.5023 66.9755 47.3451 64.1998 48.9471C61.4241 50.549 59.1191 52.8535 57.5166 55.6289C55.9141 58.4043 55.0705 61.5527 55.0709 64.7575C55.0712 67.9623 55.9153 71.1105 57.5184 73.8856L51.9291 77.1036C45.1578 65.368 49.2402 50.1397 60.9759 43.3634C64.7328 41.1984 68.9928 40.0591 73.3289 40.0597Z" fill="#FAFAFA"/>
<path d="M67.2736 57.304L65.2928 58.4632L62.3066 54.0558L64.2874 52.8966L67.2736 57.304Z" fill="#E4897B"/>
<path d="M64.1907 57.2108L66.3629 55.8273C66.3999 55.8024 66.4447 55.792 66.4889 55.7981C66.533 55.8041 66.5734 55.8262 66.6023 55.8601L67.9455 57.4225C67.9776 57.4631 68.0009 57.5099 68.0138 57.5601C68.0266 57.6102 68.0289 57.6625 68.0203 57.7135C68.0118 57.7646 67.9927 57.8132 67.9641 57.8564C67.9356 57.8996 67.8984 57.9364 67.8548 57.9643C67.0988 58.433 66.6956 58.622 65.7405 59.2243C65.1508 59.5972 63.9765 60.4339 63.1625 60.953C62.3486 61.4721 61.7967 60.701 62.089 60.4062C63.3969 59.1134 63.7069 58.2843 63.9437 57.5283C63.9874 57.3974 64.0746 57.2854 64.1907 57.2108Z" fill="#263238"/>
<path d="M63.1954 58.181H63.1375C63.0913 58.1729 63.0476 58.1538 63.0104 58.1253C62.9731 58.0968 62.9432 58.0597 62.9233 58.0172C62.9096 57.9935 62.9023 57.9665 62.9023 57.9391C62.9023 57.9117 62.9096 57.8847 62.9233 57.861C63.0745 57.5863 64.0875 57.4905 64.2035 57.4805C64.2114 57.4794 64.2195 57.4811 64.2263 57.4852C64.2332 57.4893 64.2385 57.4956 64.2413 57.5031C64.246 57.5093 64.2485 57.5168 64.2485 57.5246C64.2485 57.5323 64.246 57.5398 64.2413 57.546C63.9792 57.7879 63.518 58.181 63.1954 58.181ZM64.0976 57.5661C63.7448 57.6065 63.0896 57.7148 62.9913 57.8963C62.9838 57.9088 62.9798 57.9232 62.9798 57.9378C62.9798 57.9525 62.9838 57.9669 62.9913 57.9794C63.0054 58.0114 63.0274 58.0392 63.0551 58.0603C63.0829 58.0815 63.1156 58.0953 63.1501 58.1004C63.3441 58.1331 63.6944 57.9341 64.0976 57.5661Z" fill="#8AC9FE"/>
<path d="M64.0771 57.5636C63.742 57.5636 63.1951 57.4426 63.1069 57.2385C63.0842 57.1856 63.0792 57.105 63.1901 57.0193C63.2304 56.9861 63.2773 56.9618 63.3277 56.9479C63.378 56.934 63.4307 56.9309 63.4824 56.9386C63.8478 56.9865 64.2208 57.4729 64.2384 57.493C64.242 57.4987 64.2439 57.5052 64.2439 57.5119C64.2439 57.5186 64.242 57.5252 64.2384 57.5308C64.2365 57.5369 64.2328 57.5423 64.2279 57.5463C64.223 57.5503 64.217 57.5528 64.2107 57.5535C64.1665 57.5608 64.1218 57.5642 64.0771 57.5636ZM63.4269 57.0117C63.3579 57.0116 63.291 57.0357 63.2379 57.0798C63.1497 57.1478 63.1699 57.1932 63.1775 57.2083C63.2455 57.367 63.7999 57.5056 64.1326 57.4855C63.9669 57.2635 63.7361 57.0988 63.4723 57.0142L63.4269 57.0117Z" fill="#8AC9FE"/>
<path d="M72.726 23.0497C72.6882 23.2488 72.658 23.3899 72.6202 23.5537L72.5017 24.0199C72.4186 24.3298 72.3304 24.6322 72.2497 24.9346C72.0582 25.5369 71.8465 26.1266 71.6222 26.6986C71.398 27.2707 71.151 27.8578 70.8965 28.4248C70.7705 28.7096 70.6445 28.9893 70.4983 29.269L70.395 29.4807L70.337 29.5966C70.3093 29.6546 70.2791 29.7125 70.2463 29.768C70.1242 29.9759 69.976 30.1672 69.8053 30.3375C69.5093 30.6259 69.169 30.8649 68.7973 31.0456C68.4729 31.2046 68.1357 31.3361 67.7893 31.4387C67.1544 31.6231 66.5041 31.7496 65.8464 31.8167C64.5898 31.9474 63.323 31.9474 62.0664 31.8167L62.0866 30.6323C62.6611 30.5693 63.2609 30.5038 63.8506 30.4055C64.4402 30.3073 65.0072 30.209 65.5667 30.0779C66.1085 29.9525 66.6393 29.784 67.1543 29.5739C67.5763 29.4274 67.9591 29.186 68.2732 28.8683C68.3139 28.8208 68.3471 28.7673 68.3714 28.7096L68.5 28.3795C68.6108 28.1048 68.7142 27.8276 68.8175 27.5504C69.0292 26.9985 69.2207 26.4391 69.4147 25.8847C69.6088 25.3303 69.7852 24.7683 69.9464 24.2089C70.0321 23.9292 70.1128 23.652 70.1984 23.3748L70.3068 22.959L70.4 22.5759L72.726 23.0497Z" fill="#E4897B"/>
<path d="M71.1273 20.1038C70.1823 20.3558 69.5195 24.2341 69.5195 24.2341L72.1252 25.9981C72.1252 25.9981 74.6225 22.0745 73.8892 21.0362C73.1383 19.9602 72.5057 19.7535 71.1273 20.1038Z" fill="#8AC9FE"/>
<path opacity="0.6" d="M71.1273 20.1038C70.1823 20.3558 69.5195 24.2341 69.5195 24.2341L72.1252 25.9981C72.1252 25.9981 74.6225 22.0745 73.8892 21.0362C73.1383 19.9602 72.5057 19.7535 71.1273 20.1038Z" fill="#FAFAFA"/>
<path d="M71.0405 21.5175L73.0565 21.9863L73.2505 23.9645C72.9074 24.6637 72.5289 25.345 72.1165 26.0057L70.5566 24.9397C70.6121 24.0224 70.7834 22.1324 71.0405 21.5175Z" fill="#8AC9FE"/>
<path opacity="0.3" d="M71.0405 21.5175L73.0565 21.9863L73.2505 23.9645C72.9074 24.6637 72.5289 25.345 72.1165 26.0057L70.5566 24.9397C70.6121 24.0224 70.7834 22.1324 71.0405 21.5175Z" fill="#FAFAFA"/>
<path d="M62.4197 30.6298L60.7943 28.9717L60.5801 31.2951C60.5801 31.2951 61.7998 32.1192 62.644 31.6756L62.4197 30.6298Z" fill="#E4897B"/>
<path d="M58.8822 28.7348L58.8066 30.6903L60.5807 31.3052L60.7924 28.9818L58.8822 28.7348Z" fill="#E4897B"/>
<path d="M58.3818 57.9315L56.7539 56.3162L59.9669 52.0247L61.5948 53.6375L58.3818 57.9315Z" fill="#E4897B"/>
<path d="M57.6677 55.1797L60.0164 56.2431C60.0573 56.26 60.0904 56.2917 60.1091 56.3318C60.1277 56.372 60.1306 56.4177 60.1172 56.4599L59.5451 58.4381C59.5289 58.4874 59.5024 58.5327 59.4675 58.5712C59.4326 58.6096 59.39 58.6403 59.3425 58.6612C59.295 58.6821 59.2436 58.6928 59.1917 58.6925C59.1398 58.6923 59.0885 58.6812 59.0411 58.6598C58.2297 58.2743 57.8567 58.0475 56.8235 57.5813C56.1885 57.294 54.5303 56.6211 53.6534 56.2255C52.7764 55.8299 53.1217 54.9403 53.5223 55.026C55.3216 55.4166 56.501 55.3637 57.262 55.1495C57.3967 55.1124 57.5401 55.1231 57.6677 55.1797Z" fill="#263238"/>
<path d="M62.3086 54.0558L63.8483 56.3288L65.829 55.1696L64.2893 52.8991L62.3086 54.0558Z" fill="#CE6F64"/>
<path d="M61.5966 53.6374L59.9662 52.0247L58.3105 54.2372L59.941 55.8525L61.5966 53.6374Z" fill="#CE6F64"/>
<path d="M81.5371 33.9487H72.2131C70.0232 20.4894 71.1169 20.1063 71.1169 20.1063C71.1169 20.1063 72.6163 19.7989 74.1862 19.6023C74.4559 19.5696 74.7255 19.5393 74.9926 19.5141C76.4012 19.4132 77.8151 19.4132 79.2237 19.5141C79.4908 19.5267 79.7579 19.5469 80.02 19.5696C81.0804 19.6656 82.1346 19.8213 83.1776 20.0358C81.3758 27.82 81.3934 30.1561 81.5371 33.9487Z" fill="#8AC9FE"/>
<path opacity="0.6" d="M81.5371 33.9487H72.2131C70.0232 20.4894 71.1169 20.1063 71.1169 20.1063C71.1169 20.1063 72.6163 19.7989 74.1862 19.6023C74.4559 19.5696 74.7255 19.5393 74.9926 19.5141C76.4012 19.4132 77.8151 19.4132 79.2237 19.5141C79.4908 19.5267 79.7579 19.5469 80.02 19.5696C81.0804 19.6656 82.1346 19.8213 83.1776 20.0358C81.3758 27.82 81.3934 30.1561 81.5371 33.9487Z" fill="#FAFAFA"/>
<path d="M80.0303 19.5721L79.9295 19.809C79.8765 19.94 78.5787 22.9892 76.0638 25.0254L75.4489 25.5294L74.9777 24.8918C73.5639 22.9766 73.9873 20.4869 74.1965 19.6124C74.4661 19.5797 74.7357 19.5494 75.0029 19.5242C76.4114 19.4233 77.8254 19.4233 79.2339 19.5242C79.5011 19.5293 79.7682 19.5494 80.0303 19.5721Z" fill="#8AC9FE"/>
<path opacity="0.1" d="M80.0303 19.5721L79.9295 19.809C79.8765 19.94 78.5787 22.9892 76.0638 25.0254L75.4489 25.5294L74.9777 24.8918C73.5639 22.9766 73.9873 20.4869 74.1965 19.6124C74.4661 19.5797 74.7357 19.5494 75.0029 19.5242C76.4114 19.4233 77.8254 19.4233 79.2339 19.5242C79.5011 19.5293 79.7682 19.5494 80.0303 19.5721Z" fill="#FAFAFA"/>
<path d="M74.5454 7.91458C72.5093 7.00486 71.2845 10.4648 71.4231 12.9143C71.5617 15.3637 71.9271 18.3675 70.8536 17.8635C69.7801 17.3595 70.5412 16.6035 70.5412 16.6035C70.5412 16.6035 69.0292 17.8005 70.7453 18.4583C72.4614 19.116 75.5131 19.053 77.2972 18.2063C78.3178 16.6665 77.8794 10.9109 77.8794 10.9109L74.5454 7.91458Z" fill="#263238"/>
<path d="M78.8121 14.7538C78.5475 16.1146 78.2803 18.6094 79.2329 19.5166C79.2329 19.5166 77.9729 22.4978 75.5865 24.4357C74.0896 22.4071 75.0018 19.5166 75.0018 19.5166C76.5138 19.1538 76.4811 18.0273 76.2165 16.9714L78.8121 14.7538Z" fill="#E4897B"/>
<path d="M77.754 15.6585L76.2168 16.9689C76.2835 17.2164 76.3274 17.4694 76.3478 17.7249C76.9274 17.6417 77.7238 17.0042 77.7868 16.3969C77.8214 16.1508 77.8103 15.9005 77.754 15.6585Z" fill="#CE6F64"/>
<path d="M78.9741 11.1679C79.2261 13.4359 79.3949 14.3809 78.4701 15.7291C77.079 17.7602 74.244 17.5888 73.3116 15.4519C72.4725 13.5291 72.1827 10.1599 74.2138 8.87214C74.6601 8.58685 75.172 8.42048 75.7007 8.38887C76.2295 8.35726 76.7575 8.46146 77.2346 8.69155C77.7117 8.92164 78.122 9.26998 78.4265 9.70342C78.731 10.1369 78.9195 10.641 78.9741 11.1679Z" fill="#E4897B"/>
<path d="M74.4658 9.61052C75.2797 10.5656 77.7418 13.3452 79.4604 12.9848C81.2244 12.6144 81.2849 9.3308 79.158 7.97252C77.0311 6.61424 72.2809 7.04768 74.4658 9.61052Z" fill="#263238"/>
<path d="M79.5636 5.62388C77.9432 5.08712 77.7996 6.66969 77.9256 7.655L79.9164 9.11912C80.5525 9.01874 81.1685 8.81711 81.7409 8.52188C82.5221 8.07584 81.1839 6.16064 79.5636 5.62388Z" fill="#263238"/>
<path d="M79.9277 13.1108C79.8808 13.5468 79.6712 13.9491 79.3406 14.2372C78.897 14.6127 78.456 14.2801 78.393 13.7332C78.3376 13.2444 78.5014 12.4732 79.0356 12.2943C79.5699 12.1154 79.9781 12.5766 79.9277 13.1108Z" fill="#E4897B"/>
<path d="M63.1251 43.8397C63.057 45.8859 63.682 48.3757 64.3674 50.4522C64.5136 50.8957 64.6623 51.3216 64.8084 51.7122C65.4334 53.4157 65.9928 54.6026 65.9928 54.6026L63.2486 56.165C63.2486 56.165 62.8756 55.6963 62.3262 54.8723C62.0742 54.5094 61.8071 54.0734 61.5123 53.5795C59.9751 51.0091 57.9641 46.8083 57.8684 42.3378C57.7172 35.3423 72.2172 33.9487 72.2172 33.9487H79.0742L77.1539 39.4045C77.1539 39.4045 63.2486 40.1177 63.1251 43.8397Z" fill="#8AC9FE"/>
<path opacity="0.6" d="M63.1251 43.8397C63.057 45.8859 63.682 48.3757 64.3674 50.4522C64.5136 50.8957 64.6623 51.3216 64.8084 51.7122C65.4334 53.4157 65.9928 54.6026 65.9928 54.6026L63.2486 56.165C63.2486 56.165 62.8756 55.6963 62.3262 54.8723C62.0742 54.5094 61.8071 54.0734 61.5123 53.5795C59.9751 51.0091 57.9641 46.8083 57.8684 42.3378C57.7172 35.3423 72.2172 33.9487 72.2172 33.9487H79.0742L77.1539 39.4045C77.1539 39.4045 63.2486 40.1177 63.1251 43.8397Z" fill="black"/>
<path d="M64.8087 51.7248C64.4509 52.3195 63.4832 53.834 62.3315 54.8722C62.0795 54.5094 61.8124 54.0734 61.5176 53.5795L64.3677 50.4597C64.5088 50.8957 64.6626 51.3291 64.8087 51.7248Z" fill="#263238"/>
<path d="M67.1695 38.0437L66.8772 41.0173C64.8612 41.6523 63.2887 42.5293 63.135 43.7036C62.7922 41.0677 64.6268 39.5204 67.1695 38.0437Z" fill="#263238"/>
<path d="M74.6812 33.9462C74.6812 33.9462 66.0981 37.449 64.7902 41.3197C63.1219 46.2589 58.5859 53.2393 58.5859 53.2393L60.4911 55.719C60.4911 55.719 65.7276 50.6437 69.2959 44.8326C73.7664 37.5246 84.5369 45.2433 81.5482 33.9462H74.6812Z" fill="#8AC9FE"/>
<path opacity="0.6" d="M74.6812 33.9462C74.6812 33.9462 66.0981 37.449 64.7902 41.3197C63.1219 46.2589 58.5859 53.2393 58.5859 53.2393L60.4911 55.719C60.4911 55.719 65.7276 50.6437 69.2959 44.8326C73.7664 37.5246 84.5369 45.2433 81.5482 33.9462H74.6812Z" fill="black"/>
<path d="M75.6935 12.4002C75.7262 12.5816 75.6557 12.7479 75.5372 12.7681C75.4188 12.7883 75.2852 12.6597 75.2625 12.4758C75.2398 12.2918 75.3003 12.1305 75.4188 12.1079C75.5372 12.0852 75.6607 12.2187 75.6935 12.4002Z" fill="#263238"/>
<path d="M73.6329 12.7681C73.6657 12.9495 73.5951 13.1159 73.4767 13.136C73.3582 13.1562 73.2247 13.0277 73.202 12.8462C73.1793 12.6648 73.2398 12.4985 73.3582 12.4758C73.4767 12.4531 73.6001 12.5917 73.6329 12.7681Z" fill="#263238"/>
<path d="M73.4143 12.4783L72.9531 12.4304C72.9531 12.4304 73.2404 12.7303 73.4143 12.4783Z" fill="#263238"/>
<path d="M74.234 12.9848C74.1462 13.4289 73.9978 13.8588 73.793 14.2624C73.8984 14.3114 74.0132 14.3367 74.1294 14.3367C74.2456 14.3367 74.3604 14.3114 74.4658 14.2624L74.234 12.9848Z" fill="#DE5753"/>
<path d="M75.5136 14.7412C75.5065 14.7409 75.4997 14.7386 75.494 14.7346C75.4882 14.7306 75.4836 14.725 75.4808 14.7186C75.4775 14.7099 75.4778 14.7002 75.4816 14.6917C75.4853 14.6832 75.4923 14.6766 75.501 14.6732C75.8458 14.5058 76.1154 14.2154 76.2569 13.8592C76.2584 13.855 76.2606 13.8512 76.2635 13.8479C76.2665 13.8446 76.2701 13.8419 76.2741 13.84C76.2781 13.8381 76.2824 13.8371 76.2868 13.8369C76.2913 13.8367 76.2957 13.8375 76.2998 13.8391C76.3085 13.8425 76.3157 13.849 76.3199 13.8574C76.3241 13.8658 76.325 13.8754 76.3225 13.8844C76.1727 14.261 75.8853 14.5664 75.5186 14.7387L75.5136 14.7412Z" fill="#263238"/>
<path d="M75.923 11.5837C75.9054 11.584 75.8883 11.5777 75.8751 11.566C75.7721 11.4689 75.6479 11.3971 75.5122 11.3564C75.3766 11.3157 75.2334 11.3073 75.0939 11.3317C75.0851 11.3344 75.0759 11.3352 75.0668 11.3343C75.0577 11.3333 75.0489 11.3305 75.0409 11.326C75.0329 11.3215 75.0258 11.3155 75.0202 11.3082C75.0146 11.301 75.0105 11.2927 75.0082 11.2838C75.0035 11.2661 75.0059 11.2473 75.0148 11.2313C75.0238 11.2153 75.0386 11.2034 75.0561 11.1981C75.2184 11.1638 75.3866 11.1687 75.5466 11.2126C75.7066 11.2564 75.8538 11.3379 75.9759 11.4501C75.9887 11.4633 75.9958 11.4809 75.9958 11.4993C75.9958 11.5176 75.9887 11.5352 75.9759 11.5484C75.9706 11.5582 75.963 11.5665 75.9538 11.5726C75.9446 11.5788 75.934 11.5826 75.923 11.5837Z" fill="#263238"/>
<path d="M72.5095 11.9491H72.4843C72.4672 11.9413 72.4538 11.9273 72.4468 11.91C72.4397 11.8926 72.4396 11.8733 72.4465 11.8558C72.5092 11.7021 72.6078 11.5656 72.7341 11.4578C72.8603 11.3499 73.0106 11.2738 73.1722 11.2359C73.1903 11.2329 73.2088 11.2372 73.2236 11.2478C73.2385 11.2584 73.2486 11.2746 73.2516 11.2926C73.2546 11.3107 73.2503 11.3292 73.2397 11.344C73.229 11.3589 73.2129 11.369 73.1949 11.372C73.0564 11.4068 72.9281 11.4737 72.8204 11.5674C72.7127 11.6611 72.6286 11.7789 72.575 11.9113C72.5688 11.9231 72.5593 11.933 72.5477 11.9397C72.5361 11.9464 72.5228 11.9496 72.5095 11.9491Z" fill="#263238"/>
<path d="M57.383 55.3687C57.0857 55.3107 56.5716 55.1746 56.4582 54.9126C56.4397 54.8658 56.4334 54.8151 56.4401 54.7653C56.4467 54.7154 56.4659 54.6681 56.496 54.6278C56.5101 54.6013 56.5312 54.579 56.5569 54.5635C56.5826 54.548 56.6121 54.5397 56.6421 54.5396C56.9269 54.5396 57.3729 55.2301 57.4208 55.3107C57.4249 55.3166 57.4271 55.3237 57.4271 55.3309C57.4271 55.3381 57.4249 55.3451 57.4208 55.351C57.4165 55.357 57.4108 55.3617 57.4042 55.3648C57.3976 55.3679 57.3903 55.3692 57.383 55.3687ZM56.627 54.6127C56.6099 54.6129 56.5932 54.6177 56.5786 54.6265C56.5639 54.6354 56.552 54.648 56.5439 54.6631C56.5214 54.6934 56.5068 54.7289 56.5016 54.7663C56.4963 54.8038 56.5004 54.8419 56.5136 54.8773C56.5817 55.031 56.8689 55.1746 57.2923 55.2679C57.131 55.0335 56.811 54.6127 56.627 54.6127Z" fill="#8AC9FE"/>
<path d="M57.3829 55.3687C57.3771 55.3685 57.3714 55.3671 57.3662 55.3645C57.3609 55.3619 57.3563 55.3581 57.3527 55.3536C57.1889 55.1293 57.0427 54.5295 57.1839 54.3305C57.2071 54.298 57.241 54.2747 57.2797 54.2646C57.3183 54.2544 57.3593 54.2581 57.3955 54.275C57.4335 54.2853 57.4686 54.3043 57.4979 54.3306C57.5272 54.3568 57.55 54.3896 57.5644 54.4262C57.6979 54.7236 57.4308 55.3208 57.4182 55.346C57.4154 55.352 57.4112 55.3572 57.4059 55.3611C57.4006 55.3651 57.3945 55.3677 57.388 55.3687H57.3829ZM57.3174 54.338C57.303 54.3375 57.2887 54.3406 57.2759 54.3473C57.2631 54.3539 57.2522 54.3637 57.2443 54.3758C57.1385 54.5245 57.2443 55.0134 57.3779 55.2477C57.4409 55.0839 57.5896 54.6707 57.4938 54.459C57.4832 54.4322 57.4665 54.4083 57.4451 54.3891C57.4237 54.3698 57.3981 54.3558 57.3703 54.3481C57.3535 54.3416 57.3355 54.3381 57.3174 54.338Z" fill="#8AC9FE"/>
<path d="M75.4729 12.1104L75.0117 12.0625C75.0117 12.0625 75.299 12.3624 75.4729 12.1104Z" fill="#263238"/>
<path d="M81.6784 33.4018L81.7515 34.2334C81.7843 34.299 81.7087 34.3645 81.6003 34.3645H72.1755C72.0924 34.3645 72.0218 34.3242 72.0168 34.2712L71.9336 33.4371C71.9336 33.3792 72.0016 33.3313 72.0924 33.3313H81.5247C81.5543 33.3287 81.5839 33.3339 81.6109 33.3463C81.6378 33.3586 81.6611 33.3778 81.6784 33.4018Z" fill="#8AC9FE"/>
<path opacity="0.2" d="M81.6784 33.4018L81.7515 34.2334C81.7843 34.299 81.7087 34.3645 81.6003 34.3645H72.1755C72.0924 34.3645 72.0218 34.3242 72.0168 34.2712L71.9336 33.4371C71.9336 33.3792 72.0016 33.3313 72.0924 33.3313H81.5247C81.5543 33.3287 81.5839 33.3339 81.6109 33.3463C81.6378 33.3586 81.6611 33.3778 81.6784 33.4018Z" fill="#FAFAFA"/>
<path d="M80.4102 34.4552H80.6622C80.7126 34.4552 80.7504 34.43 80.7479 34.3972L80.6294 33.3136C80.6294 33.2834 80.5816 33.2557 80.5312 33.2557H80.2792C80.2288 33.2557 80.191 33.2834 80.1935 33.3136L80.3119 34.3972C80.3144 34.43 80.3598 34.4552 80.4102 34.4552Z" fill="#8AC9FE"/>
<path opacity="0.6" d="M80.4102 34.4552H80.6622C80.7126 34.4552 80.7504 34.43 80.7479 34.3972L80.6294 33.3136C80.6294 33.2834 80.5816 33.2557 80.5312 33.2557H80.2792C80.2288 33.2557 80.191 33.2834 80.1935 33.3136L80.3119 34.3972C80.3144 34.43 80.3598 34.4552 80.4102 34.4552Z" fill="black"/>
<path d="M72.8848 34.4552H73.1368C73.1872 34.4552 73.2275 34.43 73.2225 34.3972L73.104 33.3136C73.104 33.2834 73.0562 33.2557 73.0058 33.2557H72.7538C72.7034 33.2557 72.6656 33.2834 72.6681 33.3136L72.7865 34.3972C72.7916 34.43 72.8243 34.4552 72.8848 34.4552Z" fill="#8AC9FE"/>
<path opacity="0.6" d="M72.8848 34.4552H73.1368C73.1872 34.4552 73.2275 34.43 73.2225 34.3972L73.104 33.3136C73.104 33.2834 73.0562 33.2557 73.0058 33.2557H72.7538C72.7034 33.2557 72.6656 33.2834 72.6681 33.3136L72.7865 34.3972C72.7916 34.43 72.8243 34.4552 72.8848 34.4552Z" fill="black"/>
<path d="M76.6485 34.4552H76.9005C76.9509 34.4552 76.9887 34.43 76.9862 34.3972L76.8677 33.3136C76.8677 33.2834 76.8198 33.2557 76.7694 33.2557H76.5174C76.467 33.2557 76.4292 33.2834 76.4318 33.3136L76.5502 34.3972C76.5552 34.43 76.6056 34.4552 76.6485 34.4552Z" fill="#8AC9FE"/>
<path opacity="0.6" d="M76.6485 34.4552H76.9005C76.9509 34.4552 76.9887 34.43 76.9862 34.3972L76.8677 33.3136C76.8677 33.2834 76.8198 33.2557 76.7694 33.2557H76.5174C76.467 33.2557 76.4292 33.2834 76.4318 33.3136L76.5502 34.3972C76.5552 34.43 76.6056 34.4552 76.6485 34.4552Z" fill="black"/>
<path d="M80.9965 23.6495L82.1986 24.6726C81.9466 26.0334 81.7702 27.1674 81.6593 28.1754C81.435 27.1649 80.863 24.4357 80.9965 23.6495Z" fill="#8AC9FE"/>
<path opacity="0.3" d="M80.9965 23.6495L82.1986 24.6726C81.9466 26.0334 81.7702 27.1674 81.6593 28.1754C81.435 27.1649 80.863 24.4357 80.9965 23.6495Z" fill="#FAFAFA"/>
<path d="M55.5293 27.5101H71.8791L74.2479 37.1617H57.9006L55.5293 27.5101Z" fill="#FAFAFA"/>
<path d="M63.8125 35.3649L73.8119 37.6959L80.2278 35.8992L80.1623 35.3649H63.8125Z" fill="#FAFAFA"/>
<path d="M55.0293 27.5101H71.3766L73.7454 37.1617H57.3981L55.0293 27.5101Z" fill="#8AC9FE"/>
<path opacity="0.2" d="M55.0293 27.5101H71.3766L73.7454 37.1617H57.3981L55.0293 27.5101Z" fill="#FAFAFA"/>
<path d="M57.3965 37.1617L57.462 37.6959H73.8118L73.7437 37.1617H57.3965Z" fill="#8AC9FE"/>
<path opacity="0.2" d="M57.3965 37.1617L57.462 37.6959H73.8118L73.7437 37.1617H57.3965Z" fill="#FAFAFA"/>
<path d="M84.0665 22.5986C84.5297 23.9522 84.9217 25.3292 85.2408 26.7238C85.4071 27.4244 85.5457 28.1325 85.6515 28.8684C85.7045 29.2363 85.7473 29.6118 85.77 30.0049C85.77 30.2014 85.7851 30.403 85.77 30.6147V30.7785V30.8667L85.7574 30.9877C85.7387 31.1443 85.7049 31.2987 85.6566 31.4488C85.4848 31.9418 85.1919 32.3837 84.8048 32.734C84.4959 33.0202 84.1581 33.2736 83.7968 33.49C83.147 33.8759 82.4628 34.2007 81.7531 34.4602C81.0651 34.7122 80.3722 34.9264 79.6792 35.1154C78.9862 35.3044 78.2931 35.4506 77.5699 35.5665L77.2852 34.4149C77.9177 34.183 78.5704 33.9386 79.1953 33.6589C79.8203 33.3792 80.4553 33.1221 81.0399 32.8172C81.6178 32.5327 82.1716 32.2014 82.6956 31.8268C82.9241 31.6632 83.1352 31.4766 83.3256 31.2699C83.4531 31.1412 83.5481 30.984 83.6028 30.8113C83.6041 30.598 83.5898 30.3849 83.5599 30.1737C83.5221 29.8688 83.4667 29.5513 83.4062 29.2287C83.2777 28.5861 83.1114 27.9309 82.9451 27.2732C82.7787 26.6155 82.5797 25.9578 82.3831 25.3026C82.1865 24.6474 81.9849 23.9821 81.7884 23.342L84.0665 22.5986Z" fill="#E4897B"/>
<path d="M83.1881 20.0383C84.123 20.3205 85.5519 23.9846 85.5519 23.9846L81.9306 26.5726C81.9306 26.5726 80.3027 23.4403 80.6933 22.2357C81.1016 20.9783 82.1247 19.7132 83.1881 20.0383Z" fill="#8AC9FE"/>
<path opacity="0.6" d="M83.1881 20.0383C84.123 20.3205 85.5519 23.9846 85.5519 23.9846L81.9306 26.5726C81.9306 26.5726 80.3027 23.4403 80.6933 22.2357C81.1016 20.9783 82.1247 19.7132 83.1881 20.0383Z" fill="#FAFAFA"/>
<path d="M77.7623 34.4981L75.5977 33.9462L76.6334 36.0378C76.6334 36.0378 78.1051 36.1008 78.5914 35.2818L77.7623 34.4981Z" fill="#E4897B"/>
<path d="M73.8301 34.7425L74.7902 36.4435L76.6223 36.0378L75.5865 33.9487L73.8301 34.7425Z" fill="#E4897B"/>
</svg>
