<svg width="300" height="300" viewBox="0 0 27 30" fill="none" xmlns="http://www.w3.org/2000/svg">
<path fill-rule="evenodd" clip-rule="evenodd" d="M18.9124 25.1797L16.8969 25.6971C16.6428 25.7623 16.3784 25.5919 16.3093 25.3184L15.7545 23.1227C15.6854 22.8491 15.8368 22.572 16.0909 22.5067L18.1064 21.9893C18.3605 21.9241 18.6249 22.0945 18.694 22.368L19.2488 24.5637C19.3179 24.8372 19.1665 25.1144 18.9124 25.1797Z" fill="#FAAD14"/>
<path fill-rule="evenodd" clip-rule="evenodd" d="M25.2331 17.7619L24.234 19.6007C24.108 19.8325 23.804 19.9112 23.5585 19.7756L21.5871 18.6871C21.3416 18.5515 21.2437 18.2509 21.3696 18.0191L22.3688 16.1803C22.4948 15.9485 22.7988 15.8697 23.0443 16.0053L25.0157 17.0938C25.2612 17.2294 25.3591 17.53 25.2331 17.7619Z" fill="#FAAD14"/>
<path fill-rule="evenodd" clip-rule="evenodd" d="M24.9291 7.37529L25.9781 9.18573C26.1103 9.41397 26.0207 9.71718 25.7789 9.85951L23.838 11.0023C23.5963 11.1446 23.2902 11.0744 23.158 10.8461L22.109 9.0357C21.9768 8.80747 22.0664 8.50424 22.3082 8.36188L24.2491 7.21912C24.4908 7.07678 24.7969 7.14706 24.9291 7.37529Z" fill="#FAAD14"/>
<path fill-rule="evenodd" clip-rule="evenodd" d="M18.7877 1.47291L20.5376 2.60596C20.7583 2.7488 20.8149 3.05998 20.6636 3.29744L19.4489 5.20391C19.2976 5.44139 18.9933 5.51885 18.7727 5.37601L17.0227 4.24296C16.8021 4.10012 16.7454 3.78892 16.8967 3.55144L18.1114 1.64497C18.2627 1.40751 18.567 1.33007 18.7877 1.47291Z" fill="#FAAD14"/>
<path fill-rule="evenodd" clip-rule="evenodd" d="M8.87782 0.569952L10.9242 0.195501C11.1822 0.148295 11.4342 0.336907 11.4842 0.614592L11.8856 2.84399C11.9356 3.1217 11.7655 3.38756 11.5075 3.43477L9.46109 3.80922C9.20311 3.85642 8.9511 3.66781 8.90109 3.3901L8.49966 1.1607C8.44965 0.883017 8.61983 0.617158 8.87782 0.569952Z" fill="#FAAD14"/>
<path fill-rule="evenodd" clip-rule="evenodd" d="M0.826876 6.59992L2.15575 4.98706C2.32328 4.78373 2.63658 4.76494 2.85195 4.94526L4.58103 6.39296C4.79642 6.5733 4.8356 6.88721 4.66807 7.09054L3.33919 8.7034C3.17166 8.90673 2.85835 8.92554 2.64296 8.7452L0.913876 7.2975C0.698508 7.11718 0.659348 6.80325 0.826876 6.59992Z" fill="#FAAD14"/>
<path d="M18.0125 18.0801C20.0045 14.5614 18.8102 10.0533 15.3241 8.04787C11.838 6.04241 7.38 7.29894 5.38805 10.8177C4.59967 12.2103 4.31376 14.4305 4.73905 16.4333C5.16129 18.4184 4.241 20.8219 3.24227 22.5861L2.85068 23.2778L8.66169 26.6207L9.05001 25.9348C10.0487 24.1705 11.631 22.1534 13.5375 21.5025C15.476 20.8414 17.3191 19.3051 18.0125 18.0801Z" fill="#FFE58F"/>
<path d="M16.9838 17.4653C18.6476 14.5262 17.6506 10.7603 14.7376 9.08448C11.8245 7.4087 8.10171 8.45916 6.43776 11.3985C5.77863 12.5628 5.53987 14.4167 5.89539 16.0899C6.24797 17.7483 5.92503 20.0126 5.09075 21.4863L4.76393 22.0636L8.72622 24.343L9.05021 23.7707C9.88464 22.2967 11.6523 20.868 13.2452 20.3243C14.8646 19.7722 16.4043 18.4889 16.9836 17.4655L16.9838 17.4653Z" fill="#FAAD14"/>
<path d="M5.53158 29.0986L2.32744 27.2554C2.21542 27.1909 2.15487 27.0587 2.16239 26.903L2.37109 25.5136L6.99745 28.175L5.91701 29.0629C5.7876 29.1485 5.64412 29.1633 5.5321 29.0989L5.53158 29.0986Z" fill="#393D65"/>
<path d="M9.62529 23.687L4.86521 20.9487C4.51142 20.7451 4.06094 20.8693 3.85904 21.2259L1.75028 24.951C1.54838 25.3076 1.67151 25.7617 2.02531 25.9653L6.78539 28.7036C7.13918 28.9071 7.58967 28.783 7.79156 28.4263L9.90032 24.7013C10.1022 24.3446 9.97909 23.8905 9.62529 23.687Z" fill="#597EF7"/>
<path fill-rule="evenodd" clip-rule="evenodd" d="M3.32364 22.0134C3.34769 21.9709 3.40135 21.9561 3.44349 21.9803L6.84698 23.9382C6.88912 23.9625 6.90379 24.0166 6.87974 24.0591C6.85569 24.1015 6.80203 24.1163 6.75989 24.0921L3.3564 22.1342C3.31426 22.1099 3.29959 22.0558 3.32364 22.0134Z" fill="white"/>
<path fill-rule="evenodd" clip-rule="evenodd" d="M2.05997 24.2437C2.08402 24.2012 2.13768 24.1864 2.17982 24.2106L5.58331 26.1686C5.62545 26.1928 5.64012 26.2469 5.61607 26.2894C5.59202 26.3319 5.53836 26.3466 5.49622 26.3224L2.09273 24.3645C2.05059 24.3402 2.03592 24.2861 2.05997 24.2437Z" fill="white"/>
<path fill-rule="evenodd" clip-rule="evenodd" d="M5.30216 24.6301C5.32621 24.5876 5.37987 24.5728 5.42201 24.5971L8.82549 26.555C8.86763 26.5792 8.8823 26.6333 8.85825 26.6758C8.8342 26.7183 8.78055 26.7331 8.7384 26.7088L5.33492 24.7509C5.29278 24.7267 5.27811 24.6726 5.30216 24.6301Z" fill="white"/>
<path d="M13.5869 12.124L9.13585 14.4146C8.89552 14.5393 8.89512 14.8625 9.12577 14.9952L10.1917 15.6083L7.46626 17.3538C7.25416 17.4997 7.39997 17.8321 7.64492 17.7612L13.2556 16.1963C13.5439 16.1128 13.5967 15.7172 13.3394 15.5691L11.7276 14.6419L13.8436 12.4832C14.0193 12.2962 13.8116 12.0076 13.5869 12.124Z" fill="white"/>
</svg>
