<svg width="216" height="208" viewBox="0 0 216 208" fill="none" xmlns="http://www.w3.org/2000/svg">
<defs>
<linearGradient id="paint0_linear" x1="107.348" y1="175.948" x2="109.325" y2="232.019" gradientUnits="userSpaceOnUse">
<stop stop-opacity="0"/>
<stop offset="0.95"/>
</linearGradient>
<linearGradient id="paint1_linear" x1="46.8746" y1="157.355" x2="44.8978" y2="79.1791" gradientUnits="userSpaceOnUse">
<stop stop-opacity="0"/>
<stop offset="0.99"/>
</linearGradient>
<linearGradient id="paint2_linear" x1="3150.87" y1="7758.14" x2="2943.35" y2="5217.26" gradientUnits="userSpaceOnUse">
<stop stop-opacity="0"/>
<stop offset="0.95"/>
</linearGradient>
<linearGradient id="paint3_linear" x1="22318.5" y1="21636.7" x2="22577.2" y2="7434.18" gradientUnits="userSpaceOnUse">
<stop stop-opacity="0"/>
<stop offset="0.99"/>
</linearGradient>
</defs>
<path opacity="0.18" d="M66.1742 140.107C80.2226 146.282 96.1119 146.187 111.458 145.984C119.508 145.882 127.836 145.719 135.166 142.383C145.356 137.743 151.973 127.785 160.912 121.046C171.177 113.295 184.315 109.952 194.267 101.807C199.111 97.8459 203.033 92.8764 205.761 87.2449C208.489 81.6133 209.956 75.4549 210.062 69.1984C210.167 62.9419 208.908 56.7376 206.371 51.0174C203.835 45.2971 200.082 40.1984 195.374 36.0761C190.11 31.4703 183.826 28.2164 177.597 25.0168L146.314 8.91686C138.984 5.14663 131.464 1.31525 123.285 0.289477C116.383 -0.573261 109.399 0.622345 102.654 2.1644C83.429 6.51206 64.3536 14.005 50.2509 27.7205C38.1182 39.5407 30.1974 55.4164 16.9234 65.9391C13.5268 68.6224 9.76336 70.9932 7.29064 74.5393C-1.60847 87.3173 7.40612 103.641 18.9682 110.19C34.9798 119.252 49.3882 132.737 66.1742 140.107Z" fill="#68E1FD"/>
<path d="M108 207.598C167.158 207.598 215.115 201.673 215.115 194.365C215.115 187.056 167.158 181.132 108 181.132C48.8418 181.132 0.884583 187.056 0.884583 194.365C0.884583 201.673 48.8418 207.598 108 207.598Z" fill="#68E1FD"/>
<path d="M108 207.598C167.158 207.598 215.115 201.673 215.115 194.365C215.115 187.056 167.158 181.132 108 181.132C48.8418 181.132 0.884583 187.056 0.884583 194.365C0.884583 201.673 48.8418 207.598 108 207.598Z" fill="url(#paint0_linear)"/>
<path d="M49.3202 65.0831C47.3333 63.7357 45.0962 62.8009 42.7414 62.3341C40.3866 61.8674 37.962 61.8781 35.6115 62.3658C34.7511 62.4998 33.9382 62.8478 33.2474 63.378C31.6374 64.7366 31.8888 67.2637 31.4608 69.3424C30.9377 71.9034 29.219 74.0977 28.6009 76.6247C28.2409 78.5263 28.2202 80.4766 28.5397 82.3854C29.4449 89.9148 31.2489 97.3087 33.9132 104.409L26.4406 202.849C26.4406 202.849 34.083 204.086 49.5851 205.322L51.2291 111.576L49.3202 65.0831Z" fill="#EEA886"/>
<path d="M40.8219 122.493L50.7196 162.518V104.789L46.3176 91.7057L40.8219 122.493Z" fill="url(#paint1_linear)"/>
<path d="M170.253 65.9255C172.244 64.5881 174.483 63.6634 176.838 63.206C179.192 62.7487 181.615 62.7679 183.962 63.2626C184.823 63.3997 185.638 63.7473 186.332 64.2748C187.936 65.6334 187.691 68.1605 188.112 70.246C188.642 72.807 190.361 75.0012 190.979 77.5283C191.34 79.4277 191.359 81.3763 191.033 83.2822C190.135 90.8121 188.333 98.2065 185.667 105.306L193.105 202.374C193.105 202.374 184.784 203.773 169.913 205.18L168.317 112.466L170.253 65.9255Z" fill="#EEA886"/>
<path d="M180.022 119.632L176.51 137.668L169.03 153.938L168.371 118.532L180.022 119.632Z" fill="url(#paint2_linear)"/>
<path d="M174.777 32.8833H42.33C39.1898 32.8833 36.6441 35.429 36.6441 38.5692V117.798C36.6441 120.939 39.1898 123.484 42.33 123.484H174.777C177.918 123.484 180.463 120.939 180.463 117.798V38.5692C180.463 35.429 177.918 32.8833 174.777 32.8833Z" fill="#68E1FD"/>
<path d="M174.777 32.8833H42.33C39.1898 32.8833 36.6441 35.429 36.6441 38.5692V117.798C36.6441 120.939 39.1898 123.484 42.33 123.484H174.777C177.918 123.484 180.463 120.939 180.463 117.798V38.5692C180.463 35.429 177.918 32.8833 174.777 32.8833Z" fill="url(#paint3_linear)"/>
<path d="M174.777 29.2487H42.33C39.1898 29.2487 36.6441 31.7944 36.6441 34.9346V114.164C36.6441 117.304 39.1898 119.85 42.33 119.85H174.777C177.918 119.85 180.463 117.304 180.463 114.164V34.9346C180.463 31.7944 177.918 29.2487 174.777 29.2487Z" fill="#00BBFF"/>
<path d="M42.7376 63.8944C43.3205 64.1846 43.817 64.6226 44.1777 65.1647C44.4762 65.8018 44.6227 66.4994 44.6057 67.2027L44.8095 71.5843C44.9017 72.3052 44.8154 73.0377 44.5582 73.7174C44.4211 74.0527 44.1703 74.3291 43.8498 74.498C43.5294 74.667 43.1596 74.7177 42.8055 74.6413C43.0656 75.4941 43.1497 76.3908 43.0528 77.2772C42.9559 78.1635 42.6799 79.0209 42.2417 79.7973C42.022 80.1244 41.8504 80.4812 41.7322 80.8571C41.6757 81.3104 41.6987 81.7702 41.8001 82.2157C41.9541 83.3148 41.872 84.434 41.5593 85.4989C41.2465 86.5637 40.7103 87.5496 39.9863 88.3907C39.765 88.6663 39.4929 88.8969 39.1847 89.07C38.7806 89.2424 38.3469 89.3347 37.9076 89.3418L35.9104 89.5116C35.8117 89.544 35.7068 89.5533 35.6039 89.5388C35.501 89.5244 35.4028 89.4865 35.3168 89.4281C35.2309 89.3697 35.1594 89.2923 35.1081 89.202C35.0567 89.1117 35.0267 89.0107 35.0205 88.907C33.504 84.0967 32.8149 79.064 32.9825 74.0231C33.0611 71.483 33.3657 68.955 33.8928 66.469C34.2121 65.0153 34.8371 62.8007 36.3927 62.2097C38.4035 61.5032 40.9985 62.8958 42.7376 63.8944Z" fill="#EEA886"/>
<path d="M173.928 63.8942C173.345 64.1844 172.849 64.6224 172.488 65.1645C172.19 65.8015 172.043 66.4992 172.06 67.2025L171.856 71.5841C171.764 72.305 171.85 73.0374 172.108 73.7171C172.245 74.0525 172.495 74.3289 172.816 74.4978C173.136 74.6667 173.506 74.7174 173.86 74.641C173.601 75.4936 173.516 76.3899 173.612 77.276C173.708 78.162 173.982 79.0196 174.417 79.7971C174.642 80.1223 174.816 80.4796 174.934 80.8568C174.991 81.3105 174.966 81.7708 174.859 82.2155C174.708 83.315 174.792 84.434 175.106 85.4985C175.42 86.563 175.956 87.5487 176.679 88.3905C176.901 88.6661 177.173 88.8967 177.481 89.0698C177.885 89.2421 178.319 89.3344 178.758 89.3415L180.776 89.5385C180.874 89.5709 180.979 89.5803 181.082 89.5658C181.185 89.5513 181.283 89.5134 181.369 89.455C181.455 89.3966 181.527 89.3193 181.578 89.2289C181.629 89.1386 181.659 89.0377 181.666 88.9339C183.182 84.1237 183.871 79.0909 183.704 74.05C183.626 71.5095 183.319 68.9812 182.787 66.496C182.474 65.0422 182.107 63.2216 180.565 62.6306C178.534 61.8902 175.667 62.8956 173.928 63.8942Z" fill="#EEA886"/>
<path d="M105.821 39.3427V55.2487H104.303C104.068 55.2487 103.87 55.2121 103.709 55.1387C103.555 55.0581 103.404 54.9261 103.258 54.7427L94.9526 44.1387C94.9966 44.6227 95.0186 45.0701 95.0186 45.4807V55.2487H92.4116V39.3427H93.9626C94.0873 39.3427 94.1936 39.3501 94.2816 39.3647C94.377 39.3721 94.4576 39.3941 94.5236 39.4307C94.597 39.4601 94.6666 39.5077 94.7326 39.5737C94.7986 39.6324 94.872 39.7131 94.9526 39.8157L103.291 50.4637C103.269 50.2071 103.25 49.9541 103.236 49.7047C103.221 49.4554 103.214 49.2244 103.214 49.0117V39.3427H105.821ZM124.532 47.2957C124.532 48.4617 124.337 49.5434 123.949 50.5407C123.567 51.5307 123.025 52.3887 122.321 53.1147C121.617 53.8407 120.77 54.4091 119.78 54.8197C118.79 55.2231 117.69 55.4247 116.48 55.4247C115.277 55.4247 114.181 55.2231 113.191 54.8197C112.201 54.4091 111.35 53.8407 110.639 53.1147C109.935 52.3887 109.388 51.5307 109 50.5407C108.611 49.5434 108.417 48.4617 108.417 47.2957C108.417 46.1297 108.611 45.0517 109 44.0617C109.388 43.0644 109.935 42.2027 110.639 41.4767C111.35 40.7507 112.201 40.1861 113.191 39.7827C114.181 39.3721 115.277 39.1667 116.48 39.1667C117.286 39.1667 118.045 39.2621 118.757 39.4527C119.468 39.6361 120.121 39.9001 120.715 40.2447C121.309 40.5821 121.84 40.9964 122.31 41.4877C122.786 41.9717 123.19 42.5144 123.52 43.1157C123.85 43.7171 124.099 44.3697 124.268 45.0737C124.444 45.7777 124.532 46.5184 124.532 47.2957ZM121.507 47.2957C121.507 46.4231 121.389 45.6421 121.155 44.9527C120.92 44.2561 120.586 43.6657 120.154 43.1817C119.721 42.6977 119.193 42.3274 118.57 42.0707C117.954 41.8141 117.257 41.6857 116.48 41.6857C115.702 41.6857 115.002 41.8141 114.379 42.0707C113.763 42.3274 113.235 42.6977 112.795 43.1817C112.362 43.6657 112.028 44.2561 111.794 44.9527C111.559 45.6421 111.442 46.4231 111.442 47.2957C111.442 48.1684 111.559 48.9531 111.794 49.6497C112.028 50.3391 112.362 50.9257 112.795 51.4097C113.235 51.8864 113.763 52.2531 114.379 52.5097C115.002 52.7664 115.702 52.8947 116.48 52.8947C117.257 52.8947 117.954 52.7664 118.57 52.5097C119.193 52.2531 119.721 51.8864 120.154 51.4097C120.586 50.9257 120.92 50.3391 121.155 49.6497C121.389 48.9531 121.507 48.1684 121.507 47.2957ZM71.0758 77.4977C71.2372 77.4977 71.3802 77.5601 71.5048 77.6847L72.6708 78.9497C72.0255 79.7491 71.2298 80.3614 70.2838 80.7867C69.3452 81.2121 68.2158 81.4247 66.8958 81.4247C65.7152 81.4247 64.6518 81.2231 63.7058 80.8197C62.7672 80.4164 61.9642 79.8554 61.2968 79.1367C60.6295 78.4181 60.1162 77.5601 59.7568 76.5627C59.4048 75.5654 59.2288 74.4764 59.2288 73.2957C59.2288 72.1004 59.4195 71.0077 59.8008 70.0177C60.1822 69.0204 60.7175 68.1624 61.4068 67.4437C62.1035 66.7251 62.9322 66.1677 63.8928 65.7717C64.8535 65.3684 65.9168 65.1667 67.0828 65.1667C68.2415 65.1667 69.2682 65.3574 70.1628 65.7387C71.0648 66.1201 71.8312 66.6187 72.4618 67.2347L71.4718 68.6097C71.4132 68.6977 71.3362 68.7747 71.2408 68.8407C71.1528 68.9067 71.0282 68.9397 70.8668 68.9397C70.7568 68.9397 70.6432 68.9104 70.5258 68.8517C70.4085 68.7857 70.2802 68.7087 70.1408 68.6207C70.0015 68.5254 69.8402 68.4227 69.6568 68.3127C69.4735 68.2027 69.2608 68.1037 69.0188 68.0157C68.7768 67.9204 68.4945 67.8434 68.1718 67.7847C67.8565 67.7187 67.4898 67.6857 67.0718 67.6857C66.3605 67.6857 65.7078 67.8141 65.1138 68.0707C64.5272 68.3201 64.0212 68.6867 63.5958 69.1707C63.1705 69.6474 62.8405 70.2341 62.6058 70.9307C62.3712 71.6201 62.2538 72.4084 62.2538 73.2957C62.2538 74.1904 62.3785 74.9861 62.6278 75.6827C62.8845 76.3794 63.2292 76.9661 63.6618 77.4427C64.0945 77.9194 64.6042 78.2861 65.1908 78.5427C65.7775 78.7921 66.4082 78.9167 67.0828 78.9167C67.4862 78.9167 67.8492 78.8947 68.1718 78.8507C68.5018 78.8067 68.8025 78.7371 69.0738 78.6417C69.3525 78.5464 69.6128 78.4254 69.8548 78.2787C70.1042 78.1247 70.3498 77.9377 70.5918 77.7177C70.6652 77.6517 70.7422 77.6004 70.8228 77.5637C70.9035 77.5197 70.9878 77.4977 71.0758 77.4977ZM89.523 73.2957C89.523 74.4617 89.3287 75.5434 88.94 76.5407C88.5587 77.5307 88.016 78.3887 87.312 79.1147C86.608 79.8407 85.761 80.4091 84.771 80.8197C83.781 81.2231 82.681 81.4247 81.471 81.4247C80.2683 81.4247 79.172 81.2231 78.182 80.8197C77.192 80.4091 76.3413 79.8407 75.63 79.1147C74.926 78.3887 74.3797 77.5307 73.991 76.5407C73.6023 75.5434 73.408 74.4617 73.408 73.2957C73.408 72.1297 73.6023 71.0517 73.991 70.0617C74.3797 69.0644 74.926 68.2027 75.63 67.4767C76.3413 66.7507 77.192 66.1861 78.182 65.7827C79.172 65.3721 80.2683 65.1667 81.471 65.1667C82.2777 65.1667 83.0367 65.2621 83.748 65.4527C84.4593 65.6361 85.112 65.9001 85.706 66.2447C86.3 66.5821 86.8317 66.9964 87.301 67.4877C87.7777 67.9717 88.181 68.5144 88.511 69.1157C88.841 69.7171 89.0903 70.3697 89.259 71.0737C89.435 71.7777 89.523 72.5184 89.523 73.2957ZM86.498 73.2957C86.498 72.4231 86.3807 71.6421 86.146 70.9527C85.9113 70.2561 85.5777 69.6657 85.145 69.1817C84.7123 68.6977 84.1843 68.3274 83.561 68.0707C82.945 67.8141 82.2483 67.6857 81.471 67.6857C80.6937 67.6857 79.9933 67.8141 79.37 68.0707C78.754 68.3274 78.226 68.6977 77.786 69.1817C77.3533 69.6657 77.0197 70.2561 76.785 70.9527C76.5503 71.6421 76.433 72.4231 76.433 73.2957C76.433 74.1684 76.5503 74.9531 76.785 75.6497C77.0197 76.3391 77.3533 76.9257 77.786 77.4097C78.226 77.8864 78.754 78.2531 79.37 78.5097C79.9933 78.7664 80.6937 78.8947 81.471 78.8947C82.2483 78.8947 82.945 78.7664 83.561 78.5097C84.1843 78.2531 84.7123 77.8864 85.145 77.4097C85.5777 76.9257 85.9113 76.3391 86.146 75.6497C86.3807 74.9531 86.498 74.1684 86.498 73.2957ZM98.5236 78.8617C99.0956 78.8617 99.6053 78.7664 100.053 78.5757C100.507 78.3851 100.889 78.1174 101.197 77.7727C101.505 77.4281 101.739 77.0101 101.901 76.5187C102.069 76.0274 102.154 75.4774 102.154 74.8687V65.3427H105.113V74.8687C105.113 75.8147 104.959 76.6911 104.651 77.4977C104.35 78.2971 103.914 78.9901 103.342 79.5767C102.777 80.1561 102.088 80.6107 101.274 80.9407C100.46 81.2634 99.5429 81.4247 98.5236 81.4247C97.4969 81.4247 96.5766 81.2634 95.7626 80.9407C94.9486 80.6107 94.2556 80.1561 93.6836 79.5767C93.1189 78.9901 92.6826 78.2971 92.3746 77.4977C92.0739 76.6911 91.9236 75.8147 91.9236 74.8687V65.3427H94.8826V74.8577C94.8826 75.4664 94.9633 76.0164 95.1246 76.5077C95.2933 76.9991 95.5316 77.4207 95.8396 77.7727C96.1549 78.1174 96.5363 78.3851 96.9836 78.5757C97.4383 78.7664 97.9516 78.8617 98.5236 78.8617ZM113.257 72.9107C113.814 72.9107 114.298 72.8411 114.709 72.7017C115.127 72.5624 115.468 72.3717 115.732 72.1297C116.003 71.8804 116.205 71.5871 116.337 71.2497C116.469 70.9124 116.535 70.5421 116.535 70.1387C116.535 69.3321 116.267 68.7124 115.732 68.2797C115.204 67.8471 114.393 67.6307 113.301 67.6307H111.409V72.9107H113.257ZM120.869 81.2487H118.196C117.69 81.2487 117.323 81.0507 117.096 80.6547L113.752 75.5617C113.627 75.3711 113.488 75.2354 113.334 75.1547C113.187 75.0741 112.967 75.0337 112.674 75.0337H111.409V81.2487H108.45V65.3427H113.301C114.379 65.3427 115.303 65.4564 116.073 65.6837C116.85 65.9037 117.484 66.2154 117.976 66.6187C118.474 67.0221 118.841 67.5061 119.076 68.0707C119.31 68.6281 119.428 69.2441 119.428 69.9187C119.428 70.4541 119.347 70.9601 119.186 71.4367C119.032 71.9134 118.804 72.3461 118.504 72.7347C118.21 73.1234 117.844 73.4644 117.404 73.7577C116.971 74.0511 116.476 74.2821 115.919 74.4507C116.109 74.5607 116.285 74.6927 116.447 74.8467C116.608 74.9934 116.755 75.1694 116.887 75.3747L120.869 81.2487ZM131.056 68.2357C130.968 68.3897 130.873 68.5034 130.77 68.5767C130.675 68.6427 130.554 68.6757 130.407 68.6757C130.253 68.6757 130.085 68.6207 129.901 68.5107C129.725 68.3934 129.513 68.2651 129.263 68.1257C129.014 67.9864 128.721 67.8617 128.383 67.7517C128.053 67.6344 127.661 67.5757 127.206 67.5757C126.796 67.5757 126.436 67.6271 126.128 67.7297C125.82 67.8251 125.56 67.9607 125.347 68.1367C125.142 68.3127 124.988 68.5254 124.885 68.7747C124.783 69.0167 124.731 69.2844 124.731 69.5777C124.731 69.9517 124.834 70.2634 125.039 70.5127C125.252 70.7621 125.531 70.9747 125.875 71.1507C126.22 71.3267 126.612 71.4844 127.052 71.6237C127.492 71.7631 127.943 71.9134 128.405 72.0747C128.867 72.2287 129.318 72.4121 129.758 72.6247C130.198 72.8301 130.591 73.0941 130.935 73.4167C131.28 73.7321 131.555 74.1207 131.76 74.5827C131.973 75.0447 132.079 75.6057 132.079 76.2657C132.079 76.9844 131.955 77.6591 131.705 78.2897C131.463 78.9131 131.104 79.4594 130.627 79.9287C130.158 80.3907 129.582 80.7574 128.9 81.0287C128.218 81.2927 127.437 81.4247 126.557 81.4247C126.051 81.4247 125.553 81.3734 125.061 81.2707C124.57 81.1754 124.097 81.0361 123.642 80.8527C123.195 80.6694 122.773 80.4494 122.377 80.1927C121.981 79.9361 121.629 79.6501 121.321 79.3347L122.19 77.9157C122.264 77.8131 122.359 77.7287 122.476 77.6627C122.594 77.5894 122.718 77.5527 122.85 77.5527C123.034 77.5527 123.232 77.6297 123.444 77.7837C123.657 77.9304 123.91 78.0954 124.203 78.2787C124.497 78.4621 124.838 78.6307 125.226 78.7847C125.622 78.9314 126.095 79.0047 126.645 79.0047C127.489 79.0047 128.141 78.8067 128.603 78.4107C129.065 78.0074 129.296 77.4317 129.296 76.6837C129.296 76.2657 129.19 75.9247 128.977 75.6607C128.772 75.3967 128.497 75.1767 128.152 75.0007C127.808 74.8174 127.415 74.6634 126.975 74.5387C126.535 74.4141 126.088 74.2784 125.633 74.1317C125.179 73.9851 124.731 73.8091 124.291 73.6037C123.851 73.3984 123.459 73.1307 123.114 72.8007C122.77 72.4707 122.491 72.0601 122.278 71.5687C122.073 71.0701 121.97 70.4577 121.97 69.7317C121.97 69.1524 122.084 68.5877 122.311 68.0377C122.546 67.4877 122.883 67.0001 123.323 66.5747C123.763 66.1494 124.306 65.8084 124.951 65.5517C125.597 65.2951 126.337 65.1667 127.173 65.1667C128.112 65.1667 128.977 65.3134 129.769 65.6067C130.561 65.9001 131.236 66.3107 131.793 66.8387L131.056 68.2357ZM137.631 67.6967V72.1077H143.197V74.3847H137.631V78.8837H144.693V81.2487H134.661V65.3427H144.693V67.6967H137.631ZM155.785 68.2357C155.697 68.3897 155.602 68.5034 155.499 68.5767C155.404 68.6427 155.283 68.6757 155.136 68.6757C154.982 68.6757 154.813 68.6207 154.63 68.5107C154.454 68.3934 154.241 68.2651 153.992 68.1257C153.743 67.9864 153.449 67.8617 153.112 67.7517C152.782 67.6344 152.39 67.5757 151.935 67.5757C151.524 67.5757 151.165 67.6271 150.857 67.7297C150.549 67.8251 150.289 67.9607 150.076 68.1367C149.871 68.3127 149.717 68.5254 149.614 68.7747C149.511 69.0167 149.46 69.2844 149.46 69.5777C149.46 69.9517 149.563 70.2634 149.768 70.5127C149.981 70.7621 150.259 70.9747 150.604 71.1507C150.949 71.3267 151.341 71.4844 151.781 71.6237C152.221 71.7631 152.672 71.9134 153.134 72.0747C153.596 72.2287 154.047 72.4121 154.487 72.6247C154.927 72.8301 155.319 73.0941 155.664 73.4167C156.009 73.7321 156.284 74.1207 156.489 74.5827C156.702 75.0447 156.808 75.6057 156.808 76.2657C156.808 76.9844 156.683 77.6591 156.434 78.2897C156.192 78.9131 155.833 79.4594 155.356 79.9287C154.887 80.3907 154.311 80.7574 153.629 81.0287C152.947 81.2927 152.166 81.4247 151.286 81.4247C150.78 81.4247 150.281 81.3734 149.79 81.2707C149.299 81.1754 148.826 81.0361 148.371 80.8527C147.924 80.6694 147.502 80.4494 147.106 80.1927C146.71 79.9361 146.358 79.6501 146.05 79.3347L146.919 77.9157C146.992 77.8131 147.088 77.7287 147.205 77.6627C147.322 77.5894 147.447 77.5527 147.579 77.5527C147.762 77.5527 147.96 77.6297 148.173 77.7837C148.386 77.9304 148.639 78.0954 148.932 78.2787C149.225 78.4621 149.566 78.6307 149.955 78.7847C150.351 78.9314 150.824 79.0047 151.374 79.0047C152.217 79.0047 152.87 78.8067 153.332 78.4107C153.794 78.0074 154.025 77.4317 154.025 76.6837C154.025 76.2657 153.919 75.9247 153.706 75.6607C153.501 75.3967 153.226 75.1767 152.881 75.0007C152.536 74.8174 152.144 74.6634 151.704 74.5387C151.264 74.4141 150.817 74.2784 150.362 74.1317C149.907 73.9851 149.46 73.8091 149.02 73.6037C148.58 73.3984 148.188 73.1307 147.843 72.8007C147.498 72.4707 147.22 72.0601 147.007 71.5687C146.802 71.0701 146.699 70.4577 146.699 69.7317C146.699 69.1524 146.813 68.5877 147.04 68.0377C147.275 67.4877 147.612 67.0001 148.052 66.5747C148.492 66.1494 149.035 65.8084 149.68 65.5517C150.325 65.2951 151.066 65.1667 151.902 65.1667C152.841 65.1667 153.706 65.3134 154.498 65.6067C155.29 65.9001 155.965 66.3107 156.522 66.8387L155.785 68.2357ZM72.6941 93.6967V98.4047H78.6561V100.77H72.6941V107.249H69.7241V91.3427H79.7561V93.6967H72.6941ZM97.2037 99.2957C97.2037 100.462 97.0093 101.543 96.6207 102.541C96.2393 103.531 95.6967 104.389 94.9927 105.115C94.2887 105.841 93.4417 106.409 92.4517 106.82C91.4617 107.223 90.3617 107.425 89.1517 107.425C87.949 107.425 86.8527 107.223 85.8627 106.82C84.8727 106.409 84.022 105.841 83.3107 105.115C82.6067 104.389 82.0603 103.531 81.6717 102.541C81.283 101.543 81.0887 100.462 81.0887 99.2957C81.0887 98.1297 81.283 97.0517 81.6717 96.0617C82.0603 95.0644 82.6067 94.2027 83.3107 93.4767C84.022 92.7507 84.8727 92.1861 85.8627 91.7827C86.8527 91.3721 87.949 91.1667 89.1517 91.1667C89.9583 91.1667 90.7173 91.2621 91.4287 91.4527C92.14 91.6361 92.7927 91.9001 93.3867 92.2447C93.9807 92.5821 94.5123 92.9964 94.9817 93.4877C95.4583 93.9717 95.8617 94.5144 96.1917 95.1157C96.5217 95.7171 96.771 96.3697 96.9397 97.0737C97.1157 97.7777 97.2037 98.5184 97.2037 99.2957ZM94.1787 99.2957C94.1787 98.4231 94.0613 97.6421 93.8267 96.9527C93.592 96.2561 93.2583 95.6657 92.8257 95.1817C92.393 94.6977 91.865 94.3274 91.2417 94.0707C90.6257 93.8141 89.929 93.6857 89.1517 93.6857C88.3743 93.6857 87.674 93.8141 87.0507 94.0707C86.4347 94.3274 85.9067 94.6977 85.4667 95.1817C85.034 95.6657 84.7003 96.2561 84.4657 96.9527C84.231 97.6421 84.1137 98.4231 84.1137 99.2957C84.1137 100.168 84.231 100.953 84.4657 101.65C84.7003 102.339 85.034 102.926 85.4667 103.41C85.9067 103.886 86.4347 104.253 87.0507 104.51C87.674 104.766 88.3743 104.895 89.1517 104.895C89.929 104.895 90.6257 104.766 91.2417 104.51C91.865 104.253 92.393 103.886 92.8257 103.41C93.2583 102.926 93.592 102.339 93.8267 101.65C94.0613 100.953 94.1787 100.168 94.1787 99.2957ZM106.204 104.862C106.776 104.862 107.286 104.766 107.733 104.576C108.188 104.385 108.569 104.117 108.877 103.773C109.185 103.428 109.42 103.01 109.581 102.519C109.75 102.027 109.834 101.477 109.834 100.869V91.3427H112.793V100.869C112.793 101.815 112.639 102.691 112.331 103.498C112.031 104.297 111.594 104.99 111.022 105.577C110.458 106.156 109.768 106.611 108.954 106.941C108.14 107.263 107.224 107.425 106.204 107.425C105.178 107.425 104.257 107.263 103.443 106.941C102.629 106.611 101.936 106.156 101.364 105.577C100.8 104.99 100.363 104.297 100.055 103.498C99.7546 102.691 99.6043 101.815 99.6043 100.869V91.3427H102.563V100.858C102.563 101.466 102.644 102.016 102.805 102.508C102.974 102.999 103.212 103.421 103.52 103.773C103.836 104.117 104.217 104.385 104.664 104.576C105.119 104.766 105.632 104.862 106.204 104.862ZM129.539 91.3427V107.249H128.021C127.787 107.249 127.589 107.212 127.427 107.139C127.273 107.058 127.123 106.926 126.976 106.743L118.671 96.1387C118.715 96.6227 118.737 97.0701 118.737 97.4807V107.249H116.13V91.3427H117.681C117.806 91.3427 117.912 91.3501 118 91.3647C118.096 91.3721 118.176 91.3941 118.242 91.4307C118.316 91.4601 118.385 91.5077 118.451 91.5737C118.517 91.6324 118.591 91.7131 118.671 91.8157L127.009 102.464C126.987 102.207 126.969 101.954 126.954 101.705C126.94 101.455 126.932 101.224 126.932 101.012V91.3427H129.539ZM147.206 99.2957C147.206 100.462 147.011 101.532 146.623 102.508C146.234 103.483 145.688 104.323 144.984 105.027C144.28 105.731 143.433 106.277 142.443 106.666C141.453 107.054 140.353 107.249 139.143 107.249H133.082V91.3427H139.143C140.353 91.3427 141.453 91.5407 142.443 91.9367C143.433 92.3254 144.28 92.8717 144.984 93.5757C145.688 94.2724 146.234 95.1084 146.623 96.0837C147.011 97.0591 147.206 98.1297 147.206 99.2957ZM144.17 99.2957C144.17 98.4231 144.052 97.6421 143.818 96.9527C143.59 96.2561 143.257 95.6694 142.817 95.1927C142.384 94.7087 141.856 94.3384 141.233 94.0817C140.617 93.8251 139.92 93.6967 139.143 93.6967H136.052V104.895H139.143C139.92 104.895 140.617 104.766 141.233 104.51C141.856 104.253 142.384 103.886 142.817 103.41C143.257 102.926 143.59 102.339 143.818 101.65C144.052 100.953 144.17 100.168 144.17 99.2957Z" fill="white"/>
</svg>
