<svg width="300" height="300" viewBox="0 0 101 149" fill="none" xmlns="http://www.w3.org/2000/svg">
<path d="M15.5682 74.5228C15.5682 74.635 15.6541 74.726 15.76 74.726C15.866 74.726 15.9518 74.635 15.9518 74.5228V71.8139C15.9518 71.7017 15.866 71.6107 15.76 71.6107C15.6541 71.6107 15.5682 71.7017 15.5682 71.8139V74.5228Z" fill="#597EF7"/>
<path d="M13.5463 75.1822C13.5841 75.2479 13.6527 75.2845 13.7232 75.2845C13.7578 75.2845 13.7929 75.2757 13.8251 75.2571C13.9227 75.2006 13.9561 75.0755 13.8998 74.9776L12.5391 72.6154C12.4828 72.5176 12.358 72.484 12.2603 72.5405C12.1627 72.597 12.1292 72.7221 12.1856 72.8199L13.5463 75.1822Z" fill="#597EF7"/>
<path d="M12.2108 76.8099C12.1764 76.8099 12.1415 76.801 12.1095 76.7823L9.76616 75.4107C9.66908 75.3539 9.63585 75.2281 9.69188 75.1296C9.74789 75.0312 9.872 74.9975 9.9691 75.0543L12.3125 76.426C12.4095 76.4828 12.4428 76.6086 12.3868 76.707C12.3492 76.773 12.2809 76.8099 12.2108 76.8099Z" fill="#597EF7"/>
<path d="M8.97107 78.851H11.6583C11.7696 78.851 11.8598 78.7644 11.8598 78.6576C11.8598 78.5508 11.7696 78.4642 11.6583 78.4642H8.97107C8.85975 78.4642 8.76953 78.5508 8.76953 78.6576C8.76953 78.7644 8.85975 78.851 8.97107 78.851Z" fill="#597EF7"/>
<path d="M9.86782 82.2455C9.79767 82.2455 9.72946 82.2086 9.69187 82.1426C9.63584 82.0441 9.6691 81.9183 9.76615 81.8615L12.1095 80.4899C12.2066 80.4331 12.3307 80.4668 12.3867 80.5652C12.4428 80.6636 12.4095 80.7894 12.3125 80.8462L9.96909 82.2179C9.93714 82.2366 9.90223 82.2455 9.86782 82.2455Z" fill="#597EF7"/>
<path d="M12.2603 84.7317C12.2925 84.7503 12.3275 84.7592 12.3622 84.7592C12.4327 84.7592 12.5013 84.7224 12.5391 84.6568L13.8998 82.2946C13.9561 82.1967 13.9227 82.0716 13.8251 82.0151C13.7274 81.9586 13.6026 81.9922 13.5463 82.09L12.1856 84.4522C12.1292 84.5501 12.1627 84.6752 12.2603 84.7317Z" fill="#597EF7"/>
<path d="M15.76 85.6615C15.6541 85.6615 15.5682 85.5705 15.5682 85.4583V82.7494C15.5682 82.6372 15.6541 82.5463 15.76 82.5463C15.866 82.5463 15.9518 82.6372 15.9518 82.7494V85.4583C15.9518 85.5705 15.866 85.6615 15.76 85.6615Z" fill="#597EF7"/>
<path d="M18.9383 84.6568C18.9761 84.7225 19.0447 84.7592 19.1153 84.7592C19.1499 84.7592 19.185 84.7503 19.2171 84.7317C19.3148 84.6752 19.3482 84.5501 19.2918 84.4522L17.9312 82.09C17.8748 81.9922 17.75 81.9586 17.6524 82.0151C17.5548 82.0716 17.5213 82.1967 17.5777 82.2946L18.9383 84.6568Z" fill="#597EF7"/>
<path d="M21.6096 82.2455C21.5752 82.2455 21.5403 82.2366 21.5083 82.2179L19.165 80.8462C19.0679 80.7894 19.0347 80.6636 19.0907 80.5652C19.1467 80.4668 19.2708 80.4331 19.3679 80.4899L21.7113 81.8615C21.8083 81.9183 21.8416 82.0442 21.7856 82.1426C21.748 82.2086 21.6797 82.2455 21.6096 82.2455Z" fill="#597EF7"/>
<path d="M19.8191 78.851H22.5064C22.6177 78.851 22.7079 78.7644 22.7079 78.6576C22.7079 78.5508 22.6177 78.4642 22.5064 78.4642H19.8191C19.7078 78.4642 19.6176 78.5508 19.6176 78.6576C19.6176 78.7644 19.7078 78.851 19.8191 78.851Z" fill="#597EF7"/>
<path d="M19.2666 76.8099C19.1965 76.8099 19.1283 76.773 19.0907 76.707C19.0347 76.6086 19.0679 76.4828 19.165 76.426L21.5083 75.0543C21.6055 74.9975 21.7295 75.0312 21.7856 75.1296C21.8416 75.228 21.8084 75.3539 21.7113 75.4107L19.3679 76.7823C19.336 76.801 19.301 76.8099 19.2666 76.8099Z" fill="#597EF7"/>
<path d="M17.6524 75.2571C17.6845 75.2757 17.7196 75.2845 17.7542 75.2845C17.8247 75.2845 17.8934 75.2478 17.9312 75.1822L19.2918 72.82C19.3482 72.7221 19.3148 72.597 19.2171 72.5405C19.1194 72.484 18.9947 72.5176 18.9383 72.6154L17.5777 74.9776C17.5213 75.0755 17.5547 75.2006 17.6524 75.2571Z" fill="#597EF7"/>
<path fill-rule="evenodd" clip-rule="evenodd" d="M1.92249 33.1991L8.15292 13.6967C7.74231 13.511 7.41495 13.1475 7.28939 12.6751C7.06787 11.8417 7.55849 10.9851 8.38524 10.7618C9.21198 10.5385 10.0618 11.033 10.2833 11.8665C10.4323 12.427 10.2591 12.9981 9.87821 13.3799L22.7967 29.6894C22.9494 29.5747 23.1259 29.4867 23.3211 29.434C24.1478 29.2107 24.9976 29.7053 25.2191 30.5387C25.4406 31.3721 24.95 32.2287 24.1233 32.4521C23.3266 32.6673 22.5085 32.2158 22.2519 31.437L3.15176 34.6159C3.20519 35.349 2.73716 36.0405 2.00687 36.2377C1.18012 36.461 0.330331 35.9664 0.108806 35.133C-0.112719 34.2996 0.377907 33.443 1.20465 33.2197C1.44744 33.1541 1.69222 33.1504 1.92249 33.1991ZM9.18745 13.7798C9.24671 13.7638 9.30423 13.7446 9.35989 13.7223L14.6416 24.1565C14.103 24.5177 13.8267 25.1972 14.0034 25.8619C14.0418 26.0066 14.0993 26.1412 14.1722 26.2635L2.8066 33.7405C2.64678 33.5434 2.44197 33.3896 2.21236 33.291L8.44103 13.7941C8.67957 13.8493 8.93459 13.8481 9.18745 13.7798ZM14.3542 26.5096L2.97473 33.9957C3.02691 34.0949 3.06919 34.2014 3.09995 34.3141L22.1843 31.1377C22.1478 30.8479 22.1938 30.5619 22.3064 30.3075L16.6521 26.5031C16.4584 26.7203 16.2022 26.8854 15.9014 26.9666C15.3224 27.123 14.7321 26.9272 14.3542 26.5096ZM16.8324 26.2561L22.4571 30.0406C22.4923 29.9903 22.5306 29.9421 22.5716 29.8962L9.64266 13.5734C9.63844 13.5762 9.6342 13.579 9.62994 13.5818L14.9101 24.0129C14.9709 23.9877 15.034 23.9662 15.0992 23.9485C15.926 23.7252 16.7758 24.2198 16.9973 25.0532C17.1099 25.4769 17.0385 25.9066 16.8324 26.2561Z" fill="#597EF7"/>
<path fill-rule="evenodd" clip-rule="evenodd" d="M75.2969 7.85315C77.405 7.85315 79.1179 9.55861 79.1519 11.6755L79.1524 11.7398C79.4188 18.8366 86.2162 20.6856 88.5318 21.1103C90.6219 21.1556 92.3025 22.8779 92.3025 24.9958C92.3025 27.1424 90.5763 28.8824 88.447 28.8824C86.7197 28.8824 85.2577 27.7374 84.7672 26.1593L84.7521 26.1757C82.8075 16.5742 76.8824 15.6897 75.314 15.6261L75.2969 15.6264C75.2337 15.6264 75.1709 15.6248 75.1085 15.6218C74.9925 15.6218 74.9297 15.6264 74.9297 15.6264L74.947 15.6106C72.9816 15.4323 71.4414 13.7674 71.4414 11.7398C71.4414 9.59324 73.1676 7.85315 75.2969 7.85315Z" fill="#E4ECF7"/>
<path fill-rule="evenodd" clip-rule="evenodd" d="M100.473 0.864859C101.152 1.72056 101.015 2.96989 100.168 3.65531C99.7934 3.95838 99.3426 4.10045 98.8975 4.09066L98.8971 4.0904C94.3491 4.67567 93.6144 7.50478 93.498 8.28069C93.4978 8.28364 93.4975 8.28679 93.4971 8.28995C93.4935 8.32255 93.4892 8.35487 93.4841 8.3869C93.4777 8.44575 93.4765 8.47786 93.4765 8.47786L93.4696 8.46816C93.27 9.46397 92.3469 10.1588 91.3278 10.0451C90.2489 9.9247 89.471 8.94366 89.5902 7.85393C89.7082 6.77514 90.6613 5.99414 91.7271 6.09547L91.7595 6.0988C95.3389 6.3604 96.6494 2.99025 96.9936 1.82676C97.0613 1.34413 97.3042 0.885441 97.7107 0.556569C98.5578 -0.128857 99.7947 0.00920044 100.473 0.864859Z" fill="#E4ECF7"/>
<path fill-rule="evenodd" clip-rule="evenodd" d="M99.1859 0.0967906C100.268 0.21733 101.048 1.1993 100.929 2.29013C100.809 3.38092 99.8351 4.16755 98.753 4.04701C97.6709 3.92652 96.8906 2.9445 97.0101 1.85367C97.1297 0.762838 98.1038 -0.0237485 99.1859 0.0967906Z" fill="#E4ECF7"/>
<path fill-rule="evenodd" clip-rule="evenodd" d="M49.9182 13.4465C49.9182 13.4465 58.5378 14.6392 58.7321 19.6147C58.8321 22.1737 56.4442 25.0246 57.6596 25.7718C62.4096 28.693 57.3663 30.0954 60.3925 32.4644C64.8935 35.9888 62.3725 42.2978 57.7074 42.0196C52.8751 41.7315 55.3694 48.5903 47.0131 46.8504C42.3035 45.8699 40.9107 44.8643 37.5434 43.2839C34.1764 41.7035 31.8937 32.9786 35.8596 28.5443C38.3233 25.7392 40.7587 25.9373 42.0437 21.35C43.3288 16.7631 44.6103 13.9379 46.8449 14.2474C47.6225 13.049 49.9182 13.4465 49.9182 13.4465Z" fill="#253368"/>
<path fill-rule="evenodd" clip-rule="evenodd" d="M55.231 24.0814C55.2515 23.9851 55.3833 23.9756 55.4175 24.0682C55.7173 24.8866 56.4428 27.0984 55.5816 27.2312C54.6099 27.3812 55.0425 24.9627 55.231 24.0814Z" fill="white"/>
<path fill-rule="evenodd" clip-rule="evenodd" d="M47.4907 31.0903C48.3129 27.1942 48.4246 25.6412 48.4246 25.6412L53.13 27.6398L52.8559 31.8513C52.755 33.4017 51.4068 34.5595 49.8795 34.4076C48.2647 34.2468 47.1515 32.697 47.4907 31.0903Z" fill="#F4B784"/>
<path fill-rule="evenodd" clip-rule="evenodd" d="M49.7903 18.7265C49.7903 18.7265 50.2828 17.1501 51.3693 17.8402C52.146 18.3336 51.9227 17.9051 52.0685 17.4793C52.6091 15.8983 53.1124 19.507 55.578 20.1688C55.7245 22.1051 56.1053 29.1129 51.9572 28.9583C50.6174 28.9085 48.3532 28.2431 47.3972 25.9274C46.8195 24.5283 47.1619 23.0415 47.7107 22.7211C49.5182 21.6654 49.43 20.6859 49.7903 18.7265Z" fill="#FFC999"/>
<path d="M53.3018 20.2581C53.3622 20.2725 53.4019 20.329 53.3978 20.3897L53.3947 20.4101L53.1643 21.4003L53.1814 21.5759L53.1972 21.721C53.2116 21.8474 53.229 21.9875 53.2498 22.1409C53.3329 22.7552 53.4517 23.4528 53.6124 24.2203C53.6247 24.279 53.5946 24.3383 53.5404 24.3623C53.2585 24.4873 52.9705 24.567 52.6899 24.6103C52.5331 24.6346 52.4038 24.6441 52.3116 24.6452L52.2743 24.6451C52.2054 24.6435 52.1508 24.5857 52.1524 24.5159C52.1538 24.4531 52.2002 24.402 52.2597 24.3936L52.28 24.3924H52.3102L52.3774 24.3901C52.4512 24.3862 52.5442 24.3771 52.6523 24.3604C52.8474 24.3303 53.0464 24.2812 53.2437 24.2098L53.3468 24.17L53.3316 24.0955C53.1999 23.45 53.0982 22.8554 53.0225 22.3199L53.0024 22.1752C52.9772 21.9889 52.9568 21.8216 52.9408 21.6744L52.9221 21.4925L52.914 21.4003L52.917 21.3617L53.1517 20.3521C53.1659 20.291 53.2218 20.2507 53.2817 20.255L53.3018 20.2581Z" fill="#DD936F"/>
<path d="M50.6496 24.6439C50.6825 24.5556 50.7798 24.5111 50.8669 24.5444L50.9792 24.5847C50.9997 24.5918 51.0224 24.5995 51.047 24.6077C51.1915 24.656 51.3508 24.7043 51.5201 24.7493C51.8746 24.8438 52.2234 24.911 52.5476 24.9394C52.8078 24.9621 53.0431 24.9588 53.2472 24.9264C53.3392 24.9118 53.4255 24.9755 53.4399 25.0686C53.4543 25.1618 53.3914 25.2491 53.2994 25.2637C53.0658 25.3008 52.804 25.3045 52.5186 25.2796C52.1731 25.2494 51.8061 25.1786 51.4343 25.0796C51.258 25.0326 51.0922 24.9823 50.9414 24.932L50.8107 24.887C50.7845 24.8777 50.7634 24.8699 50.7478 24.8639C50.6607 24.8306 50.6167 24.7321 50.6496 24.6439Z" fill="#C44343"/>
<path d="M53.2124 20.0625C54.1433 19.7183 54.8516 19.6461 55.3426 19.7327C55.4123 19.745 55.4614 19.7581 55.4899 19.7682C55.5747 19.7985 55.6191 19.8926 55.5893 19.9785C55.5619 20.0571 55.4815 20.1015 55.403 20.0851L55.3634 20.0737C55.3468 20.0693 55.3213 20.0635 55.2867 20.0574C54.8532 19.981 54.2025 20.0472 53.3241 20.3721C53.2397 20.4033 53.1462 20.3593 53.1154 20.2739C53.0846 20.1884 53.128 20.0938 53.2124 20.0625Z" fill="#253368"/>
<path d="M49.6308 19.7799C50.1293 19.733 50.6655 19.7384 51.1726 19.8323C51.428 19.8796 51.6644 19.9482 51.878 20.0406C51.9606 20.0764 51.999 20.1732 51.9636 20.2569C51.9283 20.3406 51.8327 20.3795 51.75 20.3437C51.5602 20.2615 51.3468 20.1996 51.1141 20.1565C50.6406 20.0688 50.1323 20.0638 49.6609 20.1081L49.5552 20.119C49.5038 20.1249 49.4648 20.1302 49.4399 20.1341C49.3511 20.1482 49.2678 20.0867 49.2539 19.9968C49.24 19.9069 49.3008 19.8226 49.3896 19.8085L49.4553 19.7993L49.5378 19.7894C49.5671 19.7862 49.5981 19.783 49.6308 19.7799Z" fill="#253368"/>
<path d="M52.2835 25.9328C52.3524 25.9311 52.4097 25.9863 52.4114 26.0561C52.4129 26.1189 52.3689 26.1721 52.3098 26.1834L52.2896 26.1855L51.8388 26.1967C51.7699 26.1985 51.7127 26.1433 51.711 26.0735C51.7095 26.0107 51.7534 25.9575 51.8125 25.9462L51.8327 25.944L52.2835 25.9328Z" fill="#DD936F"/>
<path fill-rule="evenodd" clip-rule="evenodd" d="M44.9055 23.8168C44.4992 22.1916 46.0574 22.2314 46.0574 22.2314C46.0574 22.2314 46.1492 23.8632 46.6267 25.3068C45.0669 25.319 44.9055 23.8168 44.9055 23.8168Z" fill="#FFC999"/>
<path fill-rule="evenodd" clip-rule="evenodd" d="M45.8267 24.9316C45.8472 24.835 45.979 24.8258 46.0132 24.9184C46.313 25.7368 47.0385 27.9483 46.1773 28.0815C45.2056 28.2314 45.6382 25.8129 45.8267 24.9316Z" fill="white"/>
<path d="M53.7917 21.9526C53.8816 21.9547 53.9528 22.0301 53.9507 22.1211C53.9438 22.4287 54.1055 22.6652 54.282 22.6691C54.4587 22.6733 54.631 22.4446 54.6379 22.137C54.64 22.046 54.7145 21.9739 54.8044 21.976C54.8942 21.9781 54.9654 22.0535 54.9633 22.1445C54.9527 22.6156 54.6574 23.0076 54.2746 22.9986C53.8919 22.9901 53.6147 22.5847 53.6253 22.1136C53.6274 22.0226 53.7019 21.9505 53.7917 21.9526Z" fill="#253368"/>
<path d="M50.1179 21.9959C50.2078 21.9979 50.2789 22.0734 50.2769 22.1644C50.2699 22.4719 50.4316 22.7082 50.6082 22.7124C50.7849 22.7166 50.9572 22.4879 50.9641 22.1803C50.9662 22.0893 51.0407 22.0172 51.1305 22.0193C51.2204 22.0213 51.2916 22.0968 51.2895 22.1878C51.2789 22.6589 50.9835 23.0509 50.6006 23.0419C50.218 23.0329 49.9408 22.6278 49.9515 22.1569C49.9535 22.0659 50.028 21.9938 50.1179 21.9959Z" fill="#253368"/>
<path fill-rule="evenodd" clip-rule="evenodd" d="M70.0121 49.8972C70.0121 49.8972 63.6928 39.468 62.271 37.6605C58.8364 33.2948 55.3802 34.3857 54.6621 37.4858C53.797 41.2234 65.7054 53.6074 65.7054 53.6074C65.7054 53.6074 67.1695 55.3924 69.3565 54.0751C71.9416 52.5181 70.0121 49.8972 70.0121 49.8972Z" fill="#FFC999"/>
<path fill-rule="evenodd" clip-rule="evenodd" d="M65.8919 42.751C65.2263 41.811 60.5088 32.655 56.8088 35.0366C53.6743 37.0543 54.4083 40.2856 59.6319 46.7113L65.8919 42.751Z" fill="#597EF7"/>
<path fill-rule="evenodd" clip-rule="evenodd" d="M77.7147 34.337C74.0297 45.3064 73.4399 48.158 71.6559 51.532C68.6932 57.1347 64.2872 54.2966 65.4427 50.9615C66.1679 48.8686 68.5385 45.1393 70.2562 41.7201C72.6779 36.9008 74.5928 33.456 74.5928 33.456L77.7147 34.337Z" fill="#FFC999"/>
<path d="M67.8832 46.2909C67.9177 46.2305 67.994 46.2098 68.0537 46.2447C68.1074 46.2761 68.1294 46.3419 68.1081 46.3988L68.0993 46.4174L66.188 49.7673C66.1535 49.8278 66.0772 49.8485 66.0175 49.8135C65.9638 49.7821 65.9418 49.7163 65.9631 49.6594L65.9718 49.6409L67.8832 46.2909Z" fill="#DD936F"/>
<path fill-rule="evenodd" clip-rule="evenodd" d="M74.529 33.5965L76.7089 27.3452C76.7089 27.3452 79.9476 22.368 80.9797 22.7533C81.9299 23.2497 79.6279 24.5855 79.0977 26.0166C80.0322 26.0093 79.5215 27.3831 79.5215 27.3831C79.5215 27.3831 80.264 27.4035 79.9928 28.5324C80.6542 28.9888 80.0208 30.2634 80.0208 30.2634C80.0208 30.2634 78.422 33.6252 76.7466 35.8281C76.7466 35.8281 74.0824 37.6498 74.529 33.5965Z" fill="#FFC999"/>
<path fill-rule="evenodd" clip-rule="evenodd" d="M75.0604 31.4711C75.0604 31.4711 75.4633 29.305 75.7319 28.2055C76.0004 27.106 75.6629 25.0675 76.4301 25.6515C76.9463 26.044 76.7774 27.2329 76.7025 28.1129C76.6277 28.9925 77.9017 31.1718 76.7634 32.5501C75.9942 33.4812 74.8703 33.5376 75.0604 31.4711Z" fill="#FFC999"/>
<path d="M79.013 25.924C79.0636 25.8765 79.1426 25.8796 79.1894 25.9309C79.2363 25.9821 79.2332 26.0621 79.1826 26.1095L79.1257 26.1642C79.0797 26.2091 79.0284 26.2604 78.9731 26.3173C78.8151 26.4797 78.6571 26.6535 78.5099 26.8313C78.3598 27.0127 78.2296 27.1881 78.1251 27.3533C77.8017 27.8645 77.7655 28.1946 78.0418 28.3328C78.1037 28.3637 78.129 28.4395 78.0985 28.5021C78.068 28.5647 77.9931 28.5904 77.9313 28.5595C77.4678 28.3277 77.5214 27.8389 77.9149 27.2169C78.0257 27.0418 78.1621 26.858 78.3185 26.669C78.4704 26.4854 78.6329 26.3068 78.7953 26.1398L78.8774 26.0565L78.9951 25.941C79.0025 25.9339 79.0085 25.9282 79.013 25.924Z" fill="#DD936F"/>
<path d="M79.535 27.3494C79.5733 27.4074 79.558 27.4859 79.5008 27.5248L79.4424 27.5655C79.3952 27.5989 79.3426 27.6373 79.2858 27.6798C79.1236 27.8014 78.9615 27.9322 78.8106 28.0669C78.6349 28.2237 78.4864 28.3753 78.3739 28.5168C78.1243 28.8307 78.0853 29.0381 78.2526 29.1575C78.342 29.2213 78.4504 29.2323 78.5824 29.1942C78.7239 29.1533 78.8819 29.0587 79.0442 28.9263C79.1255 28.8599 79.2024 28.7885 79.2723 28.7171L79.3482 28.6364C79.3524 28.6317 79.3561 28.6275 79.3591 28.624C79.4043 28.5712 79.4831 28.5656 79.5352 28.6113C79.5873 28.6571 79.5929 28.7369 79.5477 28.7896L79.5183 28.8228C79.5002 28.8426 79.4771 28.8671 79.4496 28.8951C79.3735 28.9728 79.2899 29.0504 79.2008 29.1231C79.0149 29.2749 78.8301 29.3856 78.6509 29.4373C78.4513 29.4949 78.2657 29.4761 78.1088 29.3641C77.7836 29.132 77.8516 28.7705 78.1794 28.3582C78.302 28.2041 78.4601 28.0428 78.6455 27.8773C78.8022 27.7374 78.9698 27.6023 79.1372 27.4767L79.2218 27.4141L79.3618 27.3147C79.4191 27.2759 79.4966 27.2914 79.535 27.3494Z" fill="#DD936F"/>
<path d="M79.7287 28.4737C79.7973 28.4672 79.8581 28.5184 79.8645 28.5879C79.8709 28.6574 79.8204 28.719 79.7517 28.7254C79.6048 28.7392 79.4087 28.8615 79.1653 29.1165C78.6558 29.6505 78.5364 30.0027 78.6635 30.0894C78.7983 30.1814 79.1512 30.0454 79.3927 29.7392C79.4895 29.6165 79.6765 29.747 79.5977 29.8822C79.3232 30.3538 79.0165 30.6982 78.6604 30.9614L78.5662 31.0294C78.3857 31.1563 78.2406 31.2343 77.9179 31.3835L77.6742 31.4949C76.9192 31.837 76.6249 32.1196 76.4193 32.8968C76.4014 32.9643 76.333 33.0043 76.2664 32.9862C76.1998 32.9681 76.1603 32.8988 76.1781 32.8314C76.3999 31.9933 76.7357 31.6535 77.5052 31.2949L77.8587 31.1329C78.1844 30.9811 78.3086 30.9084 78.5132 30.7572C78.6665 30.6439 78.81 30.5141 78.9456 30.363L78.9669 30.3384L78.9389 30.3463C78.7947 30.3828 78.6587 30.3758 78.5522 30.3165L78.524 30.2991C78.2083 30.0837 78.3807 29.575 78.9858 28.9408C79.2667 28.6464 79.511 28.4942 79.7287 28.4737Z" fill="#DD936F"/>
<path d="M76.7943 26.8865C76.8563 26.8853 76.9087 26.9302 76.9195 26.99L76.9215 27.0105L76.9526 28.668L76.9845 28.7341L77.0088 28.7873C77.0602 28.9018 77.1114 29.0295 77.1593 29.1674C77.3047 29.586 77.3884 30.007 77.3785 30.404C77.3696 30.7625 77.2834 31.0836 77.107 31.3549C77.0691 31.4132 76.9917 31.4293 76.9341 31.3909C76.8765 31.3526 76.8606 31.2742 76.8985 31.2159C77.0472 30.9871 77.1211 30.7117 77.129 30.3976C77.138 30.0356 77.0599 29.6433 76.9238 29.2512C76.8785 29.1207 76.8299 28.9998 76.7815 28.8918L76.7437 28.81C76.733 28.7877 76.7244 28.7706 76.7184 28.7591C76.7122 28.7474 76.708 28.7348 76.7057 28.7218L76.7038 28.7022L76.6719 27.0153C76.6706 26.9455 76.7254 26.8879 76.7943 26.8865Z" fill="#DD936F"/>
<path fill-rule="evenodd" clip-rule="evenodd" d="M53.7213 105.604C53.7142 105.516 59.0592 134.445 59 136.009C58.8392 140.277 58.6686 140.869 60.8745 142.091C61.4396 142.403 62.322 142.11 63.1947 143.186C65.5839 146.13 69.1731 147.885 69.6972 146.268C70.054 144.749 64.3515 139.636 63.8854 136.449C63.4011 133.137 62.252 103.879 61.6372 101.018C60.5373 95.9032 52.601 87.3915 53.7213 105.604Z" fill="#FFC999"/>
<path fill-rule="evenodd" clip-rule="evenodd" d="M59.4044 142.582C59.4044 142.582 58.426 140.209 59.006 137.39C59.006 137.39 61.1719 139.246 62.7522 141.235C64.577 143.53 65.0366 143.662 65.0366 143.662C67.4134 144.517 68.0113 143.144 68.0113 143.144C68.0113 143.144 69.2554 144.906 71.6563 146.847C73.8059 148.586 65.1863 148.572 64.0959 146.323C63.0055 144.075 61.5039 142.726 61.5039 142.726L60.697 146.033L59.8784 145.977L59.4044 142.582Z" fill="#253368"/>
<path fill-rule="evenodd" clip-rule="evenodd" d="M62.986 94.795L65.1792 129.06L51.1133 129.527C51.1133 129.527 50.3471 112.874 49.8185 95.7916C49.8185 95.7916 48.9442 86.9059 55.8972 86.5216C62.8502 86.1373 62.986 94.795 62.986 94.795Z" fill="#E4EBF7"/>
<path fill-rule="evenodd" clip-rule="evenodd" d="M62.7895 94.9708C62.2094 81.2068 60.6587 66.4999 59.3711 63.5125C59.3711 63.5125 57.8217 61.7218 53.3125 64.6835C48.0547 68.1366 49.0833 72.4974 49.0833 72.4974L49.9094 95.694C50.0484 97.513 50.689 103.156 57.585 102.316C64.3727 101.488 62.8022 95.2708 62.7895 94.9708Z" fill="#E4EBF7"/>
<path fill-rule="evenodd" clip-rule="evenodd" d="M46.2572 55.3629C48.8567 56.2189 55.5545 56.2871 56.3666 56.0056C57.1784 55.7242 56.5674 54.157 56.5674 54.157C60.1502 46.0329 60.0998 46.1549 60.341 44.4453C60.5802 42.7472 59.2945 39.6771 59.2945 39.6771C59.2945 39.6771 60.4334 36.4484 60.0819 35.4946C59.6066 34.2049 54.9448 34.4033 54.1076 33.8819C53.2705 33.3602 53.372 31.6783 53.372 31.6783L46.9955 31.0283C46.9955 31.0283 46.8067 32.9301 46.4164 33.4894C45.6573 34.5757 43.2994 33.2501 41.4236 35.4211C38.0712 39.3014 43.9332 47.5833 45.8396 52.8996C45.8396 52.8996 44.9435 54.0881 46.2572 55.3629Z" fill="#597EF7"/>
<path d="M48.4308 33.7261L53.7888 34.4637C53.8779 34.476 53.9403 34.559 53.9282 34.6492C53.9171 34.7319 53.8472 34.7919 53.7671 34.7918L53.745 34.7903L48.3869 34.0527C48.2979 34.0404 48.2355 33.9574 48.2476 33.8672C48.2587 33.7845 48.3285 33.7246 48.4087 33.7246L48.4308 33.7261Z" fill="#253368"/>
<path d="M49.7183 34.6941L53.4378 35.499C53.5257 35.518 53.5817 35.6056 53.5629 35.6946C53.5457 35.7762 53.4716 35.8307 53.3916 35.8245L53.3697 35.8213L49.6503 35.0165C49.5624 34.9974 49.5063 34.9099 49.5251 34.8209C49.5423 34.7393 49.6164 34.6848 49.6964 34.6909L49.7183 34.6941Z" fill="#253368"/>
<path d="M46.7022 43.2504C46.7679 43.1883 46.8709 43.192 46.9322 43.2586L46.9581 43.2853C46.9944 43.3213 47.052 43.3739 47.1307 43.4385C47.3022 43.5791 47.508 43.7202 47.7478 43.8522C48.6957 44.374 49.8649 44.6016 51.256 44.3695L51.3758 44.3485C51.8837 44.2549 53.0807 44.2684 54.7779 44.3606L55.2507 44.3876C55.4908 44.4019 55.7364 44.4175 55.9863 44.4342L56.2375 44.4512C56.6899 44.4824 57.1339 44.5154 57.5563 44.5488L58.3893 44.6174C58.4788 44.6253 58.5451 44.7051 58.5374 44.7958C58.5296 44.8865 58.4507 44.9536 58.3611 44.9457L57.8391 44.902L57.3186 44.8608C56.9618 44.8332 56.5914 44.806 56.2154 44.7801L55.7173 44.7468C55.4712 44.7309 55.2297 44.7162 54.9941 44.7028L54.4337 44.6727C52.9749 44.5997 51.9254 44.5919 51.4666 44.6671L51.4341 44.6728C49.9143 44.9526 48.6304 44.7132 47.5923 44.1418C47.3345 43.9999 47.1123 43.8475 46.9259 43.6946L46.8556 43.6356C46.7798 43.5702 46.726 43.5179 46.6941 43.4833C46.6328 43.4167 46.6364 43.3124 46.7022 43.2504Z" fill="#253368"/>
<path d="M59.1933 37.6135C59.2756 37.6106 59.3458 37.6702 59.3593 37.7502L59.3615 37.7725L59.427 39.7071L59.4619 39.7897C59.4992 39.8794 59.5408 39.9821 59.5854 40.0962C59.713 40.4219 59.8405 40.7743 59.9596 41.1408C60.1208 41.637 60.2537 42.1202 60.3487 42.5765C60.4694 43.1559 60.5247 43.6718 60.5023 44.1092C60.4667 44.8021 60.2762 45.6787 59.9596 46.6991C59.8044 47.1995 59.6216 47.7251 59.4169 48.2671C59.1795 48.8959 58.9251 49.5142 58.6708 50.0958L58.5422 50.3865L58.38 50.7433C58.3582 50.7904 58.3417 50.8256 58.3309 50.8483C58.292 50.9303 58.1948 50.9648 58.1137 50.9254C58.0327 50.8859 57.9986 50.7875 58.0376 50.7054L58.1295 50.5074L58.2458 50.2504C58.2865 50.1594 58.329 50.0633 58.3732 49.9624C58.6254 49.3857 58.8776 48.7725 59.1129 48.1494C59.3153 47.6133 59.496 47.0939 59.6491 46.6003C59.9581 45.6041 60.1433 44.752 60.1772 44.0921C60.198 43.6872 60.1455 43.1982 60.0302 42.6445C59.9379 42.2011 59.8081 41.7292 59.6504 41.2438C59.553 40.9439 59.4497 40.6534 59.3455 40.3798L59.2829 40.2177C59.2478 40.1282 59.2148 40.0459 59.1843 39.9718L59.1167 39.8108C59.1111 39.798 59.1072 39.7845 59.105 39.7707L59.1029 39.7498L59.0362 37.7838C59.0331 37.6929 59.1034 37.6166 59.1933 37.6135Z" fill="#253368"/>
<path fill-rule="evenodd" clip-rule="evenodd" d="M54.1592 73.4497L60.22 67.613C60.22 67.613 59.5049 60.9157 56.619 57.8014L45.5907 56.5655C45.5907 56.5655 41.0279 58.8205 38.8945 67.3009L48.6397 73.0756L54.1592 73.4497Z" fill="#E4EBF7"/>
<path fill-rule="evenodd" clip-rule="evenodd" d="M45.3223 56.6766L56.6184 57.8015L56.4677 56.0267L45.8317 54.8876L45.3223 56.6766Z" fill="#E4EBF7"/>
<path d="M52.6747 57.509C52.7421 57.5063 52.7989 57.5594 52.8016 57.6276C52.8449 58.7199 52.8524 59.9 52.8274 61.155C52.781 63.4789 52.6265 65.9651 52.3978 68.4757L52.3526 68.9626C52.2764 69.7659 52.1967 70.5266 52.1168 71.2318L52.053 71.7823L51.954 72.5818C51.945 72.6495 51.8835 72.6969 51.8167 72.6878C51.7499 72.6787 51.7031 72.6165 51.712 72.5488L51.7733 72.0623C51.7973 71.8663 51.8231 71.6494 51.8503 71.4131L51.8982 70.9908C51.9858 70.2046 52.0728 69.353 52.1547 68.453C52.3829 65.9479 52.5371 63.4674 52.5833 61.15C52.6082 59.8997 52.6007 58.7245 52.5577 57.6375C52.555 57.5693 52.6074 57.5118 52.6747 57.509Z" fill="#A3B5D6"/>
<path d="M45.356 56.6466L56.4312 57.6891C56.4983 57.6954 56.5477 57.7556 56.5414 57.8236C56.5358 57.8848 56.4871 57.9314 56.4284 57.9355L56.4086 57.9352L45.3334 56.8927C45.2663 56.8864 45.2169 56.8262 45.2232 56.7582C45.2288 56.6971 45.2775 56.6505 45.3362 56.6464L45.356 56.6466Z" fill="#A3B5D6"/>
<path fill-rule="evenodd" clip-rule="evenodd" d="M45.1883 112.092C45.2013 112.005 42.7525 133.672 42.7063 135.236C42.581 139.505 43.0487 140.105 40.766 141.172C40.1814 141.445 39.3205 141.092 38.3778 142.105C35.7969 144.878 32.0983 146.382 31.6836 144.734C31.4294 143.193 37.4615 138.485 38.1405 135.336C38.8456 132.066 35.4278 106.463 37.7089 104.664C39.9903 102.866 44.9269 94.1194 45.1883 112.092Z" fill="#FFC999"/>
<path fill-rule="evenodd" clip-rule="evenodd" d="M42.2026 141.763C42.2026 141.763 43.0007 139.466 42.6108 136.613C42.6108 136.613 40.663 138.314 38.9531 140.189C36.9787 142.354 36.5109 142.454 36.5109 142.454C34.0827 143.143 33.5778 141.732 33.5778 141.732C33.5778 141.732 32.2185 143.405 29.6933 145.177C27.4321 146.764 36.0324 147.343 37.2713 145.174C38.5098 143.005 40.0986 141.762 40.0986 141.762L40.6815 145.118L41.5025 145.118L42.2026 141.763Z" fill="#253368"/>
<path fill-rule="evenodd" clip-rule="evenodd" d="M36.5412 91.309L33.5977 128.6L46.6193 129.688C46.6193 129.688 48.903 109.583 49.692 92.5117C49.692 92.5117 50.7017 83.6404 43.7555 83.1477C36.809 82.6546 36.5412 91.309 36.5412 91.309Z" fill="#E4EBF7"/>
<path fill-rule="evenodd" clip-rule="evenodd" d="M49.6241 91.883C51.1237 78.1906 51.8313 63.0752 51.0082 59.9244C51.0082 59.9244 49.7468 57.9152 44.8445 60.1462C39.128 62.7473 38.9471 67.6733 38.9471 67.6733L36.4573 90.5314C36.3206 92.3507 35.7738 97.6396 42.6545 98.5948C49.4278 99.5351 49.5916 92.1813 49.6241 91.883Z" fill="#E4EBF7"/>
<path fill-rule="evenodd" clip-rule="evenodd" d="M40.9756 52.9462C40.9756 52.9462 45.3903 43.337 46.0772 40.9435C47.7349 35.1622 45.1651 34.0337 42.2138 35.357C38.6561 36.9522 34.3439 52.6558 34.3439 52.6558C34.3439 52.6558 33.962 54.6476 36.2737 55.7438C39.006 57.0397 40.9756 52.9462 40.9756 52.9462Z" fill="#FFC999"/>
<path fill-rule="evenodd" clip-rule="evenodd" d="M43.634 47.0999C44.0122 46.0083 49.977 36.7577 44.7771 34.4087C41.3851 32.8761 39.5558 36.0319 36.5859 44.126L43.634 47.0999Z" fill="#597EF7"/>
<path fill-rule="evenodd" clip-rule="evenodd" d="M57.4502 53.9693C57.3523 54.9742 56.5281 55.7464 55.5314 55.7682L38.0061 56.1511C35.9936 56.195 34.383 54.4712 34.5376 52.439C34.6887 50.4525 36.4659 49.0089 38.4137 49.2904L55.7674 51.7973C56.8122 51.9482 57.5541 52.9057 57.4502 53.9693Z" fill="#FFC999"/>
<path fill-rule="evenodd" clip-rule="evenodd" d="M56.0156 58.5325L59.8686 46.3281C59.9324 46.1267 60.1156 45.9893 60.3243 45.9863L71.1289 45.8383C71.4642 45.8337 71.7031 46.1673 71.5941 46.4886L67.5719 58.369C67.5074 58.5602 67.3336 58.6917 67.1344 58.7006L56.499 59.1729C56.1618 59.1877 55.9128 58.8581 56.0156 58.5325Z" fill="#253368"/>
<path fill-rule="evenodd" clip-rule="evenodd" d="M56.585 58.3837L60.3709 46.3919C60.448 46.1483 60.67 45.9819 60.9226 45.9782L71.8607 45.8282C72.0954 45.825 72.2624 46.0583 72.1862 46.2831L68.108 58.328C68.0364 58.5396 67.8444 58.6852 67.6237 58.6948L57.1702 59.1592C56.7617 59.1773 56.4606 58.7778 56.585 58.3837Z" fill="#253368"/>
<path fill-rule="evenodd" clip-rule="evenodd" d="M61.8515 47.1338C61.9736 47.2716 61.9296 47.5135 61.7532 47.6743C61.5764 47.8351 61.3343 47.8539 61.2119 47.7162C61.0895 47.5784 61.1334 47.3365 61.3102 47.1753C61.4866 47.0148 61.7291 46.996 61.8515 47.1338Z" fill="#ADC6FF"/>
<path fill-rule="evenodd" clip-rule="evenodd" d="M61.7078 47.2779C61.7713 47.3494 61.7485 47.475 61.6567 47.5587C61.5652 47.6417 61.4393 47.6516 61.3758 47.5801C61.3123 47.5086 61.3351 47.383 61.4269 47.2996C61.5184 47.2162 61.6443 47.2064 61.7078 47.2779Z" fill="#E4EBF7"/>
<path fill-rule="evenodd" clip-rule="evenodd" d="M60.8245 56.2378C61.4452 56.1768 61.772 55.9141 61.7131 55.3904C62.4598 55.1524 62.3762 54.512 62.3762 54.512C62.3762 54.512 63.8136 54.4896 64.0554 53.868C64.1492 53.6264 63.9669 53.3677 63.7114 53.3502C60.6321 53.139 58.4366 51.4871 58.4366 51.4871C58.4366 51.4871 59.6468 49.6868 59.5189 48.8563C59.4812 48.6104 59.1638 48.5313 59.0157 48.7294C57.7462 50.4258 55.2005 51.756 55.2005 51.756C55.2005 51.756 52.1447 54.6548 55.4596 55.9695C55.4596 55.9695 57.9861 56.9889 59.7458 56.86C60.5784 56.7987 60.8245 56.2378 60.8245 56.2378Z" fill="#FFC999"/>
<path d="M60.1118 53.9593C60.1375 53.9128 60.1956 53.8961 60.2415 53.9222C60.462 54.047 60.7198 54.1487 61.0073 54.2291C61.3497 54.3248 61.7174 54.386 62.0874 54.4192C62.2733 54.4359 62.4318 54.4435 62.5514 54.4454L62.6379 54.4458C62.6906 54.4451 62.7338 54.4877 62.7346 54.541C62.7352 54.5884 62.702 54.6283 62.6576 54.6371L62.6405 54.6389L62.594 54.639C62.4655 54.6384 62.2855 54.631 62.0705 54.6116C61.6899 54.5774 61.3112 54.5144 60.9566 54.4153C60.6552 54.331 60.3835 54.2238 60.1485 54.0907C60.1025 54.0647 60.086 54.0059 60.1118 53.9593Z" fill="#DD936F"/>
<path d="M59.822 54.9174C59.8449 54.8693 59.902 54.8492 59.9494 54.8724L60.0349 54.9129C60.4007 55.08 60.7935 55.1872 61.188 55.2461C61.4316 55.2824 61.6268 55.2941 61.7481 55.2933C61.8022 55.2925 61.8455 55.3352 61.8462 55.3885C61.8469 55.4359 61.8137 55.4758 61.7693 55.4846L61.7522 55.4864L61.712 55.4863L61.6266 55.484C61.5036 55.4787 61.3449 55.4647 61.1602 55.4371C60.7494 55.3759 60.3398 55.2641 59.9564 55.0889L59.8664 55.0463C59.819 55.0231 59.7991 54.9654 59.822 54.9174Z" fill="#DD936F"/>
<path d="M59.2751 55.9881C59.2981 55.9401 59.3551 55.92 59.4025 55.9432C59.5039 55.9928 59.7433 56.0391 60.0689 56.0772C60.2354 56.0966 60.414 56.1128 60.5927 56.1259L60.7655 56.1376L60.8306 56.1413C60.8832 56.144 60.9237 56.1894 60.921 56.2427C60.9183 56.296 60.8735 56.3369 60.8209 56.3342L60.7541 56.3304C60.7012 56.3272 60.6423 56.3232 60.579 56.3186C60.3978 56.3053 60.2165 56.2889 60.0471 56.2691L59.913 56.2523C59.634 56.2151 59.4305 56.1714 59.3195 56.1171C59.2721 56.0939 59.2522 56.0361 59.2751 55.9881Z" fill="#DD936F"/>
<path d="M38.4095 49.1938L38.4267 49.1946L55.3471 51.5354C55.3993 51.5426 55.4358 51.5913 55.4287 51.6441C55.4224 51.6911 55.3837 51.7255 55.3385 51.7275L55.3213 51.7267L38.4008 49.386C38.3486 49.3788 38.3121 49.3301 38.3192 49.2772C38.3256 49.2303 38.3643 49.1958 38.4095 49.1938Z" fill="#DD936F"/>
<path d="M55.9244 71.1415C55.98 71.103 56.056 71.1174 56.094 71.1738C56.1278 71.2239 56.1203 71.2902 56.0791 71.3314L56.0621 71.3456L51.5919 74.4391L46.7414 128.381C46.7359 128.442 46.6872 128.489 46.6286 128.493H46.6087C46.5483 128.488 46.5022 128.438 46.498 128.379L46.4983 128.359L51.3541 74.3588C51.3567 74.3294 51.3696 74.3022 51.39 74.2819L51.4067 74.268L55.9244 71.1415Z" fill="#A3B5D6"/>
<path d="M45.7746 42.1146C45.8111 42.0314 45.9072 41.994 45.9894 42.031C46.0647 42.0648 46.102 42.1495 46.0796 42.2274L46.072 42.2485L43.8723 47.2596C43.8387 47.3359 43.7549 47.3737 43.6779 47.3508L43.6571 47.3431L36.692 44.1879C36.61 44.1507 36.5732 44.0533 36.6099 43.9702C36.6436 43.894 36.7273 43.8564 36.8042 43.8793L36.825 43.887L43.6408 46.9745L45.7746 42.1146Z" fill="#253368"/>
</svg>
