<svg width="300" height="300" viewBox="0 0 126 95" fill="none" xmlns="http://www.w3.org/2000/svg">
<path d="M125.916 83.0632H0.335938V83.126H125.916V83.0632Z" fill="#EBEBEB"/>
<path d="M41.6739 86.9361H33.3555V86.9989H41.6739V86.9361Z" fill="#EBEBEB"/>
<path d="M65.3466 86.2555H63.1641V86.3183H65.3466V86.2555Z" fill="#EBEBEB"/>
<path d="M18.3315 85.1956H13.5117V85.2584H18.3315V85.1956Z" fill="#EBEBEB"/>
<path d="M104.763 84.7737H98.2129V84.8365H104.763V84.7737Z" fill="#EBEBEB"/>
<path d="M95.9751 84.7737H90.0879V84.8365H95.9751V84.7737Z" fill="#EBEBEB"/>
<path d="M113.335 87.7876H89.8066V87.8504H113.335V87.7876Z" fill="#EBEBEB"/>
<path d="M59.8616 71.8615H11.3652C10.9853 71.8609 10.6212 71.7095 10.3527 71.4406C10.0843 71.1717 9.93359 70.8073 9.93359 70.4274V2.25524C9.9369 1.8775 10.0891 1.51632 10.3572 1.25016C10.6252 0.983988 10.9875 0.834326 11.3652 0.833679H59.8616C60.2419 0.833679 60.6067 0.984774 60.8756 1.25372C61.1446 1.52267 61.2957 1.88745 61.2957 2.2678V70.4274C61.2957 70.8078 61.1446 71.1726 60.8756 71.4415C60.6067 71.7105 60.2419 71.8615 59.8616 71.8615ZM11.3652 0.883911C11.0019 0.884577 10.6538 1.02935 10.3971 1.28645C10.1405 1.54355 9.99638 1.89198 9.99638 2.25524V70.4274C9.99638 70.7907 10.1405 71.1391 10.3971 71.3962C10.6538 71.6533 11.0019 71.7981 11.3652 71.7988H59.8616C60.2251 71.7981 60.5735 71.6534 60.8305 71.3964C61.0875 71.1393 61.2322 70.7909 61.2329 70.4274V2.25524C61.2322 1.89175 61.0875 1.54333 60.8305 1.2863C60.5735 1.02927 60.2251 0.884575 59.8616 0.883911H11.3652Z" fill="#EBEBEB"/>
<path d="M114.189 71.8615H65.69C65.3098 71.8609 64.9454 71.7096 64.6766 71.4408C64.4078 71.172 64.2565 70.8076 64.2559 70.4274V2.25524C64.2598 1.87727 64.4126 1.5161 64.681 1.25C64.9495 0.9839 65.312 0.834319 65.69 0.833679H114.189C114.566 0.834986 114.928 0.98494 115.195 1.25104C115.463 1.51714 115.615 1.87794 115.618 2.25524V70.4274C115.618 70.8069 115.468 71.1709 115.2 71.4397C114.932 71.7085 114.568 71.8602 114.189 71.8615ZM65.69 0.883911C65.3265 0.884575 64.9781 1.02927 64.721 1.2863C64.464 1.54333 64.3193 1.89175 64.3186 2.25524V70.4274C64.3193 70.7909 64.464 71.1393 64.721 71.3964C64.9781 71.6534 65.3265 71.7981 65.69 71.7988H114.189C114.552 71.7981 114.901 71.6534 115.158 71.3964C115.415 71.1393 115.56 70.7909 115.56 70.4274V2.25524C115.56 1.89175 115.415 1.54333 115.158 1.2863C114.901 1.02927 114.552 0.884575 114.189 0.883911H65.69Z" fill="#EBEBEB"/>
<path d="M80.3547 82.3148H86.2695V56.4353H80.3547V82.3148Z" fill="#F0F0F0"/>
<path d="M59.0959 83.0632H85.1387V82.3148H59.0959V83.0632Z" fill="#F0F0F0"/>
<path d="M80.3554 56.4353H57.957V82.3148H80.3554V56.4353Z" fill="#F5F5F5"/>
<path d="M78.0301 57.8871H60.2832V68.7974H78.0301V57.8871Z" fill="#F0F0F0"/>
<path d="M78.0301 69.9527H60.2832V80.8631H78.0301V69.9527Z" fill="#F0F0F0"/>
<path d="M73.7562 59.7883H64.5562C64.2685 59.7887 63.9836 59.7321 63.7179 59.622C63.4521 59.5118 63.2108 59.3502 63.0077 59.1464C62.8046 58.9426 62.6439 58.7007 62.5346 58.4346C62.4254 58.1685 62.3698 57.8834 62.3711 57.5957H75.9337C75.9351 57.8827 75.8797 58.1672 75.771 58.4329C75.6622 58.6985 75.5021 58.9401 75.2998 59.1437C75.0975 59.3474 74.8571 59.5092 74.5922 59.6198C74.3273 59.7304 74.0432 59.7877 73.7562 59.7883Z" fill="#F5F5F5"/>
<path d="M73.7575 71.854H64.5576C63.9787 71.854 63.4236 71.6241 63.0143 71.2147C62.6049 70.8054 62.375 70.2503 62.375 69.6714H75.9376C75.9376 70.2499 75.708 70.8046 75.2992 71.2139C74.8905 71.6231 74.336 71.8533 73.7575 71.854Z" fill="#F5F5F5"/>
<path d="M104.513 82.3148H110.428V56.4353H104.513V82.3148Z" fill="#F0F0F0"/>
<path d="M83.2483 83.0632H109.291V82.3148H83.2483V83.0632Z" fill="#F0F0F0"/>
<path d="M104.512 56.4353H82.1133V82.3148H104.512V56.4353Z" fill="#F5F5F5"/>
<path d="M102.186 57.8871H84.4395V68.7974H102.186V57.8871Z" fill="#F0F0F0"/>
<path d="M102.186 69.9527H84.4395V80.8631H102.186V69.9527Z" fill="#F0F0F0"/>
<path d="M97.9118 59.7883H88.7119C88.133 59.7883 87.5779 59.5584 87.1686 59.1491C86.7593 58.7397 86.5293 58.1846 86.5293 57.6057H100.092C100.092 58.1842 99.8623 58.7389 99.4535 59.1482C99.0448 59.5574 98.4903 59.7877 97.9118 59.7883Z" fill="#F5F5F5"/>
<path d="M97.9118 71.854H88.7119C88.133 71.854 87.5779 71.6241 87.1686 71.2147C86.7593 70.8054 86.5293 70.2503 86.5293 69.6714H100.092C100.092 70.2499 99.8623 70.8046 99.4535 71.2139C99.0448 71.6231 98.4903 71.8533 97.9118 71.854Z" fill="#F5F5F5"/>
<path d="M28.3214 21.6648H38.4531V9.95326L28.3214 9.95326V21.6648Z" fill="#E6E6E6"/>
<path d="M27.1658 21.6648H38.1816V9.95326L27.1658 9.95326V21.6648Z" fill="#F5F5F5"/>
<path d="M37.2559 20.7431V10.8776H28.086V20.7431H37.2559Z" fill="white"/>
<path d="M35.0368 18.3521V17.9929C35.0361 16.7401 34.5382 15.5389 33.6524 14.653C32.7665 13.7672 31.5653 13.2692 30.3125 13.2686V13.6277C30.3125 14.8807 30.8102 16.0824 31.6962 16.9683C32.5822 17.8543 33.7838 18.3521 35.0368 18.3521Z" fill="#F5F5F5"/>
<path d="M72.3269 43.7694L110.428 43.7694V8.12984L72.3269 8.12984V43.7694Z" fill="#E6E6E6"/>
<path d="M71.1482 43.7694L109.877 43.7694V8.12984L71.1482 8.12984V43.7694Z" fill="#F0F0F0"/>
<path d="M72.3269 45.0402L110.428 45.0402V43.7694L72.3269 43.7694V45.0402Z" fill="#E6E6E6"/>
<path d="M69.1794 45.0402L107.908 45.0402V43.7694L69.1794 43.7694V45.0402Z" fill="#F0F0F0"/>
<path d="M108.221 41.8555V10.0437L72.7972 10.0437V41.8555H108.221Z" fill="#FAFAFA"/>
<path d="M98.1782 41.8581L92.2785 10.0437H82.5586L88.4583 41.8581H98.1782Z" fill="white"/>
<path d="M107.458 31.0632C107.492 31.0606 107.523 31.045 107.545 31.0196C107.567 30.9942 107.578 30.9612 107.576 30.9276V11.2894C107.576 11.2581 107.564 11.2281 107.542 11.206C107.519 11.1838 107.489 11.1714 107.458 11.1714C107.427 11.1714 107.397 11.1838 107.375 11.206C107.353 11.2281 107.34 11.2581 107.34 11.2894V30.9276C107.338 30.9612 107.349 30.9942 107.371 31.0196C107.393 31.045 107.425 31.0606 107.458 31.0632Z" fill="#F0F0F0"/>
<path d="M86.3688 41.8581L80.4716 10.0437H76.6816L82.5789 41.8581H86.3688Z" fill="white"/>
<path d="M73.0098 41.8555V10.0437H72.7988V41.8555H73.0098Z" fill="#E6E6E6"/>
<path opacity="0.4" d="M70.7559 12.4925H108.854L109.007 10.7896H70.9066L70.7559 12.4925Z" fill="#E6E6E6"/>
<path opacity="0.4" d="M70.7559 14.4541H108.854L109.007 12.7487H70.9066L70.7559 14.4541Z" fill="#E6E6E6"/>
<path opacity="0.4" d="M70.7559 16.4131H108.854L109.007 14.7102H70.9066L70.7559 16.4131Z" fill="#E6E6E6"/>
<path opacity="0.4" d="M70.7559 18.3746H108.854L109.007 16.6693H70.9066L70.7559 18.3746Z" fill="#E6E6E6"/>
<path opacity="0.4" d="M70.7559 20.3337H108.854L109.007 18.6308H70.9066L70.7559 20.3337Z" fill="#E6E6E6"/>
<path opacity="0.4" d="M70.7559 22.2953H108.854L109.007 20.5899H70.9066L70.7559 22.2953Z" fill="#E6E6E6"/>
<path opacity="0.4" d="M70.7559 24.2543H108.854L109.007 22.5514H70.9066L70.7559 24.2543Z" fill="#E6E6E6"/>
<path opacity="0.4" d="M70.7559 26.2158H108.854L109.007 24.5105H70.9066L70.7559 26.2158Z" fill="#E6E6E6"/>
<path opacity="0.4" d="M70.7559 28.1749H108.854L109.007 26.472H70.9066L70.7559 28.1749Z" fill="#E6E6E6"/>
<path d="M21.137 40.7705H29.041V31.7012H21.137V40.7705Z" fill="#E6E6E6"/>
<path d="M20.2435 40.7705H28.7754V31.7012H20.2435V40.7705Z" fill="#F5F5F5"/>
<path d="M28.0605 40.0547V32.4145H20.9578V40.0547H28.0605Z" fill="white"/>
<path d="M26.3388 36.3753V36.0965C26.3388 35.8561 26.2914 35.6182 26.1994 35.3962C26.1073 35.1742 25.9724 34.9725 25.8024 34.8027C25.6323 34.6329 25.4305 34.4982 25.2083 34.4065C24.9862 34.3148 24.7482 34.2677 24.5078 34.268C24.0247 34.2707 23.5622 34.4645 23.2214 34.8071C22.8807 35.1497 22.6894 35.6133 22.6895 36.0965V36.3753C22.6895 36.8602 22.8821 37.3253 23.225 37.6682C23.5679 38.0111 24.033 38.2037 24.5179 38.2037C25.0015 38.2017 25.4647 38.0082 25.8059 37.6655C26.1472 37.3228 26.3388 36.8589 26.3388 36.3753Z" fill="#F5F5F5"/>
<path d="M40.8505 37.5205H51.7031V25.0178H40.8505V37.5205Z" fill="#E6E6E6"/>
<path d="M39.6196 37.5205H51.3789V25.0178H39.6196V37.5205Z" fill="#F5F5F5"/>
<path d="M50.3945 36.5385V26.0074H40.6043V36.5385H50.3945Z" fill="white"/>
<path d="M45.9086 29.3177L47.7672 32.5375C47.8086 32.6093 47.8304 32.6908 47.8304 32.7737C47.8304 32.8567 47.8085 32.9381 47.767 33.0099C47.7255 33.0817 47.6659 33.1413 47.594 33.1827C47.5222 33.2241 47.4407 33.2459 47.3578 33.2458H43.6406C43.5577 33.2459 43.4762 33.2241 43.4044 33.1827C43.3325 33.1413 43.2728 33.0817 43.2313 33.0099C43.1898 32.9381 43.168 32.8567 43.168 32.7737C43.1679 32.6908 43.1898 32.6093 43.2312 32.5375L45.0898 29.3177C45.1317 29.2463 45.1915 29.1871 45.2633 29.146C45.3351 29.1049 45.4164 29.0832 45.4992 29.0832C45.5819 29.0832 45.6633 29.1049 45.7351 29.146C45.8069 29.1871 45.8667 29.2463 45.9086 29.3177Z" fill="#F5F5F5"/>
<path d="M22.9451 83.0607H28.9102L28.9102 64.2539H22.9451L22.9451 83.0607Z" fill="#E6E6E6"/>
<path d="M24.078 83.0633H22.9453V79.8409H25.266L24.078 83.0633Z" fill="#F0F0F0"/>
<path d="M45.2361 83.0607H51.2012V64.2539H45.2361V83.0607Z" fill="#E6E6E6"/>
<path d="M22.9472 81.0841H46.2246V64.254H22.9472L22.9472 81.0841Z" fill="#F0F0F0"/>
<path d="M23.8242 65.3113V77.058H34.2046V65.3113H23.8242Z" fill="#E6E6E6"/>
<path d="M34.9648 65.3113V77.058H45.3453V65.3113H34.9648Z" fill="#E6E6E6"/>
<path d="M39.1307 66.213H41.1827C41.6234 66.2143 42.0597 66.1259 42.4652 65.9532C42.8706 65.7805 43.2367 65.5271 43.5411 65.2083H36.7598C37.0654 65.5288 37.4335 65.7833 37.8412 65.9561C38.249 66.1289 38.6879 66.2163 39.1307 66.213Z" fill="#F0F0F0"/>
<path d="M27.8841 66.213H29.9385C30.3792 66.2142 30.8155 66.1257 31.221 65.953C31.6264 65.7803 31.9925 65.5269 32.2969 65.2083H25.5156C25.8212 65.5283 26.1888 65.7824 26.5961 65.9552C27.0034 66.1279 27.4417 66.2157 27.8841 66.213Z" fill="#F0F0F0"/>
<path d="M45.0923 83.0633H46.225V79.8409H43.9043L45.0923 83.0633Z" fill="#F0F0F0"/>
<path d="M38.9512 61.7348C38.9507 61.9908 39.0261 62.2411 39.1679 62.4541C39.3098 62.6672 39.5116 62.8333 39.7479 62.9316C39.9842 63.0299 40.2444 63.0559 40.4954 63.0063C40.7465 62.9566 40.9772 62.8336 41.1584 62.6528C41.3395 62.472 41.463 62.2416 41.5131 61.9906C41.5632 61.7396 41.5377 61.4794 41.4399 61.2429C41.3421 61.0064 41.1763 60.8043 40.9635 60.662C40.7508 60.5198 40.5006 60.4439 40.2446 60.4439C39.9022 60.4445 39.574 60.5807 39.3316 60.8226C39.0893 61.0644 38.9525 61.3924 38.9512 61.7348Z" fill="#E0E0E0"/>
<path d="M40.83 62.1869C41.543 62.1869 42.121 61.6089 42.121 60.8959C42.121 60.183 41.543 59.605 40.83 59.605C40.117 59.605 39.5391 60.183 39.5391 60.8959C39.5391 61.6089 40.117 62.1869 40.83 62.1869Z" fill="#E0E0E0"/>
<path d="M32.4844 61.9433C32.4844 62.1986 32.5601 62.4482 32.7019 62.6605C32.8438 62.8728 33.0454 63.0383 33.2813 63.136C33.5172 63.2337 33.7768 63.2592 34.0272 63.2094C34.2776 63.1596 34.5076 63.0367 34.6882 62.8561C34.8687 62.6756 34.9917 62.4455 35.0415 62.1951C35.0913 61.9447 35.0657 61.6851 34.968 61.4492C34.8703 61.2133 34.7049 61.0117 34.4926 60.8699C34.2803 60.728 34.0307 60.6523 33.7753 60.6523C33.433 60.6523 33.1046 60.7883 32.8625 61.0304C32.6204 61.2725 32.4844 61.6009 32.4844 61.9433Z" fill="#E0E0E0"/>
<path d="M42.5594 62.6917C43.4347 62.6917 44.1442 61.9822 44.1442 61.1069C44.1442 60.2316 43.4347 59.5221 42.5594 59.5221C41.6842 59.5221 40.9746 60.2316 40.9746 61.1069C40.9746 61.9822 41.6842 62.6917 42.5594 62.6917Z" fill="#E0E0E0"/>
<path d="M37.834 59.6477C37.8335 59.9612 37.926 60.2679 38.0999 60.5288C38.2737 60.7898 38.521 60.9933 38.8106 61.1136C39.1001 61.234 39.4189 61.2657 39.7264 61.2048C40.034 61.144 40.3167 60.9932 40.5385 60.7717C40.7604 60.5502 40.9116 60.2678 40.973 59.9603C41.0343 59.6528 41.0031 59.334 40.8832 59.0443C40.7633 58.7545 40.5602 58.5069 40.2995 58.3326C40.0389 58.1584 39.7324 58.0654 39.4188 58.0654C38.9991 58.066 38.5968 58.2329 38.2998 58.5294C38.0028 58.8259 37.8353 59.228 37.834 59.6477Z" fill="#E0E0E0"/>
<path d="M35.3223 60.052C35.3218 60.3656 35.4143 60.6723 35.5881 60.9332C35.762 61.1942 36.0093 61.3977 36.2989 61.518C36.5884 61.6383 36.9071 61.6701 37.2147 61.6092C37.5223 61.5484 37.8049 61.3976 38.0268 61.1761C38.2487 60.9545 38.3999 60.6722 38.4613 60.3647C38.5226 60.0572 38.4914 59.7384 38.3715 59.4487C38.2516 59.1589 38.0485 58.9113 37.7878 58.737C37.5271 58.5628 37.2206 58.4697 36.9071 58.4697C36.4872 58.4697 36.0845 58.6364 35.7873 58.933C35.4902 59.2297 35.3229 59.6322 35.3223 60.052Z" fill="#E0E0E0"/>
<path d="M36.3848 61.3305C36.3848 61.6285 36.4731 61.9199 36.6387 62.1677C36.8043 62.4155 37.0397 62.6086 37.315 62.7227C37.5904 62.8368 37.8934 62.8666 38.1857 62.8084C38.478 62.7503 38.7466 62.6068 38.9573 62.396C39.1681 62.1853 39.3116 61.9168 39.3697 61.6244C39.4279 61.3321 39.398 61.0291 39.284 60.7538C39.1699 60.4784 38.9768 60.2431 38.7289 60.0775C38.4811 59.9119 38.1898 59.8235 37.8917 59.8235C37.4921 59.8235 37.1088 59.9823 36.8261 60.2649C36.5435 60.5475 36.3848 60.9308 36.3848 61.3305Z" fill="#E0E0E0"/>
<path d="M33.7617 61.2325C33.7617 61.5544 33.8572 61.869 34.036 62.1367C34.2148 62.4043 34.469 62.6129 34.7664 62.7361C35.0638 62.8593 35.391 62.8915 35.7067 62.8287C36.0224 62.7659 36.3124 62.6109 36.5401 62.3833C36.7677 62.1557 36.9227 61.8657 36.9855 61.55C37.0483 61.2343 37.016 60.907 36.8929 60.6097C36.7697 60.3123 36.5611 60.0581 36.2934 59.8793C36.0258 59.7004 35.7111 59.605 35.3892 59.605C34.9576 59.605 34.5436 59.7764 34.2384 60.0817C33.9332 60.3869 33.7617 60.8008 33.7617 61.2325Z" fill="#E0E0E0"/>
<path d="M45.0847 61.7348C45.0847 61.7348 44.9089 64.2464 38.11 64.2464C31.3111 64.2464 31.1328 61.7348 31.1328 61.7348H45.0847Z" fill="#F0F0F0"/>
<path d="M63.125 94.4056C90.0198 94.4056 111.822 93.1327 111.822 91.5625C111.822 89.9923 90.0198 88.7194 63.125 88.7194C36.2303 88.7194 14.4277 89.9923 14.4277 91.5625C14.4277 93.1327 36.2303 94.4056 63.125 94.4056Z" fill="#F5F5F5"/>
<path d="M84.0636 58.9796H25.9102V59.9114H84.0636V58.9796Z" fill="#E7B54A"/>
<path d="M84.0634 59.9114H96.6816V58.9796H84.0634V59.9114Z" fill="#E7B54A"/>
<path opacity="0.2" d="M84.0634 59.9114H96.6816V58.9796H84.0634V59.9114Z" fill="black"/>
<path d="M92.4665 60.9085H30.1237L28.0391 59.9114H94.5511L92.4665 60.9085Z" fill="#E7B54A"/>
<path opacity="0.6" d="M92.4665 60.9085H30.1237L28.0391 59.9114H94.5511L92.4665 60.9085Z" fill="white"/>
<path d="M32.0078 60.9085V90.6307H32.8065L33.8111 60.9085H32.0078Z" fill="#E7B54A"/>
<path d="M41.4375 60.9085V90.6307H42.2362L43.2408 60.9085H41.4375Z" fill="#E7B54A"/>
<path d="M92.4674 60.9085V90.6307H91.6712L90.6641 60.9085H92.4674Z" fill="#E7B54A"/>
<path d="M83.0416 60.9085V90.6307H82.2429L81.2383 60.9085H83.0416Z" fill="#E7B54A"/>
<path d="M64.0627 47.6975L61.4381 58.3893L61.3652 58.9796H79.4688L79.5441 58.3893L82.1663 47.6975H64.0627Z" fill="#E7B54A"/>
<path opacity="0.3" d="M64.0627 47.6975L61.4381 58.3893L61.3652 58.9796H79.4688L79.5441 58.3893L82.1663 47.6975H64.0627Z" fill="black"/>
<path d="M81.6129 47.6975H63.5069L60.8848 58.3893H78.9883L81.6129 47.6975Z" fill="#E7B54A"/>
<path d="M78.6042 57.8996L80.9902 48.1873H63.8913L61.5078 57.8996H78.6042Z" fill="white"/>
<path d="M74.2716 58.3894L74.1962 58.9796H54.2617L54.3346 58.3894H74.2716Z" fill="#E7B54A"/>
<path opacity="0.6" d="M74.2716 58.3894L74.1962 58.9796H54.2617L54.3346 58.3894H74.2716Z" fill="white"/>
<path d="M36.6129 57.0356C36.6003 56.653 36.4505 56.2878 36.1909 56.0065C35.9313 55.7252 35.5792 55.5467 35.1989 55.5035V55.2147C35.1986 55.198 35.1949 55.1815 35.1881 55.1662C35.1814 55.1509 35.1716 55.1372 35.1595 55.1257C35.1473 55.1142 35.133 55.1053 35.1173 55.0995C35.1017 55.0936 35.085 55.0909 35.0683 55.0916H32.3558C32.3389 55.0909 32.3222 55.0936 32.3064 55.0994C32.2906 55.1052 32.2761 55.1141 32.2637 55.1255C32.2513 55.137 32.2413 55.1507 32.2343 55.166C32.2273 55.1813 32.2233 55.1979 32.2227 55.2147V58.9821H35.1989V58.5702C35.5798 58.5274 35.9326 58.3487 36.1923 58.0668C36.4521 57.7849 36.6014 57.4187 36.6129 57.0356ZM35.1989 58.0829V55.9908C35.4499 56.0278 35.6792 56.1538 35.845 56.3458C36.0108 56.5379 36.1021 56.7831 36.1021 57.0368C36.1021 57.2906 36.0108 57.5358 35.845 57.7279C35.6792 57.9199 35.4499 58.0459 35.1989 58.0829Z" fill="#E7B54A"/>
<path d="M87.377 58.9796H89.8986L89.1527 53.4566H87.377V58.9796Z" fill="#263238"/>
<path d="M83.6797 58.9796H88.4567L89.3433 52.5147H84.5688L83.6797 58.9796Z" fill="#E7B54A"/>
<path opacity="0.3" d="M83.6797 58.9796H88.4567L89.3433 52.5147H84.5688L83.6797 58.9796Z" fill="black"/>
<path d="M83.041 58.9796H88.0114L88.9005 52.5147H83.9301L83.041 58.9796Z" fill="#E7B54A"/>
<path opacity="0.4" d="M87.5718 58.4697L88.3203 53.0246H84.3696L83.6211 58.4697H87.5718Z" fill="white"/>
<path d="M49.9512 49.4355L49.7452 49.6565L49.5242 49.9077C49.376 50.0784 49.2278 50.2517 49.0872 50.4301C48.8059 50.7867 48.5346 51.1509 48.281 51.5251C47.7762 52.2489 47.355 53.0274 47.0252 53.8458C46.8715 54.2349 46.7522 54.6366 46.6685 55.0464C46.6283 55.2774 46.6032 55.3779 46.5907 55.4759C46.5767 55.5539 46.5767 55.6339 46.5907 55.7119C46.6328 55.8347 46.6989 55.9479 46.7851 56.0449C46.8713 56.1419 46.976 56.2208 47.093 56.2771C47.2625 56.3816 47.4407 56.4715 47.6254 56.5458C47.7225 56.586 47.823 56.6236 47.9268 56.6588C48.0223 56.694 48.1428 56.7291 48.2182 56.7593V58.1432C48.0424 58.1683 47.9143 58.1884 47.7661 58.1984C47.6179 58.2085 47.4747 58.211 47.3266 58.1984C47.0219 58.1923 46.7188 58.1536 46.4224 58.0829C46.0884 58.0044 45.7683 57.8757 45.473 57.7011C45.1258 57.498 44.8274 57.221 44.599 56.8899C44.3638 56.5374 44.2078 56.1381 44.1419 55.7195C44.125 55.6214 44.1141 55.5225 44.1092 55.4231C44.1042 55.3277 44.1042 55.2322 44.1092 55.1368V54.9961C44.1064 54.9585 44.1064 54.9207 44.1092 54.8831L44.1293 54.6621C44.1935 54.0881 44.3147 53.5219 44.491 52.9718C44.8311 51.9152 45.31 50.9085 45.915 49.978C46.2057 49.5211 46.5219 49.0809 46.8619 48.6594C47.0302 48.4484 47.2035 48.2425 47.3843 48.039C47.4722 47.9361 47.5652 47.8356 47.6606 47.7351C47.756 47.6347 47.8439 47.5468 47.9745 47.4212L49.9512 49.4355Z" fill="#B55B52"/>
<path d="M47.7188 56.7292L48.8892 55.8702L49.5547 58.2763C49.5547 58.2763 48.5174 58.6606 47.7263 58.1432L47.7188 56.7292Z" fill="#B55B52"/>
<path d="M50.5137 55.2925L50.9708 57.3068L49.5542 58.2763L48.8887 55.8702L50.5137 55.2925Z" fill="#B55B52"/>
<path d="M57.9145 40.2029C57.8618 40.3511 57.8994 40.4992 57.9974 40.5319C58.0953 40.5645 58.2159 40.4741 58.2661 40.3259C58.3164 40.1778 58.2812 40.0271 58.1858 39.9944C58.0903 39.9618 57.9673 40.0522 57.9145 40.2029Z" fill="#263238"/>
<path d="M57.8871 40.4942C57.9067 41.0114 57.9971 41.5236 58.1558 42.0162C58.0293 42.0525 57.8965 42.0609 57.7664 42.041C57.6364 42.021 57.5122 41.9732 57.4023 41.9007L57.8871 40.4942Z" fill="#A02724"/>
<path d="M57.675 39.1932C57.6937 39.1995 57.714 39.1995 57.7327 39.1932C57.8429 39.1564 57.9603 39.1464 58.0751 39.1638C58.19 39.1813 58.299 39.2258 58.3933 39.2937C58.4122 39.3074 58.4355 39.3135 58.4587 39.3107C58.4819 39.308 58.5032 39.2966 58.5184 39.2789C58.5336 39.2612 58.5416 39.2384 58.5407 39.2151C58.5399 39.1918 58.5303 39.1696 58.5138 39.153C58.396 39.0652 58.2587 39.0068 58.1137 38.9827C57.9686 38.9587 57.8199 38.9697 57.68 39.0149C57.6617 39.0212 57.6458 39.033 57.6345 39.0488C57.6232 39.0645 57.6172 39.0834 57.6172 39.1028C57.6172 39.1222 57.6232 39.141 57.6345 39.1568C57.6458 39.1726 57.6617 39.1844 57.68 39.1907L57.675 39.1932Z" fill="#263238"/>
<path d="M52.4083 40.7504C52.6896 42.1795 52.9684 44.7991 51.9688 45.7535C51.9688 45.7535 52.3606 47.2027 55.0178 47.2027C57.9388 47.2027 56.4143 45.7535 56.4143 45.7535C54.8194 45.3717 54.8596 44.1888 55.1384 43.0786L52.4083 40.7504Z" fill="#B55B52"/>
<path d="M51.5862 46.2508C51.3753 45.7911 51.1467 45.2662 51.6214 45.103C52.1463 44.9221 55.0196 44.7363 56.0091 45.0753C56.14 45.1109 56.2624 45.1723 56.3692 45.2558C56.4761 45.3392 56.5652 45.4432 56.6314 45.5615C56.6976 45.6799 56.7395 45.8102 56.7547 45.9449C56.7699 46.0797 56.7581 46.2161 56.7199 46.3462L51.5862 46.2508Z" fill="#263238"/>
<path d="M61.6204 48.7021C62.2357 49.8097 62.8963 50.95 63.5644 52.045C64.2325 53.1401 64.9332 54.2301 65.6817 55.2247C65.8675 55.4759 66.0609 55.7145 66.2518 55.9531C66.3472 56.0762 66.4477 56.1766 66.5456 56.2896L66.6913 56.4554L66.729 56.4981L66.7466 56.5182L66.7642 56.5408C66.8812 56.654 67.0219 56.7397 67.1761 56.792C67.4134 56.8746 67.6582 56.9343 67.9069 56.9703C69.1278 57.0935 70.3587 57.0792 71.5764 56.9276L71.9581 58.2587C71.6191 58.4094 71.3026 58.5099 70.966 58.6355C70.6295 58.7611 70.298 58.8439 69.9614 58.9293C69.248 59.1083 68.5167 59.206 67.7813 59.2207C67.3686 59.2273 66.9564 59.186 66.5532 59.0976C66.0582 58.9993 65.5914 58.7916 65.1869 58.4898L65.0186 58.3517L64.9784 58.3165L64.9533 58.2914L64.9056 58.2437L64.7097 58.0503C64.5816 57.9222 64.4409 57.7991 64.3254 57.6635C64.0742 57.3998 63.8381 57.1361 63.6196 56.8648C62.7422 55.8044 61.9326 54.6895 61.1959 53.5269C60.8293 52.9542 60.476 52.3757 60.1361 51.7914C59.7945 51.2012 59.4655 50.6235 59.1465 50.0006L61.6204 48.7021Z" fill="#B55B52"/>
<path d="M48.4683 46.1955C46.6349 46.615 44.5352 51.6105 44.5352 51.6105L48.2146 54.1221C49.1298 52.8098 49.9418 51.4284 50.6434 49.9905C51.7309 47.715 50.342 45.766 48.4683 46.1955Z" fill="#E7B54A"/>
<path opacity="0.2" d="M49.781 49.3802L48.043 54.0116L48.2138 54.1322C48.2138 54.1322 48.9672 53.0748 49.781 51.6482V49.3802Z" fill="black"/>
<path d="M59.4193 46.2935C59.4193 46.2935 61.4989 48.6443 59.5348 63.1865H49.0791C49.0087 61.5815 50.0159 53.7554 48.4688 46.193C49.6242 45.9705 50.7929 45.8229 51.9674 45.751C53.448 45.6643 54.9323 45.6643 56.4129 45.751C57.4277 45.8532 58.4329 46.0345 59.4193 46.2935Z" fill="#E7B54A"/>
<path opacity="0.2" d="M58.2578 50.5004C58.5306 52.1509 59.2439 53.6972 60.3223 54.9761C60.365 54.0392 60.3826 53.1979 60.3801 52.4469L58.2578 50.5004Z" fill="black"/>
<path d="M57.3503 47.8808C57.0991 49.7319 60.741 54.4587 60.741 54.4587L64.4054 51.9471C64.4054 51.9471 63.3882 49.3426 61.6778 47.6347C59.7288 45.6756 57.6366 45.8665 57.3503 47.8808Z" fill="#E7B54A"/>
<path d="M71.1641 56.9401L72.6559 56.3273L74.1905 57.4876C74.1905 57.4876 72.7263 58.7836 71.3951 58.2788L71.1641 56.9401Z" fill="#B55B52"/>
<path d="M73.6405 56.267L74.7657 57.0707L74.183 57.4876L72.6484 56.3273L73.6405 56.267Z" fill="#B55B52"/>
<path d="M53.0581 38.1584C52.5357 40.0271 52.1338 41.0945 52.7316 42.3528C53.6282 44.2491 56.1775 44.1963 57.2525 42.5236C58.2169 41.0166 58.9101 38.2137 57.373 36.865C57.0356 36.5652 56.627 36.3567 56.1863 36.2593C55.7456 36.1619 55.2872 36.1788 54.8549 36.3084C54.4225 36.438 54.0304 36.676 53.716 36.9998C53.4015 37.3236 53.175 37.7225 53.0581 38.1584Z" fill="#B55B52"/>
<path d="M57.0377 38.1785C56.2842 40.3234 55.3976 42.6793 53.2326 42.2322C51.8362 41.9434 51.7256 39.6955 51.2233 38.6733C50.7788 37.7767 50.8064 35.9733 51.7256 35.9507C51.3137 35.353 53.3959 33.1654 54.8174 34.3207C55.1816 33.8184 57.8062 32.3391 59.7502 34.6874C61.5811 36.9077 60.6845 38.7587 57.0377 38.1785Z" fill="#263238"/>
<path d="M55.3402 39.5498C55.2899 40.0289 55.3975 40.5114 55.6466 40.9237C55.9807 41.4612 56.4704 41.2552 56.6513 40.7052C56.812 40.2029 56.8296 39.3364 56.3649 38.9873C55.9003 38.6381 55.4105 38.9722 55.3402 39.5498Z" fill="#B55B52"/>
<path d="M71.3854 89.2116C71.6366 89.2116 71.8877 89.1764 71.9606 89.0634C71.9813 89.0336 71.9924 88.9981 71.9924 88.9617C71.9924 88.9253 71.9813 88.8898 71.9606 88.86C71.9271 88.8071 71.8752 88.7686 71.8149 88.752C71.4884 88.6641 70.8102 89.0534 70.7776 89.071C70.769 89.0752 70.7621 89.0822 70.758 89.0909C70.7539 89.0996 70.7528 89.1093 70.755 89.1187C70.7566 89.1277 70.7608 89.136 70.767 89.1427C70.7733 89.1493 70.7813 89.1541 70.7901 89.1563C70.9866 89.1921 71.1857 89.2106 71.3854 89.2116ZM71.6968 88.8323C71.726 88.8282 71.7556 88.8282 71.7847 88.8323C71.8037 88.8359 71.8216 88.8436 71.8373 88.8549C71.8529 88.8662 71.8658 88.8808 71.8751 88.8977C71.9078 88.9554 71.8978 88.983 71.8751 88.9981C71.7847 89.1262 71.2899 89.1287 70.9258 89.076C71.1645 88.9455 71.4264 88.8628 71.6968 88.8323Z" fill="#E7B54A"/>
<path d="M70.7944 89.1563H70.8145C71.0506 89.0508 71.5177 88.6289 71.4801 88.4029C71.4801 88.3501 71.4349 88.2873 71.3093 88.2723C71.2642 88.2683 71.2188 88.2734 71.1756 88.2872C71.1325 88.301 71.0926 88.3232 71.0581 88.3526C70.807 88.5561 70.7567 89.0835 70.7542 89.1061C70.7533 89.1141 70.7544 89.1222 70.7575 89.1297C70.7606 89.1372 70.7655 89.1437 70.7718 89.1488C70.7787 89.1529 70.7864 89.1554 70.7944 89.1563ZM71.2716 88.3652H71.2992C71.3821 88.3652 71.3871 88.4079 71.3897 88.4179C71.4123 88.551 71.0933 88.8826 70.8522 89.0257C70.8722 88.8046 70.9599 88.595 71.1033 88.4255C71.1501 88.3854 71.21 88.364 71.2716 88.3652Z" fill="#E7B54A"/>
<path d="M68.5215 89.1112H70.4755L70.92 84.5827H68.966L68.5215 89.1112Z" fill="#B55B52"/>
<path d="M70.5857 88.8851H68.4533C68.414 88.8853 68.376 88.8988 68.3454 88.9234C68.3149 88.9481 68.2936 88.9824 68.285 89.0207L67.8982 90.7487C67.8883 90.7908 67.8881 90.8346 67.8977 90.8768C67.9072 90.919 67.9263 90.9584 67.9534 90.9921C67.9806 91.0258 68.0151 91.0528 68.0543 91.0711C68.0934 91.0895 68.1363 91.0986 68.1795 91.0978C68.9481 91.0852 70.0607 91.04 71.0277 91.04C72.1604 91.04 73.1374 91.1003 74.4636 91.1003C75.2673 91.1003 75.4908 90.2891 75.1543 90.2162C73.6247 89.8822 72.3764 89.847 71.0553 89.0308C70.9152 88.9399 70.7526 88.8894 70.5857 88.8851Z" fill="#263238"/>
<path opacity="0.2" d="M70.9189 84.5852L70.6929 86.9185H68.7363L68.9649 84.5852H70.9189Z" fill="black"/>
<path d="M63.5512 89.2091C63.6341 89.2199 63.7183 89.2142 63.7989 89.1922C63.8795 89.1702 63.955 89.1324 64.0209 89.081C64.044 89.0492 64.0564 89.011 64.0564 88.9717C64.0564 88.9325 64.044 88.8942 64.0209 88.8625C64.006 88.8349 63.9853 88.8109 63.9601 88.7923C63.9349 88.7736 63.9059 88.7607 63.8752 88.7545C63.5889 88.6867 63.0489 89.0559 63.0263 89.071C63.0191 89.0765 63.0135 89.0838 63.01 89.0922C63.0065 89.1005 63.0052 89.1097 63.0062 89.1187C63.008 89.1273 63.0123 89.1353 63.0185 89.1415C63.0248 89.1478 63.0327 89.152 63.0414 89.1538C63.2089 89.1904 63.3798 89.2089 63.5512 89.2091ZM63.8024 88.8374C63.8207 88.8348 63.8393 88.8348 63.8576 88.8374C63.8756 88.84 63.8927 88.8468 63.9075 88.8573C63.9224 88.8678 63.9345 88.8816 63.943 88.8977C63.9857 88.9755 63.9606 89.0056 63.943 89.0182C63.8601 89.1262 63.4608 89.1287 63.1669 89.081C63.3559 88.9531 63.5715 88.8698 63.7974 88.8374H63.8024Z" fill="#E7B54A"/>
<path d="M63.0536 89.1563H63.0737C63.2771 89.0458 63.6689 88.6189 63.6262 88.4029C63.6198 88.3683 63.6014 88.337 63.5744 88.3146C63.5473 88.2921 63.5132 88.2798 63.478 88.2798C63.443 88.2755 63.4074 88.2786 63.3737 88.289C63.3399 88.2994 63.3087 88.3168 63.2821 88.3401C63.0561 88.5259 63.0084 89.0935 63.0059 89.1136C63.0057 89.1221 63.0077 89.1304 63.0117 89.1379C63.0156 89.1453 63.0214 89.1517 63.0285 89.1563C63.0367 89.1588 63.0454 89.1588 63.0536 89.1563ZM63.4479 88.3652H63.468C63.5283 88.3652 63.5333 88.4003 63.5358 88.4129C63.5609 88.541 63.3098 88.865 63.1088 89.0182C63.1223 88.7953 63.2029 88.5817 63.3399 88.4054C63.3699 88.3795 63.4083 88.3652 63.4479 88.3652Z" fill="#E7B54A"/>
<path d="M60.8145 89.1112H62.7685L63.7505 84.5827H61.7965L60.8145 89.1112Z" fill="#B55B52"/>
<path d="M62.9064 88.8851H60.7113C60.6723 88.8854 60.6346 88.899 60.6045 88.9237C60.5743 88.9484 60.5535 88.9826 60.5455 89.0207L60.1587 90.7487C60.1497 90.7911 60.1503 90.835 60.1605 90.8772C60.1707 90.9193 60.1903 90.9586 60.2178 90.9921C60.2454 91.0257 60.2801 91.0526 60.3194 91.0709C60.3587 91.0892 60.4017 91.0984 60.445 91.0978C61.2111 91.0852 61.5853 91.04 62.5497 91.04C63.145 91.04 63.906 91.1003 64.7273 91.1003C65.5486 91.1003 65.6541 90.2891 65.3175 90.2162C63.8106 89.8872 63.7076 89.4326 63.2254 88.9981C63.1364 88.9227 63.023 88.8825 62.9064 88.8851Z" fill="#263238"/>
<g opacity="0.2">
<path opacity="0.2" d="M61.7964 84.5852H63.7504L63.2431 86.9185H61.2891L61.7964 84.5852Z" fill="black"/>
</g>
<path d="M59.5351 63.189C59.5351 63.189 74.1777 64.7386 74.0169 72.2081C73.9132 76.8992 73.0112 81.5383 71.3496 85.9264H68.4462C68.4462 85.9264 68.5944 81.1871 68.4965 73.5393C68.4663 71.2462 63.8375 70.4902 59.3141 70.224C57.3986 70.1035 55.5548 69.4502 53.9909 68.3376C52.427 67.225 51.2052 65.6975 50.4632 63.9274L50.1543 63.189H59.5351Z" fill="#263238"/>
<path d="M72.0596 85.1478C72.0747 85.1478 71.8713 86.5217 71.8713 86.5217H67.8527L67.7422 85.296L72.0596 85.1478Z" fill="#E7B54A"/>
<path d="M56.4009 63.189C56.4009 63.189 67.0149 66.7052 67.2836 71.0653C67.7859 79.0874 63.8402 85.9264 63.8402 85.9264H60.9092C60.9092 85.9264 62.0218 82.5358 62.4162 75.2672C62.9185 66.1376 45.8823 75.2522 49.0746 63.189H56.4009Z" fill="#263238"/>
<path d="M64.7276 85.1478C64.7427 85.1478 64.3584 86.5217 64.3584 86.5217H60.3398L60.4127 85.296L64.7276 85.1478Z" fill="#E7B54A"/>
<path d="M64.0558 70.8795H47.7305C47.7305 70.3852 47.9268 69.9112 48.2763 69.5617C48.6258 69.2122 49.0998 69.0159 49.5941 69.0159H62.1922C62.6865 69.0159 63.1605 69.2122 63.51 69.5617C63.8595 69.9112 64.0558 70.3852 64.0558 70.8795Z" fill="#E7B54A"/>
<path d="M48.4868 70.877L46.0254 91.5122H46.5528L49.6747 70.877H48.4868Z" fill="#E7B54A"/>
<path opacity="0.4" d="M48.4868 70.877L46.0254 91.5122H46.5528L49.6747 70.877H48.4868Z" fill="black"/>
<path d="M51.7801 70.877L51.7324 91.5122H52.2573L52.9681 70.877H51.7801Z" fill="#E7B54A"/>
<path opacity="0.4" d="M51.7801 70.877L51.7324 91.5122H52.2573L52.9681 70.877H51.7801Z" fill="black"/>
<path d="M63.3007 70.877L65.7621 91.5122H65.2346L62.1152 70.877H63.3007Z" fill="#E7B54A"/>
<path opacity="0.4" d="M63.3007 70.877L65.7621 91.5122H65.2346L62.1152 70.877H63.3007Z" fill="black"/>
<path d="M60.0063 70.877L60.0541 91.5122H59.5291L58.8184 70.877H60.0063Z" fill="#E7B54A"/>
<path opacity="0.4" d="M60.0063 70.877L60.0541 91.5122H59.5291L58.8184 70.877H60.0063Z" fill="black"/>
</svg>
