<svg width="300" height="300" viewBox="0 0 28 30" fill="none" xmlns="http://www.w3.org/2000/svg">
<path fill-rule="evenodd" clip-rule="evenodd" d="M11.8336 6.0791C10.4258 7.76313 9.07722 9.83639 7.92781 12.193C7.09906 13.8922 6.45014 15.5823 5.98003 17.1975C7.05335 18.2947 8.27627 19.373 9.62762 20.3913C11.599 21.8768 13.6176 23.0644 15.543 23.9261C16.9508 22.2421 18.2994 20.1688 19.4488 17.8122C19.6175 17.4662 19.7788 17.1206 19.9327 16.7759C20.3209 16.9938 20.7506 17.1466 21.2069 17.2196C21.0327 17.6132 20.8495 18.0075 20.6573 18.4016C19.5396 20.6932 18.2309 22.7468 16.8419 24.4636C17.7624 24.813 18.6528 25.0823 19.4965 25.2683C22.4821 25.9265 24.7448 25.5182 25.7945 24.1253C26.8442 22.7323 26.6129 20.4447 25.1573 17.7562C24.909 17.2977 24.6269 16.8312 24.3126 16.36C24.4877 16.2125 24.6495 16.0498 24.7959 15.8738C25.1519 16.4 25.4702 16.9221 25.7485 17.4361C27.2287 20.17 27.6361 22.7985 26.3314 24.5299C25.0267 26.2612 22.3877 26.5941 19.3517 25.9248C18.4086 25.7169 17.4137 25.41 16.388 25.0092C15.5458 25.9939 14.6791 26.8536 13.8116 27.5673C11.3906 29.5591 8.73772 30.5806 6.59913 29.5376C4.46054 28.4945 3.6322 25.7751 3.71126 22.6411C3.75577 20.8766 4.0856 18.8914 4.69266 16.8092C3.41234 15.3899 2.37574 13.9499 1.62814 12.5691C0.147948 9.83524 -0.259472 7.20673 1.04521 5.47535C2.3499 3.74398 4.98889 3.4111 8.02486 4.08039C8.96804 4.28831 9.96286 4.59518 10.9886 4.99596C11.8308 4.01136 12.6975 3.15158 13.565 2.43789C15.986 0.446083 18.6389 -0.575397 20.7775 0.467662C22.9161 1.51072 23.7444 4.23011 23.6653 7.36414C23.6452 8.16253 23.5667 9.00609 23.4304 9.88337C23.0267 9.69855 22.5857 9.58118 22.1217 9.54567C22.2371 8.77079 22.3035 8.02915 22.3212 7.33024C22.3976 4.29882 21.5646 2.34757 20.188 1.67617C18.8115 1.00478 16.761 1.54964 14.4193 3.47623C13.7103 4.05949 12.9952 4.75441 12.2909 5.54803C14.213 6.42572 16.2099 7.61236 18.1536 9.07699C18.6545 9.45446 19.1386 9.84042 19.6049 10.2329C19.418 10.364 19.2433 10.5111 19.0827 10.6723C18.6535 10.3137 18.2087 9.96032 17.749 9.61391C15.7776 8.12839 13.759 6.94078 11.8336 6.0791ZM10.5348 5.54161C9.1457 7.25842 7.83698 9.31201 6.7193 11.6036C5.98953 13.0999 5.38985 14.5978 4.92296 16.0563C3.79897 14.7722 2.88671 13.4817 2.21934 12.249C0.763686 9.56046 0.532439 7.27294 1.58213 5.87995C2.63182 4.48696 4.89447 4.07872 7.88013 4.73692C8.72375 4.9229 9.61417 5.19223 10.5348 5.54161ZM5.77388 17.9446C5.33046 19.6455 5.09139 21.2491 5.05543 22.675C4.97896 25.7064 5.812 27.6577 7.18856 28.329C8.56512 29.0004 10.6156 28.4556 12.9573 26.529C13.6663 25.9457 14.3814 25.2508 15.0857 24.4572C13.1636 23.5795 11.1667 22.3928 9.22303 20.9282C7.96088 19.9771 6.80523 18.9721 5.77388 17.9446Z" fill="#00BBFF"/>
<path d="M21.8414 11.3777C20.7134 11.3777 19.7989 12.2921 19.7989 13.4202C19.7989 14.5482 20.7134 15.4626 21.8414 15.4626C22.9694 15.4626 23.8838 14.5482 23.8838 13.4202C23.8838 12.2921 22.9694 11.3777 21.8414 11.3777Z" fill="#00BBFF"/>
</svg>
