<svg width="228" height="48" viewBox="0 0 228 48" fill="none" xmlns="http://www.w3.org/2000/svg">
<path fill-rule="evenodd" clip-rule="evenodd" d="M1.58865 46.7922L35.7021 24.5065L1.58866 2.22086H225.99C225.99 24.5065 225.99 8.36095 225.99 15.9351V46.7922H1.58865Z" fill="#FF5252"/>
<path d="M74.1132 31.7568C75.06 31.7568 75.9059 31.5968 76.6508 31.2768C77.3957 30.9568 78.0234 30.5088 78.5341 29.9328C79.0555 29.3568 79.4491 28.6688 79.7151 27.8688C79.9917 27.0688 80.1301 26.1888 80.1301 25.2288V11.2928H83.2104V25.2288C83.2104 26.5515 82.9976 27.7783 82.572 28.9088C82.157 30.0395 81.5558 31.0208 80.7685 31.8528C79.9917 32.6743 79.0396 33.3195 77.9116 33.7888C76.7837 34.2583 75.5176 34.4928 74.1132 34.4928C72.7087 34.4928 71.4426 34.2583 70.3147 33.7888C69.1868 33.3195 68.2292 32.6743 67.4419 31.8528C66.6546 31.0208 66.0481 30.0395 65.6224 28.9088C65.2075 27.7783 65 26.5515 65 25.2288V11.2928H68.0803V25.2128C68.0803 26.1728 68.2132 27.0528 68.4793 27.8528C68.7558 28.6528 69.1496 29.3408 69.6603 29.9168C70.1818 30.4928 70.8147 30.9463 71.5596 31.2768C72.3149 31.5968 73.1663 31.7568 74.1132 31.7568ZM90.4788 30.3168C91 31.0208 91.5693 31.5168 92.1865 31.8048C92.8035 32.0928 93.4952 32.2368 94.2613 32.2368C95.772 32.2368 96.9319 31.6983 97.7406 30.6208C98.5491 29.5435 98.9535 28.0075 98.9535 26.0128C98.9535 24.9568 98.8578 24.0503 98.6663 23.2928C98.4852 22.5355 98.2194 21.9168 97.8683 21.4368C97.5171 20.9462 97.0862 20.5888 96.5755 20.3648C96.0648 20.1408 95.4847 20.0288 94.8359 20.0288C93.9102 20.0288 93.0962 20.2422 92.394 20.6688C91.7022 21.0955 91.0638 21.6982 90.4788 22.4768V30.3168ZM90.3351 20.5248C91.0159 19.6822 91.8035 19.0048 92.6972 18.4928C93.591 17.9808 94.6124 17.7248 95.7615 17.7248C96.6977 17.7248 97.5436 17.9062 98.2992 18.2688C99.0545 18.6208 99.6982 19.1488 100.23 19.8528C100.762 20.5462 101.172 21.4102 101.459 22.4448C101.747 23.4795 101.89 24.6688 101.89 26.0128C101.89 27.2075 101.731 28.3223 101.411 29.3568C101.092 30.3808 100.629 31.2715 100.023 32.0288C99.4269 32.7755 98.6927 33.3675 97.8204 33.8048C96.9585 34.2315 95.985 34.4448 94.8997 34.4448C93.9102 34.4448 93.0588 34.2795 92.3461 33.9488C91.6439 33.6075 91.0214 33.1383 90.4788 32.5408V39.7088H87.6219V18.0128H89.3297C89.7339 18.0128 89.984 18.2102 90.0798 18.6048L90.3351 20.5248ZM116.766 20.8928C116.681 21.0102 116.596 21.1008 116.511 21.1648C116.426 21.2288 116.309 21.2608 116.16 21.2608C116 21.2608 115.825 21.1968 115.633 21.0688C115.442 20.9302 115.202 20.7808 114.915 20.6208C114.638 20.4608 114.292 20.3168 113.878 20.1888C113.473 20.0502 112.973 19.9808 112.377 19.9808C111.579 19.9808 110.877 20.1248 110.271 20.4128C109.664 20.6902 109.153 21.0955 108.738 21.6288C108.334 22.1622 108.025 22.8075 107.813 23.5648C107.61 24.3223 107.509 25.1703 107.509 26.1088C107.509 27.0903 107.621 27.9648 107.845 28.7328C108.068 29.4903 108.382 30.1303 108.786 30.6528C109.201 31.1648 109.696 31.5595 110.271 31.8368C110.856 32.1035 111.51 32.2368 112.234 32.2368C112.925 32.2368 113.494 32.1568 113.941 31.9968C114.388 31.8263 114.755 31.6395 115.043 31.4368C115.341 31.2343 115.585 31.0528 115.777 30.8928C115.979 30.7223 116.176 30.6368 116.367 30.6368C116.601 30.6368 116.782 30.7275 116.91 30.9088L117.708 31.9488C117.357 32.3863 116.958 32.7595 116.511 33.0688C116.064 33.3783 115.58 33.6395 115.059 33.8528C114.548 34.0555 114.01 34.2048 113.447 34.3008C112.883 34.3968 112.308 34.4448 111.723 34.4448C110.712 34.4448 109.771 34.2583 108.898 33.8848C108.036 33.5115 107.286 32.9728 106.648 32.2688C106.009 31.5543 105.509 30.6795 105.147 29.6448C104.786 28.6103 104.605 27.4315 104.605 26.1088C104.605 24.9035 104.77 23.7888 105.1 22.7648C105.44 21.7408 105.929 20.8608 106.568 20.1248C107.217 19.3782 108.009 18.7968 108.946 18.3808C109.893 17.9648 110.978 17.7568 112.202 17.7568C113.34 17.7568 114.34 17.9435 115.202 18.3168C116.075 18.6795 116.846 19.1968 117.516 19.8688L116.766 20.8928ZM127.292 17.7568C128.473 17.7568 129.537 17.9542 130.484 18.3488C131.431 18.7435 132.239 19.3035 132.91 20.0288C133.58 20.7542 134.091 21.6342 134.442 22.6688C134.804 23.6928 134.985 24.8395 134.985 26.1088C134.985 27.3888 134.804 28.5408 134.442 29.5648C134.091 30.5888 133.58 31.4635 132.91 32.1888C132.239 32.9143 131.431 33.4743 130.484 33.8688C129.537 34.2528 128.473 34.4448 127.292 34.4448C126.1 34.4448 125.026 34.2528 124.068 33.8688C123.121 33.4743 122.312 32.9143 121.642 32.1888C120.972 31.4635 120.456 30.5888 120.094 29.5648C119.743 28.5408 119.567 27.3888 119.567 26.1088C119.567 24.8395 119.743 23.6928 120.094 22.6688C120.456 21.6342 120.972 20.7542 121.642 20.0288C122.312 19.3035 123.121 18.7435 124.068 18.3488C125.026 17.9542 126.1 17.7568 127.292 17.7568ZM127.292 32.2208C128.888 32.2208 130.08 31.6875 130.867 30.6208C131.654 29.5435 132.048 28.0448 132.048 26.1248C132.048 24.1943 131.654 22.6902 130.867 21.6128C130.08 20.5355 128.888 19.9968 127.292 19.9968C126.483 19.9968 125.776 20.1355 125.169 20.4128C124.573 20.6902 124.073 21.0902 123.669 21.6128C123.275 22.1355 122.977 22.7808 122.775 23.5488C122.584 24.3063 122.488 25.1648 122.488 26.1248C122.488 28.0448 122.882 29.5435 123.669 30.6208C124.467 31.6875 125.675 32.2208 127.292 32.2208ZM138.588 34.2208V18.0128H140.296C140.7 18.0128 140.95 18.2102 141.046 18.6048L141.253 20.2688C141.849 19.5328 142.519 18.9302 143.264 18.4608C144.009 17.9915 144.871 17.7568 145.85 17.7568C146.935 17.7568 147.813 18.0608 148.483 18.6688C149.164 19.2768 149.653 20.0982 149.951 21.1328C150.185 20.5462 150.483 20.0395 150.845 19.6128C151.218 19.1862 151.632 18.8342 152.09 18.5568C152.547 18.2795 153.032 18.0768 153.542 17.9488C154.064 17.8208 154.59 17.7568 155.122 17.7568C155.974 17.7568 156.729 17.8955 157.389 18.1728C158.059 18.4395 158.623 18.8342 159.081 19.3568C159.549 19.8795 159.905 20.5248 160.15 21.2928C160.395 22.0502 160.517 22.9195 160.517 23.9008V34.2208H157.66V23.9008C157.66 22.6315 157.383 21.6715 156.83 21.0208C156.277 20.3595 155.479 20.0288 154.436 20.0288C153.968 20.0288 153.521 20.1142 153.096 20.2848C152.681 20.4448 152.314 20.6848 151.994 21.0048C151.675 21.3248 151.42 21.7302 151.228 22.2208C151.047 22.7008 150.957 23.2608 150.957 23.9008V34.2208H148.1V23.9008C148.1 22.5995 147.839 21.6288 147.318 20.9888C146.797 20.3488 146.036 20.0288 145.036 20.0288C144.334 20.0288 143.684 20.2208 143.089 20.6048C142.493 20.9782 141.945 21.4902 141.445 22.1408V34.2208H138.588ZM167.835 18.0128V34.2208H164.994V18.0128H167.835ZM168.442 12.9248C168.442 13.2022 168.383 13.4635 168.266 13.7088C168.16 13.9435 168.011 14.1568 167.819 14.3488C167.638 14.5302 167.42 14.6742 167.165 14.7808C166.92 14.8875 166.659 14.9408 166.383 14.9408C166.106 14.9408 165.845 14.8875 165.601 14.7808C165.367 14.6742 165.159 14.5302 164.978 14.3488C164.797 14.1568 164.654 13.9435 164.547 13.7088C164.441 13.4635 164.388 13.2022 164.388 12.9248C164.388 12.6475 164.441 12.3862 164.547 12.1408C164.654 11.8848 164.797 11.6662 164.978 11.4848C165.159 11.2928 165.367 11.1435 165.601 11.0368C165.845 10.9302 166.106 10.8768 166.383 10.8768C166.659 10.8768 166.92 10.9302 167.165 11.0368C167.42 11.1435 167.638 11.2928 167.819 11.4848C168.011 11.6662 168.16 11.8848 168.266 12.1408C168.383 12.3862 168.442 12.6475 168.442 12.9248ZM175.184 20.3648C175.535 19.9702 175.908 19.6128 176.301 19.2928C176.695 18.9728 177.11 18.7008 177.546 18.4768C177.993 18.2422 178.461 18.0662 178.951 17.9488C179.451 17.8208 179.988 17.7568 180.563 17.7568C181.446 17.7568 182.223 17.9062 182.893 18.2048C183.574 18.4928 184.138 18.9088 184.585 19.4528C185.042 19.9862 185.388 20.6315 185.622 21.3888C185.856 22.1462 185.973 22.9835 185.973 23.9008V34.2208H183.116V23.9008C183.116 22.6742 182.834 21.7248 182.27 21.0528C181.717 20.3702 180.871 20.0288 179.733 20.0288C178.892 20.0288 178.105 20.2315 177.371 20.6368C176.647 21.0422 175.977 21.5915 175.36 22.2848V34.2208H172.503V18.0128H174.211C174.615 18.0128 174.865 18.2102 174.961 18.6048L175.184 20.3648ZM195.936 26.3008C196.51 26.3008 197.016 26.2208 197.452 26.0608C197.888 25.9008 198.255 25.6768 198.553 25.3888C198.851 25.1008 199.075 24.7595 199.224 24.3648C199.373 23.9595 199.447 23.5168 199.447 23.0368C199.447 22.0448 199.144 21.2555 198.537 20.6688C197.942 20.0822 197.074 19.7888 195.936 19.7888C194.787 19.7888 193.909 20.0822 193.302 20.6688C192.707 21.2555 192.409 22.0448 192.409 23.0368C192.409 23.5168 192.483 23.9595 192.632 24.3648C192.792 24.7595 193.02 25.1008 193.318 25.3888C193.616 25.6768 193.984 25.9008 194.42 26.0608C194.856 26.2208 195.361 26.3008 195.936 26.3008ZM201.059 35.1008C201.059 34.7063 200.947 34.3863 200.724 34.1408C200.5 33.8955 200.197 33.7035 199.814 33.5648C199.442 33.4263 199.005 33.3303 198.505 33.2768C198.005 33.2128 197.473 33.1648 196.909 33.1328C196.356 33.1008 195.792 33.0688 195.218 33.0368C194.643 33.0048 194.09 32.9515 193.558 32.8768C192.962 33.1543 192.473 33.5063 192.089 33.9328C191.717 34.3488 191.531 34.8395 191.531 35.4048C191.531 35.7675 191.621 36.1035 191.802 36.4128C191.994 36.7328 192.281 37.0048 192.664 37.2288C193.047 37.4635 193.526 37.6448 194.1 37.7728C194.686 37.9115 195.372 37.9808 196.159 37.9808C196.925 37.9808 197.612 37.9115 198.218 37.7728C198.825 37.6343 199.335 37.4368 199.75 37.1808C200.176 36.9248 200.5 36.6208 200.724 36.2688C200.947 35.9168 201.059 35.5275 201.059 35.1008ZM203.948 18.6528V19.7088C203.948 20.0608 203.724 20.2848 203.277 20.3808L201.442 20.6208C201.804 21.3248 201.985 22.1035 201.985 22.9568C201.985 23.7463 201.83 24.4663 201.522 25.1168C201.224 25.7568 200.809 26.3063 200.277 26.7648C199.745 27.2235 199.107 27.5755 198.362 27.8208C197.617 28.0663 196.808 28.1888 195.936 28.1888C195.181 28.1888 194.468 28.0983 193.797 27.9168C193.457 28.1303 193.196 28.3595 193.015 28.6048C192.834 28.8395 192.744 29.0795 192.744 29.3248C192.744 29.7088 192.898 30.0023 193.207 30.2048C193.526 30.3968 193.941 30.5355 194.452 30.6208C194.962 30.7063 195.542 30.7595 196.191 30.7808C196.851 30.8023 197.521 30.8395 198.202 30.8928C198.894 30.9355 199.564 31.0155 200.213 31.1328C200.873 31.2503 201.458 31.4423 201.969 31.7088C202.479 31.9755 202.889 32.3435 203.198 32.8128C203.517 33.2823 203.676 33.8903 203.676 34.6368C203.676 35.3303 203.501 36.0023 203.15 36.6528C202.809 37.3035 202.315 37.8795 201.666 38.3808C201.016 38.8928 200.218 39.2983 199.272 39.5968C198.335 39.9063 197.277 40.0608 196.095 40.0608C194.914 40.0608 193.882 39.9435 192.999 39.7088C192.116 39.4743 191.382 39.1595 190.797 38.7648C190.211 38.3703 189.77 37.9115 189.472 37.3888C189.185 36.8768 189.041 36.3383 189.041 35.7728C189.041 34.9728 189.291 34.2955 189.791 33.7408C190.291 33.1863 190.978 32.7435 191.85 32.4128C191.371 32.1995 190.988 31.9168 190.701 31.5648C190.424 31.2023 190.286 30.7168 190.286 30.1088C190.286 29.8743 190.329 29.6343 190.414 29.3888C190.499 29.1328 190.626 28.8823 190.797 28.6368C190.978 28.3808 191.196 28.1408 191.451 27.9168C191.706 27.6928 192.004 27.4955 192.345 27.3248C191.547 26.8768 190.924 26.2848 190.478 25.5488C190.031 24.8023 189.807 23.9383 189.807 22.9568C189.807 22.1675 189.956 21.4528 190.254 20.8128C190.563 20.1622 190.988 19.6128 191.531 19.1648C192.074 18.7062 192.717 18.3542 193.462 18.1088C194.217 17.8635 195.042 17.7408 195.936 17.7408C196.638 17.7408 197.292 17.8208 197.899 17.9808C198.505 18.1302 199.059 18.3542 199.559 18.6528H203.948Z" fill="white"/>
</svg>
