<svg width="100" height="108" viewBox="0 0 100 108" fill="none" xmlns="http://www.w3.org/2000/svg">
<mask id="mask0" mask-type="alpha" maskUnits="userSpaceOnUse" x="0" y="0" width="100" height="108">
<rect x="0.847656" y="0.945343" width="98.836" height="106.104" fill="#C4C4C4"/>
</mask>
<g mask="url(#mask0)">
<path opacity="0.18" d="M72.2608 13.8373C74.9839 12.7858 77.8093 12.0216 80.6911 11.5569C91.4355 9.85819 103.196 13.0069 110.526 21.0284C114.577 25.4669 117.106 31.0773 119.154 36.7298C123.551 48.8484 126.067 61.3885 126.055 74.2447C126.006 81.7452 123.04 88.9322 117.784 94.2836C110.383 101.744 99.4359 104.552 88.9444 105.104C78.4528 105.656 67.9276 104.282 57.4361 104.847C47.5094 105.382 37.6248 107.654 27.715 106.895C17.8051 106.137 7.30097 101.475 3.38088 92.3362C-0.868005 82.4222 2.64743 65.0726 11.0946 58.3789C20.6251 50.8295 32.5287 46.8251 41.6629 38.7573C45.6758 35.2208 48.9678 30.9508 52.694 27.115C58.2285 21.4288 64.8927 16.6572 72.2608 13.8373Z" fill="#43BDDA"/>
<path d="M87.4355 54.5346C87.406 55.6179 86.8707 56.6127 86.3354 57.5569C83.9159 61.8353 81.1971 66.0504 77.4456 69.2286C71.928 73.8948 64.7032 75.9097 57.7229 77.7939C58.3467 77.4904 59.097 74.2742 59.3752 73.5787C59.9148 72.1961 60.4206 70.7967 60.9391 69.4057C61.7568 67.2054 63.4682 65.435 65.1542 63.8164C68.952 60.1613 73.5613 57.4573 78.6048 55.9256C81.4678 55.0466 84.441 54.5783 87.4355 54.5346V54.5346Z" fill="#68E1FD"/>
<path d="M87.4355 54.5346C87.406 55.6179 86.8707 56.6127 86.3354 57.5569C83.9159 61.8353 81.1971 66.0504 77.4456 69.2286C71.928 73.8948 64.7032 75.9097 57.7229 77.7939C58.3467 77.4904 59.097 74.2742 59.3752 73.5787C59.9148 72.1961 60.4206 70.7967 60.9391 69.4057C61.7568 67.2054 63.4682 65.435 65.1542 63.8164C68.952 60.1613 73.5613 57.4573 78.6048 55.9256C81.4678 55.0466 84.441 54.5783 87.4355 54.5346V54.5346Z" fill="url(#paint0_linear)"/>
<path d="M64.3945 28.0761V91.9189C64.3945 94.6798 61.9455 96.9138 58.9148 96.9054L29.7206 96.859C26.7068 96.859 24.2409 94.6166 24.2409 91.8557V28.0128C24.2409 25.2519 26.6857 23.0179 29.7206 23.0221L58.9359 23.0685C61.9455 23.0727 64.3945 25.3151 64.3945 28.0761ZM61.6083 28.1182C61.6083 26.4322 60.0993 25.0369 58.2362 25.0327H54.1222V25.4121C54.1097 25.6825 54.0442 25.9478 53.9292 26.1929C53.8142 26.4379 53.6521 26.6579 53.4521 26.8403C53.252 27.0227 53.0181 27.164 52.7635 27.2559C52.5089 27.3479 52.2387 27.3888 51.9682 27.3764L36.2794 27.3511C35.7321 27.374 35.1979 27.1794 34.7936 26.8098C34.3892 26.4402 34.1475 25.9256 34.1213 25.3784V24.999H29.8724C28.0135 24.999 26.5003 26.3732 26.5003 28.0719V91.7208C26.5003 93.4068 28.0093 94.802 29.8724 94.8063L58.2362 94.8484C60.0951 94.8484 61.6083 93.4743 61.6083 91.7756V28.1182Z" fill="#68E1FD"/>
<path d="M65.7695 29.3701V93.234C65.7695 95.9907 63.3205 98.2248 60.2898 98.2205L31.0998 98.1742C28.086 98.1742 25.6201 95.9275 25.6201 93.1666V29.3238C25.6201 26.5671 28.0692 24.3288 31.0998 24.3372L60.2898 24.3794C63.3205 24.3878 65.7695 26.6303 65.7695 29.3701ZM62.9833 29.4165C62.9833 27.7304 61.4743 26.3352 59.6112 26.331H55.4972V26.7104C55.471 27.2572 55.2291 27.7714 54.8246 28.1403C54.4202 28.5093 53.886 28.7029 53.339 28.6789L37.6502 28.6536C37.1036 28.6753 36.5705 28.4802 36.167 28.1107C35.7636 27.7412 35.5225 27.2273 35.4963 26.6809V26.3015H31.2474C29.3885 26.3015 27.8752 27.6756 27.8752 29.3786V93.0275C27.8752 94.7135 29.3843 96.1087 31.2474 96.113L59.6112 96.1593C61.4701 96.1593 62.9833 94.7852 62.9833 93.0823V29.4165Z" fill="white"/>
<path d="M62.9844 29.4334V93.0823C62.9844 94.7683 61.4753 96.1593 59.6122 96.1593L31.2484 96.113C29.3896 96.113 27.8763 94.7304 27.8763 93.0275V29.3701C27.8763 27.6841 29.3853 26.2889 31.2484 26.2931H35.4973V26.6724C35.5236 27.2189 35.7647 27.7328 36.1681 28.1023C36.5715 28.4718 37.1046 28.6669 37.6513 28.6451L53.3401 28.6704C53.887 28.6945 54.4212 28.5008 54.8257 28.1319C55.2302 27.7629 55.472 27.2488 55.4982 26.7019V26.3226H59.6122C61.4669 26.3521 62.9844 27.7304 62.9844 29.4334Z" stroke="url(#paint1_linear)" stroke-width="0.618453" stroke-miterlimit="10"/>
<path d="M27.8822 29.3702V93.0191C27.8822 94.7051 29.3912 96.1046 31.2543 96.1046H35.4147H43.748H44.3719H52.5198H59.6181C61.477 96.1046 62.9902 94.7304 62.9902 93.0275V29.3786C62.9902 27.6925 61.4812 26.2931 59.6181 26.2931H55.4999V26.6725C55.488 26.9427 55.4229 27.2079 55.3084 27.4529C55.1938 27.698 55.0321 27.918 54.8324 28.1005C54.6328 28.2829 54.3991 28.4242 54.1447 28.5162C53.8904 28.6082 53.6204 28.6492 53.3502 28.6367L37.6613 28.6157C37.1133 28.6385 36.5785 28.4434 36.174 28.0729C35.7696 27.7024 35.5284 27.1867 35.5032 26.6388V26.2636H31.2543C29.3912 26.2973 27.8822 27.6841 27.8822 29.3702Z" fill="#8AC9FE"/>
<path d="M47.6387 27.2921L42.2433 27.2837V26.8453L47.6387 26.8537V27.2921Z" fill="url(#paint2_linear)"/>
<path d="M49.054 27.5439C48.7305 27.5407 48.4705 27.2985 48.4734 27.0029C48.4763 26.7072 48.7409 26.4701 49.0645 26.4733C49.3881 26.4765 49.648 26.7187 49.6452 27.0143C49.6423 27.31 49.3776 27.5471 49.054 27.5439Z" fill="url(#paint3_linear)"/>
<path d="M58.7082 57.9532H58.978C59.8207 57.9532 60.5039 58.6364 60.5039 59.4791V93.331C60.5039 94.1737 59.8207 94.8569 58.978 94.8569H58.7082C57.8655 94.8569 57.1824 94.1737 57.1824 93.331V59.4791C57.1824 58.6364 57.8655 57.9532 58.7082 57.9532Z" fill="#73C6D9"/>
<path d="M70.4072 44.7681H98.4465C100.116 44.7681 101.469 46.1212 101.469 47.7904V89.9715C101.469 91.6406 100.116 92.9938 98.4465 92.9938H70.4072C68.7381 92.9938 67.385 91.6406 67.385 89.9715V47.7904C67.385 46.1212 68.7381 44.7681 70.4072 44.7681Z" fill="#68E1FD"/>
<path d="M70.958 45.5943H98.9973C100.666 45.5943 102.02 46.9474 102.02 48.6165V90.7976C102.02 92.4668 100.666 93.8199 98.9973 93.8199H70.958C69.2889 93.8199 67.9358 92.4668 67.9358 90.7976V48.6165C67.9358 46.9474 69.2889 45.5943 70.958 45.5943Z" fill="url(#paint4_linear)"/>
<path d="M72.1592 46.96H100.198C101.868 46.96 103.221 48.3131 103.221 49.9823V92.1634C103.221 93.8325 101.868 95.1857 100.198 95.1857H72.1592C70.49 95.1857 69.1369 93.8325 69.1369 92.1634V49.9823C69.1369 48.3131 70.49 46.96 72.1592 46.96Z" fill="white"/>
<path d="M69.1369 67.5806V92.176C69.1381 92.978 69.4574 93.7467 70.0249 94.3133C70.5923 94.88 71.3615 95.1983 72.1634 95.1983H100.198C101 95.1983 101.769 94.8799 102.336 94.3131C102.902 93.7463 103.221 92.9776 103.221 92.176V79.2861C80.3956 84.3527 69.1369 67.5806 69.1369 67.5806Z" fill="#8AC9FE"/>
<path d="M76.5327 60.7773V100.041H80.1113V60.7773C80.1097 60.6268 80.0914 60.4769 80.0565 60.3305V60.3305C80.0172 60.1844 79.9621 60.043 79.8921 59.9089L79.8331 59.7994L78.3199 56.933L76.7476 59.9089C76.6785 60.043 76.6248 60.1844 76.5875 60.3305C76.5506 60.4765 76.5322 60.6266 76.5327 60.7773V60.7773Z" fill="#68E1FD"/>
<path d="M76.5327 60.7773V100.041H80.1113V60.7773C80.1097 60.6268 80.0914 60.4769 80.0565 60.3305V60.3305C80.0172 60.1844 79.9621 60.043 79.8921 59.9089L79.8331 59.7994L78.3199 56.933L76.7476 59.9089C76.6785 60.043 76.6248 60.1844 76.5875 60.3305C76.5506 60.4765 76.5322 60.6266 76.5327 60.7773V60.7773Z" fill="#73C6D9"/>
<path d="M78.3283 69.098V60.3136H76.5917V100.041H78.3283V70.489C78.3283 70.1012 78.3283 69.7134 78.3283 69.3256C78.3495 69.2284 78.3425 69.1272 78.3081 69.0339C78.2738 68.9406 78.2135 68.859 78.1344 68.7987C77.952 68.6332 77.7217 68.5299 77.4769 68.5036C77.3096 68.5068 77.1434 68.4767 76.9879 68.4151C76.9181 68.3658 76.8586 68.3032 76.8131 68.2309C76.7675 68.1585 76.7367 68.0779 76.7223 67.9936C76.6792 67.8457 76.6565 67.6925 76.6549 67.5384C76.6499 67.5145 76.6508 67.4898 76.6574 67.4663C76.664 67.4428 76.6761 67.4213 76.6928 67.4035C76.7199 67.3837 76.7521 67.372 76.7856 67.3698C77.0049 67.3399 77.2282 67.366 77.4347 67.4456C77.5817 67.5218 77.7374 67.5798 77.8984 67.6185C78.0069 67.6315 78.1169 67.614 78.216 67.5678C78.315 67.5216 78.3992 67.4486 78.459 67.3571" fill="#73C6D9"/>
<path d="M76.5876 60.3305C77.0956 60.6872 77.7013 60.8787 78.3221 60.8787C78.9429 60.8787 79.5486 60.6872 80.0566 60.3305V60.3305L79.8332 59.7994L78.32 56.933L76.7477 59.9089C76.6786 60.043 76.6249 60.1844 76.5876 60.3305V60.3305Z" fill="#5BBCD2"/>
<path d="M99.6842 51.6768C99.6842 52.7474 101.459 53.228 103.221 53.228V52.132C101.817 52.132 100.949 51.8032 100.776 51.6178C100.759 51.4798 100.69 51.3534 100.583 51.2644C100.476 51.1754 100.339 51.1304 100.2 51.1384C100.062 51.1464 99.931 51.207 99.8352 51.3077C99.7393 51.4085 99.6853 51.5419 99.6842 51.681V51.6768Z" fill="#68E1FD"/>
<path d="M99.6842 57.9532C99.6842 59.0238 101.459 59.5044 103.221 59.5044V58.4042C101.817 58.4042 100.949 58.0754 100.776 57.8899C100.759 57.7519 100.69 57.6256 100.583 57.5366C100.476 57.4476 100.339 57.4025 100.2 57.4106C100.062 57.4186 99.931 57.4792 99.8352 57.5799C99.7393 57.6807 99.6853 57.8141 99.6842 57.9532V57.9532Z" fill="#68E1FD"/>
<path d="M99.6842 64.2295C99.6842 65.3002 101.459 65.7807 103.221 65.7807V64.6806C101.817 64.6806 100.949 64.3518 100.776 64.1663C100.759 64.0283 100.69 63.902 100.583 63.813C100.476 63.724 100.339 63.6789 100.2 63.687C100.062 63.695 99.931 63.7555 99.8352 63.8563C99.7393 63.957 99.6853 64.0905 99.6842 64.2295Z" fill="#68E1FD"/>
<path d="M99.6842 70.5059C99.6842 71.5765 101.459 72.0571 103.221 72.0571V70.9569C101.817 70.9569 100.949 70.6281 100.776 70.4427C100.759 70.3046 100.69 70.1783 100.583 70.0893C100.476 70.0003 100.339 69.9552 100.2 69.9633C100.062 69.9713 99.931 70.0319 99.8352 70.1326C99.7393 70.2334 99.6853 70.3668 99.6842 70.5059Z" fill="#68E1FD"/>
<path d="M99.6842 76.7823C99.6842 77.8529 101.459 78.3334 103.221 78.3334V77.2333C101.817 77.2333 100.949 76.9045 100.776 76.7148C100.759 76.5765 100.689 76.4499 100.582 76.3609C100.475 76.2719 100.338 76.2271 100.198 76.2357C100.059 76.2443 99.9286 76.3056 99.833 76.4072C99.7375 76.5087 99.6843 76.6428 99.6842 76.7823Z" fill="#68E1FD"/>
<path d="M99.6842 83.0586C99.6842 84.1293 101.459 84.6098 103.221 84.6098V83.5096C101.817 83.5096 100.949 83.1809 100.776 82.9912C100.759 82.8528 100.689 82.7263 100.582 82.6373C100.475 82.5483 100.338 82.5035 100.198 82.5121C100.059 82.5207 99.9286 82.582 99.833 82.6835C99.7375 82.7851 99.6843 82.9192 99.6842 83.0586V83.0586Z" fill="#68E1FD"/>
<path d="M99.6842 89.335C99.6842 90.4057 101.459 90.8862 103.221 90.8862V89.786C101.817 89.786 100.949 89.4573 100.776 89.2676C100.759 89.1292 100.689 89.0027 100.582 88.9137C100.475 88.8247 100.338 88.7799 100.198 88.7885C100.059 88.7971 99.9286 88.8584 99.833 88.9599C99.7375 89.0615 99.6843 89.1956 99.6842 89.335V89.335Z" fill="#68E1FD"/>
<path d="M87.7684 91.3751C88.3542 92.3151 89.0243 93.1997 89.7706 94.018C90.9214 95.2176 92.1462 96.3439 93.4378 97.3902C94.0743 97.9381 94.7024 98.4903 95.3178 99.0762C95.8236 99.5568 96.4685 99.8855 96.5823 100.627C96.6582 101.049 96.5823 101.597 96.9153 101.892C97.0411 101.988 97.1924 102.046 97.3505 102.057C97.5087 102.068 97.6666 102.033 97.8047 101.955C98.0767 101.793 98.3041 101.565 98.4665 101.293C98.5381 101.195 98.5923 101.085 98.6267 100.969C98.6583 100.841 98.6583 100.708 98.6267 100.581C98.4918 99.9656 98.0155 99.502 97.6024 99.0299C97.231 98.608 96.8941 98.1569 96.595 97.681C96.3452 97.3151 96.063 96.9723 95.752 96.6567L93.3156 93.9127C92.4431 92.9305 91.5452 91.9062 91.149 90.6543C91.0431 90.1539 90.8626 89.6722 90.6137 89.2254C89.9898 88.3149 88.5356 88.18 87.5788 88.61C86.4154 89.1537 87.3006 90.629 87.7684 91.3751Z" fill="#FFBBAB"/>
<path d="M92.8166 89.5752C92.8166 89.5752 93.4489 95.0887 92.8166 98.0688C92.4315 99.9044 92.2659 101.779 92.3235 103.654C92.53 103.941 92.3235 104.366 92.0284 104.56C91.7118 104.726 91.3566 104.803 90.9999 104.784L89.5499 104.834C89.4657 104.85 89.3792 104.847 89.2962 104.826C89.2132 104.805 89.1358 104.766 89.0694 104.712C88.8797 104.505 89.0694 104.16 89.3223 104.037C89.5752 103.915 89.8745 103.907 90.1105 103.763C90.5657 103.489 90.6248 102.87 90.6332 102.339L90.6711 100.029C90.7259 96.7073 90.7765 93.3689 90.2496 90.0895C90.2202 89.9406 90.2202 89.7874 90.2496 89.6385C90.3612 89.3758 90.5695 89.166 90.8313 89.0526C91.0957 88.8758 91.3921 88.7527 91.7038 88.6901C91.8604 88.6628 92.0216 88.6818 92.1676 88.7447C92.3135 88.8076 92.438 88.9116 92.5258 89.0441" fill="#FFBBAB"/>
<path d="M85.0726 69.1444L84.2591 69.5912C83.8671 69.8062 83.4161 70.2024 82.9946 70.0464C82.2906 69.7724 81.5698 69.0727 80.9502 68.6343C80.3306 68.196 79.6098 67.6649 78.9438 67.1675C78.7684 67.0565 78.6154 66.9135 78.4928 66.746C78.2947 66.4172 78.2904 65.9324 77.9448 65.7638L77.7509 66.6069L76.6845 66.042C76.5592 65.9609 76.4122 65.9198 76.263 65.924C75.9763 65.9746 75.8414 66.3244 75.8794 66.6153C75.9637 67.589 76.9627 67.9009 77.7551 68.1454C77.9694 68.1965 78.1772 68.2714 78.3748 68.3688C78.5268 68.4578 78.6683 68.5638 78.7963 68.6849C79.5208 69.2668 80.1744 69.9317 80.7437 70.6661C81.0006 71.0319 81.2823 71.3798 81.5867 71.7072C81.8242 72.0597 82.1439 72.349 82.5183 72.5502C82.8034 72.6415 83.108 72.6531 83.3992 72.584C84.4572 72.3858 85.4351 71.665 86.2655 71.0117C86.3583 70.94 86.4594 70.8262 86.4004 70.7251C86.3658 70.6813 86.3188 70.649 86.2655 70.6323C85.9401 70.5165 85.6498 70.3191 85.4225 70.0591C85.2973 69.9442 85.2004 69.8017 85.1397 69.643C85.079 69.4842 85.056 69.3135 85.0726 69.1444V69.1444Z" fill="#FFBBAB"/>
<path d="M87.0086 63.7701C87.0867 63.9106 87.1962 64.0313 87.3285 64.1227C87.4608 64.2141 87.6124 64.2737 87.7716 64.2969C87.8537 64.2873 87.9367 64.3051 88.0076 64.3475C88.0347 64.3823 88.0537 64.4226 88.0632 64.4657C88.0727 64.5087 88.0724 64.5533 88.0624 64.5962L87.9781 65.6837C87.9612 65.7694 87.973 65.8584 88.0118 65.9366C88.0779 66.0162 88.1709 66.0687 88.2732 66.0842C88.6694 66.1938 89.1541 66.2781 89.4323 65.9788C89.5637 65.8051 89.6427 65.5974 89.66 65.3802C89.9322 64.1479 90.0062 62.8801 89.8791 61.6245C89.8512 61.2443 89.7415 60.8745 89.5574 60.5406C89.3733 60.2067 89.1193 59.9164 88.8127 59.6898C88.0582 59.2345 86.1277 59.0954 86.2077 60.36C86.29 60.8653 86.3449 61.3747 86.3721 61.8859C86.368 62.5674 86.592 63.2307 87.0086 63.7701Z" fill="#FFBBAB"/>
<path d="M86.1723 59.34C86.0921 59.5605 86.0921 59.8023 86.1723 60.0228C86.2361 60.1225 86.3194 60.2083 86.4172 60.2749C86.515 60.3416 86.6253 60.3877 86.7414 60.4106C87.3104 60.5666 87.9216 60.5244 88.478 60.7014C88.5694 60.7247 88.6526 60.7729 88.7183 60.8405C88.768 60.9204 88.7957 61.0121 88.7984 61.1061C88.9249 62.2067 88.8908 63.3199 88.6972 64.4108C89.7225 64.7146 90.8157 64.7014 91.8333 64.3728C91.9967 64.342 92.1463 64.2607 92.2612 64.1406C92.3761 64.0204 92.4505 63.8672 92.474 63.7026C92.7106 62.9289 92.7834 62.1143 92.6876 61.3109C92.5918 60.5075 92.3295 59.7329 91.9176 59.0365C91.7311 58.6709 91.451 58.3614 91.106 58.1392C90.761 57.9171 90.3633 57.7904 89.9533 57.7719C88.5792 57.5738 86.5306 57.7129 86.1723 59.34Z" fill="#FC682D"/>
<path d="M87.4155 77.2164C87.4998 79.9098 86.5176 82.4432 85.7842 85.0355C85.4596 86.1609 85.1013 87.3201 85.2236 88.4835C85.2215 88.5144 85.2215 88.5453 85.2236 88.5762C88.777 89.6005 92.6718 90.1105 96.1113 88.7448C95.745 86.9293 95.5502 85.0834 95.5296 83.2314C95.5609 82.5004 95.5114 81.7681 95.3821 81.0479C95.1039 79.8213 94.3115 78.7802 93.4853 77.8318C93.1518 77.5029 92.8906 77.1081 92.7181 76.6726C92.618 76.2586 92.6008 75.8288 92.6675 75.4081C92.817 74.0166 92.8508 72.6152 92.7687 71.2182C92.6829 69.9524 92.3597 68.7141 91.8161 67.5679C91.5849 67.0454 91.2639 66.5675 90.8677 66.1558C90.4669 65.7433 89.9346 65.4839 89.3629 65.4223C89.0776 65.3965 88.7906 65.4464 88.5308 65.5671C88.271 65.6877 88.0476 65.8748 87.8833 66.1094C87.0192 67.4414 85.5776 67.7407 84.5112 68.9378C84.4478 68.994 84.4049 69.0696 84.389 69.1528C84.3904 69.2439 84.4231 69.3317 84.4817 69.4015C84.8484 69.9874 85.2194 70.5733 85.5861 71.1634C85.7005 71.3495 85.8302 71.5257 85.9739 71.6903V71.6903C86.1045 71.8252 86.2647 71.9348 86.3954 72.0697C86.7359 72.4925 86.9467 73.0049 87.0024 73.545C87.235 74.7562 87.3731 75.9837 87.4155 77.2164V77.2164Z" fill="#73C6D9"/>
<path d="M88.5178 104.155L88.8761 104.042C89.1625 103.936 89.4616 103.87 89.7655 103.844C89.8174 103.839 89.8696 103.848 89.9173 103.869C89.9781 103.907 90.0253 103.963 90.0522 104.029C90.1018 104.131 90.1738 104.22 90.2629 104.29C90.3589 104.331 90.4621 104.352 90.5664 104.352C90.6707 104.352 90.7739 104.331 90.8699 104.29C91.0805 104.243 91.2844 104.169 91.4769 104.071C91.6666 103.966 91.8267 103.814 92.0206 103.721C92.0743 103.692 92.1337 103.674 92.1949 103.67C92.256 103.665 92.3174 103.674 92.3747 103.696C92.4309 103.73 92.4785 103.776 92.5138 103.831C92.5932 103.915 92.6535 104.016 92.6908 104.126C92.7124 104.234 92.7124 104.346 92.6908 104.455C92.6862 104.551 92.6587 104.645 92.6108 104.729C92.551 104.787 92.4796 104.833 92.4011 104.862C92.3227 104.891 92.239 104.903 92.1555 104.897L90.402 105.007C89.854 105.041 89.3061 105.074 88.7539 105.066C88.4517 105.072 88.15 105.039 87.8561 104.969C87.8139 104.969 87.7675 104.944 87.7549 104.902C87.7445 104.874 87.7445 104.844 87.7549 104.817C87.8572 104.642 87.9934 104.489 88.1555 104.368C88.3177 104.246 88.5025 104.158 88.6991 104.109" fill="#68E1FD"/>
<path d="M98.3924 100.117C98.3461 100.29 98.3924 100.484 98.3503 100.657C98.305 100.793 98.2334 100.919 98.1395 101.028L97.718 101.551C97.6713 101.617 97.6127 101.674 97.5452 101.719C97.4533 101.755 97.355 101.772 97.2564 101.768C97.1577 101.765 97.0609 101.741 96.9719 101.698C96.9471 101.685 96.9197 101.679 96.8918 101.679C96.864 101.679 96.8366 101.685 96.8118 101.698C96.784 101.724 96.7649 101.758 96.757 101.795L96.5125 102.638C96.4114 102.992 96.3562 103.357 96.3481 103.726C96.3818 103.77 96.4269 103.805 96.4788 103.827C96.8666 104.025 97.5326 103.144 97.8655 102.861C98.1789 102.553 98.4194 102.179 98.5695 101.765C98.6664 101.551 98.7549 101.344 98.8393 101.116C98.9368 100.917 99.0022 100.704 99.0331 100.484C99.0343 100.423 99.0183 100.363 98.9869 100.311C98.9556 100.259 98.9103 100.217 98.8561 100.189C98.7423 100.143 98.443 99.9277 98.3924 100.117Z" fill="#68E1FD"/>
<path d="M79.041 58.2861H77.6036L78.3202 56.9247L79.041 58.2861Z" fill="#73C6D9"/>
<path d="M85.2212 88.4835C85.477 88.5718 85.7489 88.6036 86.0181 88.5767C86.2874 88.5497 86.5476 88.4648 86.7808 88.3276C87.5944 87.8175 87.9189 86.8017 88.0454 85.8533C88.3699 83.7752 88.176 81.5243 89.272 79.7286C89.605 79.1849 90.0687 78.6327 90.0012 77.992C89.9338 77.3513 89.3057 76.875 88.9474 76.3059C88.6044 75.6558 88.421 74.9334 88.4121 74.1983C88.2899 72.8284 88.1676 71.4543 88.0412 70.0844C88.0412 70.43 86.5237 71.1676 85.9715 71.6988C86.1022 71.8336 86.2624 71.9432 86.393 72.0781C86.7336 72.501 86.9444 73.0134 87 73.5534C87.2254 74.7638 87.3564 75.9899 87.392 77.2206C87.4763 79.9141 86.4942 82.4474 85.7608 85.0397C85.4573 86.161 85.099 87.3201 85.2212 88.4835Z" fill="#6EBACC"/>
<path d="M35.4131 96.134H43.7465H44.3703L45.8203 80.8962L42.3091 81.0143L35.4131 81.2419C35.4131 81.2419 35.2866 88.0999 35.4131 96.134Z" fill="#473F47"/>
<path d="M42.1976 79.8804L42.3072 81.0311L43.7615 96.1467H44.3853H52.5332C52.6681 84.7658 51.5932 78.207 51.5932 78.207L42.1976 79.8804Z" fill="#473F47"/>
<path d="M57.701 66.2443C57.6462 67.2476 57.3216 68.1285 56.4364 68.4152C56.3643 68.4437 56.2894 68.4649 56.213 68.4784C54.607 68.7987 52.4995 67.5763 51.0284 66.5099C50.4183 66.0658 49.833 65.5888 49.2749 65.081V54.3281L57.0898 62.3369C57.5022 63.5981 57.7085 64.9175 57.701 66.2443V66.2443Z" fill="white"/>
<path d="M51.0968 66.4636C51.0968 66.9652 51.1601 67.4752 51.1601 67.981C51.1601 70.7588 50.5152 73.6251 51.3455 76.3481C51.531 76.9551 51.7923 77.6127 51.5774 78.207C51.3361 78.7068 50.9232 79.1032 50.414 79.324C47.965 80.6644 45.1366 81.0733 42.3715 81.4611C40.2934 81.7519 37.347 82.3716 35.4249 81.2503C34.6071 80.774 34.3289 79.8846 34.0676 78.9995C33.2246 76.1837 32.9927 73.153 32.7735 70.2361C32.744 69.8526 32.7188 69.4648 32.6935 69.0812C32.5333 66.42 32.4799 63.7588 32.5333 61.0977C32.5712 59.1671 32.723 57.0806 33.9833 55.618C35.6694 53.6748 38.9066 52.3892 41.3683 51.9381C42.1667 51.7757 42.9846 51.7302 43.7962 51.8032C44.9476 51.9862 46.0595 52.3639 47.084 52.9203C48.3064 53.523 49.3939 54.0331 49.9967 55.2428C50.6512 56.6466 51.1066 58.1348 51.3498 59.6645C51.5709 61.096 51.5965 62.5509 51.4256 63.9893C51.354 64.6932 51.1685 65.3929 51.1011 66.0968C51.1053 66.2191 51.0968 66.3455 51.0968 66.4636Z" fill="white"/>
<path opacity="0.1" d="M39.7604 82.2072C38.9553 82.4432 37.0964 81.7056 36.4768 81.596C36.1101 81.5328 35.7729 81.3473 35.4061 81.2588C33.5683 80.7993 33.3492 75.6315 33.1679 74.2405C32.6916 70.5649 31.9581 66.7586 31.9034 63.0704C31.8216 61.6476 31.987 60.2215 32.3923 58.8552C32.856 57.5148 33.8128 56.2755 35.149 55.7908C37.5011 54.9478 38.1966 62.3749 38.5212 63.9176L40.2873 72.3226C40.5353 73.3541 40.696 74.4046 40.7678 75.4629C40.8311 76.934 40.3463 77.992 39.9838 79.2903C39.7688 80.0237 40.359 81.4232 40.0681 81.9669C40.0011 82.0844 39.8906 82.1707 39.7604 82.2072V82.2072Z" fill="#020202"/>
<path d="M45.4202 49.6493C45.1243 49.9709 44.721 50.1733 44.2863 50.2183C43.9232 50.252 43.5577 50.252 43.1946 50.2183H42.9922C42.9397 50.2081 42.8853 50.2187 42.8405 50.2478C42.8197 50.2689 42.8034 50.2939 42.7925 50.3214C42.7816 50.349 42.7764 50.3784 42.7773 50.408C42.6978 51.1345 42.6837 51.8666 42.7351 52.5957C42.7351 52.7263 42.7562 52.857 42.7688 52.9877C42.7975 53.1286 42.7858 53.2747 42.7351 53.4092C42.6301 53.5591 42.4718 53.6632 42.2925 53.7C41.9742 53.8061 41.6416 53.863 41.3062 53.8686C40.5881 53.8008 39.8977 53.5576 39.2955 53.1605C39.3435 51.9136 39.2772 50.6649 39.0974 49.4301C38.8656 47.8367 38.4483 46.2434 38.6211 44.6417C38.6212 44.2626 38.7035 43.8881 38.8625 43.5441C39.0214 43.2 39.2532 42.8945 39.5418 42.6488C39.8304 42.4031 40.1689 42.223 40.534 42.1209C40.899 42.0189 41.2819 41.9973 41.656 42.0578C42.8049 42.0358 43.9359 42.3445 44.9143 42.9472C45.0606 43.0627 45.1796 43.2091 45.2627 43.376C45.3457 43.5429 45.3909 43.7261 45.3949 43.9124C45.5213 44.5405 45.6225 45.177 45.6899 45.8093C45.77 46.5385 45.8122 47.2677 45.8248 47.9969C45.8891 48.5782 45.7458 49.1635 45.4202 49.6493V49.6493Z" fill="#FDBAAC"/>
<path d="M44.1521 43.3223C43.3386 43.4572 42.4661 43.3223 41.6736 43.63C40.5945 44.0515 40.1351 45.472 40.4976 46.5806C40.1857 46.6944 40.1267 46.1338 39.8864 45.9062C39.6461 45.6786 39.1024 45.9821 39.0434 46.3741C39.0648 46.7666 39.1836 47.1475 39.389 47.4827C39.682 48.1719 39.7326 48.9402 39.5323 49.6619C39.4817 49.8305 39.3595 50.0328 39.1867 49.9865C39.0139 49.9401 38.8958 49.6535 38.7947 49.527C38.6406 49.3276 38.47 49.1414 38.2846 48.9706C37.9011 48.6376 37.488 48.3468 37.1002 48.0222C36.4089 47.4447 35.7682 46.6607 35.8103 45.7629C35.8323 45.3968 35.9548 45.0438 36.1644 44.7428C36.3409 44.4827 36.569 44.2617 36.8346 44.0937C36.9442 44.022 37.0707 43.9504 37.0918 43.8197C37.0977 43.7484 37.0891 43.6767 37.0665 43.6089C36.9856 43.1491 37.0374 42.6757 37.2158 42.2442C37.3942 41.8127 37.6919 41.441 38.0739 41.1726C38.8572 40.6465 39.7544 40.3142 40.6915 40.2031C41.2943 40.0935 41.897 40.0092 42.504 39.9375C43.0057 39.9147 43.4988 39.7989 43.9582 39.5961C43.8406 39.2588 43.6791 38.9385 43.4777 38.6435C43.9088 38.7703 44.3192 38.9592 44.6959 39.2041C44.675 38.9941 44.6195 38.789 44.5315 38.5971C45.2137 38.7618 45.835 39.117 46.323 39.6214C46.5767 39.9719 46.7185 40.3909 46.7297 40.8235C46.741 41.256 46.6213 41.6819 46.3862 42.0451C45.9183 42.7828 45.1806 43.0778 44.3713 43.2717L44.1521 43.3223Z" fill="#F86938"/>
<path d="M43.1953 50.2352H42.993C42.9405 50.225 42.8861 50.2356 42.8412 50.2647C42.8204 50.2857 42.8041 50.3108 42.7932 50.3383C42.7824 50.3658 42.7772 50.3953 42.778 50.4249C42.6986 51.1514 42.6845 51.8835 42.7359 52.6125V52.6125C42.7359 52.6125 40.6283 52.0814 40.7168 49.506C41.511 49.8355 42.3374 50.0814 43.1827 50.2394L43.1953 50.2352Z" fill="#DEA095"/>
<path d="M59.1594 59.0744C59.3051 60.8497 59.1411 62.6368 58.6747 64.356C58.329 65.5783 57.6777 66.6924 56.7821 67.5932C56.6215 67.7494 56.4243 67.8629 56.2086 67.9233C55.9928 67.9837 55.7654 67.989 55.547 67.9388C54.7437 67.7918 54.0067 67.3967 53.4395 66.8092C52.0021 65.2201 52.98 62.7753 52.98 62.7753C52.98 62.7753 55.9559 58.0922 56.6177 57.9025C56.976 57.793 57.701 58.1555 58.3037 58.5053C58.7632 58.7919 59.1594 59.0744 59.1594 59.0744Z" fill="white"/>
<path opacity="0.1" d="M58.9039 62.5098C58.6712 63.8673 58.3702 65.2123 58.0018 66.5395C57.9006 66.9854 57.7115 67.4067 57.4455 67.7787C56.6994 68.6934 55.3379 68.6217 54.3262 68.3014C53.9974 68.196 50.9119 66.8261 51.0384 66.51V66.4762L51.5358 63.2601C51.4936 63.5214 52.8298 64.4319 53.0069 64.5668C53.8499 65.2117 55.0892 66.2528 56.084 65.2623C56.4157 64.8855 56.6617 64.441 56.8047 63.9598C57.4328 62.2754 57.9055 60.5372 58.2168 58.7667C58.3122 58.7299 58.4139 58.7126 58.5161 58.7159C58.6182 58.7192 58.7187 58.743 58.8115 58.7858C58.9043 58.8287 58.9875 58.8897 59.0562 58.9654C59.125 59.041 59.1778 59.1297 59.2116 59.2262C59.3352 59.6215 59.3455 60.0435 59.2411 60.4443C59.1399 61.1356 59.0261 61.8269 58.9039 62.5098Z" fill="#020202"/>
<path d="M29.2193 66.9652C28.5238 68.8536 27.9084 70.8558 28.195 72.8453C28.5364 75.2606 30.1424 77.2797 31.6894 79.1681C32.9033 79.3493 34.4967 79.324 34.9266 78.1733C35.035 77.8027 35.0637 77.4134 35.0109 77.031L34.8381 74.5398C34.6951 73.4315 34.7522 72.3064 35.0067 71.2183C35.3734 70.0001 36.2164 68.9969 36.8824 67.9136C37.9692 66.1532 38.6142 64.156 38.7624 62.0925C38.9015 60.1535 37.4388 53.8982 34.581 55.7697C33.3965 56.5453 32.3469 59.7615 31.7231 61.0555C30.7901 62.9748 29.9555 64.9447 29.2193 66.9652Z" fill="white"/>
<path d="M35.659 80.8668C35.725 80.9621 35.7603 81.0754 35.7601 81.1913C35.7601 81.3051 35.6168 81.4105 35.5157 81.3599C35.2248 82.2535 35.8318 83.1893 35.8318 84.1335C35.834 84.218 35.8212 84.3022 35.7939 84.3822C35.7521 84.4854 35.6801 84.5736 35.5873 84.6351C35.4295 84.7349 35.2491 84.7934 35.0627 84.8052C34.8763 84.817 34.69 84.7817 34.5209 84.7026C34.182 84.5436 33.8793 84.317 33.6315 84.0366C33.09 83.5395 32.6765 82.9192 32.4259 82.2283C32.3388 81.9053 32.2809 81.5752 32.2531 81.2419L31.9623 78.7845C33.8085 78.1817 34.8033 79.4041 35.659 80.8668Z" fill="#FDBAAC"/>
<path d="M55.9623 55.7486C55.8928 55.5896 55.8681 55.4147 55.8907 55.2428C55.9052 55.1583 55.952 55.0829 56.0213 55.0325C56.0906 54.9821 56.1768 54.9608 56.2616 54.973C56.3628 54.9983 56.4302 55.0868 56.5187 55.1374C56.6245 55.1923 56.7445 55.2137 56.8628 55.1986C56.981 55.1836 57.0919 55.1328 57.1805 55.0531C57.3582 54.894 57.5016 54.7003 57.602 54.484C57.9337 53.9018 58.2982 53.3389 58.6937 52.798C58.7748 52.6609 58.8973 52.5531 59.0436 52.4903C59.1308 52.4717 59.2208 52.4707 59.3084 52.4873C59.396 52.504 59.4793 52.5379 59.5536 52.5872C59.9092 52.8062 60.2049 53.1098 60.4146 53.471C60.6242 53.8321 60.7411 54.2395 60.755 54.6569C60.7729 55.4959 60.525 56.3192 60.0468 57.0089C59.573 57.6967 59.0166 58.3238 58.3902 58.8762C58.2501 59.0373 58.0652 59.1532 57.8591 59.2092C56.6873 59.4031 56.1815 56.423 55.9623 55.7486Z" fill="#FDBAAC"/>
<path opacity="0.41" d="M48.325 33.3366H60.7598V44.2918H48.325V33.3366Z" fill="white"/>
</g>
<defs>
<linearGradient id="paint0_linear" x1="57.7397" y1="53.523" x2="101.046" y2="90.414" gradientUnits="userSpaceOnUse">
<stop offset="0.01"/>
<stop offset="0.13" stop-opacity="0.69"/>
<stop offset="0.25" stop-opacity="0.32"/>
<stop offset="1" stop-opacity="0"/>
</linearGradient>
<linearGradient id="paint1_linear" x1="13.687" y1="38.5634" x2="66.3464" y2="84.4086" gradientUnits="userSpaceOnUse">
<stop stop-color="white"/>
<stop offset="1" stop-color="#CBCBCB"/>
</linearGradient>
<linearGradient id="paint2_linear" x1="14728.5" y1="48.2453" x2="14728.5" y2="51.9227" gradientUnits="userSpaceOnUse">
<stop stop-color="white"/>
<stop offset="1" stop-color="#CBCBCB"/>
</linearGradient>
<linearGradient id="paint3_linear" x1="2345.67" y1="320.185" x2="2346.07" y2="326.653" gradientUnits="userSpaceOnUse">
<stop stop-color="white"/>
<stop offset="1" stop-color="#CBCBCB"/>
</linearGradient>
<linearGradient id="paint4_linear" x1="6054.41" y1="6104.66" x2="-35749.3" y2="7557.05" gradientUnits="userSpaceOnUse">
<stop offset="0.01"/>
<stop offset="0.13" stop-opacity="0.69"/>
<stop offset="0.25" stop-opacity="0.32"/>
<stop offset="1" stop-opacity="0"/>
</linearGradient>
</defs>
</svg>
